%TF.GenerationSoftware,KiCad,Pcbnew,(6.0.7)*%
%TF.CreationDate,2023-11-05T23:43:59-03:00*%
%TF.ProjectId,Puente_H,5075656e-7465-45f4-982e-6b696361645f,v1*%
%TF.SameCoordinates,Original*%
%TF.FileFunction,Legend,Top*%
%TF.FilePolarity,Positive*%
%FSLAX46Y46*%
G04 Gerber Fmt 4.6, Leading zero omitted, Abs format (unit mm)*
G04 Created by KiCad (PCBNEW (6.0.7)) date 2023-11-05 23:43:59*
%MOMM*%
%LPD*%
G01*
G04 APERTURE LIST*
%ADD10C,0.150000*%
%ADD11C,0.120000*%
G04 APERTURE END LIST*
D10*
%TO.C,J14*%
X158624476Y-109781880D02*
X158624476Y-110496166D01*
X158576857Y-110639023D01*
X158481619Y-110734261D01*
X158338761Y-110781880D01*
X158243523Y-110781880D01*
X159624476Y-110781880D02*
X159053047Y-110781880D01*
X159338761Y-110781880D02*
X159338761Y-109781880D01*
X159243523Y-109924738D01*
X159148285Y-110019976D01*
X159053047Y-110067595D01*
X160481619Y-110115214D02*
X160481619Y-110781880D01*
X160243523Y-109734261D02*
X160005428Y-110448547D01*
X160624476Y-110448547D01*
%TO.C,J13*%
X180730380Y-104535023D02*
X181444666Y-104535023D01*
X181587523Y-104582642D01*
X181682761Y-104677880D01*
X181730380Y-104820738D01*
X181730380Y-104915976D01*
X181730380Y-103535023D02*
X181730380Y-104106452D01*
X181730380Y-103820738D02*
X180730380Y-103820738D01*
X180873238Y-103915976D01*
X180968476Y-104011214D01*
X181016095Y-104106452D01*
X180730380Y-103201690D02*
X180730380Y-102582642D01*
X181111333Y-102915976D01*
X181111333Y-102773119D01*
X181158952Y-102677880D01*
X181206571Y-102630261D01*
X181301809Y-102582642D01*
X181539904Y-102582642D01*
X181635142Y-102630261D01*
X181682761Y-102677880D01*
X181730380Y-102773119D01*
X181730380Y-103058833D01*
X181682761Y-103154071D01*
X181635142Y-103201690D01*
%TO.C,J4*%
X186024666Y-36121880D02*
X186024666Y-36836166D01*
X185977047Y-36979023D01*
X185881809Y-37074261D01*
X185738952Y-37121880D01*
X185643714Y-37121880D01*
X186929428Y-36455214D02*
X186929428Y-37121880D01*
X186691333Y-36074261D02*
X186453238Y-36788547D01*
X187072285Y-36788547D01*
%TO.C,J3*%
X186102666Y-76668380D02*
X186102666Y-77382666D01*
X186055047Y-77525523D01*
X185959809Y-77620761D01*
X185816952Y-77668380D01*
X185721714Y-77668380D01*
X186483619Y-76668380D02*
X187102666Y-76668380D01*
X186769333Y-77049333D01*
X186912190Y-77049333D01*
X187007428Y-77096952D01*
X187055047Y-77144571D01*
X187102666Y-77239809D01*
X187102666Y-77477904D01*
X187055047Y-77573142D01*
X187007428Y-77620761D01*
X186912190Y-77668380D01*
X186626476Y-77668380D01*
X186531238Y-77620761D01*
X186483619Y-77573142D01*
%TO.C,Q3*%
X159084761Y-104527119D02*
X158989523Y-104479500D01*
X158894285Y-104384261D01*
X158751428Y-104241404D01*
X158656190Y-104193785D01*
X158560952Y-104193785D01*
X158608571Y-104431880D02*
X158513333Y-104384261D01*
X158418095Y-104289023D01*
X158370476Y-104098547D01*
X158370476Y-103765214D01*
X158418095Y-103574738D01*
X158513333Y-103479500D01*
X158608571Y-103431880D01*
X158799047Y-103431880D01*
X158894285Y-103479500D01*
X158989523Y-103574738D01*
X159037142Y-103765214D01*
X159037142Y-104098547D01*
X158989523Y-104289023D01*
X158894285Y-104384261D01*
X158799047Y-104431880D01*
X158608571Y-104431880D01*
X159370476Y-103431880D02*
X159989523Y-103431880D01*
X159656190Y-103812833D01*
X159799047Y-103812833D01*
X159894285Y-103860452D01*
X159941904Y-103908071D01*
X159989523Y-104003309D01*
X159989523Y-104241404D01*
X159941904Y-104336642D01*
X159894285Y-104384261D01*
X159799047Y-104431880D01*
X159513333Y-104431880D01*
X159418095Y-104384261D01*
X159370476Y-104336642D01*
%TO.C,D4*%
X123691380Y-110559595D02*
X122691380Y-110559595D01*
X122691380Y-110321500D01*
X122739000Y-110178642D01*
X122834238Y-110083404D01*
X122929476Y-110035785D01*
X123119952Y-109988166D01*
X123262809Y-109988166D01*
X123453285Y-110035785D01*
X123548523Y-110083404D01*
X123643761Y-110178642D01*
X123691380Y-110321500D01*
X123691380Y-110559595D01*
X123024714Y-109131023D02*
X123691380Y-109131023D01*
X122643761Y-109369119D02*
X123358047Y-109607214D01*
X123358047Y-108988166D01*
%TO.C,R15*%
X118568380Y-58394357D02*
X118092190Y-58727690D01*
X118568380Y-58965785D02*
X117568380Y-58965785D01*
X117568380Y-58584833D01*
X117616000Y-58489595D01*
X117663619Y-58441976D01*
X117758857Y-58394357D01*
X117901714Y-58394357D01*
X117996952Y-58441976D01*
X118044571Y-58489595D01*
X118092190Y-58584833D01*
X118092190Y-58965785D01*
X118568380Y-57441976D02*
X118568380Y-58013404D01*
X118568380Y-57727690D02*
X117568380Y-57727690D01*
X117711238Y-57822928D01*
X117806476Y-57918166D01*
X117854095Y-58013404D01*
X117568380Y-56537214D02*
X117568380Y-57013404D01*
X118044571Y-57061023D01*
X117996952Y-57013404D01*
X117949333Y-56918166D01*
X117949333Y-56680071D01*
X117996952Y-56584833D01*
X118044571Y-56537214D01*
X118139809Y-56489595D01*
X118377904Y-56489595D01*
X118473142Y-56537214D01*
X118520761Y-56584833D01*
X118568380Y-56680071D01*
X118568380Y-56918166D01*
X118520761Y-57013404D01*
X118473142Y-57061023D01*
%TO.C,R10*%
X87671142Y-38137880D02*
X87337809Y-37661690D01*
X87099714Y-38137880D02*
X87099714Y-37137880D01*
X87480666Y-37137880D01*
X87575904Y-37185500D01*
X87623523Y-37233119D01*
X87671142Y-37328357D01*
X87671142Y-37471214D01*
X87623523Y-37566452D01*
X87575904Y-37614071D01*
X87480666Y-37661690D01*
X87099714Y-37661690D01*
X88623523Y-38137880D02*
X88052095Y-38137880D01*
X88337809Y-38137880D02*
X88337809Y-37137880D01*
X88242571Y-37280738D01*
X88147333Y-37375976D01*
X88052095Y-37423595D01*
X89242571Y-37137880D02*
X89337809Y-37137880D01*
X89433047Y-37185500D01*
X89480666Y-37233119D01*
X89528285Y-37328357D01*
X89575904Y-37518833D01*
X89575904Y-37756928D01*
X89528285Y-37947404D01*
X89480666Y-38042642D01*
X89433047Y-38090261D01*
X89337809Y-38137880D01*
X89242571Y-38137880D01*
X89147333Y-38090261D01*
X89099714Y-38042642D01*
X89052095Y-37947404D01*
X89004476Y-37756928D01*
X89004476Y-37518833D01*
X89052095Y-37328357D01*
X89099714Y-37233119D01*
X89147333Y-37185500D01*
X89242571Y-37137880D01*
%TO.C,C8*%
X112023333Y-94430642D02*
X111975714Y-94478261D01*
X111832857Y-94525880D01*
X111737619Y-94525880D01*
X111594761Y-94478261D01*
X111499523Y-94383023D01*
X111451904Y-94287785D01*
X111404285Y-94097309D01*
X111404285Y-93954452D01*
X111451904Y-93763976D01*
X111499523Y-93668738D01*
X111594761Y-93573500D01*
X111737619Y-93525880D01*
X111832857Y-93525880D01*
X111975714Y-93573500D01*
X112023333Y-93621119D01*
X112594761Y-93954452D02*
X112499523Y-93906833D01*
X112451904Y-93859214D01*
X112404285Y-93763976D01*
X112404285Y-93716357D01*
X112451904Y-93621119D01*
X112499523Y-93573500D01*
X112594761Y-93525880D01*
X112785238Y-93525880D01*
X112880476Y-93573500D01*
X112928095Y-93621119D01*
X112975714Y-93716357D01*
X112975714Y-93763976D01*
X112928095Y-93859214D01*
X112880476Y-93906833D01*
X112785238Y-93954452D01*
X112594761Y-93954452D01*
X112499523Y-94002071D01*
X112451904Y-94049690D01*
X112404285Y-94144928D01*
X112404285Y-94335404D01*
X112451904Y-94430642D01*
X112499523Y-94478261D01*
X112594761Y-94525880D01*
X112785238Y-94525880D01*
X112880476Y-94478261D01*
X112928095Y-94430642D01*
X112975714Y-94335404D01*
X112975714Y-94144928D01*
X112928095Y-94049690D01*
X112880476Y-94002071D01*
X112785238Y-93954452D01*
%TO.C,J7*%
X96108666Y-80825880D02*
X96108666Y-81540166D01*
X96061047Y-81683023D01*
X95965809Y-81778261D01*
X95822952Y-81825880D01*
X95727714Y-81825880D01*
X96489619Y-80825880D02*
X97156285Y-80825880D01*
X96727714Y-81825880D01*
%TO.C,D6*%
X110092380Y-40836595D02*
X109092380Y-40836595D01*
X109092380Y-40598500D01*
X109140000Y-40455642D01*
X109235238Y-40360404D01*
X109330476Y-40312785D01*
X109520952Y-40265166D01*
X109663809Y-40265166D01*
X109854285Y-40312785D01*
X109949523Y-40360404D01*
X110044761Y-40455642D01*
X110092380Y-40598500D01*
X110092380Y-40836595D01*
X109092380Y-39408023D02*
X109092380Y-39598500D01*
X109140000Y-39693738D01*
X109187619Y-39741357D01*
X109330476Y-39836595D01*
X109520952Y-39884214D01*
X109901904Y-39884214D01*
X109997142Y-39836595D01*
X110044761Y-39788976D01*
X110092380Y-39693738D01*
X110092380Y-39503261D01*
X110044761Y-39408023D01*
X109997142Y-39360404D01*
X109901904Y-39312785D01*
X109663809Y-39312785D01*
X109568571Y-39360404D01*
X109520952Y-39408023D01*
X109473333Y-39503261D01*
X109473333Y-39693738D01*
X109520952Y-39788976D01*
X109568571Y-39836595D01*
X109663809Y-39884214D01*
%TO.C,U3*%
X102919095Y-51732880D02*
X102919095Y-52542404D01*
X102966714Y-52637642D01*
X103014333Y-52685261D01*
X103109571Y-52732880D01*
X103300047Y-52732880D01*
X103395285Y-52685261D01*
X103442904Y-52637642D01*
X103490523Y-52542404D01*
X103490523Y-51732880D01*
X103871476Y-51732880D02*
X104490523Y-51732880D01*
X104157190Y-52113833D01*
X104300047Y-52113833D01*
X104395285Y-52161452D01*
X104442904Y-52209071D01*
X104490523Y-52304309D01*
X104490523Y-52542404D01*
X104442904Y-52637642D01*
X104395285Y-52685261D01*
X104300047Y-52732880D01*
X104014333Y-52732880D01*
X103919095Y-52685261D01*
X103871476Y-52637642D01*
%TO.C,U6*%
X104287095Y-84889880D02*
X104287095Y-85699404D01*
X104334714Y-85794642D01*
X104382333Y-85842261D01*
X104477571Y-85889880D01*
X104668047Y-85889880D01*
X104763285Y-85842261D01*
X104810904Y-85794642D01*
X104858523Y-85699404D01*
X104858523Y-84889880D01*
X105763285Y-84889880D02*
X105572809Y-84889880D01*
X105477571Y-84937500D01*
X105429952Y-84985119D01*
X105334714Y-85127976D01*
X105287095Y-85318452D01*
X105287095Y-85699404D01*
X105334714Y-85794642D01*
X105382333Y-85842261D01*
X105477571Y-85889880D01*
X105668047Y-85889880D01*
X105763285Y-85842261D01*
X105810904Y-85794642D01*
X105858523Y-85699404D01*
X105858523Y-85461309D01*
X105810904Y-85366071D01*
X105763285Y-85318452D01*
X105668047Y-85270833D01*
X105477571Y-85270833D01*
X105382333Y-85318452D01*
X105334714Y-85366071D01*
X105287095Y-85461309D01*
%TO.C,U4*%
X85007095Y-107270880D02*
X85007095Y-108080404D01*
X85054714Y-108175642D01*
X85102333Y-108223261D01*
X85197571Y-108270880D01*
X85388047Y-108270880D01*
X85483285Y-108223261D01*
X85530904Y-108175642D01*
X85578523Y-108080404D01*
X85578523Y-107270880D01*
X86483285Y-107604214D02*
X86483285Y-108270880D01*
X86245190Y-107223261D02*
X86007095Y-107937547D01*
X86626142Y-107937547D01*
%TO.C,D1*%
X163394904Y-68617880D02*
X163394904Y-67617880D01*
X163633000Y-67617880D01*
X163775857Y-67665500D01*
X163871095Y-67760738D01*
X163918714Y-67855976D01*
X163966333Y-68046452D01*
X163966333Y-68189309D01*
X163918714Y-68379785D01*
X163871095Y-68475023D01*
X163775857Y-68570261D01*
X163633000Y-68617880D01*
X163394904Y-68617880D01*
X164918714Y-68617880D02*
X164347285Y-68617880D01*
X164633000Y-68617880D02*
X164633000Y-67617880D01*
X164537761Y-67760738D01*
X164442523Y-67855976D01*
X164347285Y-67903595D01*
%TO.C,J10*%
X178436476Y-108997880D02*
X178436476Y-109712166D01*
X178388857Y-109855023D01*
X178293619Y-109950261D01*
X178150761Y-109997880D01*
X178055523Y-109997880D01*
X179436476Y-109997880D02*
X178865047Y-109997880D01*
X179150761Y-109997880D02*
X179150761Y-108997880D01*
X179055523Y-109140738D01*
X178960285Y-109235976D01*
X178865047Y-109283595D01*
X180055523Y-108997880D02*
X180150761Y-108997880D01*
X180246000Y-109045500D01*
X180293619Y-109093119D01*
X180341238Y-109188357D01*
X180388857Y-109378833D01*
X180388857Y-109616928D01*
X180341238Y-109807404D01*
X180293619Y-109902642D01*
X180246000Y-109950261D01*
X180150761Y-109997880D01*
X180055523Y-109997880D01*
X179960285Y-109950261D01*
X179912666Y-109902642D01*
X179865047Y-109807404D01*
X179817428Y-109616928D01*
X179817428Y-109378833D01*
X179865047Y-109188357D01*
X179912666Y-109093119D01*
X179960285Y-109045500D01*
X180055523Y-108997880D01*
%TO.C,D12*%
X116055714Y-91477880D02*
X116055714Y-90477880D01*
X116293809Y-90477880D01*
X116436666Y-90525500D01*
X116531904Y-90620738D01*
X116579523Y-90715976D01*
X116627142Y-90906452D01*
X116627142Y-91049309D01*
X116579523Y-91239785D01*
X116531904Y-91335023D01*
X116436666Y-91430261D01*
X116293809Y-91477880D01*
X116055714Y-91477880D01*
X117579523Y-91477880D02*
X117008095Y-91477880D01*
X117293809Y-91477880D02*
X117293809Y-90477880D01*
X117198571Y-90620738D01*
X117103333Y-90715976D01*
X117008095Y-90763595D01*
X117960476Y-90573119D02*
X118008095Y-90525500D01*
X118103333Y-90477880D01*
X118341428Y-90477880D01*
X118436666Y-90525500D01*
X118484285Y-90573119D01*
X118531904Y-90668357D01*
X118531904Y-90763595D01*
X118484285Y-90906452D01*
X117912857Y-91477880D01*
X118531904Y-91477880D01*
%TO.C,J12*%
X176912476Y-101885880D02*
X176912476Y-102600166D01*
X176864857Y-102743023D01*
X176769619Y-102838261D01*
X176626761Y-102885880D01*
X176531523Y-102885880D01*
X177912476Y-102885880D02*
X177341047Y-102885880D01*
X177626761Y-102885880D02*
X177626761Y-101885880D01*
X177531523Y-102028738D01*
X177436285Y-102123976D01*
X177341047Y-102171595D01*
X178293428Y-101981119D02*
X178341047Y-101933500D01*
X178436285Y-101885880D01*
X178674380Y-101885880D01*
X178769619Y-101933500D01*
X178817238Y-101981119D01*
X178864857Y-102076357D01*
X178864857Y-102171595D01*
X178817238Y-102314452D01*
X178245809Y-102885880D01*
X178864857Y-102885880D01*
%TO.C,R1*%
X168352380Y-84588166D02*
X167876190Y-84921500D01*
X168352380Y-85159595D02*
X167352380Y-85159595D01*
X167352380Y-84778642D01*
X167400000Y-84683404D01*
X167447619Y-84635785D01*
X167542857Y-84588166D01*
X167685714Y-84588166D01*
X167780952Y-84635785D01*
X167828571Y-84683404D01*
X167876190Y-84778642D01*
X167876190Y-85159595D01*
X168352380Y-83635785D02*
X168352380Y-84207214D01*
X168352380Y-83921500D02*
X167352380Y-83921500D01*
X167495238Y-84016738D01*
X167590476Y-84111976D01*
X167638095Y-84207214D01*
%TO.C,C3*%
X167438579Y-48710642D02*
X167390960Y-48758261D01*
X167248103Y-48805880D01*
X167152865Y-48805880D01*
X167010007Y-48758261D01*
X166914769Y-48663023D01*
X166867150Y-48567785D01*
X166819531Y-48377309D01*
X166819531Y-48234452D01*
X166867150Y-48043976D01*
X166914769Y-47948738D01*
X167010007Y-47853500D01*
X167152865Y-47805880D01*
X167248103Y-47805880D01*
X167390960Y-47853500D01*
X167438579Y-47901119D01*
X167771912Y-47805880D02*
X168390960Y-47805880D01*
X168057626Y-48186833D01*
X168200484Y-48186833D01*
X168295722Y-48234452D01*
X168343341Y-48282071D01*
X168390960Y-48377309D01*
X168390960Y-48615404D01*
X168343341Y-48710642D01*
X168295722Y-48758261D01*
X168200484Y-48805880D01*
X167914769Y-48805880D01*
X167819531Y-48758261D01*
X167771912Y-48710642D01*
%TO.C,D3*%
X147646904Y-89445880D02*
X147646904Y-88445880D01*
X147885000Y-88445880D01*
X148027857Y-88493500D01*
X148123095Y-88588738D01*
X148170714Y-88683976D01*
X148218333Y-88874452D01*
X148218333Y-89017309D01*
X148170714Y-89207785D01*
X148123095Y-89303023D01*
X148027857Y-89398261D01*
X147885000Y-89445880D01*
X147646904Y-89445880D01*
X148551666Y-88445880D02*
X149170714Y-88445880D01*
X148837380Y-88826833D01*
X148980238Y-88826833D01*
X149075476Y-88874452D01*
X149123095Y-88922071D01*
X149170714Y-89017309D01*
X149170714Y-89255404D01*
X149123095Y-89350642D01*
X149075476Y-89398261D01*
X148980238Y-89445880D01*
X148694523Y-89445880D01*
X148599285Y-89398261D01*
X148551666Y-89350642D01*
%TO.C,C9*%
X112023333Y-99002642D02*
X111975714Y-99050261D01*
X111832857Y-99097880D01*
X111737619Y-99097880D01*
X111594761Y-99050261D01*
X111499523Y-98955023D01*
X111451904Y-98859785D01*
X111404285Y-98669309D01*
X111404285Y-98526452D01*
X111451904Y-98335976D01*
X111499523Y-98240738D01*
X111594761Y-98145500D01*
X111737619Y-98097880D01*
X111832857Y-98097880D01*
X111975714Y-98145500D01*
X112023333Y-98193119D01*
X112499523Y-99097880D02*
X112690000Y-99097880D01*
X112785238Y-99050261D01*
X112832857Y-99002642D01*
X112928095Y-98859785D01*
X112975714Y-98669309D01*
X112975714Y-98288357D01*
X112928095Y-98193119D01*
X112880476Y-98145500D01*
X112785238Y-98097880D01*
X112594761Y-98097880D01*
X112499523Y-98145500D01*
X112451904Y-98193119D01*
X112404285Y-98288357D01*
X112404285Y-98526452D01*
X112451904Y-98621690D01*
X112499523Y-98669309D01*
X112594761Y-98716928D01*
X112785238Y-98716928D01*
X112880476Y-98669309D01*
X112928095Y-98621690D01*
X112975714Y-98526452D01*
%TO.C,R8*%
X130311333Y-98843880D02*
X129978000Y-98367690D01*
X129739904Y-98843880D02*
X129739904Y-97843880D01*
X130120857Y-97843880D01*
X130216095Y-97891500D01*
X130263714Y-97939119D01*
X130311333Y-98034357D01*
X130311333Y-98177214D01*
X130263714Y-98272452D01*
X130216095Y-98320071D01*
X130120857Y-98367690D01*
X129739904Y-98367690D01*
X130882761Y-98272452D02*
X130787523Y-98224833D01*
X130739904Y-98177214D01*
X130692285Y-98081976D01*
X130692285Y-98034357D01*
X130739904Y-97939119D01*
X130787523Y-97891500D01*
X130882761Y-97843880D01*
X131073238Y-97843880D01*
X131168476Y-97891500D01*
X131216095Y-97939119D01*
X131263714Y-98034357D01*
X131263714Y-98081976D01*
X131216095Y-98177214D01*
X131168476Y-98224833D01*
X131073238Y-98272452D01*
X130882761Y-98272452D01*
X130787523Y-98320071D01*
X130739904Y-98367690D01*
X130692285Y-98462928D01*
X130692285Y-98653404D01*
X130739904Y-98748642D01*
X130787523Y-98796261D01*
X130882761Y-98843880D01*
X131073238Y-98843880D01*
X131168476Y-98796261D01*
X131216095Y-98748642D01*
X131263714Y-98653404D01*
X131263714Y-98462928D01*
X131216095Y-98367690D01*
X131168476Y-98320071D01*
X131073238Y-98272452D01*
%TO.C,R7*%
X82051333Y-54901880D02*
X81718000Y-54425690D01*
X81479904Y-54901880D02*
X81479904Y-53901880D01*
X81860857Y-53901880D01*
X81956095Y-53949500D01*
X82003714Y-53997119D01*
X82051333Y-54092357D01*
X82051333Y-54235214D01*
X82003714Y-54330452D01*
X81956095Y-54378071D01*
X81860857Y-54425690D01*
X81479904Y-54425690D01*
X82384666Y-53901880D02*
X83051333Y-53901880D01*
X82622761Y-54901880D01*
%TO.C,R23*%
X98847142Y-92663880D02*
X98513809Y-92187690D01*
X98275714Y-92663880D02*
X98275714Y-91663880D01*
X98656666Y-91663880D01*
X98751904Y-91711500D01*
X98799523Y-91759119D01*
X98847142Y-91854357D01*
X98847142Y-91997214D01*
X98799523Y-92092452D01*
X98751904Y-92140071D01*
X98656666Y-92187690D01*
X98275714Y-92187690D01*
X99228095Y-91759119D02*
X99275714Y-91711500D01*
X99370952Y-91663880D01*
X99609047Y-91663880D01*
X99704285Y-91711500D01*
X99751904Y-91759119D01*
X99799523Y-91854357D01*
X99799523Y-91949595D01*
X99751904Y-92092452D01*
X99180476Y-92663880D01*
X99799523Y-92663880D01*
X100132857Y-91663880D02*
X100751904Y-91663880D01*
X100418571Y-92044833D01*
X100561428Y-92044833D01*
X100656666Y-92092452D01*
X100704285Y-92140071D01*
X100751904Y-92235309D01*
X100751904Y-92473404D01*
X100704285Y-92568642D01*
X100656666Y-92616261D01*
X100561428Y-92663880D01*
X100275714Y-92663880D01*
X100180476Y-92616261D01*
X100132857Y-92568642D01*
%TO.C,R18*%
X98847142Y-99097880D02*
X98513809Y-98621690D01*
X98275714Y-99097880D02*
X98275714Y-98097880D01*
X98656666Y-98097880D01*
X98751904Y-98145500D01*
X98799523Y-98193119D01*
X98847142Y-98288357D01*
X98847142Y-98431214D01*
X98799523Y-98526452D01*
X98751904Y-98574071D01*
X98656666Y-98621690D01*
X98275714Y-98621690D01*
X99799523Y-99097880D02*
X99228095Y-99097880D01*
X99513809Y-99097880D02*
X99513809Y-98097880D01*
X99418571Y-98240738D01*
X99323333Y-98335976D01*
X99228095Y-98383595D01*
X100370952Y-98526452D02*
X100275714Y-98478833D01*
X100228095Y-98431214D01*
X100180476Y-98335976D01*
X100180476Y-98288357D01*
X100228095Y-98193119D01*
X100275714Y-98145500D01*
X100370952Y-98097880D01*
X100561428Y-98097880D01*
X100656666Y-98145500D01*
X100704285Y-98193119D01*
X100751904Y-98288357D01*
X100751904Y-98335976D01*
X100704285Y-98431214D01*
X100656666Y-98478833D01*
X100561428Y-98526452D01*
X100370952Y-98526452D01*
X100275714Y-98574071D01*
X100228095Y-98621690D01*
X100180476Y-98716928D01*
X100180476Y-98907404D01*
X100228095Y-99002642D01*
X100275714Y-99050261D01*
X100370952Y-99097880D01*
X100561428Y-99097880D01*
X100656666Y-99050261D01*
X100704285Y-99002642D01*
X100751904Y-98907404D01*
X100751904Y-98716928D01*
X100704285Y-98621690D01*
X100656666Y-98574071D01*
X100561428Y-98526452D01*
%TO.C,U1*%
X143940095Y-92636880D02*
X143940095Y-93446404D01*
X143987714Y-93541642D01*
X144035333Y-93589261D01*
X144130571Y-93636880D01*
X144321047Y-93636880D01*
X144416285Y-93589261D01*
X144463904Y-93541642D01*
X144511523Y-93446404D01*
X144511523Y-92636880D01*
X145511523Y-93636880D02*
X144940095Y-93636880D01*
X145225809Y-93636880D02*
X145225809Y-92636880D01*
X145130571Y-92779738D01*
X145035333Y-92874976D01*
X144940095Y-92922595D01*
%TO.C,R4*%
X166887333Y-40677880D02*
X166554000Y-40201690D01*
X166315904Y-40677880D02*
X166315904Y-39677880D01*
X166696857Y-39677880D01*
X166792095Y-39725500D01*
X166839714Y-39773119D01*
X166887333Y-39868357D01*
X166887333Y-40011214D01*
X166839714Y-40106452D01*
X166792095Y-40154071D01*
X166696857Y-40201690D01*
X166315904Y-40201690D01*
X167744476Y-40011214D02*
X167744476Y-40677880D01*
X167506380Y-39630261D02*
X167268285Y-40344547D01*
X167887333Y-40344547D01*
%TO.C,C2*%
X169427333Y-63442642D02*
X169379714Y-63490261D01*
X169236857Y-63537880D01*
X169141619Y-63537880D01*
X168998761Y-63490261D01*
X168903523Y-63395023D01*
X168855904Y-63299785D01*
X168808285Y-63109309D01*
X168808285Y-62966452D01*
X168855904Y-62775976D01*
X168903523Y-62680738D01*
X168998761Y-62585500D01*
X169141619Y-62537880D01*
X169236857Y-62537880D01*
X169379714Y-62585500D01*
X169427333Y-62633119D01*
X169808285Y-62633119D02*
X169855904Y-62585500D01*
X169951142Y-62537880D01*
X170189238Y-62537880D01*
X170284476Y-62585500D01*
X170332095Y-62633119D01*
X170379714Y-62728357D01*
X170379714Y-62823595D01*
X170332095Y-62966452D01*
X169760666Y-63537880D01*
X170379714Y-63537880D01*
%TO.C,R29*%
X94275142Y-67093880D02*
X93941809Y-66617690D01*
X93703714Y-67093880D02*
X93703714Y-66093880D01*
X94084666Y-66093880D01*
X94179904Y-66141500D01*
X94227523Y-66189119D01*
X94275142Y-66284357D01*
X94275142Y-66427214D01*
X94227523Y-66522452D01*
X94179904Y-66570071D01*
X94084666Y-66617690D01*
X93703714Y-66617690D01*
X94656095Y-66189119D02*
X94703714Y-66141500D01*
X94798952Y-66093880D01*
X95037047Y-66093880D01*
X95132285Y-66141500D01*
X95179904Y-66189119D01*
X95227523Y-66284357D01*
X95227523Y-66379595D01*
X95179904Y-66522452D01*
X94608476Y-67093880D01*
X95227523Y-67093880D01*
X95703714Y-67093880D02*
X95894190Y-67093880D01*
X95989428Y-67046261D01*
X96037047Y-66998642D01*
X96132285Y-66855785D01*
X96179904Y-66665309D01*
X96179904Y-66284357D01*
X96132285Y-66189119D01*
X96084666Y-66141500D01*
X95989428Y-66093880D01*
X95798952Y-66093880D01*
X95703714Y-66141500D01*
X95656095Y-66189119D01*
X95608476Y-66284357D01*
X95608476Y-66522452D01*
X95656095Y-66617690D01*
X95703714Y-66665309D01*
X95798952Y-66712928D01*
X95989428Y-66712928D01*
X96084666Y-66665309D01*
X96132285Y-66617690D01*
X96179904Y-66522452D01*
%TO.C,R2*%
X157516380Y-86112166D02*
X157040190Y-86445500D01*
X157516380Y-86683595D02*
X156516380Y-86683595D01*
X156516380Y-86302642D01*
X156564000Y-86207404D01*
X156611619Y-86159785D01*
X156706857Y-86112166D01*
X156849714Y-86112166D01*
X156944952Y-86159785D01*
X156992571Y-86207404D01*
X157040190Y-86302642D01*
X157040190Y-86683595D01*
X156611619Y-85731214D02*
X156564000Y-85683595D01*
X156516380Y-85588357D01*
X156516380Y-85350261D01*
X156564000Y-85255023D01*
X156611619Y-85207404D01*
X156706857Y-85159785D01*
X156802095Y-85159785D01*
X156944952Y-85207404D01*
X157516380Y-85778833D01*
X157516380Y-85159785D01*
%TO.C,R11*%
X86597642Y-47291880D02*
X86264309Y-46815690D01*
X86026214Y-47291880D02*
X86026214Y-46291880D01*
X86407166Y-46291880D01*
X86502404Y-46339500D01*
X86550023Y-46387119D01*
X86597642Y-46482357D01*
X86597642Y-46625214D01*
X86550023Y-46720452D01*
X86502404Y-46768071D01*
X86407166Y-46815690D01*
X86026214Y-46815690D01*
X87550023Y-47291880D02*
X86978595Y-47291880D01*
X87264309Y-47291880D02*
X87264309Y-46291880D01*
X87169071Y-46434738D01*
X87073833Y-46529976D01*
X86978595Y-46577595D01*
X88502404Y-47291880D02*
X87930976Y-47291880D01*
X88216690Y-47291880D02*
X88216690Y-46291880D01*
X88121452Y-46434738D01*
X88026214Y-46529976D01*
X87930976Y-46577595D01*
%TO.C,R6*%
X83575333Y-47281880D02*
X83242000Y-46805690D01*
X83003904Y-47281880D02*
X83003904Y-46281880D01*
X83384857Y-46281880D01*
X83480095Y-46329500D01*
X83527714Y-46377119D01*
X83575333Y-46472357D01*
X83575333Y-46615214D01*
X83527714Y-46710452D01*
X83480095Y-46758071D01*
X83384857Y-46805690D01*
X83003904Y-46805690D01*
X84432476Y-46281880D02*
X84242000Y-46281880D01*
X84146761Y-46329500D01*
X84099142Y-46377119D01*
X84003904Y-46519976D01*
X83956285Y-46710452D01*
X83956285Y-47091404D01*
X84003904Y-47186642D01*
X84051523Y-47234261D01*
X84146761Y-47281880D01*
X84337238Y-47281880D01*
X84432476Y-47234261D01*
X84480095Y-47186642D01*
X84527714Y-47091404D01*
X84527714Y-46853309D01*
X84480095Y-46758071D01*
X84432476Y-46710452D01*
X84337238Y-46662833D01*
X84146761Y-46662833D01*
X84051523Y-46710452D01*
X84003904Y-46758071D01*
X83956285Y-46853309D01*
%TO.C,R17*%
X96053142Y-108411880D02*
X95719809Y-107935690D01*
X95481714Y-108411880D02*
X95481714Y-107411880D01*
X95862666Y-107411880D01*
X95957904Y-107459500D01*
X96005523Y-107507119D01*
X96053142Y-107602357D01*
X96053142Y-107745214D01*
X96005523Y-107840452D01*
X95957904Y-107888071D01*
X95862666Y-107935690D01*
X95481714Y-107935690D01*
X97005523Y-108411880D02*
X96434095Y-108411880D01*
X96719809Y-108411880D02*
X96719809Y-107411880D01*
X96624571Y-107554738D01*
X96529333Y-107649976D01*
X96434095Y-107697595D01*
X97338857Y-107411880D02*
X98005523Y-107411880D01*
X97576952Y-108411880D01*
%TO.C,R24*%
X112055142Y-65061880D02*
X111721809Y-64585690D01*
X111483714Y-65061880D02*
X111483714Y-64061880D01*
X111864666Y-64061880D01*
X111959904Y-64109500D01*
X112007523Y-64157119D01*
X112055142Y-64252357D01*
X112055142Y-64395214D01*
X112007523Y-64490452D01*
X111959904Y-64538071D01*
X111864666Y-64585690D01*
X111483714Y-64585690D01*
X112436095Y-64157119D02*
X112483714Y-64109500D01*
X112578952Y-64061880D01*
X112817047Y-64061880D01*
X112912285Y-64109500D01*
X112959904Y-64157119D01*
X113007523Y-64252357D01*
X113007523Y-64347595D01*
X112959904Y-64490452D01*
X112388476Y-65061880D01*
X113007523Y-65061880D01*
X113864666Y-64395214D02*
X113864666Y-65061880D01*
X113626571Y-64014261D02*
X113388476Y-64728547D01*
X114007523Y-64728547D01*
%TO.C,R25*%
X112563142Y-91477880D02*
X112229809Y-91001690D01*
X111991714Y-91477880D02*
X111991714Y-90477880D01*
X112372666Y-90477880D01*
X112467904Y-90525500D01*
X112515523Y-90573119D01*
X112563142Y-90668357D01*
X112563142Y-90811214D01*
X112515523Y-90906452D01*
X112467904Y-90954071D01*
X112372666Y-91001690D01*
X111991714Y-91001690D01*
X112944095Y-90573119D02*
X112991714Y-90525500D01*
X113086952Y-90477880D01*
X113325047Y-90477880D01*
X113420285Y-90525500D01*
X113467904Y-90573119D01*
X113515523Y-90668357D01*
X113515523Y-90763595D01*
X113467904Y-90906452D01*
X112896476Y-91477880D01*
X113515523Y-91477880D01*
X114420285Y-90477880D02*
X113944095Y-90477880D01*
X113896476Y-90954071D01*
X113944095Y-90906452D01*
X114039333Y-90858833D01*
X114277428Y-90858833D01*
X114372666Y-90906452D01*
X114420285Y-90954071D01*
X114467904Y-91049309D01*
X114467904Y-91287404D01*
X114420285Y-91382642D01*
X114372666Y-91430261D01*
X114277428Y-91477880D01*
X114039333Y-91477880D01*
X113944095Y-91430261D01*
X113896476Y-91382642D01*
%TO.C,R3*%
X132343333Y-36932880D02*
X132010000Y-36456690D01*
X131771904Y-36932880D02*
X131771904Y-35932880D01*
X132152857Y-35932880D01*
X132248095Y-35980500D01*
X132295714Y-36028119D01*
X132343333Y-36123357D01*
X132343333Y-36266214D01*
X132295714Y-36361452D01*
X132248095Y-36409071D01*
X132152857Y-36456690D01*
X131771904Y-36456690D01*
X132676666Y-35932880D02*
X133295714Y-35932880D01*
X132962380Y-36313833D01*
X133105238Y-36313833D01*
X133200476Y-36361452D01*
X133248095Y-36409071D01*
X133295714Y-36504309D01*
X133295714Y-36742404D01*
X133248095Y-36837642D01*
X133200476Y-36885261D01*
X133105238Y-36932880D01*
X132819523Y-36932880D01*
X132724285Y-36885261D01*
X132676666Y-36837642D01*
%TO.C,R19*%
X100371142Y-107225880D02*
X100037809Y-106749690D01*
X99799714Y-107225880D02*
X99799714Y-106225880D01*
X100180666Y-106225880D01*
X100275904Y-106273500D01*
X100323523Y-106321119D01*
X100371142Y-106416357D01*
X100371142Y-106559214D01*
X100323523Y-106654452D01*
X100275904Y-106702071D01*
X100180666Y-106749690D01*
X99799714Y-106749690D01*
X101323523Y-107225880D02*
X100752095Y-107225880D01*
X101037809Y-107225880D02*
X101037809Y-106225880D01*
X100942571Y-106368738D01*
X100847333Y-106463976D01*
X100752095Y-106511595D01*
X101799714Y-107225880D02*
X101990190Y-107225880D01*
X102085428Y-107178261D01*
X102133047Y-107130642D01*
X102228285Y-106987785D01*
X102275904Y-106797309D01*
X102275904Y-106416357D01*
X102228285Y-106321119D01*
X102180666Y-106273500D01*
X102085428Y-106225880D01*
X101894952Y-106225880D01*
X101799714Y-106273500D01*
X101752095Y-106321119D01*
X101704476Y-106416357D01*
X101704476Y-106654452D01*
X101752095Y-106749690D01*
X101799714Y-106797309D01*
X101894952Y-106844928D01*
X102085428Y-106844928D01*
X102180666Y-106797309D01*
X102228285Y-106749690D01*
X102275904Y-106654452D01*
%TO.C,Q2*%
X78566761Y-54997119D02*
X78471523Y-54949500D01*
X78376285Y-54854261D01*
X78233428Y-54711404D01*
X78138190Y-54663785D01*
X78042952Y-54663785D01*
X78090571Y-54901880D02*
X77995333Y-54854261D01*
X77900095Y-54759023D01*
X77852476Y-54568547D01*
X77852476Y-54235214D01*
X77900095Y-54044738D01*
X77995333Y-53949500D01*
X78090571Y-53901880D01*
X78281047Y-53901880D01*
X78376285Y-53949500D01*
X78471523Y-54044738D01*
X78519142Y-54235214D01*
X78519142Y-54568547D01*
X78471523Y-54759023D01*
X78376285Y-54854261D01*
X78281047Y-54901880D01*
X78090571Y-54901880D01*
X78900095Y-53997119D02*
X78947714Y-53949500D01*
X79042952Y-53901880D01*
X79281047Y-53901880D01*
X79376285Y-53949500D01*
X79423904Y-53997119D01*
X79471523Y-54092357D01*
X79471523Y-54187595D01*
X79423904Y-54330452D01*
X78852476Y-54901880D01*
X79471523Y-54901880D01*
%TO.C,Q7*%
X121746761Y-83953119D02*
X121651523Y-83905500D01*
X121556285Y-83810261D01*
X121413428Y-83667404D01*
X121318190Y-83619785D01*
X121222952Y-83619785D01*
X121270571Y-83857880D02*
X121175333Y-83810261D01*
X121080095Y-83715023D01*
X121032476Y-83524547D01*
X121032476Y-83191214D01*
X121080095Y-83000738D01*
X121175333Y-82905500D01*
X121270571Y-82857880D01*
X121461047Y-82857880D01*
X121556285Y-82905500D01*
X121651523Y-83000738D01*
X121699142Y-83191214D01*
X121699142Y-83524547D01*
X121651523Y-83715023D01*
X121556285Y-83810261D01*
X121461047Y-83857880D01*
X121270571Y-83857880D01*
X122032476Y-82857880D02*
X122699142Y-82857880D01*
X122270571Y-83857880D01*
%TO.C,J2*%
X124556666Y-93525880D02*
X124556666Y-94240166D01*
X124509047Y-94383023D01*
X124413809Y-94478261D01*
X124270952Y-94525880D01*
X124175714Y-94525880D01*
X124985238Y-93621119D02*
X125032857Y-93573500D01*
X125128095Y-93525880D01*
X125366190Y-93525880D01*
X125461428Y-93573500D01*
X125509047Y-93621119D01*
X125556666Y-93716357D01*
X125556666Y-93811595D01*
X125509047Y-93954452D01*
X124937619Y-94525880D01*
X125556666Y-94525880D01*
%TO.C,J1*%
X124556666Y-103685880D02*
X124556666Y-104400166D01*
X124509047Y-104543023D01*
X124413809Y-104638261D01*
X124270952Y-104685880D01*
X124175714Y-104685880D01*
X125556666Y-104685880D02*
X124985238Y-104685880D01*
X125270952Y-104685880D02*
X125270952Y-103685880D01*
X125175714Y-103828738D01*
X125080476Y-103923976D01*
X124985238Y-103971595D01*
%TO.C,R14*%
X95291142Y-42074880D02*
X94957809Y-41598690D01*
X94719714Y-42074880D02*
X94719714Y-41074880D01*
X95100666Y-41074880D01*
X95195904Y-41122500D01*
X95243523Y-41170119D01*
X95291142Y-41265357D01*
X95291142Y-41408214D01*
X95243523Y-41503452D01*
X95195904Y-41551071D01*
X95100666Y-41598690D01*
X94719714Y-41598690D01*
X96243523Y-42074880D02*
X95672095Y-42074880D01*
X95957809Y-42074880D02*
X95957809Y-41074880D01*
X95862571Y-41217738D01*
X95767333Y-41312976D01*
X95672095Y-41360595D01*
X97100666Y-41408214D02*
X97100666Y-42074880D01*
X96862571Y-41027261D02*
X96624476Y-41741547D01*
X97243523Y-41741547D01*
%TO.C,R5*%
X139963333Y-90123880D02*
X139630000Y-89647690D01*
X139391904Y-90123880D02*
X139391904Y-89123880D01*
X139772857Y-89123880D01*
X139868095Y-89171500D01*
X139915714Y-89219119D01*
X139963333Y-89314357D01*
X139963333Y-89457214D01*
X139915714Y-89552452D01*
X139868095Y-89600071D01*
X139772857Y-89647690D01*
X139391904Y-89647690D01*
X140868095Y-89123880D02*
X140391904Y-89123880D01*
X140344285Y-89600071D01*
X140391904Y-89552452D01*
X140487142Y-89504833D01*
X140725238Y-89504833D01*
X140820476Y-89552452D01*
X140868095Y-89600071D01*
X140915714Y-89695309D01*
X140915714Y-89933404D01*
X140868095Y-90028642D01*
X140820476Y-90076261D01*
X140725238Y-90123880D01*
X140487142Y-90123880D01*
X140391904Y-90076261D01*
X140344285Y-90028642D01*
%TO.C,J8*%
X85440666Y-75745880D02*
X85440666Y-76460166D01*
X85393047Y-76603023D01*
X85297809Y-76698261D01*
X85154952Y-76745880D01*
X85059714Y-76745880D01*
X86059714Y-76174452D02*
X85964476Y-76126833D01*
X85916857Y-76079214D01*
X85869238Y-75983976D01*
X85869238Y-75936357D01*
X85916857Y-75841119D01*
X85964476Y-75793500D01*
X86059714Y-75745880D01*
X86250190Y-75745880D01*
X86345428Y-75793500D01*
X86393047Y-75841119D01*
X86440666Y-75936357D01*
X86440666Y-75983976D01*
X86393047Y-76079214D01*
X86345428Y-76126833D01*
X86250190Y-76174452D01*
X86059714Y-76174452D01*
X85964476Y-76222071D01*
X85916857Y-76269690D01*
X85869238Y-76364928D01*
X85869238Y-76555404D01*
X85916857Y-76650642D01*
X85964476Y-76698261D01*
X86059714Y-76745880D01*
X86250190Y-76745880D01*
X86345428Y-76698261D01*
X86393047Y-76650642D01*
X86440666Y-76555404D01*
X86440666Y-76364928D01*
X86393047Y-76269690D01*
X86345428Y-76222071D01*
X86250190Y-76174452D01*
%TO.C,D5*%
X115007904Y-64045880D02*
X115007904Y-63045880D01*
X115246000Y-63045880D01*
X115388857Y-63093500D01*
X115484095Y-63188738D01*
X115531714Y-63283976D01*
X115579333Y-63474452D01*
X115579333Y-63617309D01*
X115531714Y-63807785D01*
X115484095Y-63903023D01*
X115388857Y-63998261D01*
X115246000Y-64045880D01*
X115007904Y-64045880D01*
X116484095Y-63045880D02*
X116007904Y-63045880D01*
X115960285Y-63522071D01*
X116007904Y-63474452D01*
X116103142Y-63426833D01*
X116341238Y-63426833D01*
X116436476Y-63474452D01*
X116484095Y-63522071D01*
X116531714Y-63617309D01*
X116531714Y-63855404D01*
X116484095Y-63950642D01*
X116436476Y-63998261D01*
X116341238Y-64045880D01*
X116103142Y-64045880D01*
X116007904Y-63998261D01*
X115960285Y-63950642D01*
%TO.C,D8*%
X119579904Y-37629880D02*
X119579904Y-36629880D01*
X119818000Y-36629880D01*
X119960857Y-36677500D01*
X120056095Y-36772738D01*
X120103714Y-36867976D01*
X120151333Y-37058452D01*
X120151333Y-37201309D01*
X120103714Y-37391785D01*
X120056095Y-37487023D01*
X119960857Y-37582261D01*
X119818000Y-37629880D01*
X119579904Y-37629880D01*
X120722761Y-37058452D02*
X120627523Y-37010833D01*
X120579904Y-36963214D01*
X120532285Y-36867976D01*
X120532285Y-36820357D01*
X120579904Y-36725119D01*
X120627523Y-36677500D01*
X120722761Y-36629880D01*
X120913238Y-36629880D01*
X121008476Y-36677500D01*
X121056095Y-36725119D01*
X121103714Y-36820357D01*
X121103714Y-36867976D01*
X121056095Y-36963214D01*
X121008476Y-37010833D01*
X120913238Y-37058452D01*
X120722761Y-37058452D01*
X120627523Y-37106071D01*
X120579904Y-37153690D01*
X120532285Y-37248928D01*
X120532285Y-37439404D01*
X120579904Y-37534642D01*
X120627523Y-37582261D01*
X120722761Y-37629880D01*
X120913238Y-37629880D01*
X121008476Y-37582261D01*
X121056095Y-37534642D01*
X121103714Y-37439404D01*
X121103714Y-37248928D01*
X121056095Y-37153690D01*
X121008476Y-37106071D01*
X120913238Y-37058452D01*
%TO.C,R26*%
X98339142Y-59981880D02*
X98005809Y-59505690D01*
X97767714Y-59981880D02*
X97767714Y-58981880D01*
X98148666Y-58981880D01*
X98243904Y-59029500D01*
X98291523Y-59077119D01*
X98339142Y-59172357D01*
X98339142Y-59315214D01*
X98291523Y-59410452D01*
X98243904Y-59458071D01*
X98148666Y-59505690D01*
X97767714Y-59505690D01*
X98720095Y-59077119D02*
X98767714Y-59029500D01*
X98862952Y-58981880D01*
X99101047Y-58981880D01*
X99196285Y-59029500D01*
X99243904Y-59077119D01*
X99291523Y-59172357D01*
X99291523Y-59267595D01*
X99243904Y-59410452D01*
X98672476Y-59981880D01*
X99291523Y-59981880D01*
X100148666Y-58981880D02*
X99958190Y-58981880D01*
X99862952Y-59029500D01*
X99815333Y-59077119D01*
X99720095Y-59219976D01*
X99672476Y-59410452D01*
X99672476Y-59791404D01*
X99720095Y-59886642D01*
X99767714Y-59934261D01*
X99862952Y-59981880D01*
X100053428Y-59981880D01*
X100148666Y-59934261D01*
X100196285Y-59886642D01*
X100243904Y-59791404D01*
X100243904Y-59553309D01*
X100196285Y-59458071D01*
X100148666Y-59410452D01*
X100053428Y-59362833D01*
X99862952Y-59362833D01*
X99767714Y-59410452D01*
X99720095Y-59458071D01*
X99672476Y-59553309D01*
%TO.C,D11*%
X115547714Y-76237880D02*
X115547714Y-75237880D01*
X115785809Y-75237880D01*
X115928666Y-75285500D01*
X116023904Y-75380738D01*
X116071523Y-75475976D01*
X116119142Y-75666452D01*
X116119142Y-75809309D01*
X116071523Y-75999785D01*
X116023904Y-76095023D01*
X115928666Y-76190261D01*
X115785809Y-76237880D01*
X115547714Y-76237880D01*
X117071523Y-76237880D02*
X116500095Y-76237880D01*
X116785809Y-76237880D02*
X116785809Y-75237880D01*
X116690571Y-75380738D01*
X116595333Y-75475976D01*
X116500095Y-75523595D01*
X118023904Y-76237880D02*
X117452476Y-76237880D01*
X117738190Y-76237880D02*
X117738190Y-75237880D01*
X117642952Y-75380738D01*
X117547714Y-75475976D01*
X117452476Y-75523595D01*
X115182380Y-76047404D02*
X114182380Y-76047404D01*
X115182380Y-75475976D02*
X114610952Y-75904547D01*
X114182380Y-75475976D02*
X114753809Y-76047404D01*
%TO.C,R21*%
X85430142Y-113151880D02*
X85096809Y-112675690D01*
X84858714Y-113151880D02*
X84858714Y-112151880D01*
X85239666Y-112151880D01*
X85334904Y-112199500D01*
X85382523Y-112247119D01*
X85430142Y-112342357D01*
X85430142Y-112485214D01*
X85382523Y-112580452D01*
X85334904Y-112628071D01*
X85239666Y-112675690D01*
X84858714Y-112675690D01*
X85811095Y-112247119D02*
X85858714Y-112199500D01*
X85953952Y-112151880D01*
X86192047Y-112151880D01*
X86287285Y-112199500D01*
X86334904Y-112247119D01*
X86382523Y-112342357D01*
X86382523Y-112437595D01*
X86334904Y-112580452D01*
X85763476Y-113151880D01*
X86382523Y-113151880D01*
X87334904Y-113151880D02*
X86763476Y-113151880D01*
X87049190Y-113151880D02*
X87049190Y-112151880D01*
X86953952Y-112294738D01*
X86858714Y-112389976D01*
X86763476Y-112437595D01*
%TO.C,J11*%
X156084476Y-111029880D02*
X156084476Y-111744166D01*
X156036857Y-111887023D01*
X155941619Y-111982261D01*
X155798761Y-112029880D01*
X155703523Y-112029880D01*
X157084476Y-112029880D02*
X156513047Y-112029880D01*
X156798761Y-112029880D02*
X156798761Y-111029880D01*
X156703523Y-111172738D01*
X156608285Y-111267976D01*
X156513047Y-111315595D01*
X158036857Y-112029880D02*
X157465428Y-112029880D01*
X157751142Y-112029880D02*
X157751142Y-111029880D01*
X157655904Y-111172738D01*
X157560666Y-111267976D01*
X157465428Y-111315595D01*
%TO.C,R20*%
X98847142Y-105531880D02*
X98513809Y-105055690D01*
X98275714Y-105531880D02*
X98275714Y-104531880D01*
X98656666Y-104531880D01*
X98751904Y-104579500D01*
X98799523Y-104627119D01*
X98847142Y-104722357D01*
X98847142Y-104865214D01*
X98799523Y-104960452D01*
X98751904Y-105008071D01*
X98656666Y-105055690D01*
X98275714Y-105055690D01*
X99228095Y-104627119D02*
X99275714Y-104579500D01*
X99370952Y-104531880D01*
X99609047Y-104531880D01*
X99704285Y-104579500D01*
X99751904Y-104627119D01*
X99799523Y-104722357D01*
X99799523Y-104817595D01*
X99751904Y-104960452D01*
X99180476Y-105531880D01*
X99799523Y-105531880D01*
X100418571Y-104531880D02*
X100513809Y-104531880D01*
X100609047Y-104579500D01*
X100656666Y-104627119D01*
X100704285Y-104722357D01*
X100751904Y-104912833D01*
X100751904Y-105150928D01*
X100704285Y-105341404D01*
X100656666Y-105436642D01*
X100609047Y-105484261D01*
X100513809Y-105531880D01*
X100418571Y-105531880D01*
X100323333Y-105484261D01*
X100275714Y-105436642D01*
X100228095Y-105341404D01*
X100180476Y-105150928D01*
X100180476Y-104912833D01*
X100228095Y-104722357D01*
X100275714Y-104627119D01*
X100323333Y-104579500D01*
X100418571Y-104531880D01*
%TO.C,Q9*%
X79209619Y-64393238D02*
X79162000Y-64488476D01*
X79066761Y-64583714D01*
X78923904Y-64726571D01*
X78876285Y-64821809D01*
X78876285Y-64917047D01*
X79114380Y-64869428D02*
X79066761Y-64964666D01*
X78971523Y-65059904D01*
X78781047Y-65107523D01*
X78447714Y-65107523D01*
X78257238Y-65059904D01*
X78162000Y-64964666D01*
X78114380Y-64869428D01*
X78114380Y-64678952D01*
X78162000Y-64583714D01*
X78257238Y-64488476D01*
X78447714Y-64440857D01*
X78781047Y-64440857D01*
X78971523Y-64488476D01*
X79066761Y-64583714D01*
X79114380Y-64678952D01*
X79114380Y-64869428D01*
X79114380Y-63964666D02*
X79114380Y-63774190D01*
X79066761Y-63678952D01*
X79019142Y-63631333D01*
X78876285Y-63536095D01*
X78685809Y-63488476D01*
X78304857Y-63488476D01*
X78209619Y-63536095D01*
X78162000Y-63583714D01*
X78114380Y-63678952D01*
X78114380Y-63869428D01*
X78162000Y-63964666D01*
X78209619Y-64012285D01*
X78304857Y-64059904D01*
X78542952Y-64059904D01*
X78638190Y-64012285D01*
X78685809Y-63964666D01*
X78733428Y-63869428D01*
X78733428Y-63678952D01*
X78685809Y-63583714D01*
X78638190Y-63536095D01*
X78542952Y-63488476D01*
%TO.C,D9*%
X132089404Y-86765880D02*
X132089404Y-85765880D01*
X132327500Y-85765880D01*
X132470357Y-85813500D01*
X132565595Y-85908738D01*
X132613214Y-86003976D01*
X132660833Y-86194452D01*
X132660833Y-86337309D01*
X132613214Y-86527785D01*
X132565595Y-86623023D01*
X132470357Y-86718261D01*
X132327500Y-86765880D01*
X132089404Y-86765880D01*
X133137023Y-86765880D02*
X133327500Y-86765880D01*
X133422738Y-86718261D01*
X133470357Y-86670642D01*
X133565595Y-86527785D01*
X133613214Y-86337309D01*
X133613214Y-85956357D01*
X133565595Y-85861119D01*
X133517976Y-85813500D01*
X133422738Y-85765880D01*
X133232261Y-85765880D01*
X133137023Y-85813500D01*
X133089404Y-85861119D01*
X133041785Y-85956357D01*
X133041785Y-86194452D01*
X133089404Y-86289690D01*
X133137023Y-86337309D01*
X133232261Y-86384928D01*
X133422738Y-86384928D01*
X133517976Y-86337309D01*
X133565595Y-86289690D01*
X133613214Y-86194452D01*
%TO.C,D10*%
X120119714Y-79285880D02*
X120119714Y-78285880D01*
X120357809Y-78285880D01*
X120500666Y-78333500D01*
X120595904Y-78428738D01*
X120643523Y-78523976D01*
X120691142Y-78714452D01*
X120691142Y-78857309D01*
X120643523Y-79047785D01*
X120595904Y-79143023D01*
X120500666Y-79238261D01*
X120357809Y-79285880D01*
X120119714Y-79285880D01*
X121643523Y-79285880D02*
X121072095Y-79285880D01*
X121357809Y-79285880D02*
X121357809Y-78285880D01*
X121262571Y-78428738D01*
X121167333Y-78523976D01*
X121072095Y-78571595D01*
X122262571Y-78285880D02*
X122357809Y-78285880D01*
X122453047Y-78333500D01*
X122500666Y-78381119D01*
X122548285Y-78476357D01*
X122595904Y-78666833D01*
X122595904Y-78904928D01*
X122548285Y-79095404D01*
X122500666Y-79190642D01*
X122453047Y-79238261D01*
X122357809Y-79285880D01*
X122262571Y-79285880D01*
X122167333Y-79238261D01*
X122119714Y-79190642D01*
X122072095Y-79095404D01*
X122024476Y-78904928D01*
X122024476Y-78666833D01*
X122072095Y-78476357D01*
X122119714Y-78381119D01*
X122167333Y-78333500D01*
X122262571Y-78285880D01*
X119754380Y-79095404D02*
X118754380Y-79095404D01*
X119754380Y-78523976D02*
X119182952Y-78952547D01*
X118754380Y-78523976D02*
X119325809Y-79095404D01*
%TO.C,Q8*%
X79199619Y-73029238D02*
X79152000Y-73124476D01*
X79056761Y-73219714D01*
X78913904Y-73362571D01*
X78866285Y-73457809D01*
X78866285Y-73553047D01*
X79104380Y-73505428D02*
X79056761Y-73600666D01*
X78961523Y-73695904D01*
X78771047Y-73743523D01*
X78437714Y-73743523D01*
X78247238Y-73695904D01*
X78152000Y-73600666D01*
X78104380Y-73505428D01*
X78104380Y-73314952D01*
X78152000Y-73219714D01*
X78247238Y-73124476D01*
X78437714Y-73076857D01*
X78771047Y-73076857D01*
X78961523Y-73124476D01*
X79056761Y-73219714D01*
X79104380Y-73314952D01*
X79104380Y-73505428D01*
X78532952Y-72505428D02*
X78485333Y-72600666D01*
X78437714Y-72648285D01*
X78342476Y-72695904D01*
X78294857Y-72695904D01*
X78199619Y-72648285D01*
X78152000Y-72600666D01*
X78104380Y-72505428D01*
X78104380Y-72314952D01*
X78152000Y-72219714D01*
X78199619Y-72172095D01*
X78294857Y-72124476D01*
X78342476Y-72124476D01*
X78437714Y-72172095D01*
X78485333Y-72219714D01*
X78532952Y-72314952D01*
X78532952Y-72505428D01*
X78580571Y-72600666D01*
X78628190Y-72648285D01*
X78723428Y-72695904D01*
X78913904Y-72695904D01*
X79009142Y-72648285D01*
X79056761Y-72600666D01*
X79104380Y-72505428D01*
X79104380Y-72314952D01*
X79056761Y-72219714D01*
X79009142Y-72172095D01*
X78913904Y-72124476D01*
X78723428Y-72124476D01*
X78628190Y-72172095D01*
X78580571Y-72219714D01*
X78532952Y-72314952D01*
%TO.C,J5*%
X124556666Y-100637880D02*
X124556666Y-101352166D01*
X124509047Y-101495023D01*
X124413809Y-101590261D01*
X124270952Y-101637880D01*
X124175714Y-101637880D01*
X125509047Y-100637880D02*
X125032857Y-100637880D01*
X124985238Y-101114071D01*
X125032857Y-101066452D01*
X125128095Y-101018833D01*
X125366190Y-101018833D01*
X125461428Y-101066452D01*
X125509047Y-101114071D01*
X125556666Y-101209309D01*
X125556666Y-101447404D01*
X125509047Y-101542642D01*
X125461428Y-101590261D01*
X125366190Y-101637880D01*
X125128095Y-101637880D01*
X125032857Y-101590261D01*
X124985238Y-101542642D01*
%TO.C,J6*%
X85440666Y-82857880D02*
X85440666Y-83572166D01*
X85393047Y-83715023D01*
X85297809Y-83810261D01*
X85154952Y-83857880D01*
X85059714Y-83857880D01*
X86345428Y-82857880D02*
X86154952Y-82857880D01*
X86059714Y-82905500D01*
X86012095Y-82953119D01*
X85916857Y-83095976D01*
X85869238Y-83286452D01*
X85869238Y-83667404D01*
X85916857Y-83762642D01*
X85964476Y-83810261D01*
X86059714Y-83857880D01*
X86250190Y-83857880D01*
X86345428Y-83810261D01*
X86393047Y-83762642D01*
X86440666Y-83667404D01*
X86440666Y-83429309D01*
X86393047Y-83334071D01*
X86345428Y-83286452D01*
X86250190Y-83238833D01*
X86059714Y-83238833D01*
X85964476Y-83286452D01*
X85916857Y-83334071D01*
X85869238Y-83429309D01*
%TO.C,C12*%
X166411142Y-104590642D02*
X166363523Y-104638261D01*
X166220666Y-104685880D01*
X166125428Y-104685880D01*
X165982571Y-104638261D01*
X165887333Y-104543023D01*
X165839714Y-104447785D01*
X165792095Y-104257309D01*
X165792095Y-104114452D01*
X165839714Y-103923976D01*
X165887333Y-103828738D01*
X165982571Y-103733500D01*
X166125428Y-103685880D01*
X166220666Y-103685880D01*
X166363523Y-103733500D01*
X166411142Y-103781119D01*
X167363523Y-104685880D02*
X166792095Y-104685880D01*
X167077809Y-104685880D02*
X167077809Y-103685880D01*
X166982571Y-103828738D01*
X166887333Y-103923976D01*
X166792095Y-103971595D01*
X167744476Y-103781119D02*
X167792095Y-103733500D01*
X167887333Y-103685880D01*
X168125428Y-103685880D01*
X168220666Y-103733500D01*
X168268285Y-103781119D01*
X168315904Y-103876357D01*
X168315904Y-103971595D01*
X168268285Y-104114452D01*
X167696857Y-104685880D01*
X168315904Y-104685880D01*
%TO.C,C6*%
X121460712Y-109670642D02*
X121413093Y-109718261D01*
X121270236Y-109765880D01*
X121174998Y-109765880D01*
X121032140Y-109718261D01*
X120936902Y-109623023D01*
X120889283Y-109527785D01*
X120841664Y-109337309D01*
X120841664Y-109194452D01*
X120889283Y-109003976D01*
X120936902Y-108908738D01*
X121032140Y-108813500D01*
X121174998Y-108765880D01*
X121270236Y-108765880D01*
X121413093Y-108813500D01*
X121460712Y-108861119D01*
X122317855Y-108765880D02*
X122127379Y-108765880D01*
X122032140Y-108813500D01*
X121984521Y-108861119D01*
X121889283Y-109003976D01*
X121841664Y-109194452D01*
X121841664Y-109575404D01*
X121889283Y-109670642D01*
X121936902Y-109718261D01*
X122032140Y-109765880D01*
X122222617Y-109765880D01*
X122317855Y-109718261D01*
X122365474Y-109670642D01*
X122413093Y-109575404D01*
X122413093Y-109337309D01*
X122365474Y-109242071D01*
X122317855Y-109194452D01*
X122222617Y-109146833D01*
X122032140Y-109146833D01*
X121936902Y-109194452D01*
X121889283Y-109242071D01*
X121841664Y-109337309D01*
%TO.C,Q6*%
X128858761Y-74301119D02*
X128763523Y-74253500D01*
X128668285Y-74158261D01*
X128525428Y-74015404D01*
X128430190Y-73967785D01*
X128334952Y-73967785D01*
X128382571Y-74205880D02*
X128287333Y-74158261D01*
X128192095Y-74063023D01*
X128144476Y-73872547D01*
X128144476Y-73539214D01*
X128192095Y-73348738D01*
X128287333Y-73253500D01*
X128382571Y-73205880D01*
X128573047Y-73205880D01*
X128668285Y-73253500D01*
X128763523Y-73348738D01*
X128811142Y-73539214D01*
X128811142Y-73872547D01*
X128763523Y-74063023D01*
X128668285Y-74158261D01*
X128573047Y-74205880D01*
X128382571Y-74205880D01*
X129668285Y-73205880D02*
X129477809Y-73205880D01*
X129382571Y-73253500D01*
X129334952Y-73301119D01*
X129239714Y-73443976D01*
X129192095Y-73634452D01*
X129192095Y-74015404D01*
X129239714Y-74110642D01*
X129287333Y-74158261D01*
X129382571Y-74205880D01*
X129573047Y-74205880D01*
X129668285Y-74158261D01*
X129715904Y-74110642D01*
X129763523Y-74015404D01*
X129763523Y-73777309D01*
X129715904Y-73682071D01*
X129668285Y-73634452D01*
X129573047Y-73586833D01*
X129382571Y-73586833D01*
X129287333Y-73634452D01*
X129239714Y-73682071D01*
X129192095Y-73777309D01*
%TO.C,J9*%
X96616666Y-77777880D02*
X96616666Y-78492166D01*
X96569047Y-78635023D01*
X96473809Y-78730261D01*
X96330952Y-78777880D01*
X96235714Y-78777880D01*
X97140476Y-78777880D02*
X97330952Y-78777880D01*
X97426190Y-78730261D01*
X97473809Y-78682642D01*
X97569047Y-78539785D01*
X97616666Y-78349309D01*
X97616666Y-77968357D01*
X97569047Y-77873119D01*
X97521428Y-77825500D01*
X97426190Y-77777880D01*
X97235714Y-77777880D01*
X97140476Y-77825500D01*
X97092857Y-77873119D01*
X97045238Y-77968357D01*
X97045238Y-78206452D01*
X97092857Y-78301690D01*
X97140476Y-78349309D01*
X97235714Y-78396928D01*
X97426190Y-78396928D01*
X97521428Y-78349309D01*
X97569047Y-78301690D01*
X97616666Y-78206452D01*
%TO.C,R27*%
X113579142Y-78777880D02*
X113245809Y-78301690D01*
X113007714Y-78777880D02*
X113007714Y-77777880D01*
X113388666Y-77777880D01*
X113483904Y-77825500D01*
X113531523Y-77873119D01*
X113579142Y-77968357D01*
X113579142Y-78111214D01*
X113531523Y-78206452D01*
X113483904Y-78254071D01*
X113388666Y-78301690D01*
X113007714Y-78301690D01*
X113960095Y-77873119D02*
X114007714Y-77825500D01*
X114102952Y-77777880D01*
X114341047Y-77777880D01*
X114436285Y-77825500D01*
X114483904Y-77873119D01*
X114531523Y-77968357D01*
X114531523Y-78063595D01*
X114483904Y-78206452D01*
X113912476Y-78777880D01*
X114531523Y-78777880D01*
X114864857Y-77777880D02*
X115531523Y-77777880D01*
X115102952Y-78777880D01*
%TO.C,U7*%
X103236595Y-64432880D02*
X103236595Y-65242404D01*
X103284214Y-65337642D01*
X103331833Y-65385261D01*
X103427071Y-65432880D01*
X103617547Y-65432880D01*
X103712785Y-65385261D01*
X103760404Y-65337642D01*
X103808023Y-65242404D01*
X103808023Y-64432880D01*
X104188976Y-64432880D02*
X104855642Y-64432880D01*
X104427071Y-65432880D01*
%TO.C,R13*%
X104435142Y-50329880D02*
X104101809Y-49853690D01*
X103863714Y-50329880D02*
X103863714Y-49329880D01*
X104244666Y-49329880D01*
X104339904Y-49377500D01*
X104387523Y-49425119D01*
X104435142Y-49520357D01*
X104435142Y-49663214D01*
X104387523Y-49758452D01*
X104339904Y-49806071D01*
X104244666Y-49853690D01*
X103863714Y-49853690D01*
X105387523Y-50329880D02*
X104816095Y-50329880D01*
X105101809Y-50329880D02*
X105101809Y-49329880D01*
X105006571Y-49472738D01*
X104911333Y-49567976D01*
X104816095Y-49615595D01*
X105720857Y-49329880D02*
X106339904Y-49329880D01*
X106006571Y-49710833D01*
X106149428Y-49710833D01*
X106244666Y-49758452D01*
X106292285Y-49806071D01*
X106339904Y-49901309D01*
X106339904Y-50139404D01*
X106292285Y-50234642D01*
X106244666Y-50282261D01*
X106149428Y-50329880D01*
X105863714Y-50329880D01*
X105768476Y-50282261D01*
X105720857Y-50234642D01*
%TO.C,C10*%
X76733142Y-101977357D02*
X76780761Y-102024976D01*
X76828380Y-102167833D01*
X76828380Y-102263071D01*
X76780761Y-102405928D01*
X76685523Y-102501166D01*
X76590285Y-102548785D01*
X76399809Y-102596404D01*
X76256952Y-102596404D01*
X76066476Y-102548785D01*
X75971238Y-102501166D01*
X75876000Y-102405928D01*
X75828380Y-102263071D01*
X75828380Y-102167833D01*
X75876000Y-102024976D01*
X75923619Y-101977357D01*
X76828380Y-101024976D02*
X76828380Y-101596404D01*
X76828380Y-101310690D02*
X75828380Y-101310690D01*
X75971238Y-101405928D01*
X76066476Y-101501166D01*
X76114095Y-101596404D01*
X75828380Y-100405928D02*
X75828380Y-100310690D01*
X75876000Y-100215452D01*
X75923619Y-100167833D01*
X76018857Y-100120214D01*
X76209333Y-100072595D01*
X76447428Y-100072595D01*
X76637904Y-100120214D01*
X76733142Y-100167833D01*
X76780761Y-100215452D01*
X76828380Y-100310690D01*
X76828380Y-100405928D01*
X76780761Y-100501166D01*
X76733142Y-100548785D01*
X76637904Y-100596404D01*
X76447428Y-100644023D01*
X76209333Y-100644023D01*
X76018857Y-100596404D01*
X75923619Y-100548785D01*
X75876000Y-100501166D01*
X75828380Y-100405928D01*
%TO.C,R30*%
X87671142Y-64723880D02*
X87337809Y-64247690D01*
X87099714Y-64723880D02*
X87099714Y-63723880D01*
X87480666Y-63723880D01*
X87575904Y-63771500D01*
X87623523Y-63819119D01*
X87671142Y-63914357D01*
X87671142Y-64057214D01*
X87623523Y-64152452D01*
X87575904Y-64200071D01*
X87480666Y-64247690D01*
X87099714Y-64247690D01*
X88004476Y-63723880D02*
X88623523Y-63723880D01*
X88290190Y-64104833D01*
X88433047Y-64104833D01*
X88528285Y-64152452D01*
X88575904Y-64200071D01*
X88623523Y-64295309D01*
X88623523Y-64533404D01*
X88575904Y-64628642D01*
X88528285Y-64676261D01*
X88433047Y-64723880D01*
X88147333Y-64723880D01*
X88052095Y-64676261D01*
X88004476Y-64628642D01*
X89242571Y-63723880D02*
X89337809Y-63723880D01*
X89433047Y-63771500D01*
X89480666Y-63819119D01*
X89528285Y-63914357D01*
X89575904Y-64104833D01*
X89575904Y-64342928D01*
X89528285Y-64533404D01*
X89480666Y-64628642D01*
X89433047Y-64676261D01*
X89337809Y-64723880D01*
X89242571Y-64723880D01*
X89147333Y-64676261D01*
X89099714Y-64628642D01*
X89052095Y-64533404D01*
X89004476Y-64342928D01*
X89004476Y-64104833D01*
X89052095Y-63914357D01*
X89099714Y-63819119D01*
X89147333Y-63771500D01*
X89242571Y-63723880D01*
%TO.C,C5*%
X150631333Y-108654642D02*
X150583714Y-108702261D01*
X150440857Y-108749880D01*
X150345619Y-108749880D01*
X150202761Y-108702261D01*
X150107523Y-108607023D01*
X150059904Y-108511785D01*
X150012285Y-108321309D01*
X150012285Y-108178452D01*
X150059904Y-107987976D01*
X150107523Y-107892738D01*
X150202761Y-107797500D01*
X150345619Y-107749880D01*
X150440857Y-107749880D01*
X150583714Y-107797500D01*
X150631333Y-107845119D01*
X151536095Y-107749880D02*
X151059904Y-107749880D01*
X151012285Y-108226071D01*
X151059904Y-108178452D01*
X151155142Y-108130833D01*
X151393238Y-108130833D01*
X151488476Y-108178452D01*
X151536095Y-108226071D01*
X151583714Y-108321309D01*
X151583714Y-108559404D01*
X151536095Y-108654642D01*
X151488476Y-108702261D01*
X151393238Y-108749880D01*
X151155142Y-108749880D01*
X151059904Y-108702261D01*
X151012285Y-108654642D01*
%TO.C,U2*%
X103539095Y-36873880D02*
X103539095Y-37683404D01*
X103586714Y-37778642D01*
X103634333Y-37826261D01*
X103729571Y-37873880D01*
X103920047Y-37873880D01*
X104015285Y-37826261D01*
X104062904Y-37778642D01*
X104110523Y-37683404D01*
X104110523Y-36873880D01*
X104539095Y-36969119D02*
X104586714Y-36921500D01*
X104681952Y-36873880D01*
X104920047Y-36873880D01*
X105015285Y-36921500D01*
X105062904Y-36969119D01*
X105110523Y-37064357D01*
X105110523Y-37159595D01*
X105062904Y-37302452D01*
X104491476Y-37873880D01*
X105110523Y-37873880D01*
%TO.C,U5*%
X173785095Y-97716880D02*
X173785095Y-98526404D01*
X173832714Y-98621642D01*
X173880333Y-98669261D01*
X173975571Y-98716880D01*
X174166047Y-98716880D01*
X174261285Y-98669261D01*
X174308904Y-98621642D01*
X174356523Y-98526404D01*
X174356523Y-97716880D01*
X175308904Y-97716880D02*
X174832714Y-97716880D01*
X174785095Y-98193071D01*
X174832714Y-98145452D01*
X174927952Y-98097833D01*
X175166047Y-98097833D01*
X175261285Y-98145452D01*
X175308904Y-98193071D01*
X175356523Y-98288309D01*
X175356523Y-98526404D01*
X175308904Y-98621642D01*
X175261285Y-98669261D01*
X175166047Y-98716880D01*
X174927952Y-98716880D01*
X174832714Y-98669261D01*
X174785095Y-98621642D01*
%TO.C,T1*%
X143432095Y-59782880D02*
X144003523Y-59782880D01*
X143717809Y-60782880D02*
X143717809Y-59782880D01*
X144860666Y-60782880D02*
X144289238Y-60782880D01*
X144574952Y-60782880D02*
X144574952Y-59782880D01*
X144479714Y-59925738D01*
X144384476Y-60020976D01*
X144289238Y-60068595D01*
%TO.C,Q4*%
X129501619Y-45400738D02*
X129454000Y-45495976D01*
X129358761Y-45591214D01*
X129215904Y-45734071D01*
X129168285Y-45829309D01*
X129168285Y-45924547D01*
X129406380Y-45876928D02*
X129358761Y-45972166D01*
X129263523Y-46067404D01*
X129073047Y-46115023D01*
X128739714Y-46115023D01*
X128549238Y-46067404D01*
X128454000Y-45972166D01*
X128406380Y-45876928D01*
X128406380Y-45686452D01*
X128454000Y-45591214D01*
X128549238Y-45495976D01*
X128739714Y-45448357D01*
X129073047Y-45448357D01*
X129263523Y-45495976D01*
X129358761Y-45591214D01*
X129406380Y-45686452D01*
X129406380Y-45876928D01*
X128739714Y-44591214D02*
X129406380Y-44591214D01*
X128358761Y-44829309D02*
X129073047Y-45067404D01*
X129073047Y-44448357D01*
%TO.C,R16*%
X115103142Y-37629880D02*
X114769809Y-37153690D01*
X114531714Y-37629880D02*
X114531714Y-36629880D01*
X114912666Y-36629880D01*
X115007904Y-36677500D01*
X115055523Y-36725119D01*
X115103142Y-36820357D01*
X115103142Y-36963214D01*
X115055523Y-37058452D01*
X115007904Y-37106071D01*
X114912666Y-37153690D01*
X114531714Y-37153690D01*
X116055523Y-37629880D02*
X115484095Y-37629880D01*
X115769809Y-37629880D02*
X115769809Y-36629880D01*
X115674571Y-36772738D01*
X115579333Y-36867976D01*
X115484095Y-36915595D01*
X116912666Y-36629880D02*
X116722190Y-36629880D01*
X116626952Y-36677500D01*
X116579333Y-36725119D01*
X116484095Y-36867976D01*
X116436476Y-37058452D01*
X116436476Y-37439404D01*
X116484095Y-37534642D01*
X116531714Y-37582261D01*
X116626952Y-37629880D01*
X116817428Y-37629880D01*
X116912666Y-37582261D01*
X116960285Y-37534642D01*
X117007904Y-37439404D01*
X117007904Y-37201309D01*
X116960285Y-37106071D01*
X116912666Y-37058452D01*
X116817428Y-37010833D01*
X116626952Y-37010833D01*
X116531714Y-37058452D01*
X116484095Y-37106071D01*
X116436476Y-37201309D01*
%TO.C,D2*%
X175634380Y-44138595D02*
X174634380Y-44138595D01*
X174634380Y-43900500D01*
X174682000Y-43757642D01*
X174777238Y-43662404D01*
X174872476Y-43614785D01*
X175062952Y-43567166D01*
X175205809Y-43567166D01*
X175396285Y-43614785D01*
X175491523Y-43662404D01*
X175586761Y-43757642D01*
X175634380Y-43900500D01*
X175634380Y-44138595D01*
X174729619Y-43186214D02*
X174682000Y-43138595D01*
X174634380Y-43043357D01*
X174634380Y-42805261D01*
X174682000Y-42710023D01*
X174729619Y-42662404D01*
X174824857Y-42614785D01*
X174920095Y-42614785D01*
X175062952Y-42662404D01*
X175634380Y-43233833D01*
X175634380Y-42614785D01*
%TO.C,R22*%
X72939142Y-80301880D02*
X72605809Y-79825690D01*
X72367714Y-80301880D02*
X72367714Y-79301880D01*
X72748666Y-79301880D01*
X72843904Y-79349500D01*
X72891523Y-79397119D01*
X72939142Y-79492357D01*
X72939142Y-79635214D01*
X72891523Y-79730452D01*
X72843904Y-79778071D01*
X72748666Y-79825690D01*
X72367714Y-79825690D01*
X73320095Y-79397119D02*
X73367714Y-79349500D01*
X73462952Y-79301880D01*
X73701047Y-79301880D01*
X73796285Y-79349500D01*
X73843904Y-79397119D01*
X73891523Y-79492357D01*
X73891523Y-79587595D01*
X73843904Y-79730452D01*
X73272476Y-80301880D01*
X73891523Y-80301880D01*
X74272476Y-79397119D02*
X74320095Y-79349500D01*
X74415333Y-79301880D01*
X74653428Y-79301880D01*
X74748666Y-79349500D01*
X74796285Y-79397119D01*
X74843904Y-79492357D01*
X74843904Y-79587595D01*
X74796285Y-79730452D01*
X74224857Y-80301880D01*
X74843904Y-80301880D01*
%TO.C,Q5*%
X129501619Y-58100738D02*
X129454000Y-58195976D01*
X129358761Y-58291214D01*
X129215904Y-58434071D01*
X129168285Y-58529309D01*
X129168285Y-58624547D01*
X129406380Y-58576928D02*
X129358761Y-58672166D01*
X129263523Y-58767404D01*
X129073047Y-58815023D01*
X128739714Y-58815023D01*
X128549238Y-58767404D01*
X128454000Y-58672166D01*
X128406380Y-58576928D01*
X128406380Y-58386452D01*
X128454000Y-58291214D01*
X128549238Y-58195976D01*
X128739714Y-58148357D01*
X129073047Y-58148357D01*
X129263523Y-58195976D01*
X129358761Y-58291214D01*
X129406380Y-58386452D01*
X129406380Y-58576928D01*
X128406380Y-57243595D02*
X128406380Y-57719785D01*
X128882571Y-57767404D01*
X128834952Y-57719785D01*
X128787333Y-57624547D01*
X128787333Y-57386452D01*
X128834952Y-57291214D01*
X128882571Y-57243595D01*
X128977809Y-57195976D01*
X129215904Y-57195976D01*
X129311142Y-57243595D01*
X129358761Y-57291214D01*
X129406380Y-57386452D01*
X129406380Y-57624547D01*
X129358761Y-57719785D01*
X129311142Y-57767404D01*
%TO.C,D7*%
X117039904Y-52361880D02*
X117039904Y-51361880D01*
X117278000Y-51361880D01*
X117420857Y-51409500D01*
X117516095Y-51504738D01*
X117563714Y-51599976D01*
X117611333Y-51790452D01*
X117611333Y-51933309D01*
X117563714Y-52123785D01*
X117516095Y-52219023D01*
X117420857Y-52314261D01*
X117278000Y-52361880D01*
X117039904Y-52361880D01*
X117944666Y-51361880D02*
X118611333Y-51361880D01*
X118182761Y-52361880D01*
%TO.C,R31*%
X81067142Y-57441880D02*
X80733809Y-56965690D01*
X80495714Y-57441880D02*
X80495714Y-56441880D01*
X80876666Y-56441880D01*
X80971904Y-56489500D01*
X81019523Y-56537119D01*
X81067142Y-56632357D01*
X81067142Y-56775214D01*
X81019523Y-56870452D01*
X80971904Y-56918071D01*
X80876666Y-56965690D01*
X80495714Y-56965690D01*
X81400476Y-56441880D02*
X82019523Y-56441880D01*
X81686190Y-56822833D01*
X81829047Y-56822833D01*
X81924285Y-56870452D01*
X81971904Y-56918071D01*
X82019523Y-57013309D01*
X82019523Y-57251404D01*
X81971904Y-57346642D01*
X81924285Y-57394261D01*
X81829047Y-57441880D01*
X81543333Y-57441880D01*
X81448095Y-57394261D01*
X81400476Y-57346642D01*
X82971904Y-57441880D02*
X82400476Y-57441880D01*
X82686190Y-57441880D02*
X82686190Y-56441880D01*
X82590952Y-56584738D01*
X82495714Y-56679976D01*
X82400476Y-56727595D01*
%TO.C,C4*%
X147075333Y-110051642D02*
X147027714Y-110099261D01*
X146884857Y-110146880D01*
X146789619Y-110146880D01*
X146646761Y-110099261D01*
X146551523Y-110004023D01*
X146503904Y-109908785D01*
X146456285Y-109718309D01*
X146456285Y-109575452D01*
X146503904Y-109384976D01*
X146551523Y-109289738D01*
X146646761Y-109194500D01*
X146789619Y-109146880D01*
X146884857Y-109146880D01*
X147027714Y-109194500D01*
X147075333Y-109242119D01*
X147932476Y-109480214D02*
X147932476Y-110146880D01*
X147694380Y-109099261D02*
X147456285Y-109813547D01*
X148075333Y-109813547D01*
%TO.C,R28*%
X94275142Y-71157880D02*
X93941809Y-70681690D01*
X93703714Y-71157880D02*
X93703714Y-70157880D01*
X94084666Y-70157880D01*
X94179904Y-70205500D01*
X94227523Y-70253119D01*
X94275142Y-70348357D01*
X94275142Y-70491214D01*
X94227523Y-70586452D01*
X94179904Y-70634071D01*
X94084666Y-70681690D01*
X93703714Y-70681690D01*
X94656095Y-70253119D02*
X94703714Y-70205500D01*
X94798952Y-70157880D01*
X95037047Y-70157880D01*
X95132285Y-70205500D01*
X95179904Y-70253119D01*
X95227523Y-70348357D01*
X95227523Y-70443595D01*
X95179904Y-70586452D01*
X94608476Y-71157880D01*
X95227523Y-71157880D01*
X95798952Y-70586452D02*
X95703714Y-70538833D01*
X95656095Y-70491214D01*
X95608476Y-70395976D01*
X95608476Y-70348357D01*
X95656095Y-70253119D01*
X95703714Y-70205500D01*
X95798952Y-70157880D01*
X95989428Y-70157880D01*
X96084666Y-70205500D01*
X96132285Y-70253119D01*
X96179904Y-70348357D01*
X96179904Y-70395976D01*
X96132285Y-70491214D01*
X96084666Y-70538833D01*
X95989428Y-70586452D01*
X95798952Y-70586452D01*
X95703714Y-70634071D01*
X95656095Y-70681690D01*
X95608476Y-70776928D01*
X95608476Y-70967404D01*
X95656095Y-71062642D01*
X95703714Y-71110261D01*
X95798952Y-71157880D01*
X95989428Y-71157880D01*
X96084666Y-71110261D01*
X96132285Y-71062642D01*
X96179904Y-70967404D01*
X96179904Y-70776928D01*
X96132285Y-70681690D01*
X96084666Y-70634071D01*
X95989428Y-70586452D01*
%TO.C,C11*%
X170729142Y-88374642D02*
X170681523Y-88422261D01*
X170538666Y-88469880D01*
X170443428Y-88469880D01*
X170300571Y-88422261D01*
X170205333Y-88327023D01*
X170157714Y-88231785D01*
X170110095Y-88041309D01*
X170110095Y-87898452D01*
X170157714Y-87707976D01*
X170205333Y-87612738D01*
X170300571Y-87517500D01*
X170443428Y-87469880D01*
X170538666Y-87469880D01*
X170681523Y-87517500D01*
X170729142Y-87565119D01*
X171681523Y-88469880D02*
X171110095Y-88469880D01*
X171395809Y-88469880D02*
X171395809Y-87469880D01*
X171300571Y-87612738D01*
X171205333Y-87707976D01*
X171110095Y-87755595D01*
X172633904Y-88469880D02*
X172062476Y-88469880D01*
X172348190Y-88469880D02*
X172348190Y-87469880D01*
X172252952Y-87612738D01*
X172157714Y-87707976D01*
X172062476Y-87755595D01*
%TO.C,C1*%
X138820333Y-110051642D02*
X138772714Y-110099261D01*
X138629857Y-110146880D01*
X138534619Y-110146880D01*
X138391761Y-110099261D01*
X138296523Y-110004023D01*
X138248904Y-109908785D01*
X138201285Y-109718309D01*
X138201285Y-109575452D01*
X138248904Y-109384976D01*
X138296523Y-109289738D01*
X138391761Y-109194500D01*
X138534619Y-109146880D01*
X138629857Y-109146880D01*
X138772714Y-109194500D01*
X138820333Y-109242119D01*
X139772714Y-110146880D02*
X139201285Y-110146880D01*
X139487000Y-110146880D02*
X139487000Y-109146880D01*
X139391761Y-109289738D01*
X139296523Y-109384976D01*
X139201285Y-109432595D01*
%TO.C,R9*%
X154155333Y-101129880D02*
X153822000Y-100653690D01*
X153583904Y-101129880D02*
X153583904Y-100129880D01*
X153964857Y-100129880D01*
X154060095Y-100177500D01*
X154107714Y-100225119D01*
X154155333Y-100320357D01*
X154155333Y-100463214D01*
X154107714Y-100558452D01*
X154060095Y-100606071D01*
X153964857Y-100653690D01*
X153583904Y-100653690D01*
X154631523Y-101129880D02*
X154822000Y-101129880D01*
X154917238Y-101082261D01*
X154964857Y-101034642D01*
X155060095Y-100891785D01*
X155107714Y-100701309D01*
X155107714Y-100320357D01*
X155060095Y-100225119D01*
X155012476Y-100177500D01*
X154917238Y-100129880D01*
X154726761Y-100129880D01*
X154631523Y-100177500D01*
X154583904Y-100225119D01*
X154536285Y-100320357D01*
X154536285Y-100558452D01*
X154583904Y-100653690D01*
X154631523Y-100701309D01*
X154726761Y-100748928D01*
X154917238Y-100748928D01*
X155012476Y-100701309D01*
X155060095Y-100653690D01*
X155107714Y-100558452D01*
%TO.C,Q1*%
X78058761Y-46361119D02*
X77963523Y-46313500D01*
X77868285Y-46218261D01*
X77725428Y-46075404D01*
X77630190Y-46027785D01*
X77534952Y-46027785D01*
X77582571Y-46265880D02*
X77487333Y-46218261D01*
X77392095Y-46123023D01*
X77344476Y-45932547D01*
X77344476Y-45599214D01*
X77392095Y-45408738D01*
X77487333Y-45313500D01*
X77582571Y-45265880D01*
X77773047Y-45265880D01*
X77868285Y-45313500D01*
X77963523Y-45408738D01*
X78011142Y-45599214D01*
X78011142Y-45932547D01*
X77963523Y-46123023D01*
X77868285Y-46218261D01*
X77773047Y-46265880D01*
X77582571Y-46265880D01*
X78963523Y-46265880D02*
X78392095Y-46265880D01*
X78677809Y-46265880D02*
X78677809Y-45265880D01*
X78582571Y-45408738D01*
X78487333Y-45503976D01*
X78392095Y-45551595D01*
%TO.C,C7*%
X112023333Y-103066642D02*
X111975714Y-103114261D01*
X111832857Y-103161880D01*
X111737619Y-103161880D01*
X111594761Y-103114261D01*
X111499523Y-103019023D01*
X111451904Y-102923785D01*
X111404285Y-102733309D01*
X111404285Y-102590452D01*
X111451904Y-102399976D01*
X111499523Y-102304738D01*
X111594761Y-102209500D01*
X111737619Y-102161880D01*
X111832857Y-102161880D01*
X111975714Y-102209500D01*
X112023333Y-102257119D01*
X112356666Y-102161880D02*
X113023333Y-102161880D01*
X112594761Y-103161880D01*
%TO.C,R12*%
X156759142Y-95033880D02*
X156425809Y-94557690D01*
X156187714Y-95033880D02*
X156187714Y-94033880D01*
X156568666Y-94033880D01*
X156663904Y-94081500D01*
X156711523Y-94129119D01*
X156759142Y-94224357D01*
X156759142Y-94367214D01*
X156711523Y-94462452D01*
X156663904Y-94510071D01*
X156568666Y-94557690D01*
X156187714Y-94557690D01*
X157711523Y-95033880D02*
X157140095Y-95033880D01*
X157425809Y-95033880D02*
X157425809Y-94033880D01*
X157330571Y-94176738D01*
X157235333Y-94271976D01*
X157140095Y-94319595D01*
X158092476Y-94129119D02*
X158140095Y-94081500D01*
X158235333Y-94033880D01*
X158473428Y-94033880D01*
X158568666Y-94081500D01*
X158616285Y-94129119D01*
X158663904Y-94224357D01*
X158663904Y-94319595D01*
X158616285Y-94462452D01*
X158044857Y-95033880D01*
X158663904Y-95033880D01*
D11*
%TO.C,J14*%
X176198000Y-114647500D02*
X160958000Y-114647500D01*
X160958000Y-107027500D02*
X160958000Y-114647500D01*
X176198000Y-108297500D02*
X160958000Y-108297500D01*
X176198000Y-107027500D02*
X160958000Y-107027500D01*
X176198000Y-107027500D02*
X176198000Y-114647500D01*
%TO.C,J13*%
X190168000Y-93565500D02*
X190168000Y-113885500D01*
X182548000Y-93565500D02*
X182548000Y-113885500D01*
X182548000Y-113885500D02*
X190168000Y-113885500D01*
X190168000Y-93565500D02*
X182548000Y-93565500D01*
X183818000Y-113885500D02*
X183818000Y-93565500D01*
%TO.C,J4*%
X190168000Y-37685500D02*
X182548000Y-37685500D01*
X182548000Y-47845500D02*
X190168000Y-47845500D01*
X183818000Y-47845500D02*
X183818000Y-37685500D01*
X182548000Y-37685500D02*
X182548000Y-47845500D01*
X190168000Y-47845500D02*
X190168000Y-37685500D01*
%TO.C,J3*%
X190246000Y-78607500D02*
X182626000Y-78607500D01*
X182626000Y-88767500D02*
X190246000Y-88767500D01*
X183896000Y-88767500D02*
X183896000Y-78607500D01*
X182626000Y-78607500D02*
X182626000Y-88767500D01*
X190246000Y-88767500D02*
X190246000Y-78607500D01*
%TO.C,Q3*%
X156695000Y-97734500D02*
X156695000Y-101334500D01*
X156695000Y-101334500D02*
G75*
G03*
X157422205Y-101858684I1850000J1800000D01*
G01*
X159643807Y-101890900D02*
G75*
G03*
X161145000Y-99534500I-1098807J2356400D01*
G01*
X161145000Y-99534500D02*
G75*
G03*
X159643807Y-97178100I-2600000J0D01*
G01*
X157422205Y-97210316D02*
G75*
G03*
X156695000Y-97734500I1122795J-2324184D01*
G01*
%TO.C,D4*%
X131074000Y-110941500D02*
X131074000Y-108701500D01*
X126834000Y-108701500D02*
X126834000Y-110941500D01*
X127674000Y-108701500D02*
X127674000Y-110941500D01*
X131724000Y-109821500D02*
X131074000Y-109821500D01*
X126834000Y-110941500D02*
X131074000Y-110941500D01*
X127434000Y-108701500D02*
X127434000Y-110941500D01*
X131074000Y-108701500D02*
X126834000Y-108701500D01*
X127554000Y-108701500D02*
X127554000Y-110941500D01*
X126184000Y-109821500D02*
X126834000Y-109821500D01*
%TO.C,R15*%
X117116000Y-61021500D02*
X116786000Y-61021500D01*
X114706000Y-54481500D02*
X114376000Y-54481500D01*
X114376000Y-54481500D02*
X114376000Y-61021500D01*
X116786000Y-54481500D02*
X117116000Y-54481500D01*
X114376000Y-61021500D02*
X114706000Y-61021500D01*
X117116000Y-54481500D02*
X117116000Y-61021500D01*
%TO.C,R10*%
X91478000Y-39185500D02*
X91478000Y-38855500D01*
X91478000Y-41595500D02*
X84938000Y-41595500D01*
X91478000Y-41265500D02*
X91478000Y-41595500D01*
X84938000Y-38855500D02*
X84938000Y-39185500D01*
X91478000Y-38855500D02*
X84938000Y-38855500D01*
X84938000Y-41595500D02*
X84938000Y-41265500D01*
%TO.C,C8*%
X110746000Y-95951500D02*
X110746000Y-93211500D01*
X110746000Y-93211500D02*
X105506000Y-93211500D01*
X105506000Y-95951500D02*
X105506000Y-93211500D01*
X110746000Y-95951500D02*
X105506000Y-95951500D01*
%TO.C,J7*%
X94852000Y-80423500D02*
X93002000Y-80423500D01*
X94852000Y-82323500D02*
X94852000Y-80423500D01*
X93002000Y-80423500D02*
X93002000Y-82273500D01*
X93002000Y-82273500D02*
X93002000Y-82323500D01*
X93002000Y-82323500D02*
X94852000Y-82323500D01*
%TO.C,D6*%
X112190000Y-40503500D02*
X112190000Y-41153500D01*
X111070000Y-44793500D02*
X113310000Y-44793500D01*
X113310000Y-41153500D02*
X111070000Y-41153500D01*
X112190000Y-46043500D02*
X112190000Y-45393500D01*
X113310000Y-45393500D02*
X113310000Y-41153500D01*
X111070000Y-44673500D02*
X113310000Y-44673500D01*
X111070000Y-41153500D02*
X111070000Y-45393500D01*
X111070000Y-44553500D02*
X113310000Y-44553500D01*
X111070000Y-45393500D02*
X113310000Y-45393500D01*
%TO.C,U3*%
X101731000Y-55345500D02*
X101731000Y-56995500D01*
X101731000Y-58995500D02*
X101731000Y-60645500D01*
X109471000Y-60645500D02*
X109471000Y-55345500D01*
X101731000Y-60645500D02*
X109471000Y-60645500D01*
X109471000Y-55345500D02*
X101731000Y-55345500D01*
X101731000Y-58995500D02*
G75*
G03*
X101731000Y-56995500I0J1000000D01*
G01*
%TO.C,U6*%
X101731000Y-86183500D02*
G75*
G03*
X101731000Y-84183500I0J1000000D01*
G01*
X101731000Y-87833500D02*
X109471000Y-87833500D01*
X101731000Y-82533500D02*
X101731000Y-84183500D01*
X109471000Y-87833500D02*
X109471000Y-82533500D01*
X101731000Y-86183500D02*
X101731000Y-87833500D01*
X109471000Y-82533500D02*
X101731000Y-82533500D01*
%TO.C,U4*%
X86769000Y-106818500D02*
X89004000Y-106818500D01*
X89004000Y-86378500D02*
X82534000Y-86378500D01*
X82534000Y-86378500D02*
X82534000Y-106818500D01*
X82534000Y-106818500D02*
X84769000Y-106818500D01*
X89004000Y-106818500D02*
X89004000Y-86378500D01*
X86769000Y-106818500D02*
G75*
G03*
X84769000Y-106818500I-1000000J0D01*
G01*
%TO.C,D1*%
X162028000Y-62245500D02*
X164968000Y-62245500D01*
X162028000Y-57825500D02*
X162028000Y-63265500D01*
X163498000Y-56805500D02*
X163498000Y-57825500D01*
X164968000Y-57825500D02*
X162028000Y-57825500D01*
X162028000Y-62365500D02*
X164968000Y-62365500D01*
X163498000Y-64285500D02*
X163498000Y-63265500D01*
X164968000Y-63265500D02*
X164968000Y-57825500D01*
X162028000Y-62485500D02*
X164968000Y-62485500D01*
X162028000Y-63265500D02*
X164968000Y-63265500D01*
%TO.C,J10*%
X178346000Y-112245500D02*
X178346000Y-112295500D01*
X180196000Y-112295500D02*
X180196000Y-110395500D01*
X178346000Y-110395500D02*
X178346000Y-112245500D01*
X180196000Y-110395500D02*
X178346000Y-110395500D01*
X178346000Y-112295500D02*
X180196000Y-112295500D01*
%TO.C,D12*%
X115690000Y-86957500D02*
X117930000Y-86957500D01*
X116810000Y-88207500D02*
X116810000Y-87557500D01*
X115690000Y-86837500D02*
X117930000Y-86837500D01*
X116810000Y-82667500D02*
X116810000Y-83317500D01*
X117930000Y-83317500D02*
X115690000Y-83317500D01*
X115690000Y-86717500D02*
X117930000Y-86717500D01*
X117930000Y-87557500D02*
X117930000Y-83317500D01*
X115690000Y-83317500D02*
X115690000Y-87557500D01*
X115690000Y-87557500D02*
X117930000Y-87557500D01*
%TO.C,J12*%
X176822000Y-105183500D02*
X178672000Y-105183500D01*
X176822000Y-103283500D02*
X176822000Y-105133500D01*
X176822000Y-105133500D02*
X176822000Y-105183500D01*
X178672000Y-103283500D02*
X176822000Y-103283500D01*
X178672000Y-105183500D02*
X178672000Y-103283500D01*
%TO.C,R1*%
X164490000Y-81151500D02*
X164160000Y-81151500D01*
X164160000Y-81151500D02*
X164160000Y-87691500D01*
X166570000Y-81151500D02*
X166900000Y-81151500D01*
X166900000Y-81151500D02*
X166900000Y-87691500D01*
X166900000Y-87691500D02*
X166570000Y-87691500D01*
X164160000Y-87691500D02*
X164490000Y-87691500D01*
%TO.C,C3*%
X170535000Y-59823500D02*
X170535000Y-54873500D01*
X173095000Y-61151500D02*
X173095000Y-54873500D01*
X169935000Y-59311500D02*
X169935000Y-47555500D01*
X173375000Y-61232500D02*
X173375000Y-45634500D01*
X169975000Y-59349500D02*
X169975000Y-47517500D01*
X172455000Y-60923500D02*
X172455000Y-54873500D01*
X173495000Y-61263500D02*
X173495000Y-45603500D01*
X168095000Y-56736500D02*
X168095000Y-50130500D01*
X171975000Y-60711500D02*
X171975000Y-54873500D01*
X170455000Y-59760500D02*
X170455000Y-54873500D01*
X171175000Y-51993500D02*
X171175000Y-46597500D01*
X174535000Y-61457500D02*
X174535000Y-45409500D01*
X170535000Y-51993500D02*
X170535000Y-47043500D01*
X172295000Y-51993500D02*
X172295000Y-46010500D01*
X167655000Y-55507500D02*
X167655000Y-51359500D01*
X175376000Y-61513500D02*
X175376000Y-45353500D01*
X167735000Y-55784500D02*
X167735000Y-51082500D01*
X172415000Y-51993500D02*
X172415000Y-45959500D01*
X170815000Y-60029500D02*
X170815000Y-54873500D01*
X171535000Y-51993500D02*
X171535000Y-46384500D01*
X170495000Y-59791500D02*
X170495000Y-54873500D01*
X174976000Y-61497500D02*
X174976000Y-45369500D01*
X175176000Y-61507500D02*
X175176000Y-45359500D01*
X175016000Y-61499500D02*
X175016000Y-45367500D01*
X172255000Y-60839500D02*
X172255000Y-54873500D01*
X172975000Y-61113500D02*
X172975000Y-54873500D01*
X174055000Y-61385500D02*
X174055000Y-45481500D01*
X170935000Y-51993500D02*
X170935000Y-46754500D01*
X167855000Y-56144500D02*
X167855000Y-50722500D01*
X171455000Y-60437500D02*
X171455000Y-54873500D01*
X174175000Y-61405500D02*
X174175000Y-45461500D01*
X172495000Y-51993500D02*
X172495000Y-45927500D01*
X174375000Y-61436500D02*
X174375000Y-45430500D01*
X170775000Y-51993500D02*
X170775000Y-46865500D01*
X168815000Y-58010500D02*
X168815000Y-48856500D01*
X171495000Y-51993500D02*
X171495000Y-46406500D01*
X175336000Y-61512500D02*
X175336000Y-45354500D01*
X173015000Y-51993500D02*
X173015000Y-45740500D01*
X168935000Y-58179500D02*
X168935000Y-48687500D01*
X172935000Y-51993500D02*
X172935000Y-45767500D01*
X174896000Y-61491500D02*
X174896000Y-45375500D01*
X173775000Y-61329500D02*
X173775000Y-45537500D01*
X171855000Y-51993500D02*
X171855000Y-46214500D01*
X168495000Y-57509500D02*
X168495000Y-49357500D01*
X173975000Y-61370500D02*
X173975000Y-45496500D01*
X168175000Y-56908500D02*
X168175000Y-49958500D01*
X170575000Y-59853500D02*
X170575000Y-54873500D01*
X171015000Y-51993500D02*
X171015000Y-46700500D01*
X170655000Y-59913500D02*
X170655000Y-54873500D01*
X170095000Y-59458500D02*
X170095000Y-47408500D01*
X170575000Y-51993500D02*
X170575000Y-47013500D01*
X172775000Y-61044500D02*
X172775000Y-54873500D01*
X172535000Y-60955500D02*
X172535000Y-54873500D01*
X171255000Y-51993500D02*
X171255000Y-46547500D01*
X172695000Y-51993500D02*
X172695000Y-45851500D01*
X168295000Y-57148500D02*
X168295000Y-49718500D01*
X173855000Y-61346500D02*
X173855000Y-45520500D01*
X170775000Y-60001500D02*
X170775000Y-54873500D01*
X173215000Y-61187500D02*
X173215000Y-45679500D01*
X167775000Y-55911500D02*
X167775000Y-50955500D01*
X173055000Y-61138500D02*
X173055000Y-54873500D01*
X171615000Y-51993500D02*
X171615000Y-46339500D01*
X168255000Y-57070500D02*
X168255000Y-49796500D01*
X172095000Y-60767500D02*
X172095000Y-54873500D01*
X171015000Y-60166500D02*
X171015000Y-54873500D01*
X171695000Y-60569500D02*
X171695000Y-54873500D01*
X172455000Y-51993500D02*
X172455000Y-45943500D01*
X167815000Y-56030500D02*
X167815000Y-50836500D01*
X170895000Y-51993500D02*
X170895000Y-46781500D01*
X172135000Y-60786500D02*
X172135000Y-54873500D01*
X169455000Y-58821500D02*
X169455000Y-48045500D01*
X169535000Y-58908500D02*
X169535000Y-47958500D01*
X172375000Y-60890500D02*
X172375000Y-54873500D01*
X170415000Y-51993500D02*
X170415000Y-47138500D01*
X171495000Y-60460500D02*
X171495000Y-54873500D01*
X175136000Y-61506500D02*
X175136000Y-45360500D01*
X174735000Y-61478500D02*
X174735000Y-45388500D01*
X170495000Y-51993500D02*
X170495000Y-47075500D01*
X173135000Y-61163500D02*
X173135000Y-54873500D01*
X168695000Y-57831500D02*
X168695000Y-49035500D01*
X171975000Y-51993500D02*
X171975000Y-46155500D01*
X171895000Y-51993500D02*
X171895000Y-46194500D01*
X171575000Y-60505500D02*
X171575000Y-54873500D01*
X175096000Y-61504500D02*
X175096000Y-45362500D01*
X173055000Y-51993500D02*
X173055000Y-45728500D01*
X170935000Y-60112500D02*
X170935000Y-54873500D01*
X170335000Y-51993500D02*
X170335000Y-47203500D01*
X167495000Y-54784500D02*
X167495000Y-52082500D01*
X169495000Y-58865500D02*
X169495000Y-48001500D01*
X170455000Y-51993500D02*
X170455000Y-47106500D01*
X172015000Y-51993500D02*
X172015000Y-46136500D01*
X167695000Y-55651500D02*
X167695000Y-51215500D01*
X170975000Y-51993500D02*
X170975000Y-46727500D01*
X169655000Y-59035500D02*
X169655000Y-47831500D01*
X172135000Y-51993500D02*
X172135000Y-46080500D01*
X168215000Y-56990500D02*
X168215000Y-49876500D01*
X170615000Y-51993500D02*
X170615000Y-46983500D01*
X169255000Y-58589500D02*
X169255000Y-48277500D01*
X167895000Y-56253500D02*
X167895000Y-50613500D01*
X171135000Y-51993500D02*
X171135000Y-46622500D01*
X173175000Y-61175500D02*
X173175000Y-54873500D01*
X172975000Y-51993500D02*
X172975000Y-45753500D01*
X170415000Y-59728500D02*
X170415000Y-54873500D01*
X174095000Y-61392500D02*
X174095000Y-45474500D01*
X170895000Y-60085500D02*
X170895000Y-54873500D01*
X172895000Y-51993500D02*
X172895000Y-45780500D01*
X167415000Y-54198500D02*
X167415000Y-52668500D01*
X170015000Y-59385500D02*
X170015000Y-47481500D01*
X168535000Y-57576500D02*
X168535000Y-49290500D01*
X175496000Y-61514500D02*
X175496000Y-45352500D01*
X171335000Y-51993500D02*
X171335000Y-46499500D01*
X174455000Y-61447500D02*
X174455000Y-45419500D01*
X171295000Y-60343500D02*
X171295000Y-54873500D01*
X175216000Y-61509500D02*
X175216000Y-45357500D01*
X173175000Y-51993500D02*
X173175000Y-45691500D01*
X168335000Y-57223500D02*
X168335000Y-49643500D01*
X171935000Y-60691500D02*
X171935000Y-54873500D01*
X184185491Y-57988500D02*
X182585491Y-57988500D01*
X168975000Y-58233500D02*
X168975000Y-48633500D01*
X173415000Y-61243500D02*
X173415000Y-45623500D01*
X172935000Y-61099500D02*
X172935000Y-54873500D01*
X169215000Y-58541500D02*
X169215000Y-48325500D01*
X171695000Y-51993500D02*
X171695000Y-46297500D01*
X169055000Y-58339500D02*
X169055000Y-48527500D01*
X169015000Y-58287500D02*
X169015000Y-48579500D01*
X169775000Y-59157500D02*
X169775000Y-47709500D01*
X171735000Y-60590500D02*
X171735000Y-54873500D01*
X174816000Y-61485500D02*
X174816000Y-45381500D01*
X172055000Y-51993500D02*
X172055000Y-46117500D01*
X173255000Y-61198500D02*
X173255000Y-45668500D01*
X183385491Y-58788500D02*
X183385491Y-57188500D01*
X168575000Y-57642500D02*
X168575000Y-49224500D01*
X172855000Y-61072500D02*
X172855000Y-54873500D01*
X172655000Y-61001500D02*
X172655000Y-54873500D01*
X168135000Y-56823500D02*
X168135000Y-50043500D01*
X173895000Y-61354500D02*
X173895000Y-45512500D01*
X170135000Y-59493500D02*
X170135000Y-47373500D01*
X170855000Y-60057500D02*
X170855000Y-54873500D01*
X170735000Y-59972500D02*
X170735000Y-54873500D01*
X168655000Y-57769500D02*
X168655000Y-49097500D01*
X169615000Y-58993500D02*
X169615000Y-47873500D01*
X172815000Y-61058500D02*
X172815000Y-54873500D01*
X172415000Y-60907500D02*
X172415000Y-54873500D01*
X168895000Y-58124500D02*
X168895000Y-48742500D01*
X171815000Y-60632500D02*
X171815000Y-54873500D01*
X175416000Y-61513500D02*
X175416000Y-45353500D01*
X171335000Y-60367500D02*
X171335000Y-54873500D01*
X171095000Y-60218500D02*
X171095000Y-54873500D01*
X167455000Y-54531500D02*
X167455000Y-52335500D01*
X172295000Y-60856500D02*
X172295000Y-54873500D01*
X168775000Y-57952500D02*
X168775000Y-48914500D01*
X174495000Y-61452500D02*
X174495000Y-45414500D01*
X170335000Y-59663500D02*
X170335000Y-54873500D01*
X170735000Y-51993500D02*
X170735000Y-46894500D01*
X174575000Y-61461500D02*
X174575000Y-45405500D01*
X171575000Y-51993500D02*
X171575000Y-46361500D01*
X170655000Y-51993500D02*
X170655000Y-46953500D01*
X168855000Y-58067500D02*
X168855000Y-48799500D01*
X173295000Y-61210500D02*
X173295000Y-45656500D01*
X169895000Y-59273500D02*
X169895000Y-47593500D01*
X173815000Y-61338500D02*
X173815000Y-45528500D01*
X172615000Y-60986500D02*
X172615000Y-54873500D01*
X168735000Y-57892500D02*
X168735000Y-48974500D01*
X170215000Y-59562500D02*
X170215000Y-47304500D01*
X170615000Y-59883500D02*
X170615000Y-54873500D01*
X173335000Y-61221500D02*
X173335000Y-45645500D01*
X170295000Y-59630500D02*
X170295000Y-47236500D01*
X173455000Y-61253500D02*
X173455000Y-45613500D01*
X170855000Y-51993500D02*
X170855000Y-46809500D01*
X167975000Y-56457500D02*
X167975000Y-50409500D01*
X169575000Y-58951500D02*
X169575000Y-47915500D01*
X171655000Y-51993500D02*
X171655000Y-46318500D01*
X168375000Y-57297500D02*
X168375000Y-49569500D01*
X169135000Y-58442500D02*
X169135000Y-48424500D01*
X171215000Y-60294500D02*
X171215000Y-54873500D01*
X172815000Y-51993500D02*
X172815000Y-45808500D01*
X170695000Y-51993500D02*
X170695000Y-46923500D01*
X171095000Y-51993500D02*
X171095000Y-46648500D01*
X172655000Y-51993500D02*
X172655000Y-45865500D01*
X167535000Y-54997500D02*
X167535000Y-51869500D01*
X171735000Y-51993500D02*
X171735000Y-46276500D01*
X173015000Y-61126500D02*
X173015000Y-54873500D01*
X171615000Y-60527500D02*
X171615000Y-54873500D01*
X171775000Y-60611500D02*
X171775000Y-54873500D01*
X174415000Y-61441500D02*
X174415000Y-45425500D01*
X171455000Y-51993500D02*
X171455000Y-46429500D01*
X175456000Y-61513500D02*
X175456000Y-45353500D01*
X172735000Y-51993500D02*
X172735000Y-45836500D01*
X173095000Y-51993500D02*
X173095000Y-45715500D01*
X173935000Y-61362500D02*
X173935000Y-45504500D01*
X171055000Y-51993500D02*
X171055000Y-46674500D01*
X173575000Y-61283500D02*
X173575000Y-45583500D01*
X175256000Y-61510500D02*
X175256000Y-45356500D01*
X174335000Y-61430500D02*
X174335000Y-45436500D01*
X169735000Y-59117500D02*
X169735000Y-47749500D01*
X171815000Y-51993500D02*
X171815000Y-46234500D01*
X167935000Y-56357500D02*
X167935000Y-50509500D01*
X168615000Y-57706500D02*
X168615000Y-49160500D01*
X175296000Y-61511500D02*
X175296000Y-45355500D01*
X170975000Y-60139500D02*
X170975000Y-54873500D01*
X171175000Y-60269500D02*
X171175000Y-54873500D01*
X171935000Y-51993500D02*
X171935000Y-46175500D01*
X174615000Y-61466500D02*
X174615000Y-45400500D01*
X169295000Y-58637500D02*
X169295000Y-48229500D01*
X169175000Y-58492500D02*
X169175000Y-48374500D01*
X171895000Y-60672500D02*
X171895000Y-54873500D01*
X172855000Y-51993500D02*
X172855000Y-45794500D01*
X170695000Y-59943500D02*
X170695000Y-54873500D01*
X174215000Y-61412500D02*
X174215000Y-45454500D01*
X172255000Y-51993500D02*
X172255000Y-46027500D01*
X169335000Y-58684500D02*
X169335000Y-48182500D01*
X171655000Y-60548500D02*
X171655000Y-54873500D01*
X172895000Y-61086500D02*
X172895000Y-54873500D01*
X174936000Y-61494500D02*
X174936000Y-45372500D01*
X171295000Y-51993500D02*
X171295000Y-46523500D01*
X173615000Y-61293500D02*
X173615000Y-45573500D01*
X175056000Y-61502500D02*
X175056000Y-45364500D01*
X172095000Y-51993500D02*
X172095000Y-46099500D01*
X172495000Y-60939500D02*
X172495000Y-54873500D01*
X167615000Y-55353500D02*
X167615000Y-51513500D01*
X173535000Y-61273500D02*
X173535000Y-45593500D01*
X170375000Y-59696500D02*
X170375000Y-54873500D01*
X174295000Y-61424500D02*
X174295000Y-45442500D01*
X172375000Y-51993500D02*
X172375000Y-45976500D01*
X172215000Y-60822500D02*
X172215000Y-54873500D01*
X170255000Y-59596500D02*
X170255000Y-47270500D01*
X174135000Y-61399500D02*
X174135000Y-45467500D01*
X169375000Y-58730500D02*
X169375000Y-48136500D01*
X168455000Y-57440500D02*
X168455000Y-49426500D01*
X171255000Y-60319500D02*
X171255000Y-54873500D01*
X167575000Y-55185500D02*
X167575000Y-51681500D01*
X172055000Y-60749500D02*
X172055000Y-54873500D01*
X172175000Y-60804500D02*
X172175000Y-54873500D01*
X171215000Y-51993500D02*
X171215000Y-46572500D01*
X171375000Y-51993500D02*
X171375000Y-46475500D01*
X169415000Y-58776500D02*
X169415000Y-48090500D01*
X171535000Y-60482500D02*
X171535000Y-54873500D01*
X171415000Y-60414500D02*
X171415000Y-54873500D01*
X169855000Y-59235500D02*
X169855000Y-47631500D01*
X172775000Y-51993500D02*
X172775000Y-45822500D01*
X171775000Y-51993500D02*
X171775000Y-46255500D01*
X168055000Y-56646500D02*
X168055000Y-50220500D01*
X170055000Y-59422500D02*
X170055000Y-47444500D01*
X174255000Y-61418500D02*
X174255000Y-45448500D01*
X172335000Y-51993500D02*
X172335000Y-45993500D01*
X170375000Y-51993500D02*
X170375000Y-47170500D01*
X172015000Y-60730500D02*
X172015000Y-54873500D01*
X168415000Y-57369500D02*
X168415000Y-49497500D01*
X172575000Y-51993500D02*
X172575000Y-45896500D01*
X169815000Y-59196500D02*
X169815000Y-47670500D01*
X171855000Y-60652500D02*
X171855000Y-54873500D01*
X172335000Y-60873500D02*
X172335000Y-54873500D01*
X174856000Y-61488500D02*
X174856000Y-45378500D01*
X171135000Y-60244500D02*
X171135000Y-54873500D01*
X172695000Y-61015500D02*
X172695000Y-54873500D01*
X173695000Y-61311500D02*
X173695000Y-45555500D01*
X172735000Y-61030500D02*
X172735000Y-54873500D01*
X173655000Y-61302500D02*
X173655000Y-45564500D01*
X170175000Y-59528500D02*
X170175000Y-47338500D01*
X174655000Y-61470500D02*
X174655000Y-45396500D01*
X173135000Y-51993500D02*
X173135000Y-45703500D01*
X174775000Y-61482500D02*
X174775000Y-45384500D01*
X172535000Y-51993500D02*
X172535000Y-45911500D01*
X174695000Y-61474500D02*
X174695000Y-45392500D01*
X172215000Y-51993500D02*
X172215000Y-46044500D01*
X168015000Y-56553500D02*
X168015000Y-50313500D01*
X170815000Y-51993500D02*
X170815000Y-46837500D01*
X172615000Y-51993500D02*
X172615000Y-45880500D01*
X173735000Y-61320500D02*
X173735000Y-45546500D01*
X171375000Y-60391500D02*
X171375000Y-54873500D01*
X172575000Y-60970500D02*
X172575000Y-54873500D01*
X171415000Y-51993500D02*
X171415000Y-46452500D01*
X171055000Y-60192500D02*
X171055000Y-54873500D01*
X169695000Y-59076500D02*
X169695000Y-47790500D01*
X174015000Y-61377500D02*
X174015000Y-45489500D01*
X172175000Y-51993500D02*
X172175000Y-46062500D01*
X169095000Y-58391500D02*
X169095000Y-48475500D01*
X183616000Y-53433500D02*
G75*
G03*
X183616000Y-53433500I-8120000J0D01*
G01*
%TO.C,D3*%
X151570000Y-92653500D02*
X151570000Y-90413500D01*
X152410000Y-90413500D02*
X148170000Y-90413500D01*
X151810000Y-92653500D02*
X151810000Y-90413500D01*
X148170000Y-90413500D02*
X148170000Y-92653500D01*
X148170000Y-92653500D02*
X152410000Y-92653500D01*
X151690000Y-92653500D02*
X151690000Y-90413500D01*
X147520000Y-91533500D02*
X148170000Y-91533500D01*
X152410000Y-92653500D02*
X152410000Y-90413500D01*
X153060000Y-91533500D02*
X152410000Y-91533500D01*
%TO.C,C9*%
X110811000Y-100015500D02*
X105571000Y-100015500D01*
X110811000Y-100015500D02*
X110811000Y-97275500D01*
X105571000Y-100015500D02*
X105571000Y-97275500D01*
X110811000Y-97275500D02*
X105571000Y-97275500D01*
%TO.C,R8*%
X132156000Y-96391500D02*
X132156000Y-102931500D01*
X134896000Y-96391500D02*
X134896000Y-102931500D01*
X132156000Y-102931500D02*
X132486000Y-102931500D01*
X134566000Y-96391500D02*
X134896000Y-96391500D01*
X132486000Y-96391500D02*
X132156000Y-96391500D01*
X134896000Y-102931500D02*
X134566000Y-102931500D01*
%TO.C,R7*%
X84938000Y-52063500D02*
X84938000Y-52393500D01*
X91478000Y-54473500D02*
X91478000Y-54803500D01*
X91478000Y-52393500D02*
X91478000Y-52063500D01*
X91478000Y-54803500D02*
X84938000Y-54803500D01*
X91478000Y-52063500D02*
X84938000Y-52063500D01*
X84938000Y-54803500D02*
X84938000Y-54473500D01*
%TO.C,R23*%
X96220000Y-93541500D02*
X96220000Y-93211500D01*
X96220000Y-93211500D02*
X102760000Y-93211500D01*
X102760000Y-93211500D02*
X102760000Y-93541500D01*
X96220000Y-95951500D02*
X102760000Y-95951500D01*
X102760000Y-95951500D02*
X102760000Y-95621500D01*
X96220000Y-95621500D02*
X96220000Y-95951500D01*
%TO.C,R18*%
X102760000Y-100015500D02*
X102760000Y-99685500D01*
X96220000Y-99685500D02*
X96220000Y-100015500D01*
X96220000Y-100015500D02*
X102760000Y-100015500D01*
X102760000Y-97275500D02*
X102760000Y-97605500D01*
X96220000Y-97605500D02*
X96220000Y-97275500D01*
X96220000Y-97275500D02*
X102760000Y-97275500D01*
%TO.C,U1*%
X138232000Y-94384500D02*
X138232000Y-104664500D01*
X143532000Y-104664500D02*
X143532000Y-94384500D01*
X138232000Y-104664500D02*
X139882000Y-104664500D01*
X143532000Y-94384500D02*
X138232000Y-94384500D01*
X141882000Y-104664500D02*
X143532000Y-104664500D01*
X141882000Y-104664500D02*
G75*
G03*
X139882000Y-104664500I-1000000J0D01*
G01*
%TO.C,R4*%
X166832000Y-38725500D02*
X166832000Y-39055500D01*
X166832000Y-36315500D02*
X173372000Y-36315500D01*
X173372000Y-39055500D02*
X173372000Y-38725500D01*
X166832000Y-36645500D02*
X166832000Y-36315500D01*
X166832000Y-39055500D02*
X173372000Y-39055500D01*
X173372000Y-36315500D02*
X173372000Y-36645500D01*
%TO.C,C2*%
X181260245Y-65103500D02*
X181260245Y-76307500D01*
X177020245Y-62784500D02*
X177020245Y-78626500D01*
X176580245Y-62708500D02*
X176580245Y-78702500D01*
X183100245Y-68108500D02*
X183100245Y-73302500D01*
X178380245Y-72145500D02*
X178380245Y-78227500D01*
X183140245Y-68227500D02*
X183140245Y-73183500D01*
X180260245Y-72145500D02*
X180260245Y-77185500D01*
X182460245Y-66698500D02*
X182460245Y-74712500D01*
X177700245Y-62951500D02*
X177700245Y-78459500D01*
X177340245Y-62855500D02*
X177340245Y-78555500D01*
X179780245Y-63894500D02*
X179780245Y-69265500D01*
X178100245Y-72145500D02*
X178100245Y-78330500D01*
X179420245Y-72145500D02*
X179420245Y-77732500D01*
X176780245Y-62739500D02*
X176780245Y-78671500D01*
X176340245Y-62677500D02*
X176340245Y-78733500D01*
X179100245Y-72145500D02*
X179100245Y-77904500D01*
X179940245Y-72145500D02*
X179940245Y-77411500D01*
X176700245Y-62726500D02*
X176700245Y-78684500D01*
X175859245Y-62636500D02*
X175859245Y-78774500D01*
X181500245Y-65362500D02*
X181500245Y-76048500D01*
X178180245Y-63108500D02*
X178180245Y-69265500D01*
X175939245Y-62641500D02*
X175939245Y-78769500D01*
X178780245Y-63352500D02*
X178780245Y-69265500D01*
X178260245Y-72145500D02*
X178260245Y-78273500D01*
X178380245Y-63183500D02*
X178380245Y-69265500D01*
X176620245Y-62714500D02*
X176620245Y-78696500D01*
X183340245Y-68953500D02*
X183340245Y-72457500D01*
X180500245Y-64410500D02*
X180500245Y-69265500D01*
X177580245Y-62917500D02*
X177580245Y-78493500D01*
X178620245Y-72145500D02*
X178620245Y-78128500D01*
X178780245Y-72145500D02*
X178780245Y-78058500D01*
X178820245Y-63371500D02*
X178820245Y-69265500D01*
X183220245Y-68487500D02*
X183220245Y-72923500D01*
X177900245Y-63012500D02*
X177900245Y-69265500D01*
X179620245Y-72145500D02*
X179620245Y-77615500D01*
X181460245Y-65317500D02*
X181460245Y-76093500D01*
X180740245Y-64610500D02*
X180740245Y-76800500D01*
X181060245Y-64903500D02*
X181060245Y-76507500D01*
X181900245Y-65851500D02*
X181900245Y-75559500D01*
X183020245Y-67885500D02*
X183020245Y-73525500D01*
X176180245Y-62660500D02*
X176180245Y-78750500D01*
X176940245Y-62768500D02*
X176940245Y-78642500D01*
X182500245Y-66769500D02*
X182500245Y-74641500D01*
X178260245Y-63137500D02*
X178260245Y-69265500D01*
X178140245Y-72145500D02*
X178140245Y-78316500D01*
X181020245Y-64865500D02*
X181020245Y-76545500D01*
X178740245Y-63334500D02*
X178740245Y-69265500D01*
X175779245Y-62632500D02*
X175779245Y-78778500D01*
X180980245Y-64827500D02*
X180980245Y-76583500D01*
X178420245Y-72145500D02*
X178420245Y-78211500D01*
X183300245Y-68785500D02*
X183300245Y-72625500D01*
X181940245Y-65905500D02*
X181940245Y-75505500D01*
X178180245Y-72145500D02*
X178180245Y-78302500D01*
X180620245Y-64508500D02*
X180620245Y-76902500D01*
X179820245Y-72145500D02*
X179820245Y-77490500D01*
X180500245Y-72145500D02*
X180500245Y-77000500D01*
X180060245Y-64081500D02*
X180060245Y-69265500D01*
X182580245Y-66915500D02*
X182580245Y-74495500D01*
X181300245Y-65145500D02*
X181300245Y-76265500D01*
X177460245Y-62885500D02*
X177460245Y-78525500D01*
X177820245Y-62987500D02*
X177820245Y-69265500D01*
X182940245Y-67681500D02*
X182940245Y-73729500D01*
X178420245Y-63199500D02*
X178420245Y-69265500D01*
X179900245Y-72145500D02*
X179900245Y-77438500D01*
X178700245Y-72145500D02*
X178700245Y-78094500D01*
X178300245Y-72145500D02*
X178300245Y-78258500D01*
X178980245Y-72145500D02*
X178980245Y-77963500D01*
X180900245Y-64753500D02*
X180900245Y-76657500D01*
X180100245Y-72145500D02*
X180100245Y-77301500D01*
X176980245Y-62776500D02*
X176980245Y-78634500D01*
X182700245Y-67148500D02*
X182700245Y-74262500D01*
X180460245Y-72145500D02*
X180460245Y-77032500D01*
X182860245Y-67492500D02*
X182860245Y-73918500D01*
X181780245Y-65696500D02*
X181780245Y-75714500D01*
X183500245Y-69940500D02*
X183500245Y-71470500D01*
X180420245Y-64347500D02*
X180420245Y-69265500D01*
X179540245Y-72145500D02*
X179540245Y-77663500D01*
X176140245Y-62656500D02*
X176140245Y-78754500D01*
X178220245Y-72145500D02*
X178220245Y-78287500D01*
X179060245Y-72145500D02*
X179060245Y-77924500D01*
X179020245Y-63466500D02*
X179020245Y-69265500D01*
X181380245Y-65230500D02*
X181380245Y-76180500D01*
X178140245Y-63094500D02*
X178140245Y-69265500D01*
X178020245Y-63052500D02*
X178020245Y-69265500D01*
X178500245Y-72145500D02*
X178500245Y-78179500D01*
X179060245Y-63486500D02*
X179060245Y-69265500D01*
X183060245Y-67994500D02*
X183060245Y-73416500D01*
X181820245Y-65747500D02*
X181820245Y-75663500D01*
X182900245Y-67585500D02*
X182900245Y-73825500D01*
X180180245Y-72145500D02*
X180180245Y-77244500D01*
X181740245Y-65646500D02*
X181740245Y-75764500D01*
X179300245Y-63611500D02*
X179300245Y-69265500D01*
X177860245Y-72145500D02*
X177860245Y-78410500D01*
X177140245Y-62809500D02*
X177140245Y-78601500D01*
X179540245Y-63747500D02*
X179540245Y-69265500D01*
X179180245Y-63548500D02*
X179180245Y-69265500D01*
X177740245Y-72145500D02*
X177740245Y-78447500D01*
X175899245Y-62639500D02*
X175899245Y-78771500D01*
X181420245Y-65273500D02*
X181420245Y-76137500D01*
X177620245Y-62928500D02*
X177620245Y-78482500D01*
X182100245Y-66128500D02*
X182100245Y-75282500D01*
X181340245Y-65187500D02*
X181340245Y-76223500D01*
X175979245Y-62644500D02*
X175979245Y-78766500D01*
X181700245Y-65597500D02*
X181700245Y-75813500D01*
X180580245Y-64475500D02*
X180580245Y-69265500D01*
X179340245Y-72145500D02*
X179340245Y-77777500D01*
X177260245Y-62836500D02*
X177260245Y-78574500D01*
X181660245Y-65549500D02*
X181660245Y-75861500D01*
X179460245Y-72145500D02*
X179460245Y-77709500D01*
X180460245Y-64378500D02*
X180460245Y-69265500D01*
X177780245Y-72145500D02*
X177780245Y-78435500D01*
X178540245Y-72145500D02*
X178540245Y-78162500D01*
X166729754Y-66150500D02*
X168329754Y-66150500D01*
X179340245Y-63633500D02*
X179340245Y-69265500D01*
X177860245Y-63000500D02*
X177860245Y-69265500D01*
X177780245Y-62975500D02*
X177780245Y-69265500D01*
X180180245Y-64166500D02*
X180180245Y-69265500D01*
X177660245Y-62940500D02*
X177660245Y-78470500D01*
X180940245Y-64789500D02*
X180940245Y-76621500D01*
X180540245Y-72145500D02*
X180540245Y-76968500D01*
X179660245Y-63819500D02*
X179660245Y-69265500D01*
X178340245Y-72145500D02*
X178340245Y-78242500D01*
X178020245Y-72145500D02*
X178020245Y-78358500D01*
X179140245Y-63527500D02*
X179140245Y-69265500D01*
X176740245Y-62733500D02*
X176740245Y-78677500D01*
X177220245Y-62827500D02*
X177220245Y-78583500D01*
X181540245Y-65408500D02*
X181540245Y-76002500D01*
X180060245Y-72145500D02*
X180060245Y-77329500D01*
X182140245Y-66186500D02*
X182140245Y-75224500D01*
X177940245Y-72145500D02*
X177940245Y-78385500D01*
X182820245Y-67402500D02*
X182820245Y-74008500D01*
X177500245Y-62895500D02*
X177500245Y-78515500D01*
X182260245Y-66369500D02*
X182260245Y-75041500D01*
X183460245Y-69607500D02*
X183460245Y-71803500D01*
X179220245Y-72145500D02*
X179220245Y-77841500D01*
X176860245Y-62753500D02*
X176860245Y-78657500D01*
X179700245Y-72145500D02*
X179700245Y-77566500D01*
X180820245Y-64680500D02*
X180820245Y-76730500D01*
X176380245Y-62681500D02*
X176380245Y-78729500D01*
X179660245Y-72145500D02*
X179660245Y-77591500D01*
X176900245Y-62761500D02*
X176900245Y-78649500D01*
X180020245Y-64053500D02*
X180020245Y-69265500D01*
X179020245Y-72145500D02*
X179020245Y-77944500D01*
X175579245Y-62626500D02*
X175579245Y-78784500D01*
X175539245Y-62625500D02*
X175539245Y-78785500D01*
X179180245Y-72145500D02*
X179180245Y-77862500D01*
X181140245Y-64981500D02*
X181140245Y-76429500D01*
X180700245Y-64576500D02*
X180700245Y-76834500D01*
X180860245Y-64716500D02*
X180860245Y-76694500D01*
X179580245Y-63771500D02*
X179580245Y-69265500D01*
X179500245Y-72145500D02*
X179500245Y-77686500D01*
X183260245Y-68631500D02*
X183260245Y-72779500D01*
X181180245Y-65021500D02*
X181180245Y-76389500D01*
X179380245Y-63656500D02*
X179380245Y-69265500D01*
X177980245Y-63039500D02*
X177980245Y-69265500D01*
X176660245Y-62720500D02*
X176660245Y-78690500D01*
X180580245Y-72145500D02*
X180580245Y-76935500D01*
X178540245Y-63248500D02*
X178540245Y-69265500D01*
X182060245Y-66071500D02*
X182060245Y-75339500D01*
X177900245Y-72145500D02*
X177900245Y-78398500D01*
X180300245Y-72145500D02*
X180300245Y-77155500D01*
X179940245Y-63999500D02*
X179940245Y-69265500D01*
X177740245Y-62963500D02*
X177740245Y-69265500D01*
X182740245Y-67230500D02*
X182740245Y-74180500D01*
X182300245Y-66432500D02*
X182300245Y-74978500D01*
X183380245Y-69141500D02*
X183380245Y-72269500D01*
X175499245Y-62625500D02*
X175499245Y-78785500D01*
X178980245Y-63447500D02*
X178980245Y-69265500D01*
X180300245Y-64255500D02*
X180300245Y-69265500D01*
X182780245Y-67315500D02*
X182780245Y-74095500D01*
X180260245Y-64225500D02*
X180260245Y-69265500D01*
X178060245Y-72145500D02*
X178060245Y-78344500D01*
X178660245Y-63299500D02*
X178660245Y-69265500D01*
X175459245Y-62625500D02*
X175459245Y-78785500D01*
X179500245Y-63724500D02*
X179500245Y-69265500D01*
X180660245Y-64542500D02*
X180660245Y-76868500D01*
X180220245Y-72145500D02*
X180220245Y-77215500D01*
X183180245Y-68354500D02*
X183180245Y-73056500D01*
X181580245Y-65454500D02*
X181580245Y-75956500D01*
X181980245Y-65959500D02*
X181980245Y-75451500D01*
X178860245Y-63389500D02*
X178860245Y-69265500D01*
X180340245Y-72145500D02*
X180340245Y-77125500D01*
X177420245Y-62875500D02*
X177420245Y-78535500D01*
X177940245Y-63025500D02*
X177940245Y-69265500D01*
X178100245Y-63080500D02*
X178100245Y-69265500D01*
X178220245Y-63123500D02*
X178220245Y-69265500D01*
X182620245Y-66990500D02*
X182620245Y-74420500D01*
X175619245Y-62627500D02*
X175619245Y-78783500D01*
X179420245Y-63678500D02*
X179420245Y-69265500D01*
X179140245Y-72145500D02*
X179140245Y-77883500D01*
X176820245Y-62746500D02*
X176820245Y-78664500D01*
X179260245Y-63590500D02*
X179260245Y-69265500D01*
X182540245Y-66841500D02*
X182540245Y-74569500D01*
X179860245Y-72145500D02*
X179860245Y-77464500D01*
X176420245Y-62686500D02*
X176420245Y-78724500D01*
X182380245Y-66562500D02*
X182380245Y-74848500D01*
X176500245Y-62697500D02*
X176500245Y-78713500D01*
X176260245Y-62668500D02*
X176260245Y-78742500D01*
X180380245Y-72145500D02*
X180380245Y-77095500D01*
X179780245Y-72145500D02*
X179780245Y-77516500D01*
X182340245Y-66496500D02*
X182340245Y-74914500D01*
X178700245Y-63316500D02*
X178700245Y-69265500D01*
X180020245Y-72145500D02*
X180020245Y-77357500D01*
X177180245Y-62818500D02*
X177180245Y-78592500D01*
X175419245Y-62624500D02*
X175419245Y-78786500D01*
X179740245Y-63869500D02*
X179740245Y-69265500D01*
X180420245Y-72145500D02*
X180420245Y-77063500D01*
X177100245Y-62800500D02*
X177100245Y-78610500D01*
X178300245Y-63152500D02*
X178300245Y-69265500D01*
X180380245Y-64315500D02*
X180380245Y-69265500D01*
X177380245Y-62865500D02*
X177380245Y-78545500D01*
X182220245Y-66307500D02*
X182220245Y-75103500D01*
X179460245Y-63701500D02*
X179460245Y-69265500D01*
X182980245Y-67781500D02*
X182980245Y-73629500D01*
X178660245Y-72145500D02*
X178660245Y-78111500D01*
X178740245Y-72145500D02*
X178740245Y-78076500D01*
X178340245Y-63168500D02*
X178340245Y-69265500D01*
X176099245Y-62653500D02*
X176099245Y-78757500D01*
X176460245Y-62691500D02*
X176460245Y-78719500D01*
X175659245Y-62628500D02*
X175659245Y-78782500D01*
X179300245Y-72145500D02*
X179300245Y-77799500D01*
X178940245Y-72145500D02*
X178940245Y-77983500D01*
X176300245Y-62672500D02*
X176300245Y-78738500D01*
X182420245Y-66629500D02*
X182420245Y-74781500D01*
X177540245Y-62906500D02*
X177540245Y-78504500D01*
X179740245Y-72145500D02*
X179740245Y-77541500D01*
X179260245Y-72145500D02*
X179260245Y-77820500D01*
X178460245Y-72145500D02*
X178460245Y-78195500D01*
X178500245Y-63231500D02*
X178500245Y-69265500D01*
X177300245Y-62845500D02*
X177300245Y-78565500D01*
X177980245Y-72145500D02*
X177980245Y-78371500D01*
X176220245Y-62664500D02*
X176220245Y-78746500D01*
X177820245Y-72145500D02*
X177820245Y-78423500D01*
X179980245Y-72145500D02*
X179980245Y-77384500D01*
X179860245Y-63946500D02*
X179860245Y-69265500D01*
X180220245Y-64195500D02*
X180220245Y-69265500D01*
X179380245Y-72145500D02*
X179380245Y-77754500D01*
X178900245Y-72145500D02*
X178900245Y-78002500D01*
X178060245Y-63066500D02*
X178060245Y-69265500D01*
X177060245Y-62792500D02*
X177060245Y-78618500D01*
X178900245Y-63408500D02*
X178900245Y-69265500D01*
X181620245Y-65501500D02*
X181620245Y-75909500D01*
X178860245Y-72145500D02*
X178860245Y-78021500D01*
X183420245Y-69354500D02*
X183420245Y-72056500D01*
X175739245Y-62631500D02*
X175739245Y-78779500D01*
X178460245Y-63215500D02*
X178460245Y-69265500D01*
X182180245Y-66246500D02*
X182180245Y-75164500D01*
X178940245Y-63427500D02*
X178940245Y-69265500D01*
X181100245Y-64942500D02*
X181100245Y-76468500D01*
X179100245Y-63506500D02*
X179100245Y-69265500D01*
X178580245Y-63265500D02*
X178580245Y-69265500D01*
X180340245Y-64285500D02*
X180340245Y-69265500D01*
X178580245Y-72145500D02*
X178580245Y-78145500D01*
X180100245Y-64109500D02*
X180100245Y-69265500D01*
X176540245Y-62702500D02*
X176540245Y-78708500D01*
X179220245Y-63569500D02*
X179220245Y-69265500D01*
X180780245Y-64645500D02*
X180780245Y-76765500D01*
X182020245Y-66014500D02*
X182020245Y-75396500D01*
X178620245Y-63282500D02*
X178620245Y-69265500D01*
X179900245Y-63972500D02*
X179900245Y-69265500D01*
X179700245Y-63844500D02*
X179700245Y-69265500D01*
X179980245Y-64026500D02*
X179980245Y-69265500D01*
X181220245Y-65062500D02*
X181220245Y-76348500D01*
X179820245Y-63920500D02*
X179820245Y-69265500D01*
X180140245Y-72145500D02*
X180140245Y-77273500D01*
X180140245Y-64137500D02*
X180140245Y-69265500D01*
X176019245Y-62647500D02*
X176019245Y-78763500D01*
X180540245Y-64442500D02*
X180540245Y-69265500D01*
X175819245Y-62634500D02*
X175819245Y-78776500D01*
X167529754Y-65350500D02*
X167529754Y-66950500D01*
X178820245Y-72145500D02*
X178820245Y-78039500D01*
X181860245Y-65799500D02*
X181860245Y-75611500D01*
X182660245Y-67068500D02*
X182660245Y-74342500D01*
X179620245Y-63795500D02*
X179620245Y-69265500D01*
X175699245Y-62629500D02*
X175699245Y-78781500D01*
X179580245Y-72145500D02*
X179580245Y-77639500D01*
X176059245Y-62650500D02*
X176059245Y-78760500D01*
X183539245Y-70705500D02*
G75*
G03*
X183539245Y-70705500I-8120000J0D01*
G01*
%TO.C,R29*%
X85044000Y-63109500D02*
X85044000Y-63439500D01*
X91584000Y-63439500D02*
X91584000Y-63109500D01*
X85044000Y-60699500D02*
X91584000Y-60699500D01*
X91584000Y-60699500D02*
X91584000Y-61029500D01*
X85044000Y-63439500D02*
X91584000Y-63439500D01*
X85044000Y-61029500D02*
X85044000Y-60699500D01*
%TO.C,R2*%
X160474000Y-89215500D02*
X160804000Y-89215500D01*
X160804000Y-89215500D02*
X160804000Y-82675500D01*
X158394000Y-89215500D02*
X158064000Y-89215500D01*
X160804000Y-82675500D02*
X160474000Y-82675500D01*
X158064000Y-89215500D02*
X158064000Y-82675500D01*
X158064000Y-82675500D02*
X158394000Y-82675500D01*
%TO.C,R11*%
X91478000Y-50739500D02*
X84938000Y-50739500D01*
X91478000Y-47999500D02*
X84938000Y-47999500D01*
X84938000Y-47999500D02*
X84938000Y-48329500D01*
X91478000Y-48329500D02*
X91478000Y-47999500D01*
X91478000Y-50409500D02*
X91478000Y-50739500D01*
X84938000Y-50739500D02*
X84938000Y-50409500D01*
%TO.C,R6*%
X91478000Y-45329500D02*
X91478000Y-45659500D01*
X91478000Y-43249500D02*
X91478000Y-42919500D01*
X91478000Y-45659500D02*
X84938000Y-45659500D01*
X84938000Y-42919500D02*
X84938000Y-43249500D01*
X91478000Y-42919500D02*
X84938000Y-42919500D01*
X84938000Y-45659500D02*
X84938000Y-45329500D01*
%TO.C,R17*%
X93426000Y-111369500D02*
X93426000Y-111699500D01*
X93426000Y-108959500D02*
X99966000Y-108959500D01*
X93426000Y-111699500D02*
X99966000Y-111699500D01*
X99966000Y-108959500D02*
X99966000Y-109289500D01*
X93426000Y-109289500D02*
X93426000Y-108959500D01*
X99966000Y-111699500D02*
X99966000Y-111369500D01*
%TO.C,R24*%
X111328000Y-66927500D02*
X111328000Y-73467500D01*
X111328000Y-73467500D02*
X111658000Y-73467500D01*
X114068000Y-66927500D02*
X114068000Y-73467500D01*
X113738000Y-66927500D02*
X114068000Y-66927500D01*
X111658000Y-66927500D02*
X111328000Y-66927500D01*
X114068000Y-73467500D02*
X113738000Y-73467500D01*
%TO.C,R25*%
X114624000Y-88707500D02*
X114294000Y-88707500D01*
X112214000Y-82167500D02*
X111884000Y-82167500D01*
X114294000Y-82167500D02*
X114624000Y-82167500D01*
X111884000Y-88707500D02*
X112214000Y-88707500D01*
X111884000Y-82167500D02*
X111884000Y-88707500D01*
X114624000Y-82167500D02*
X114624000Y-88707500D01*
%TO.C,R3*%
X135082000Y-39055500D02*
X141622000Y-39055500D01*
X135082000Y-38725500D02*
X135082000Y-39055500D01*
X135082000Y-36645500D02*
X135082000Y-36315500D01*
X141622000Y-39055500D02*
X141622000Y-38725500D01*
X135082000Y-36315500D02*
X141622000Y-36315500D01*
X141622000Y-36315500D02*
X141622000Y-36645500D01*
%TO.C,R19*%
X104348000Y-105733500D02*
X104348000Y-105403500D01*
X104348000Y-108143500D02*
X110888000Y-108143500D01*
X110888000Y-105403500D02*
X110888000Y-105733500D01*
X110888000Y-108143500D02*
X110888000Y-107813500D01*
X104348000Y-105403500D02*
X110888000Y-105403500D01*
X104348000Y-107813500D02*
X104348000Y-108143500D01*
%TO.C,Q2*%
X80462000Y-49191500D02*
X76862000Y-49191500D01*
X78662000Y-53641500D02*
G75*
G03*
X81018400Y-52140307I0J2600000D01*
G01*
X76305600Y-52140307D02*
G75*
G03*
X78662000Y-53641500I2356400J1098807D01*
G01*
X80986184Y-49918705D02*
G75*
G03*
X80462000Y-49191500I-2324184J-1122795D01*
G01*
X76862000Y-49191500D02*
G75*
G03*
X76337816Y-49918705I1800000J-1850000D01*
G01*
%TO.C,Q7*%
X123073000Y-88017500D02*
X123073000Y-77777500D01*
X123073000Y-81046500D02*
X124583000Y-81046500D01*
X124583000Y-88017500D02*
X124583000Y-77777500D01*
X123073000Y-88017500D02*
X127714000Y-88017500D01*
X123073000Y-84747500D02*
X124583000Y-84747500D01*
X123073000Y-77777500D02*
X127714000Y-77777500D01*
X127714000Y-88017500D02*
X127714000Y-77777500D01*
%TO.C,J2*%
X123250000Y-93173500D02*
X123250000Y-93123500D01*
X123250000Y-95023500D02*
X123250000Y-93173500D01*
X121400000Y-95023500D02*
X123250000Y-95023500D01*
X121400000Y-93123500D02*
X121400000Y-95023500D01*
X123250000Y-93123500D02*
X121400000Y-93123500D01*
%TO.C,J1*%
X121450000Y-104167500D02*
X123300000Y-104167500D01*
X123300000Y-104167500D02*
X123300000Y-102267500D01*
X121450000Y-104117500D02*
X121450000Y-104167500D01*
X121450000Y-102267500D02*
X121450000Y-104117500D01*
X123300000Y-102267500D02*
X121450000Y-102267500D01*
%TO.C,R14*%
X94564000Y-50607500D02*
X94894000Y-50607500D01*
X96974000Y-44067500D02*
X97304000Y-44067500D01*
X97304000Y-50607500D02*
X96974000Y-50607500D01*
X94894000Y-44067500D02*
X94564000Y-44067500D01*
X97304000Y-44067500D02*
X97304000Y-50607500D01*
X94564000Y-44067500D02*
X94564000Y-50607500D01*
%TO.C,R5*%
X135336000Y-93081500D02*
X135336000Y-93411500D01*
X135336000Y-91001500D02*
X135336000Y-90671500D01*
X135336000Y-90671500D02*
X141876000Y-90671500D01*
X135336000Y-93411500D02*
X141876000Y-93411500D01*
X141876000Y-93411500D02*
X141876000Y-93081500D01*
X141876000Y-90671500D02*
X141876000Y-91001500D01*
%TO.C,J8*%
X84874000Y-77375500D02*
X84874000Y-79225500D01*
X84874000Y-79225500D02*
X84874000Y-79275500D01*
X86724000Y-79275500D02*
X86724000Y-77375500D01*
X86724000Y-77375500D02*
X84874000Y-77375500D01*
X84874000Y-79275500D02*
X86724000Y-79275500D01*
%TO.C,D5*%
X113310000Y-56471500D02*
X111070000Y-56471500D01*
X112190000Y-60521500D02*
X112190000Y-59871500D01*
X113310000Y-59871500D02*
X113310000Y-55631500D01*
X113310000Y-56231500D02*
X111070000Y-56231500D01*
X113310000Y-56351500D02*
X111070000Y-56351500D01*
X111070000Y-55631500D02*
X111070000Y-59871500D01*
X112190000Y-54981500D02*
X112190000Y-55631500D01*
X113310000Y-55631500D02*
X111070000Y-55631500D01*
X111070000Y-59871500D02*
X113310000Y-59871500D01*
%TO.C,D8*%
X118848000Y-41569500D02*
X118848000Y-47009500D01*
X118848000Y-47009500D02*
X121788000Y-47009500D01*
X120318000Y-40549500D02*
X120318000Y-41569500D01*
X121788000Y-42349500D02*
X118848000Y-42349500D01*
X121788000Y-47009500D02*
X121788000Y-41569500D01*
X121788000Y-41569500D02*
X118848000Y-41569500D01*
X121788000Y-42589500D02*
X118848000Y-42589500D01*
X120318000Y-48029500D02*
X120318000Y-47009500D01*
X121788000Y-42469500D02*
X118848000Y-42469500D01*
%TO.C,R26*%
X97304000Y-62291500D02*
X97304000Y-55751500D01*
X97304000Y-55751500D02*
X96974000Y-55751500D01*
X94564000Y-55751500D02*
X94894000Y-55751500D01*
X94894000Y-62291500D02*
X94564000Y-62291500D01*
X94564000Y-62291500D02*
X94564000Y-55751500D01*
X96974000Y-62291500D02*
X97304000Y-62291500D01*
%TO.C,D11*%
X115134000Y-71463500D02*
X117374000Y-71463500D01*
X115134000Y-67823500D02*
X115134000Y-72063500D01*
X116254000Y-72713500D02*
X116254000Y-72063500D01*
X117374000Y-72063500D02*
X117374000Y-67823500D01*
X115134000Y-72063500D02*
X117374000Y-72063500D01*
X115134000Y-71343500D02*
X117374000Y-71343500D01*
X117374000Y-67823500D02*
X115134000Y-67823500D01*
X116254000Y-67173500D02*
X116254000Y-67823500D01*
X115134000Y-71223500D02*
X117374000Y-71223500D01*
%TO.C,R21*%
X89343000Y-111369500D02*
X89343000Y-111699500D01*
X89343000Y-109289500D02*
X89343000Y-108959500D01*
X89343000Y-111699500D02*
X82803000Y-111699500D01*
X82803000Y-108959500D02*
X82803000Y-109289500D01*
X89343000Y-108959500D02*
X82803000Y-108959500D01*
X82803000Y-111699500D02*
X82803000Y-111369500D01*
%TO.C,J11*%
X155994000Y-112427500D02*
X155994000Y-114277500D01*
X157844000Y-114327500D02*
X157844000Y-112427500D01*
X155994000Y-114277500D02*
X155994000Y-114327500D01*
X155994000Y-114327500D02*
X157844000Y-114327500D01*
X157844000Y-112427500D02*
X155994000Y-112427500D01*
%TO.C,R20*%
X102760000Y-103749500D02*
X102760000Y-104079500D01*
X102760000Y-101339500D02*
X96220000Y-101339500D01*
X102760000Y-104079500D02*
X96220000Y-104079500D01*
X102760000Y-101669500D02*
X102760000Y-101339500D01*
X96220000Y-104079500D02*
X96220000Y-103749500D01*
X96220000Y-101339500D02*
X96220000Y-101669500D01*
%TO.C,Q9*%
X80462000Y-58335500D02*
X76862000Y-58335500D01*
X76305600Y-61284307D02*
G75*
G03*
X78662000Y-62785500I2356400J1098807D01*
G01*
X78662000Y-62785500D02*
G75*
G03*
X81018400Y-61284307I0J2600000D01*
G01*
X76862000Y-58335500D02*
G75*
G03*
X76337816Y-59062705I1800000J-1850000D01*
G01*
X80986184Y-59062705D02*
G75*
G03*
X80462000Y-58335500I-2324184J-1122795D01*
G01*
%TO.C,D9*%
X136870000Y-85383500D02*
X136870000Y-82443500D01*
X138790000Y-83913500D02*
X137770000Y-83913500D01*
X137770000Y-82443500D02*
X132330000Y-82443500D01*
X131310000Y-83913500D02*
X132330000Y-83913500D01*
X132330000Y-85383500D02*
X137770000Y-85383500D01*
X136990000Y-85383500D02*
X136990000Y-82443500D01*
X136750000Y-85383500D02*
X136750000Y-82443500D01*
X137770000Y-85383500D02*
X137770000Y-82443500D01*
X132330000Y-82443500D02*
X132330000Y-85383500D01*
%TO.C,D10*%
X120318000Y-67981500D02*
X120318000Y-69001500D01*
X118848000Y-73421500D02*
X121788000Y-73421500D01*
X118848000Y-73661500D02*
X121788000Y-73661500D01*
X121788000Y-74441500D02*
X121788000Y-69001500D01*
X118848000Y-69001500D02*
X118848000Y-74441500D01*
X118848000Y-74441500D02*
X121788000Y-74441500D01*
X120318000Y-75461500D02*
X120318000Y-74441500D01*
X121788000Y-69001500D02*
X118848000Y-69001500D01*
X118848000Y-73541500D02*
X121788000Y-73541500D01*
%TO.C,Q8*%
X80462000Y-66971500D02*
X76862000Y-66971500D01*
X76862000Y-66971500D02*
G75*
G03*
X76337816Y-67698705I1800000J-1850000D01*
G01*
X80986184Y-67698705D02*
G75*
G03*
X80462000Y-66971500I-2324184J-1122795D01*
G01*
X76305600Y-69920307D02*
G75*
G03*
X78662000Y-71421500I2356400J1098807D01*
G01*
X78662000Y-71421500D02*
G75*
G03*
X81018400Y-69920307I0J2600000D01*
G01*
%TO.C,J5*%
X123300000Y-99727500D02*
X121450000Y-99727500D01*
X121450000Y-101577500D02*
X121450000Y-101627500D01*
X121450000Y-99727500D02*
X121450000Y-101577500D01*
X121450000Y-101627500D02*
X123300000Y-101627500D01*
X123300000Y-101627500D02*
X123300000Y-99727500D01*
%TO.C,J6*%
X86724000Y-80423500D02*
X84874000Y-80423500D01*
X84874000Y-82273500D02*
X84874000Y-82323500D01*
X86724000Y-82323500D02*
X86724000Y-80423500D01*
X84874000Y-82323500D02*
X86724000Y-82323500D01*
X84874000Y-80423500D02*
X84874000Y-82273500D01*
%TO.C,C12*%
X168752000Y-103244500D02*
X168752000Y-105984500D01*
X173992000Y-103244500D02*
X173992000Y-105984500D01*
X168752000Y-105984500D02*
X173992000Y-105984500D01*
X168752000Y-103244500D02*
X173992000Y-103244500D01*
%TO.C,C6*%
X117162379Y-112543500D02*
X117162379Y-106083500D01*
X114881379Y-111578500D02*
X114881379Y-107048500D01*
X120702620Y-111152500D02*
X120072620Y-111152500D01*
X115121379Y-111797500D02*
X115121379Y-110353500D01*
X116441379Y-112454500D02*
X116441379Y-110353500D01*
X116361379Y-108273500D02*
X116361379Y-106192500D01*
X116682379Y-112502500D02*
X116682379Y-110353500D01*
X115361379Y-111977500D02*
X115361379Y-110353500D01*
X115081379Y-108273500D02*
X115081379Y-106863500D01*
X114721379Y-111405500D02*
X114721379Y-107221500D01*
X115521379Y-108273500D02*
X115521379Y-106547500D01*
X116081379Y-108273500D02*
X116081379Y-106280500D01*
X115321379Y-111949500D02*
X115321379Y-110353500D01*
X114321379Y-110822500D02*
X114321379Y-107804500D01*
X115521379Y-112079500D02*
X115521379Y-110353500D01*
X114641379Y-111308500D02*
X114641379Y-107318500D01*
X115881379Y-108273500D02*
X115881379Y-106361500D01*
X115001379Y-108273500D02*
X115001379Y-106933500D01*
X114481379Y-111089500D02*
X114481379Y-107537500D01*
X114681379Y-111357500D02*
X114681379Y-107269500D01*
X114921379Y-108273500D02*
X114921379Y-107008500D01*
X116602379Y-108273500D02*
X116602379Y-106138500D01*
X116401379Y-108273500D02*
X116401379Y-106182500D01*
X115041379Y-108273500D02*
X115041379Y-106897500D01*
X115801379Y-108273500D02*
X115801379Y-106397500D01*
X115641379Y-108273500D02*
X115641379Y-106479500D01*
X115561379Y-108273500D02*
X115561379Y-106523500D01*
X116922379Y-108273500D02*
X116922379Y-106095500D01*
X116882379Y-108273500D02*
X116882379Y-106098500D01*
X114361379Y-110894500D02*
X114361379Y-107732500D01*
X115641379Y-112147500D02*
X115641379Y-110353500D01*
X116201379Y-108273500D02*
X116201379Y-106239500D01*
X116201379Y-112387500D02*
X116201379Y-110353500D01*
X116922379Y-112531500D02*
X116922379Y-110353500D01*
X116962379Y-108273500D02*
X116962379Y-106091500D01*
X115241379Y-108273500D02*
X115241379Y-106735500D01*
X114401379Y-110963500D02*
X114401379Y-107663500D01*
X117202379Y-112543500D02*
X117202379Y-106083500D01*
X116241379Y-108273500D02*
X116241379Y-106227500D01*
X115481379Y-108273500D02*
X115481379Y-106571500D01*
X114001379Y-109946500D02*
X114001379Y-108680500D01*
X116481379Y-108273500D02*
X116481379Y-106163500D01*
X116241379Y-112399500D02*
X116241379Y-110353500D01*
X116682379Y-108273500D02*
X116682379Y-106124500D01*
X116121379Y-108273500D02*
X116121379Y-106266500D01*
X116562379Y-108273500D02*
X116562379Y-106146500D01*
X115801379Y-112229500D02*
X115801379Y-110353500D01*
X116161379Y-108273500D02*
X116161379Y-106252500D01*
X115841379Y-108273500D02*
X115841379Y-106379500D01*
X114961379Y-108273500D02*
X114961379Y-106970500D01*
X114961379Y-111656500D02*
X114961379Y-110353500D01*
X115441379Y-112029500D02*
X115441379Y-110353500D01*
X115361379Y-108273500D02*
X115361379Y-106649500D01*
X116562379Y-112480500D02*
X116562379Y-110353500D01*
X114841379Y-111537500D02*
X114841379Y-107089500D01*
X115401379Y-108273500D02*
X115401379Y-106623500D01*
X116121379Y-112360500D02*
X116121379Y-110353500D01*
X115161379Y-111829500D02*
X115161379Y-110353500D01*
X115121379Y-108273500D02*
X115121379Y-106829500D01*
X114161379Y-110478500D02*
X114161379Y-108148500D01*
X115561379Y-112103500D02*
X115561379Y-110353500D01*
X117002379Y-112537500D02*
X117002379Y-106089500D01*
X116602379Y-112488500D02*
X116602379Y-110353500D01*
X115321379Y-108273500D02*
X115321379Y-106677500D01*
X116281379Y-108273500D02*
X116281379Y-106215500D01*
X116281379Y-112411500D02*
X116281379Y-110353500D01*
X114081379Y-110253500D02*
X114081379Y-108373500D01*
X115281379Y-108273500D02*
X115281379Y-106706500D01*
X115601379Y-112125500D02*
X115601379Y-110353500D01*
X116722379Y-108273500D02*
X116722379Y-106118500D01*
X116441379Y-108273500D02*
X116441379Y-106172500D01*
X115721379Y-108273500D02*
X115721379Y-106437500D01*
X115401379Y-112003500D02*
X115401379Y-110353500D01*
X115201379Y-108273500D02*
X115201379Y-106765500D01*
X115241379Y-111891500D02*
X115241379Y-110353500D01*
X115681379Y-112169500D02*
X115681379Y-110353500D01*
X116041379Y-108273500D02*
X116041379Y-106295500D01*
X116001379Y-112315500D02*
X116001379Y-110353500D01*
X115481379Y-112055500D02*
X115481379Y-110353500D01*
X117122379Y-112543500D02*
X117122379Y-106083500D01*
X114281379Y-110745500D02*
X114281379Y-107881500D01*
X116361379Y-112434500D02*
X116361379Y-110353500D01*
X114521379Y-111147500D02*
X114521379Y-107479500D01*
X114801379Y-111495500D02*
X114801379Y-107131500D01*
X116081379Y-112346500D02*
X116081379Y-110353500D01*
X114121379Y-110372500D02*
X114121379Y-108254500D01*
X115281379Y-111920500D02*
X115281379Y-110353500D01*
X115001379Y-111693500D02*
X115001379Y-110353500D01*
X115961379Y-112299500D02*
X115961379Y-110353500D01*
X116522379Y-112472500D02*
X116522379Y-110353500D01*
X116722379Y-112508500D02*
X116722379Y-110353500D01*
X116762379Y-112514500D02*
X116762379Y-110353500D01*
X115921379Y-112283500D02*
X115921379Y-110353500D01*
X114921379Y-111618500D02*
X114921379Y-110353500D01*
X116642379Y-112495500D02*
X116642379Y-110353500D01*
X114201379Y-110575500D02*
X114201379Y-108051500D01*
X115201379Y-111861500D02*
X115201379Y-110353500D01*
X116842379Y-112524500D02*
X116842379Y-110353500D01*
X116401379Y-112444500D02*
X116401379Y-110353500D01*
X115081379Y-111763500D02*
X115081379Y-110353500D01*
X115761379Y-112209500D02*
X115761379Y-110353500D01*
X115601379Y-108273500D02*
X115601379Y-106501500D01*
X116802379Y-108273500D02*
X116802379Y-106107500D01*
X114441379Y-111027500D02*
X114441379Y-107599500D01*
X113961379Y-109715500D02*
X113961379Y-108911500D01*
X116842379Y-108273500D02*
X116842379Y-106102500D01*
X115441379Y-108273500D02*
X115441379Y-106597500D01*
X116001379Y-108273500D02*
X116001379Y-106311500D01*
X116321379Y-108273500D02*
X116321379Y-106203500D01*
X120387620Y-111467500D02*
X120387620Y-110837500D01*
X117042379Y-112540500D02*
X117042379Y-106086500D01*
X115161379Y-108273500D02*
X115161379Y-106797500D01*
X116642379Y-108273500D02*
X116642379Y-106131500D01*
X116882379Y-112528500D02*
X116882379Y-110353500D01*
X114041379Y-110115500D02*
X114041379Y-108511500D01*
X115041379Y-111729500D02*
X115041379Y-110353500D01*
X116802379Y-112519500D02*
X116802379Y-110353500D01*
X117082379Y-112541500D02*
X117082379Y-106085500D01*
X115961379Y-108273500D02*
X115961379Y-106327500D01*
X114241379Y-110663500D02*
X114241379Y-107963500D01*
X116161379Y-112374500D02*
X116161379Y-110353500D01*
X114761379Y-111450500D02*
X114761379Y-107176500D01*
X115761379Y-108273500D02*
X115761379Y-106417500D01*
X116962379Y-112535500D02*
X116962379Y-110353500D01*
X115721379Y-112189500D02*
X115721379Y-110353500D01*
X114561379Y-111203500D02*
X114561379Y-107423500D01*
X116762379Y-108273500D02*
X116762379Y-106112500D01*
X115921379Y-108273500D02*
X115921379Y-106343500D01*
X115881379Y-112265500D02*
X115881379Y-110353500D01*
X116041379Y-112331500D02*
X116041379Y-110353500D01*
X116321379Y-112423500D02*
X116321379Y-110353500D01*
X115681379Y-108273500D02*
X115681379Y-106457500D01*
X115841379Y-112247500D02*
X115841379Y-110353500D01*
X114601379Y-111257500D02*
X114601379Y-107369500D01*
X116481379Y-112463500D02*
X116481379Y-110353500D01*
X116522379Y-108273500D02*
X116522379Y-106154500D01*
X120472379Y-109313500D02*
G75*
G03*
X120472379Y-109313500I-3270000J0D01*
G01*
%TO.C,Q6*%
X123073000Y-76333500D02*
X123073000Y-66093500D01*
X123073000Y-73063500D02*
X124583000Y-73063500D01*
X124583000Y-76333500D02*
X124583000Y-66093500D01*
X123073000Y-76333500D02*
X127714000Y-76333500D01*
X127714000Y-76333500D02*
X127714000Y-66093500D01*
X123073000Y-69362500D02*
X124583000Y-69362500D01*
X123073000Y-66093500D02*
X127714000Y-66093500D01*
%TO.C,J9*%
X94852000Y-77375500D02*
X93002000Y-77375500D01*
X93002000Y-79275500D02*
X94852000Y-79275500D01*
X94852000Y-79275500D02*
X94852000Y-77375500D01*
X93002000Y-79225500D02*
X93002000Y-79275500D01*
X93002000Y-77375500D02*
X93002000Y-79225500D01*
%TO.C,R27*%
X110888000Y-79187500D02*
X110888000Y-78857500D01*
X104348000Y-76447500D02*
X110888000Y-76447500D01*
X104348000Y-79187500D02*
X110888000Y-79187500D01*
X104348000Y-78857500D02*
X104348000Y-79187500D01*
X104348000Y-76777500D02*
X104348000Y-76447500D01*
X110888000Y-76447500D02*
X110888000Y-76777500D01*
%TO.C,U7*%
X101731000Y-73345500D02*
X109471000Y-73345500D01*
X109471000Y-73345500D02*
X109471000Y-68045500D01*
X101731000Y-71695500D02*
X101731000Y-73345500D01*
X109471000Y-68045500D02*
X101731000Y-68045500D01*
X101731000Y-68045500D02*
X101731000Y-69695500D01*
X101731000Y-71695500D02*
G75*
G03*
X101731000Y-69695500I0J1000000D01*
G01*
%TO.C,R13*%
X114952000Y-49523500D02*
X114952000Y-49853500D01*
X108412000Y-49853500D02*
X108412000Y-49523500D01*
X114952000Y-52263500D02*
X114952000Y-51933500D01*
X108412000Y-51933500D02*
X108412000Y-52263500D01*
X108412000Y-49523500D02*
X114952000Y-49523500D01*
X108412000Y-52263500D02*
X114952000Y-52263500D01*
%TO.C,C10*%
X77746000Y-99233500D02*
X77746000Y-93993500D01*
X75006000Y-93993500D02*
X77746000Y-93993500D01*
X75006000Y-99233500D02*
X75006000Y-93993500D01*
X75006000Y-99233500D02*
X77746000Y-99233500D01*
%TO.C,R30*%
X85044000Y-65271500D02*
X91584000Y-65271500D01*
X85044000Y-65601500D02*
X85044000Y-65271500D01*
X85044000Y-67681500D02*
X85044000Y-68011500D01*
X91584000Y-68011500D02*
X91584000Y-67681500D01*
X91584000Y-65271500D02*
X91584000Y-65601500D01*
X85044000Y-68011500D02*
X91584000Y-68011500D01*
%TO.C,C5*%
X151866620Y-105273500D02*
X151866620Y-107307500D01*
X152186620Y-101281500D02*
X152186620Y-103193500D01*
X151906620Y-105273500D02*
X151906620Y-107294500D01*
X152146620Y-105273500D02*
X152146620Y-107203500D01*
X153986620Y-103293500D02*
X153986620Y-105173500D01*
X151746620Y-101123500D02*
X151746620Y-103193500D01*
X152586620Y-101491500D02*
X152586620Y-103193500D01*
X153346620Y-102141500D02*
X153346620Y-106325500D01*
X153106620Y-101890500D02*
X153106620Y-103193500D01*
X152906620Y-101717500D02*
X152906620Y-103193500D01*
X152106620Y-105273500D02*
X152106620Y-107219500D01*
X152386620Y-101377500D02*
X152386620Y-103193500D01*
X151706620Y-101112500D02*
X151706620Y-103193500D01*
X153026620Y-101817500D02*
X153026620Y-103193500D01*
X153386620Y-102189500D02*
X153386620Y-106277500D01*
X154106620Y-103831500D02*
X154106620Y-104635500D01*
X153706620Y-102652500D02*
X153706620Y-105814500D01*
X152866620Y-105273500D02*
X152866620Y-106781500D01*
X151946620Y-101186500D02*
X151946620Y-103193500D01*
X151505620Y-101066500D02*
X151505620Y-103193500D01*
X153746620Y-102724500D02*
X153746620Y-105742500D01*
X152346620Y-101357500D02*
X152346620Y-103193500D01*
X151706620Y-105273500D02*
X151706620Y-107354500D01*
X152706620Y-101569500D02*
X152706620Y-103193500D01*
X151666620Y-105273500D02*
X151666620Y-107364500D01*
X152226620Y-101299500D02*
X152226620Y-103193500D01*
X152146620Y-101263500D02*
X152146620Y-103193500D01*
X152266620Y-105273500D02*
X152266620Y-107149500D01*
X152386620Y-105273500D02*
X152386620Y-107089500D01*
X151105620Y-105273500D02*
X151105620Y-107455500D01*
X152746620Y-101597500D02*
X152746620Y-103193500D01*
X152786620Y-105273500D02*
X152786620Y-106840500D01*
X151666620Y-101102500D02*
X151666620Y-103193500D01*
X151145620Y-105273500D02*
X151145620Y-107451500D01*
X151345620Y-105273500D02*
X151345620Y-107428500D01*
X152546620Y-101467500D02*
X152546620Y-103193500D01*
X150905620Y-101003500D02*
X150905620Y-107463500D01*
X150985620Y-101005500D02*
X150985620Y-107461500D01*
X151946620Y-105273500D02*
X151946620Y-107280500D01*
X154066620Y-103600500D02*
X154066620Y-104866500D01*
X151505620Y-105273500D02*
X151505620Y-107400500D01*
X147365379Y-102394500D02*
X147995379Y-102394500D01*
X153066620Y-101853500D02*
X153066620Y-103193500D01*
X152866620Y-101685500D02*
X152866620Y-103193500D01*
X150865620Y-101003500D02*
X150865620Y-107463500D01*
X151385620Y-101044500D02*
X151385620Y-103193500D01*
X151105620Y-101011500D02*
X151105620Y-103193500D01*
X153306620Y-102096500D02*
X153306620Y-106370500D01*
X153506620Y-102343500D02*
X153506620Y-106123500D01*
X151786620Y-101135500D02*
X151786620Y-103193500D01*
X151866620Y-101159500D02*
X151866620Y-103193500D01*
X151385620Y-105273500D02*
X151385620Y-107422500D01*
X153106620Y-105273500D02*
X153106620Y-106576500D01*
X151545620Y-101074500D02*
X151545620Y-103193500D01*
X147680379Y-102079500D02*
X147680379Y-102709500D01*
X152586620Y-105273500D02*
X152586620Y-106975500D01*
X151185620Y-105273500D02*
X151185620Y-107448500D01*
X151986620Y-105273500D02*
X151986620Y-107266500D01*
X151826620Y-101147500D02*
X151826620Y-103193500D01*
X151345620Y-101038500D02*
X151345620Y-103193500D01*
X152706620Y-105273500D02*
X152706620Y-106897500D01*
X152066620Y-105273500D02*
X152066620Y-107235500D01*
X151225620Y-101022500D02*
X151225620Y-103193500D01*
X152346620Y-105273500D02*
X152346620Y-107109500D01*
X153946620Y-103174500D02*
X153946620Y-105292500D01*
X152426620Y-105273500D02*
X152426620Y-107067500D01*
X152986620Y-101783500D02*
X152986620Y-103193500D01*
X151465620Y-105273500D02*
X151465620Y-107408500D01*
X151465620Y-101058500D02*
X151465620Y-103193500D01*
X152426620Y-101399500D02*
X152426620Y-103193500D01*
X151986620Y-101200500D02*
X151986620Y-103193500D01*
X151545620Y-105273500D02*
X151545620Y-107392500D01*
X153146620Y-105273500D02*
X153146620Y-106538500D01*
X152946620Y-105273500D02*
X152946620Y-106717500D01*
X151586620Y-105273500D02*
X151586620Y-107383500D01*
X153066620Y-105273500D02*
X153066620Y-106613500D01*
X153466620Y-102289500D02*
X153466620Y-106177500D01*
X152466620Y-101421500D02*
X152466620Y-103193500D01*
X152666620Y-105273500D02*
X152666620Y-106923500D01*
X153266620Y-102051500D02*
X153266620Y-106415500D01*
X153666620Y-102583500D02*
X153666620Y-105883500D01*
X153546620Y-102399500D02*
X153546620Y-106067500D01*
X151305620Y-105273500D02*
X151305620Y-107434500D01*
X153786620Y-102801500D02*
X153786620Y-105665500D01*
X151425620Y-105273500D02*
X151425620Y-107415500D01*
X151305620Y-101032500D02*
X151305620Y-103193500D01*
X153586620Y-102457500D02*
X153586620Y-106009500D01*
X153146620Y-101928500D02*
X153146620Y-103193500D01*
X151586620Y-101083500D02*
X151586620Y-103193500D01*
X152306620Y-101337500D02*
X152306620Y-103193500D01*
X153026620Y-105273500D02*
X153026620Y-106649500D01*
X151025620Y-101006500D02*
X151025620Y-107460500D01*
X152626620Y-105273500D02*
X152626620Y-106949500D01*
X152106620Y-101247500D02*
X152106620Y-103193500D01*
X151826620Y-105273500D02*
X151826620Y-107319500D01*
X152026620Y-101215500D02*
X152026620Y-103193500D01*
X152506620Y-105273500D02*
X152506620Y-107023500D01*
X151185620Y-101018500D02*
X151185620Y-103193500D01*
X151425620Y-101051500D02*
X151425620Y-103193500D01*
X150945620Y-101003500D02*
X150945620Y-107463500D01*
X152266620Y-101317500D02*
X152266620Y-103193500D01*
X152946620Y-101749500D02*
X152946620Y-103193500D01*
X151746620Y-105273500D02*
X151746620Y-107343500D01*
X152546620Y-105273500D02*
X152546620Y-106999500D01*
X153426620Y-102238500D02*
X153426620Y-106228500D01*
X151786620Y-105273500D02*
X151786620Y-107331500D01*
X152986620Y-105273500D02*
X152986620Y-106683500D01*
X152786620Y-101626500D02*
X152786620Y-103193500D01*
X151065620Y-101009500D02*
X151065620Y-107457500D01*
X152026620Y-105273500D02*
X152026620Y-107251500D01*
X153186620Y-101968500D02*
X153186620Y-106498500D01*
X151906620Y-101172500D02*
X151906620Y-103193500D01*
X153866620Y-102971500D02*
X153866620Y-105495500D01*
X152746620Y-105273500D02*
X152746620Y-106869500D01*
X153826620Y-102883500D02*
X153826620Y-105583500D01*
X152226620Y-105273500D02*
X152226620Y-107167500D01*
X152066620Y-101231500D02*
X152066620Y-103193500D01*
X153226620Y-102009500D02*
X153226620Y-106457500D01*
X152506620Y-101443500D02*
X152506620Y-103193500D01*
X152306620Y-105273500D02*
X152306620Y-107129500D01*
X152826620Y-101655500D02*
X152826620Y-103193500D01*
X151626620Y-105273500D02*
X151626620Y-107374500D01*
X152666620Y-101543500D02*
X152666620Y-103193500D01*
X151626620Y-101092500D02*
X151626620Y-103193500D01*
X152466620Y-105273500D02*
X152466620Y-107045500D01*
X152186620Y-105273500D02*
X152186620Y-107185500D01*
X151265620Y-105273500D02*
X151265620Y-107439500D01*
X151225620Y-105273500D02*
X151225620Y-107444500D01*
X152826620Y-105273500D02*
X152826620Y-106811500D01*
X154026620Y-103431500D02*
X154026620Y-105035500D01*
X152626620Y-101517500D02*
X152626620Y-103193500D01*
X152906620Y-105273500D02*
X152906620Y-106749500D01*
X153906620Y-103068500D02*
X153906620Y-105398500D01*
X151265620Y-101027500D02*
X151265620Y-103193500D01*
X151145620Y-101015500D02*
X151145620Y-103193500D01*
X153626620Y-102519500D02*
X153626620Y-105947500D01*
X154135620Y-104233500D02*
G75*
G03*
X154135620Y-104233500I-3270000J0D01*
G01*
%TO.C,U2*%
X101716000Y-46421500D02*
X109456000Y-46421500D01*
X101716000Y-41121500D02*
X101716000Y-42771500D01*
X109456000Y-41121500D02*
X101716000Y-41121500D01*
X101716000Y-44771500D02*
X101716000Y-46421500D01*
X109456000Y-46421500D02*
X109456000Y-41121500D01*
X101716000Y-44771500D02*
G75*
G03*
X101716000Y-42771500I0J1000000D01*
G01*
%TO.C,U5*%
X168401000Y-92509500D02*
X168401000Y-102749500D01*
X173042000Y-99480500D02*
X171532000Y-99480500D01*
X173042000Y-92509500D02*
X173042000Y-102749500D01*
X173042000Y-95779500D02*
X171532000Y-95779500D01*
X171532000Y-92509500D02*
X171532000Y-102749500D01*
X173042000Y-102749500D02*
X168401000Y-102749500D01*
X173042000Y-92509500D02*
X168401000Y-92509500D01*
%TO.C,T1*%
X130210000Y-40330500D02*
X130210000Y-80330500D01*
X130210000Y-80330500D02*
X160210000Y-80330500D01*
X160210000Y-40330500D02*
X130210000Y-40330500D01*
X160210000Y-80330500D02*
X160210000Y-40330500D01*
%TO.C,Q4*%
X123073000Y-45994500D02*
X124583000Y-45994500D01*
X124583000Y-52965500D02*
X124583000Y-42725500D01*
X123073000Y-42725500D02*
X127714000Y-42725500D01*
X123073000Y-52965500D02*
X127714000Y-52965500D01*
X123073000Y-49695500D02*
X124583000Y-49695500D01*
X127714000Y-52965500D02*
X127714000Y-42725500D01*
X123073000Y-52965500D02*
X123073000Y-42725500D01*
%TO.C,R16*%
X116786000Y-46289500D02*
X117116000Y-46289500D01*
X114376000Y-39749500D02*
X114706000Y-39749500D01*
X114376000Y-46289500D02*
X114376000Y-39749500D01*
X117116000Y-39749500D02*
X116786000Y-39749500D01*
X114706000Y-46289500D02*
X114376000Y-46289500D01*
X117116000Y-46289500D02*
X117116000Y-39749500D01*
%TO.C,D2*%
X165622000Y-41295500D02*
X165622000Y-44235500D01*
X170282000Y-44235500D02*
X170282000Y-41295500D01*
X163822000Y-42765500D02*
X164842000Y-42765500D01*
X165862000Y-41295500D02*
X165862000Y-44235500D01*
X164842000Y-41295500D02*
X164842000Y-44235500D01*
X164842000Y-44235500D02*
X170282000Y-44235500D01*
X165742000Y-41295500D02*
X165742000Y-44235500D01*
X170282000Y-41295500D02*
X164842000Y-41295500D01*
X171302000Y-42765500D02*
X170282000Y-42765500D01*
%TO.C,R22*%
X78000000Y-76325500D02*
X77670000Y-76325500D01*
X75260000Y-82865500D02*
X75260000Y-76325500D01*
X75260000Y-76325500D02*
X75590000Y-76325500D01*
X75590000Y-82865500D02*
X75260000Y-82865500D01*
X77670000Y-82865500D02*
X78000000Y-82865500D01*
X78000000Y-82865500D02*
X78000000Y-76325500D01*
%TO.C,Q5*%
X123073000Y-54409500D02*
X127714000Y-54409500D01*
X123073000Y-64649500D02*
X123073000Y-54409500D01*
X123073000Y-64649500D02*
X127714000Y-64649500D01*
X123073000Y-61379500D02*
X124583000Y-61379500D01*
X124583000Y-64649500D02*
X124583000Y-54409500D01*
X123073000Y-57678500D02*
X124583000Y-57678500D01*
X127714000Y-64649500D02*
X127714000Y-54409500D01*
%TO.C,D7*%
X121788000Y-56185500D02*
X118848000Y-56185500D01*
X118848000Y-55285500D02*
X118848000Y-60725500D01*
X121788000Y-55285500D02*
X118848000Y-55285500D01*
X121788000Y-60725500D02*
X121788000Y-55285500D01*
X118848000Y-60725500D02*
X121788000Y-60725500D01*
X121788000Y-56305500D02*
X118848000Y-56305500D01*
X120318000Y-61745500D02*
X120318000Y-60725500D01*
X121788000Y-56065500D02*
X118848000Y-56065500D01*
X120318000Y-54265500D02*
X120318000Y-55285500D01*
%TO.C,R31*%
X91584000Y-56635500D02*
X91584000Y-56965500D01*
X91584000Y-59375500D02*
X91584000Y-59045500D01*
X85044000Y-56965500D02*
X85044000Y-56635500D01*
X85044000Y-59045500D02*
X85044000Y-59375500D01*
X85044000Y-59375500D02*
X91584000Y-59375500D01*
X85044000Y-56635500D02*
X91584000Y-56635500D01*
%TO.C,C4*%
X140792000Y-105784500D02*
X140792000Y-108524500D01*
X140792000Y-105784500D02*
X146032000Y-105784500D01*
X146032000Y-105784500D02*
X146032000Y-108524500D01*
X140792000Y-108524500D02*
X146032000Y-108524500D01*
%TO.C,R28*%
X85044000Y-71745500D02*
X85044000Y-72075500D01*
X85044000Y-69665500D02*
X85044000Y-69335500D01*
X91584000Y-69335500D02*
X91584000Y-69665500D01*
X91584000Y-72075500D02*
X91584000Y-71745500D01*
X85044000Y-72075500D02*
X91584000Y-72075500D01*
X85044000Y-69335500D02*
X91584000Y-69335500D01*
%TO.C,C11*%
X173992000Y-89147500D02*
X173992000Y-91887500D01*
X168752000Y-89147500D02*
X168752000Y-91887500D01*
X168752000Y-91887500D02*
X173992000Y-91887500D01*
X168752000Y-89147500D02*
X173992000Y-89147500D01*
%TO.C,C1*%
X134442000Y-108524500D02*
X139682000Y-108524500D01*
X139682000Y-105784500D02*
X139682000Y-108524500D01*
X134442000Y-105784500D02*
X134442000Y-108524500D01*
X134442000Y-105784500D02*
X139682000Y-105784500D01*
%TO.C,R9*%
X154322000Y-99634500D02*
X147782000Y-99634500D01*
X154322000Y-96894500D02*
X147782000Y-96894500D01*
X154322000Y-97224500D02*
X154322000Y-96894500D01*
X154322000Y-99304500D02*
X154322000Y-99634500D01*
X147782000Y-99634500D02*
X147782000Y-99304500D01*
X147782000Y-96894500D02*
X147782000Y-97224500D01*
%TO.C,Q1*%
X80462000Y-40555500D02*
X76862000Y-40555500D01*
X76305600Y-43504307D02*
G75*
G03*
X78662000Y-45005500I2356400J1098807D01*
G01*
X80986184Y-41282705D02*
G75*
G03*
X80462000Y-40555500I-2324184J-1122795D01*
G01*
X78662000Y-45005500D02*
G75*
G03*
X81018400Y-43504307I0J2600000D01*
G01*
X76862000Y-40555500D02*
G75*
G03*
X76337816Y-41282705I1800000J-1850000D01*
G01*
%TO.C,C7*%
X110811000Y-101339500D02*
X110811000Y-104079500D01*
X105571000Y-101339500D02*
X105571000Y-104079500D01*
X105571000Y-104079500D02*
X110811000Y-104079500D01*
X105571000Y-101339500D02*
X110811000Y-101339500D01*
%TO.C,R12*%
X147782000Y-93084500D02*
X154322000Y-93084500D01*
X147782000Y-93414500D02*
X147782000Y-93084500D01*
X147782000Y-95824500D02*
X154322000Y-95824500D01*
X154322000Y-95824500D02*
X154322000Y-95494500D01*
X154322000Y-93084500D02*
X154322000Y-93414500D01*
X147782000Y-95494500D02*
X147782000Y-95824500D01*
%TD*%
M02*
