%TF.GenerationSoftware,KiCad,Pcbnew,6.0.8-f2edbf62ab~116~ubuntu20.04.1*%
%TF.CreationDate,2022-10-11T23:56:16-03:00*%
%TF.ProjectId,Proyecto_p_curso,50726f79-6563-4746-9f5f-705f63757273,rev?*%
%TF.SameCoordinates,Original*%
%TF.FileFunction,Soldermask,Top*%
%TF.FilePolarity,Negative*%
%FSLAX46Y46*%
G04 Gerber Fmt 4.6, Leading zero omitted, Abs format (unit mm)*
G04 Created by KiCad (PCBNEW 6.0.8-f2edbf62ab~116~ubuntu20.04.1) date 2022-10-11 23:56:16*
%MOMM*%
%LPD*%
G01*
G04 APERTURE LIST*
%ADD10C,3.700000*%
%ADD11R,1.700000X1.700000*%
%ADD12O,1.700000X1.700000*%
%ADD13C,1.524000*%
%ADD14R,1.500000X3.000000*%
%ADD15O,1.500000X3.000000*%
%ADD16C,1.440000*%
%ADD17C,2.000000*%
%ADD18C,1.600000*%
%ADD19O,1.600000X1.600000*%
%ADD20R,2.200000X2.200000*%
%ADD21O,2.200000X2.200000*%
%ADD22R,3.000000X3.000000*%
%ADD23C,3.000000*%
%ADD24R,2.400000X1.600000*%
%ADD25O,2.400000X1.600000*%
G04 APERTURE END LIST*
D10*
%TO.C,REF\u002A\u002A*%
X116000000Y-138500000D03*
%TD*%
%TO.C,REF\u002A\u002A*%
X194500000Y-68000000D03*
%TD*%
%TO.C,REF\u002A\u002A*%
X116000000Y-67500000D03*
%TD*%
%TO.C,REF\u002A\u002A*%
X194750000Y-138750000D03*
%TD*%
D11*
%TO.C,U2*%
X184500000Y-68460000D03*
D12*
X181960000Y-68460000D03*
X179420000Y-68460000D03*
X176880000Y-68460000D03*
X174340000Y-68460000D03*
X171800000Y-68460000D03*
X169260000Y-68460000D03*
X166720000Y-68460000D03*
X164180000Y-68460000D03*
X161640000Y-68460000D03*
X159100000Y-68460000D03*
X156560000Y-68460000D03*
X154020000Y-68460000D03*
X151480000Y-68460000D03*
X148940000Y-68460000D03*
X146400000Y-68460000D03*
X143860000Y-68460000D03*
X141320000Y-68460000D03*
X138780000Y-68460000D03*
X136240000Y-68460000D03*
X133700000Y-68460000D03*
X131160000Y-68460000D03*
X184500000Y-88780000D03*
X181960000Y-88780000D03*
X179420000Y-88780000D03*
X176880000Y-88780000D03*
X174340000Y-88780000D03*
X171800000Y-88780000D03*
X169260000Y-88780000D03*
X166720000Y-88780000D03*
X164180000Y-88780000D03*
X161640000Y-88780000D03*
X159100000Y-88780000D03*
X156560000Y-88780000D03*
X154020000Y-88780000D03*
X151480000Y-88780000D03*
X148940000Y-88780000D03*
X146400000Y-88780000D03*
X143860000Y-88780000D03*
X141320000Y-88780000D03*
X138780000Y-88780000D03*
X136240000Y-88780000D03*
X133700000Y-88780000D03*
X131160000Y-88780000D03*
%TD*%
D13*
%TO.C,Q6*%
X174167000Y-128064000D03*
X174167000Y-124000000D03*
X174167000Y-119936000D03*
%TD*%
%TO.C,Q5*%
X184167000Y-106936000D03*
X184167000Y-111000000D03*
X184167000Y-115064000D03*
%TD*%
%TO.C,Q4*%
X184167000Y-128064000D03*
X184167000Y-124000000D03*
X184167000Y-119936000D03*
%TD*%
%TO.C,Q3*%
X174167000Y-115064000D03*
X174167000Y-111000000D03*
X174167000Y-106936000D03*
%TD*%
%TO.C,Q2*%
X166064000Y-122333000D03*
X162000000Y-122333000D03*
X157936000Y-122333000D03*
%TD*%
%TO.C,Q1*%
X166064000Y-114333000D03*
X162000000Y-114333000D03*
X157936000Y-114333000D03*
%TD*%
D14*
%TO.C,U1*%
X151784000Y-97783500D03*
D15*
X154324000Y-97783500D03*
X156864000Y-97783500D03*
X159404000Y-97783500D03*
X161944000Y-97783500D03*
X164484000Y-97783500D03*
X167024000Y-97783500D03*
X169564000Y-97783500D03*
X172104000Y-97783500D03*
X174644000Y-97783500D03*
X177184000Y-97783500D03*
X179724000Y-97783500D03*
X182264000Y-97783500D03*
X184804000Y-97783500D03*
X149244000Y-97783500D03*
X146704000Y-97783500D03*
%TD*%
D16*
%TO.C,RV1*%
X119540000Y-76000000D03*
X117000000Y-76000000D03*
X114460000Y-76000000D03*
%TD*%
D17*
%TO.C,SW2*%
X196000000Y-83500000D03*
X189500000Y-83500000D03*
X196000000Y-79000000D03*
X189500000Y-79000000D03*
%TD*%
D18*
%TO.C,R6*%
X126500000Y-119500000D03*
D19*
X126500000Y-129660000D03*
%TD*%
D20*
%TO.C,D1*%
X144500000Y-132500000D03*
D21*
X136880000Y-132500000D03*
%TD*%
D22*
%TO.C,J3*%
X195000000Y-122500000D03*
%TD*%
D18*
%TO.C,R4*%
X140580000Y-114000000D03*
D19*
X150740000Y-114000000D03*
%TD*%
D11*
%TO.C,J5*%
X172000000Y-133500000D03*
%TD*%
D16*
%TO.C,RV3*%
X119550000Y-82000000D03*
X117010000Y-82000000D03*
X114470000Y-82000000D03*
%TD*%
D22*
%TO.C,J2*%
X195000000Y-111500000D03*
%TD*%
D18*
%TO.C,R1*%
X123500000Y-94000000D03*
D19*
X133660000Y-94000000D03*
%TD*%
D17*
%TO.C,SW1*%
X189500000Y-90000000D03*
X196000000Y-90000000D03*
X196000000Y-94500000D03*
X189500000Y-94500000D03*
%TD*%
D18*
%TO.C,R2*%
X140000000Y-99420000D03*
D19*
X140000000Y-109580000D03*
%TD*%
D20*
%TO.C,D2*%
X134000000Y-137500000D03*
D21*
X141620000Y-137500000D03*
%TD*%
D22*
%TO.C,J4*%
X116500000Y-123620000D03*
D23*
X116500000Y-118540000D03*
X116500000Y-113460000D03*
X116500000Y-108380000D03*
%TD*%
D16*
%TO.C,RV2*%
X119550000Y-94000000D03*
X117010000Y-94000000D03*
X114470000Y-94000000D03*
%TD*%
%TO.C,RV4*%
X119550000Y-88000000D03*
X117010000Y-88000000D03*
X114470000Y-88000000D03*
%TD*%
D24*
%TO.C,U3*%
X150075000Y-127800000D03*
D25*
X150075000Y-125260000D03*
X150075000Y-122720000D03*
X150075000Y-120180000D03*
X139915000Y-120180000D03*
X139915000Y-122720000D03*
X139915000Y-125260000D03*
X139915000Y-127800000D03*
%TD*%
D18*
%TO.C,R5*%
X132000000Y-119500000D03*
D19*
X132000000Y-129660000D03*
%TD*%
D11*
%TO.C,J1*%
X178825000Y-133500000D03*
%TD*%
D18*
%TO.C,R3*%
X130580000Y-99000000D03*
D19*
X120420000Y-99000000D03*
%TD*%
M02*
