M48
; DRILL file {KiCad 6.0.8-f2edbf62ab~116~ubuntu20.04.1} date mar 11 oct 2022 23:56:37
; FORMAT={-:-/ absolute / metric / decimal}
; #@! TF.CreationDate,2022-10-11T23:56:37-03:00
; #@! TF.GenerationSoftware,Kicad,Pcbnew,6.0.8-f2edbf62ab~116~ubuntu20.04.1
; #@! TF.FileFunction,Plated,1,2,PTH
FMAT,2
METRIC
; #@! TA.AperFunction,Plated,PTH,ViaDrill
T1C0.400
; #@! TA.AperFunction,Plated,PTH,ComponentDrill
T2C0.762
; #@! TA.AperFunction,Plated,PTH,ComponentDrill
T3C0.800
; #@! TA.AperFunction,Plated,PTH,ComponentDrill
T4C1.000
; #@! TA.AperFunction,Plated,PTH,ComponentDrill
T5C1.100
; #@! TA.AperFunction,Plated,PTH,ComponentDrill
T6C1.520
%
G90
G05
T1
X154.5Y-102.0
X157.0Y-103.0
T2
X157.936Y-114.333
X157.936Y-122.333
X162.0Y-114.333
X162.0Y-122.333
X166.064Y-114.333
X166.064Y-122.333
X174.167Y-106.936
X174.167Y-111.0
X174.167Y-115.064
X174.167Y-119.936
X174.167Y-124.0
X174.167Y-128.064
X184.167Y-106.936
X184.167Y-111.0
X184.167Y-115.064
X184.167Y-119.936
X184.167Y-124.0
X184.167Y-128.064
T3
X114.46Y-76.0
X114.47Y-82.0
X114.47Y-88.0
X114.47Y-94.0
X117.0Y-76.0
X117.01Y-82.0
X117.01Y-88.0
X117.01Y-94.0
X119.54Y-76.0
X119.55Y-82.0
X119.55Y-88.0
X119.55Y-94.0
X120.42Y-99.0
X123.5Y-94.0
X126.5Y-119.5
X126.5Y-129.66
X130.58Y-99.0
X132.0Y-119.5
X132.0Y-129.66
X133.66Y-94.0
X139.915Y-120.18
X139.915Y-122.72
X139.915Y-125.26
X139.915Y-127.8
X140.0Y-99.42
X140.0Y-109.58
X140.58Y-114.0
X150.075Y-120.18
X150.075Y-122.72
X150.075Y-125.26
X150.075Y-127.8
X150.74Y-114.0
T4
X131.16Y-68.46
X131.16Y-88.78
X133.7Y-68.46
X133.7Y-88.78
X136.24Y-68.46
X136.24Y-88.78
X138.78Y-68.46
X138.78Y-88.78
X141.32Y-68.46
X141.32Y-88.78
X143.86Y-68.46
X143.86Y-88.78
X146.4Y-68.46
X146.4Y-88.78
X146.704Y-97.783
X148.94Y-68.46
X148.94Y-88.78
X149.244Y-97.783
X151.48Y-68.46
X151.48Y-88.78
X151.784Y-97.783
X154.02Y-68.46
X154.02Y-88.78
X154.324Y-97.783
X156.56Y-68.46
X156.56Y-88.78
X156.864Y-97.783
X159.1Y-68.46
X159.1Y-88.78
X159.404Y-97.783
X161.64Y-68.46
X161.64Y-88.78
X161.944Y-97.783
X164.18Y-68.46
X164.18Y-88.78
X164.484Y-97.783
X166.72Y-68.46
X166.72Y-88.78
X167.024Y-97.783
X169.26Y-68.46
X169.26Y-88.78
X169.564Y-97.783
X171.8Y-68.46
X171.8Y-88.78
X172.0Y-133.5
X172.104Y-97.783
X174.34Y-68.46
X174.34Y-88.78
X174.644Y-97.783
X176.88Y-68.46
X176.88Y-88.78
X177.184Y-97.783
X178.825Y-133.5
X179.42Y-68.46
X179.42Y-88.78
X179.724Y-97.783
X181.96Y-68.46
X181.96Y-88.78
X182.264Y-97.783
X184.5Y-68.46
X184.5Y-88.78
X184.804Y-97.783
T5
X134.0Y-137.5
X136.88Y-132.5
X141.62Y-137.5
X144.5Y-132.5
X189.5Y-79.0
X189.5Y-83.5
X189.5Y-90.0
X189.5Y-94.5
X196.0Y-79.0
X196.0Y-83.5
X196.0Y-90.0
X196.0Y-94.5
T6
X116.5Y-108.38
X116.5Y-113.46
X116.5Y-118.54
X116.5Y-123.62
X195.0Y-111.5
X195.0Y-122.5
T0
M30
