%TF.GenerationSoftware,KiCad,Pcbnew,6.0.8-f2edbf62ab~116~ubuntu20.04.1*%
%TF.CreationDate,2022-10-11T23:56:16-03:00*%
%TF.ProjectId,Proyecto_p_curso,50726f79-6563-4746-9f5f-705f63757273,rev?*%
%TF.SameCoordinates,Original*%
%TF.FileFunction,Copper,L2,Bot*%
%TF.FilePolarity,Positive*%
%FSLAX46Y46*%
G04 Gerber Fmt 4.6, Leading zero omitted, Abs format (unit mm)*
G04 Created by KiCad (PCBNEW 6.0.8-f2edbf62ab~116~ubuntu20.04.1) date 2022-10-11 23:56:16*
%MOMM*%
%LPD*%
G01*
G04 APERTURE LIST*
%TA.AperFunction,ComponentPad*%
%ADD10R,1.700000X1.700000*%
%TD*%
%TA.AperFunction,ComponentPad*%
%ADD11O,1.700000X1.700000*%
%TD*%
%TA.AperFunction,ComponentPad*%
%ADD12C,1.524000*%
%TD*%
%TA.AperFunction,ComponentPad*%
%ADD13R,1.500000X3.000000*%
%TD*%
%TA.AperFunction,ComponentPad*%
%ADD14O,1.500000X3.000000*%
%TD*%
%TA.AperFunction,ComponentPad*%
%ADD15C,1.440000*%
%TD*%
%TA.AperFunction,ComponentPad*%
%ADD16C,2.000000*%
%TD*%
%TA.AperFunction,ComponentPad*%
%ADD17C,1.600000*%
%TD*%
%TA.AperFunction,ComponentPad*%
%ADD18O,1.600000X1.600000*%
%TD*%
%TA.AperFunction,ComponentPad*%
%ADD19R,2.200000X2.200000*%
%TD*%
%TA.AperFunction,ComponentPad*%
%ADD20O,2.200000X2.200000*%
%TD*%
%TA.AperFunction,ComponentPad*%
%ADD21R,3.000000X3.000000*%
%TD*%
%TA.AperFunction,ComponentPad*%
%ADD22C,3.000000*%
%TD*%
%TA.AperFunction,ComponentPad*%
%ADD23R,2.400000X1.600000*%
%TD*%
%TA.AperFunction,ComponentPad*%
%ADD24O,2.400000X1.600000*%
%TD*%
%TA.AperFunction,ViaPad*%
%ADD25C,0.800000*%
%TD*%
%TA.AperFunction,Conductor*%
%ADD26C,0.500000*%
%TD*%
%TA.AperFunction,Conductor*%
%ADD27C,1.500000*%
%TD*%
%TA.AperFunction,Conductor*%
%ADD28C,1.000000*%
%TD*%
%TA.AperFunction,Conductor*%
%ADD29C,0.750000*%
%TD*%
G04 APERTURE END LIST*
D10*
%TO.P,U2,1,GND*%
%TO.N,GND*%
X184500000Y-68460000D03*
D11*
%TO.P,U2,2,P2.0*%
%TO.N,/Control_y_salida/But_Inc*%
X181960000Y-68460000D03*
%TO.P,U2,3,P2.1*%
%TO.N,unconnected-(U2-Pad3)*%
X179420000Y-68460000D03*
%TO.P,U2,4,P2.2*%
%TO.N,unconnected-(U2-Pad4)*%
X176880000Y-68460000D03*
%TO.P,U2,5,P2.3*%
%TO.N,unconnected-(U2-Pad5)*%
X174340000Y-68460000D03*
%TO.P,U2,6,P2.4*%
%TO.N,unconnected-(U2-Pad6)*%
X171800000Y-68460000D03*
%TO.P,U2,7,P2.5*%
%TO.N,unconnected-(U2-Pad7)*%
X169260000Y-68460000D03*
%TO.P,U2,8,P2.6*%
%TO.N,unconnected-(U2-Pad8)*%
X166720000Y-68460000D03*
%TO.P,U2,9,P2.7*%
%TO.N,unconnected-(U2-Pad9)*%
X164180000Y-68460000D03*
%TO.P,U2,10,P3.0*%
%TO.N,unconnected-(U2-Pad10)*%
X161640000Y-68460000D03*
%TO.P,U2,11,P3.1*%
%TO.N,unconnected-(U2-Pad11)*%
X159100000Y-68460000D03*
%TO.P,U2,12,P3.2*%
%TO.N,unconnected-(U2-Pad12)*%
X156560000Y-68460000D03*
%TO.P,U2,13,P3.3*%
%TO.N,unconnected-(U2-Pad13)*%
X154020000Y-68460000D03*
%TO.P,U2,14,P3.4*%
%TO.N,unconnected-(U2-Pad14)*%
X151480000Y-68460000D03*
%TO.P,U2,15,P3.5*%
%TO.N,unconnected-(U2-Pad15)*%
X148940000Y-68460000D03*
%TO.P,U2,16,P3.6*%
%TO.N,unconnected-(U2-Pad16)*%
X146400000Y-68460000D03*
%TO.P,U2,17,P3.7*%
%TO.N,unconnected-(U2-Pad17)*%
X143860000Y-68460000D03*
%TO.P,U2,18,SWDIO(P3.2)*%
%TO.N,unconnected-(U2-Pad18)*%
X141320000Y-68460000D03*
%TO.P,U2,19,SWDCLK(P3.3)*%
%TO.N,unconnected-(U2-Pad19)*%
X138780000Y-68460000D03*
%TO.P,U2,20,XRES*%
%TO.N,unconnected-(U2-Pad20)*%
X136240000Y-68460000D03*
%TO.P,U2,21,GND*%
%TO.N,GND*%
X133700000Y-68460000D03*
%TO.P,U2,22,VDD*%
%TO.N,+5V*%
X131160000Y-68460000D03*
%TO.P,U2,23,VDD*%
X184500000Y-88780000D03*
%TO.P,U2,24,GND*%
%TO.N,GND*%
X181960000Y-88780000D03*
%TO.P,U2,25,P1.7/SAR_CAP*%
%TO.N,unconnected-(U2-Pad25)*%
X179420000Y-88780000D03*
%TO.P,U2,26,P1.6/LED_OnB*%
%TO.N,unconnected-(U2-Pad26)*%
X176880000Y-88780000D03*
%TO.P,U2,27,P1.5*%
%TO.N,unconnected-(U2-Pad27)*%
X174340000Y-88780000D03*
%TO.P,U2,28,P1.4*%
%TO.N,/Control_y_salida/IDAC_Pos*%
X171800000Y-88780000D03*
%TO.P,U2,29,P1.3*%
%TO.N,unconnected-(U2-Pad29)*%
X169260000Y-88780000D03*
%TO.P,U2,30,P1.2*%
%TO.N,/Control_y_salida/IDAC_Neg*%
X166720000Y-88780000D03*
%TO.P,U2,31,P1.1*%
%TO.N,unconnected-(U2-Pad31)*%
X164180000Y-88780000D03*
%TO.P,U2,32,P1.0*%
%TO.N,/Control_y_salida/But_Dec*%
X161640000Y-88780000D03*
%TO.P,U2,33,P0.7/Button_OnB*%
%TO.N,unconnected-(U2-Pad33)*%
X159100000Y-88780000D03*
%TO.P,U2,34,P0.6*%
%TO.N,/Control_y_salida/LCD_R{slash}W*%
X156560000Y-88780000D03*
%TO.P,U2,35,P0.5*%
%TO.N,/Control_y_salida/LCD_RS*%
X154020000Y-88780000D03*
%TO.P,U2,36,P0.4*%
%TO.N,/Control_y_salida/LCD_E*%
X151480000Y-88780000D03*
%TO.P,U2,37,P0.3*%
%TO.N,/Control_y_salida/LCD_D7*%
X148940000Y-88780000D03*
%TO.P,U2,38,P0.2*%
%TO.N,/Control_y_salida/LCD_D6*%
X146400000Y-88780000D03*
%TO.P,U2,39,P0.1*%
%TO.N,/Control_y_salida/LCD_D5*%
X143860000Y-88780000D03*
%TO.P,U2,40,P0.0*%
%TO.N,/Control_y_salida/LCD_D4*%
X141320000Y-88780000D03*
%TO.P,U2,41,P4.3/CTANK*%
%TO.N,unconnected-(U2-Pad41)*%
X138780000Y-88780000D03*
%TO.P,U2,42,P4.2/CMOD*%
%TO.N,unconnected-(U2-Pad42)*%
X136240000Y-88780000D03*
%TO.P,U2,43,P4.1/TX*%
%TO.N,unconnected-(U2-Pad43)*%
X133700000Y-88780000D03*
%TO.P,U2,44,P4.0/RX*%
%TO.N,unconnected-(U2-Pad44)*%
X131160000Y-88780000D03*
%TD*%
D12*
%TO.P,Q6,1,C*%
%TO.N,/Control_y_salida/Iout*%
X174167000Y-128064000D03*
%TO.P,Q6,2,B*%
%TO.N,Net-(Q2-Pad1)*%
X174167000Y-124000000D03*
%TO.P,Q6,3,E*%
%TO.N,VEE*%
X174167000Y-119936000D03*
%TD*%
%TO.P,Q5,3,E*%
%TO.N,VCC*%
X184167000Y-106936000D03*
%TO.P,Q5,2,B*%
%TO.N,Net-(Q1-Pad1)*%
X184167000Y-111000000D03*
%TO.P,Q5,1,C*%
%TO.N,/Control_y_salida/Iout*%
X184167000Y-115064000D03*
%TD*%
%TO.P,Q4,1,C*%
%TO.N,Net-(Q2-Pad1)*%
X184167000Y-128064000D03*
%TO.P,Q4,2,B*%
X184167000Y-124000000D03*
%TO.P,Q4,3,E*%
%TO.N,VEE*%
X184167000Y-119936000D03*
%TD*%
%TO.P,Q3,1,C*%
%TO.N,Net-(Q1-Pad1)*%
X174167000Y-115064000D03*
%TO.P,Q3,2,B*%
X174167000Y-111000000D03*
%TO.P,Q3,3,E*%
%TO.N,VCC*%
X174167000Y-106936000D03*
%TD*%
%TO.P,Q2,1,C*%
%TO.N,Net-(Q2-Pad1)*%
X166064000Y-122333000D03*
%TO.P,Q2,2,B*%
%TO.N,Net-(Q1-Pad2)*%
X162000000Y-122333000D03*
%TO.P,Q2,3,E*%
%TO.N,Net-(D1-Pad1)*%
X157936000Y-122333000D03*
%TD*%
%TO.P,Q1,1,C*%
%TO.N,Net-(Q1-Pad1)*%
X166064000Y-114333000D03*
%TO.P,Q1,2,B*%
%TO.N,Net-(Q1-Pad2)*%
X162000000Y-114333000D03*
%TO.P,Q1,3,E*%
%TO.N,Net-(D1-Pad1)*%
X157936000Y-114333000D03*
%TD*%
D13*
%TO.P,U1,1,VSS*%
%TO.N,GND*%
X151784000Y-97783500D03*
D14*
%TO.P,U1,2,VDD*%
%TO.N,+5V*%
X154324000Y-97783500D03*
%TO.P,U1,3,VO*%
%TO.N,Net-(RV1-Pad2)*%
X156864000Y-97783500D03*
%TO.P,U1,4,RS*%
%TO.N,/Control_y_salida/LCD_RS*%
X159404000Y-97783500D03*
%TO.P,U1,5,R/~{W}*%
%TO.N,/Control_y_salida/LCD_R{slash}W*%
X161944000Y-97783500D03*
%TO.P,U1,6,E*%
%TO.N,/Control_y_salida/LCD_E*%
X164484000Y-97783500D03*
%TO.P,U1,7,DB0*%
%TO.N,unconnected-(U1-Pad7)*%
X167024000Y-97783500D03*
%TO.P,U1,8,DB1*%
%TO.N,unconnected-(U1-Pad8)*%
X169564000Y-97783500D03*
%TO.P,U1,9,DB2*%
%TO.N,unconnected-(U1-Pad9)*%
X172104000Y-97783500D03*
%TO.P,U1,10,DB3*%
%TO.N,unconnected-(U1-Pad10)*%
X174644000Y-97783500D03*
%TO.P,U1,11,DB4*%
%TO.N,/Control_y_salida/LCD_D4*%
X177184000Y-97783500D03*
%TO.P,U1,12,DB5*%
%TO.N,/Control_y_salida/LCD_D5*%
X179724000Y-97783500D03*
%TO.P,U1,13,DB6*%
%TO.N,/Control_y_salida/LCD_D6*%
X182264000Y-97783500D03*
%TO.P,U1,14,DB7*%
%TO.N,/Control_y_salida/LCD_D7*%
X184804000Y-97783500D03*
%TO.P,U1,15,A/VEE*%
%TO.N,unconnected-(U1-Pad15)*%
X149244000Y-97783500D03*
%TO.P,U1,16,K*%
%TO.N,unconnected-(U1-Pad16)*%
X146704000Y-97783500D03*
%TD*%
D15*
%TO.P,RV1,1,1*%
%TO.N,+5V*%
X119540000Y-76000000D03*
%TO.P,RV1,2,2*%
%TO.N,Net-(RV1-Pad2)*%
X117000000Y-76000000D03*
%TO.P,RV1,3,3*%
%TO.N,GND*%
X114460000Y-76000000D03*
%TD*%
D16*
%TO.P,SW2,1,1*%
%TO.N,GND*%
X196000000Y-83500000D03*
X189500000Y-83500000D03*
%TO.P,SW2,2,2*%
%TO.N,/Control_y_salida/But_Inc*%
X196000000Y-79000000D03*
X189500000Y-79000000D03*
%TD*%
D17*
%TO.P,R6,1*%
%TO.N,Net-(R6-Pad1)*%
X126500000Y-119500000D03*
D18*
%TO.P,R6,2*%
%TO.N,Net-(D2-Pad1)*%
X126500000Y-129660000D03*
%TD*%
D19*
%TO.P,D1,1,K*%
%TO.N,Net-(D1-Pad1)*%
X144500000Y-132500000D03*
D20*
%TO.P,D1,2,A*%
%TO.N,Net-(D1-Pad2)*%
X136880000Y-132500000D03*
%TD*%
D21*
%TO.P,J3,1,Pin_1*%
%TO.N,VEE*%
X195000000Y-122500000D03*
%TD*%
D17*
%TO.P,R4,1*%
%TO.N,Net-(R2-Pad2)*%
X140580000Y-114000000D03*
D18*
%TO.P,R4,2*%
%TO.N,Net-(R4-Pad2)*%
X150740000Y-114000000D03*
%TD*%
D10*
%TO.P,J5,1,Pin_1*%
%TO.N,GND*%
X172000000Y-133500000D03*
%TD*%
D15*
%TO.P,RV3,1,1*%
%TO.N,Net-(R5-Pad1)*%
X119550000Y-82000000D03*
%TO.P,RV3,2,2*%
X117010000Y-82000000D03*
%TO.P,RV3,3,3*%
%TO.N,GND*%
X114470000Y-82000000D03*
%TD*%
D21*
%TO.P,J2,1,Pin_1*%
%TO.N,VCC*%
X195000000Y-111500000D03*
%TD*%
D17*
%TO.P,R1,1*%
%TO.N,Net-(R1-Pad1)*%
X123500000Y-94000000D03*
D18*
%TO.P,R1,2*%
%TO.N,/Control_y_salida/IDAC_Neg*%
X133660000Y-94000000D03*
%TD*%
D16*
%TO.P,SW1,1,1*%
%TO.N,GND*%
X189500000Y-90000000D03*
X196000000Y-90000000D03*
%TO.P,SW1,2,2*%
%TO.N,/Control_y_salida/But_Dec*%
X196000000Y-94500000D03*
X189500000Y-94500000D03*
%TD*%
D17*
%TO.P,R2,1*%
%TO.N,/Control_y_salida/IDAC_Neg*%
X140000000Y-99420000D03*
D18*
%TO.P,R2,2*%
%TO.N,Net-(R2-Pad2)*%
X140000000Y-109580000D03*
%TD*%
D19*
%TO.P,D2,1,K*%
%TO.N,Net-(D2-Pad1)*%
X134000000Y-137500000D03*
D20*
%TO.P,D2,2,A*%
%TO.N,Net-(D1-Pad1)*%
X141620000Y-137500000D03*
%TD*%
D21*
%TO.P,J4,1,Pin_1*%
%TO.N,+12V*%
X116500000Y-123620000D03*
D22*
%TO.P,J4,2,Pin_2*%
%TO.N,-12V*%
X116500000Y-118540000D03*
%TO.P,J4,3,Pin_3*%
%TO.N,+5V*%
X116500000Y-113460000D03*
%TO.P,J4,4,Pin_4*%
%TO.N,GND*%
X116500000Y-108380000D03*
%TD*%
D15*
%TO.P,RV2,1,1*%
%TO.N,Net-(R1-Pad1)*%
X119550000Y-94000000D03*
%TO.P,RV2,2,2*%
X117010000Y-94000000D03*
%TO.P,RV2,3,3*%
%TO.N,GND*%
X114470000Y-94000000D03*
%TD*%
%TO.P,RV4,1,1*%
%TO.N,Net-(R6-Pad1)*%
X119550000Y-88000000D03*
%TO.P,RV4,2,2*%
X117010000Y-88000000D03*
%TO.P,RV4,3,3*%
%TO.N,GND*%
X114470000Y-88000000D03*
%TD*%
D23*
%TO.P,U3,1*%
%TO.N,Net-(Q1-Pad2)*%
X150075000Y-127800000D03*
D24*
%TO.P,U3,2,-*%
%TO.N,Net-(D1-Pad1)*%
X150075000Y-125260000D03*
%TO.P,U3,3,+*%
%TO.N,Net-(R4-Pad2)*%
X150075000Y-122720000D03*
%TO.P,U3,4,V-*%
%TO.N,-12V*%
X150075000Y-120180000D03*
%TO.P,U3,5,+*%
%TO.N,/Control_y_salida/IDAC_Pos*%
X139915000Y-120180000D03*
%TO.P,U3,6,-*%
%TO.N,Net-(R2-Pad2)*%
X139915000Y-122720000D03*
%TO.P,U3,7*%
%TO.N,Net-(R4-Pad2)*%
X139915000Y-125260000D03*
%TO.P,U3,8,V+*%
%TO.N,+12V*%
X139915000Y-127800000D03*
%TD*%
D17*
%TO.P,R5,1*%
%TO.N,Net-(R5-Pad1)*%
X132000000Y-119500000D03*
D18*
%TO.P,R5,2*%
%TO.N,Net-(D1-Pad2)*%
X132000000Y-129660000D03*
%TD*%
D10*
%TO.P,J1,1,Pin_1*%
%TO.N,/Control_y_salida/Iout*%
X178825000Y-133500000D03*
%TD*%
D17*
%TO.P,R3,1*%
%TO.N,/Control_y_salida/IDAC_Pos*%
X130580000Y-99000000D03*
D18*
%TO.P,R3,2*%
%TO.N,GND*%
X120420000Y-99000000D03*
%TD*%
D25*
%TO.N,Net-(RV1-Pad2)*%
X157000000Y-103000000D03*
%TO.N,+5V*%
X154500000Y-102000000D03*
%TD*%
D26*
%TO.N,Net-(RV1-Pad2)*%
X155500000Y-104500000D02*
X157000000Y-103000000D01*
D27*
%TO.N,GND*%
X196000000Y-83500000D02*
X196000000Y-90000000D01*
D28*
%TO.N,-12V*%
X116500000Y-118540000D02*
X118040000Y-117000000D01*
X118040000Y-117000000D02*
X149000000Y-117000000D01*
X149000000Y-117000000D02*
X150075000Y-118075000D01*
X150075000Y-118075000D02*
X150075000Y-120180000D01*
D26*
%TO.N,+5V*%
X154500000Y-102000000D02*
X154750000Y-101750000D01*
X154750000Y-101750000D02*
X158250000Y-101750000D01*
D29*
X158250000Y-101750000D02*
X158500000Y-102000000D01*
%TO.N,Net-(RV1-Pad2)*%
X125500000Y-102000000D02*
X128000000Y-104500000D01*
X128000000Y-104500000D02*
X155500000Y-104500000D01*
%TO.N,+5V*%
X158500000Y-102000000D02*
X159000000Y-102500000D01*
X159000000Y-102500000D02*
X159000000Y-103500000D01*
X159000000Y-103500000D02*
X156000000Y-106500000D01*
X130500000Y-106500000D02*
X123540000Y-113460000D01*
X156000000Y-106500000D02*
X130500000Y-106500000D01*
D28*
%TO.N,/Control_y_salida/Iout*%
X178825000Y-126675000D02*
X178825000Y-128500000D01*
X178825000Y-118064000D02*
X178825000Y-126675000D01*
X174167000Y-128064000D02*
X177436000Y-128064000D01*
X177436000Y-128064000D02*
X178825000Y-126675000D01*
X178825000Y-133500000D02*
X178825000Y-128175000D01*
D29*
%TO.N,/Control_y_salida/LCD_E*%
X151630000Y-88780000D02*
X151630000Y-91370000D01*
X143500000Y-96500000D02*
X143500000Y-99500000D01*
X144500000Y-100500000D02*
X164000000Y-100500000D01*
X164000000Y-100500000D02*
X164500000Y-100000000D01*
X151630000Y-91370000D02*
X147500000Y-95500000D01*
X147500000Y-95500000D02*
X144500000Y-95500000D01*
X144500000Y-95500000D02*
X143500000Y-96500000D01*
X143500000Y-99500000D02*
X144500000Y-100500000D01*
X164500000Y-100000000D02*
X164484000Y-99984000D01*
X164484000Y-99984000D02*
X164484000Y-97783500D01*
%TO.N,/Control_y_salida/LCD_RS*%
X154170000Y-88780000D02*
X154170000Y-91170000D01*
X154170000Y-91170000D02*
X159404000Y-96404000D01*
X159404000Y-96404000D02*
X159404000Y-97783500D01*
%TO.N,/Control_y_salida/LCD_R{slash}W*%
X156710000Y-88780000D02*
X156710000Y-90710000D01*
X156710000Y-90710000D02*
X161944000Y-95944000D01*
X161944000Y-95944000D02*
X161944000Y-97783500D01*
D28*
%TO.N,+5V*%
X116500000Y-113460000D02*
X123540000Y-113460000D01*
%TO.N,/Control_y_salida/IDAC_Neg*%
X133660000Y-94000000D02*
X131000000Y-94000000D01*
X129000000Y-92000000D02*
X129000000Y-88000000D01*
D29*
X166870000Y-86870000D02*
X166870000Y-88780000D01*
D28*
X131000000Y-94000000D02*
X129000000Y-92000000D01*
D29*
X129000000Y-88000000D02*
X131000000Y-86000000D01*
X131000000Y-86000000D02*
X166000000Y-86000000D01*
X166000000Y-86000000D02*
X166870000Y-86870000D01*
D28*
%TO.N,/Control_y_salida/IDAC_Pos*%
X130580000Y-99000000D02*
X129000000Y-99000000D01*
X129000000Y-99000000D02*
X127500000Y-97500000D01*
X127500000Y-97500000D02*
X127500000Y-87000000D01*
D29*
X127500000Y-87000000D02*
X129500000Y-85000000D01*
X170000000Y-85000000D02*
X171950000Y-86950000D01*
X129500000Y-85000000D02*
X170000000Y-85000000D01*
X171950000Y-86950000D02*
X171950000Y-88780000D01*
D27*
%TO.N,GND*%
X189500000Y-83500000D02*
X189500000Y-90000000D01*
D28*
%TO.N,Net-(RV1-Pad2)*%
X125500000Y-98000000D02*
X125500000Y-102000000D01*
X117000000Y-76000000D02*
X117000000Y-77500000D01*
X117000000Y-77500000D02*
X120000000Y-80500000D01*
X120000000Y-80500000D02*
X122000000Y-80500000D01*
X122000000Y-80500000D02*
X125500000Y-84000000D01*
X125500000Y-84000000D02*
X125500000Y-98500000D01*
%TO.N,/Control_y_salida/Iout*%
X184000000Y-115128000D02*
X181761000Y-115128000D01*
X181761000Y-115128000D02*
X178825000Y-118064000D01*
D29*
%TO.N,+5V*%
X134500000Y-73000000D02*
X180500000Y-73000000D01*
D28*
X112000000Y-75000000D02*
X114000000Y-73000000D01*
D29*
X131310000Y-68460000D02*
X131310000Y-70310000D01*
D28*
X112000000Y-108960000D02*
X112000000Y-75000000D01*
D29*
X184650000Y-77150000D02*
X184650000Y-88780000D01*
D28*
X119540000Y-74040000D02*
X119540000Y-76000000D01*
D29*
X180500000Y-73000000D02*
X184650000Y-77150000D01*
D28*
X116500000Y-113460000D02*
X112000000Y-108960000D01*
X118500000Y-73000000D02*
X134500000Y-73000000D01*
D29*
X131310000Y-70310000D02*
X134000000Y-73000000D01*
D28*
X118500000Y-73000000D02*
X119540000Y-74040000D01*
D29*
X134000000Y-73000000D02*
X134500000Y-73000000D01*
D28*
X114000000Y-73000000D02*
X118500000Y-73000000D01*
%TD*%
%TA.AperFunction,Conductor*%
%TO.N,+5V*%
G36*
X186942121Y-63520002D02*
G01*
X186988614Y-63573658D01*
X187000000Y-63626000D01*
X187000000Y-101374000D01*
X186979998Y-101442121D01*
X186926342Y-101488614D01*
X186874000Y-101500000D01*
X172000000Y-101500000D01*
X165915392Y-107116562D01*
X165536200Y-107466585D01*
X165472578Y-107498093D01*
X165450737Y-107500000D01*
X154000000Y-107500000D01*
X154000000Y-114874000D01*
X153979998Y-114942121D01*
X153926342Y-114988614D01*
X153874000Y-115000000D01*
X151879220Y-115000000D01*
X151811099Y-114979998D01*
X151764606Y-114926342D01*
X151754502Y-114856068D01*
X151776007Y-114801729D01*
X151874366Y-114661258D01*
X151874367Y-114661256D01*
X151877523Y-114656749D01*
X151879846Y-114651767D01*
X151879849Y-114651762D01*
X151971961Y-114454225D01*
X151971961Y-114454224D01*
X151974284Y-114449243D01*
X152005432Y-114333000D01*
X152032119Y-114233402D01*
X152032119Y-114233400D01*
X152033543Y-114228087D01*
X152053498Y-114000000D01*
X152033543Y-113771913D01*
X152032119Y-113766598D01*
X151975707Y-113556067D01*
X151975706Y-113556065D01*
X151974284Y-113550757D01*
X151950465Y-113499677D01*
X151879849Y-113348238D01*
X151879846Y-113348233D01*
X151877523Y-113343251D01*
X151746198Y-113155700D01*
X151584300Y-112993802D01*
X151579792Y-112990645D01*
X151579789Y-112990643D01*
X151501611Y-112935902D01*
X151396749Y-112862477D01*
X151391767Y-112860154D01*
X151391762Y-112860151D01*
X151194225Y-112768039D01*
X151194224Y-112768039D01*
X151189243Y-112765716D01*
X151183935Y-112764294D01*
X151183933Y-112764293D01*
X150973402Y-112707881D01*
X150973400Y-112707881D01*
X150968087Y-112706457D01*
X150740000Y-112686502D01*
X150511913Y-112706457D01*
X150506600Y-112707881D01*
X150506598Y-112707881D01*
X150296067Y-112764293D01*
X150296065Y-112764294D01*
X150290757Y-112765716D01*
X150285776Y-112768039D01*
X150285775Y-112768039D01*
X150088238Y-112860151D01*
X150088233Y-112860154D01*
X150083251Y-112862477D01*
X149978389Y-112935902D01*
X149900211Y-112990643D01*
X149900208Y-112990645D01*
X149895700Y-112993802D01*
X149733802Y-113155700D01*
X149602477Y-113343251D01*
X149600154Y-113348233D01*
X149600151Y-113348238D01*
X149529535Y-113499677D01*
X149505716Y-113550757D01*
X149504294Y-113556065D01*
X149504293Y-113556067D01*
X149447881Y-113766598D01*
X149446457Y-113771913D01*
X149426502Y-114000000D01*
X149446457Y-114228087D01*
X149447881Y-114233400D01*
X149447881Y-114233402D01*
X149474569Y-114333000D01*
X149505716Y-114449243D01*
X149508039Y-114454224D01*
X149508039Y-114454225D01*
X149600151Y-114651762D01*
X149600154Y-114651767D01*
X149602477Y-114656749D01*
X149605633Y-114661256D01*
X149605634Y-114661258D01*
X149703993Y-114801729D01*
X149726681Y-114869003D01*
X149709396Y-114937864D01*
X149657626Y-114986448D01*
X149600780Y-115000000D01*
X141719220Y-115000000D01*
X141651099Y-114979998D01*
X141604606Y-114926342D01*
X141594502Y-114856068D01*
X141616007Y-114801729D01*
X141714366Y-114661258D01*
X141714367Y-114661256D01*
X141717523Y-114656749D01*
X141719846Y-114651767D01*
X141719849Y-114651762D01*
X141811961Y-114454225D01*
X141811961Y-114454224D01*
X141814284Y-114449243D01*
X141845432Y-114333000D01*
X141872119Y-114233402D01*
X141872119Y-114233400D01*
X141873543Y-114228087D01*
X141893498Y-114000000D01*
X141873543Y-113771913D01*
X141872119Y-113766598D01*
X141815707Y-113556067D01*
X141815706Y-113556065D01*
X141814284Y-113550757D01*
X141790465Y-113499677D01*
X141719849Y-113348238D01*
X141719846Y-113348233D01*
X141717523Y-113343251D01*
X141586198Y-113155700D01*
X141424300Y-112993802D01*
X141419792Y-112990645D01*
X141419789Y-112990643D01*
X141341611Y-112935902D01*
X141236749Y-112862477D01*
X141231767Y-112860154D01*
X141231762Y-112860151D01*
X141034225Y-112768039D01*
X141034224Y-112768039D01*
X141029243Y-112765716D01*
X141023935Y-112764294D01*
X141023933Y-112764293D01*
X140813402Y-112707881D01*
X140813400Y-112707881D01*
X140808087Y-112706457D01*
X140580000Y-112686502D01*
X140351913Y-112706457D01*
X140346600Y-112707881D01*
X140346598Y-112707881D01*
X140136067Y-112764293D01*
X140136065Y-112764294D01*
X140130757Y-112765716D01*
X140125776Y-112768039D01*
X140125775Y-112768039D01*
X139928238Y-112860151D01*
X139928233Y-112860154D01*
X139923251Y-112862477D01*
X139818389Y-112935902D01*
X139740211Y-112990643D01*
X139740208Y-112990645D01*
X139735700Y-112993802D01*
X139573802Y-113155700D01*
X139442477Y-113343251D01*
X139440154Y-113348233D01*
X139440151Y-113348238D01*
X139369535Y-113499677D01*
X139345716Y-113550757D01*
X139344294Y-113556065D01*
X139344293Y-113556067D01*
X139287881Y-113766598D01*
X139286457Y-113771913D01*
X139266502Y-114000000D01*
X139286457Y-114228087D01*
X139287881Y-114233400D01*
X139287881Y-114233402D01*
X139314569Y-114333000D01*
X139345716Y-114449243D01*
X139348039Y-114454224D01*
X139348039Y-114454225D01*
X139440151Y-114651762D01*
X139440154Y-114651767D01*
X139442477Y-114656749D01*
X139445633Y-114661256D01*
X139445634Y-114661258D01*
X139543993Y-114801729D01*
X139566681Y-114869003D01*
X139549396Y-114937864D01*
X139497626Y-114986448D01*
X139440780Y-115000000D01*
X118101405Y-115000000D01*
X118033284Y-114979998D01*
X117986791Y-114926342D01*
X117976687Y-114856068D01*
X118010920Y-114786316D01*
X118034303Y-114762186D01*
X118039823Y-114755655D01*
X118196834Y-114541909D01*
X118201418Y-114534686D01*
X118327962Y-114301621D01*
X118331530Y-114293827D01*
X118425271Y-114045750D01*
X118427748Y-114037544D01*
X118486954Y-113779038D01*
X118488294Y-113770577D01*
X118512031Y-113504616D01*
X118512277Y-113499677D01*
X118512666Y-113462485D01*
X118512523Y-113457519D01*
X118494362Y-113191123D01*
X118493201Y-113182649D01*
X118439419Y-112922944D01*
X118437120Y-112914709D01*
X118348588Y-112664705D01*
X118345191Y-112656854D01*
X118223550Y-112421178D01*
X118219122Y-112413866D01*
X118100031Y-112244417D01*
X118089509Y-112236037D01*
X118076121Y-112243089D01*
X116589095Y-113730115D01*
X116526783Y-113764141D01*
X116455968Y-113759076D01*
X116410905Y-113730115D01*
X114923814Y-112243024D01*
X114911804Y-112236466D01*
X114900064Y-112245434D01*
X114791935Y-112395911D01*
X114787418Y-112403196D01*
X114663325Y-112637567D01*
X114659839Y-112645395D01*
X114568700Y-112894446D01*
X114566311Y-112902670D01*
X114509812Y-113161795D01*
X114508563Y-113170250D01*
X114487754Y-113434653D01*
X114487665Y-113443204D01*
X114502932Y-113707969D01*
X114504005Y-113716470D01*
X114555065Y-113976722D01*
X114557276Y-113984974D01*
X114643184Y-114235894D01*
X114646499Y-114243779D01*
X114765664Y-114480713D01*
X114770020Y-114488079D01*
X114920236Y-114706643D01*
X114925554Y-114713352D01*
X114994570Y-114789200D01*
X115025622Y-114853046D01*
X115017228Y-114923544D01*
X114972051Y-114978313D01*
X114901377Y-115000000D01*
X111126000Y-115000000D01*
X111057879Y-114979998D01*
X111011386Y-114926342D01*
X111000000Y-114874000D01*
X111000000Y-111872500D01*
X115276584Y-111872500D01*
X115282980Y-111883770D01*
X116487188Y-113087978D01*
X116501132Y-113095592D01*
X116502965Y-113095461D01*
X116509580Y-113091210D01*
X117716604Y-111884186D01*
X117723795Y-111871017D01*
X117716473Y-111860780D01*
X117669233Y-111822115D01*
X117662261Y-111817160D01*
X117436122Y-111678582D01*
X117428552Y-111674624D01*
X117185704Y-111568022D01*
X117177644Y-111565120D01*
X116922592Y-111492467D01*
X116914214Y-111490685D01*
X116651656Y-111453318D01*
X116643111Y-111452691D01*
X116377908Y-111451302D01*
X116369374Y-111451839D01*
X116106433Y-111486456D01*
X116098035Y-111488149D01*
X115842238Y-111558127D01*
X115834143Y-111560946D01*
X115590199Y-111664997D01*
X115582577Y-111668881D01*
X115355013Y-111805075D01*
X115347981Y-111809962D01*
X115285053Y-111860377D01*
X115276584Y-111872500D01*
X111000000Y-111872500D01*
X111000000Y-108358918D01*
X114486917Y-108358918D01*
X114502682Y-108632320D01*
X114503507Y-108636525D01*
X114503508Y-108636533D01*
X114522964Y-108735700D01*
X114555405Y-108901053D01*
X114556792Y-108905103D01*
X114556793Y-108905108D01*
X114642723Y-109156088D01*
X114644112Y-109160144D01*
X114767160Y-109404799D01*
X114769586Y-109408328D01*
X114769589Y-109408334D01*
X114852880Y-109529522D01*
X114922274Y-109630490D01*
X114925161Y-109633663D01*
X114925162Y-109633664D01*
X115083874Y-109808087D01*
X115106582Y-109833043D01*
X115316675Y-110008707D01*
X115320316Y-110010991D01*
X115545024Y-110151951D01*
X115545028Y-110151953D01*
X115548664Y-110154234D01*
X115616544Y-110184883D01*
X115794345Y-110265164D01*
X115794349Y-110265166D01*
X115798257Y-110266930D01*
X115802377Y-110268150D01*
X115802376Y-110268150D01*
X116056723Y-110343491D01*
X116056727Y-110343492D01*
X116060836Y-110344709D01*
X116065070Y-110345357D01*
X116065075Y-110345358D01*
X116327298Y-110385483D01*
X116327300Y-110385483D01*
X116331540Y-110386132D01*
X116470912Y-110388322D01*
X116601071Y-110390367D01*
X116601077Y-110390367D01*
X116605362Y-110390434D01*
X116877235Y-110357534D01*
X117142127Y-110288041D01*
X117146087Y-110286401D01*
X117146092Y-110286399D01*
X117277996Y-110231762D01*
X117395136Y-110183241D01*
X117631582Y-110045073D01*
X117847089Y-109876094D01*
X117888809Y-109833043D01*
X118034686Y-109682509D01*
X118037669Y-109679431D01*
X118040202Y-109675983D01*
X118040206Y-109675978D01*
X118110709Y-109580000D01*
X138686502Y-109580000D01*
X138706457Y-109808087D01*
X138707881Y-109813400D01*
X138707881Y-109813402D01*
X138745832Y-109955034D01*
X138765716Y-110029243D01*
X138768039Y-110034224D01*
X138768039Y-110034225D01*
X138860151Y-110231762D01*
X138860154Y-110231767D01*
X138862477Y-110236749D01*
X138898392Y-110288041D01*
X138970089Y-110390434D01*
X138993802Y-110424300D01*
X139155700Y-110586198D01*
X139160208Y-110589355D01*
X139160211Y-110589357D01*
X139238389Y-110644098D01*
X139343251Y-110717523D01*
X139348233Y-110719846D01*
X139348238Y-110719849D01*
X139545775Y-110811961D01*
X139550757Y-110814284D01*
X139556065Y-110815706D01*
X139556067Y-110815707D01*
X139766598Y-110872119D01*
X139766600Y-110872119D01*
X139771913Y-110873543D01*
X140000000Y-110893498D01*
X140228087Y-110873543D01*
X140233400Y-110872119D01*
X140233402Y-110872119D01*
X140443933Y-110815707D01*
X140443935Y-110815706D01*
X140449243Y-110814284D01*
X140454225Y-110811961D01*
X140651762Y-110719849D01*
X140651767Y-110719846D01*
X140656749Y-110717523D01*
X140761611Y-110644098D01*
X140839789Y-110589357D01*
X140839792Y-110589355D01*
X140844300Y-110586198D01*
X141006198Y-110424300D01*
X141029912Y-110390434D01*
X141101608Y-110288041D01*
X141137523Y-110236749D01*
X141139846Y-110231767D01*
X141139849Y-110231762D01*
X141231961Y-110034225D01*
X141231961Y-110034224D01*
X141234284Y-110029243D01*
X141254169Y-109955034D01*
X141292119Y-109813402D01*
X141292119Y-109813400D01*
X141293543Y-109808087D01*
X141313498Y-109580000D01*
X141293543Y-109351913D01*
X141258687Y-109221830D01*
X141235707Y-109136067D01*
X141235706Y-109136065D01*
X141234284Y-109130757D01*
X141167816Y-108988214D01*
X141139849Y-108928238D01*
X141139846Y-108928233D01*
X141137523Y-108923251D01*
X141006198Y-108735700D01*
X140844300Y-108573802D01*
X140839792Y-108570645D01*
X140839789Y-108570643D01*
X140761611Y-108515902D01*
X140656749Y-108442477D01*
X140651767Y-108440154D01*
X140651762Y-108440151D01*
X140454225Y-108348039D01*
X140454224Y-108348039D01*
X140449243Y-108345716D01*
X140443935Y-108344294D01*
X140443933Y-108344293D01*
X140233402Y-108287881D01*
X140233400Y-108287881D01*
X140228087Y-108286457D01*
X140000000Y-108266502D01*
X139771913Y-108286457D01*
X139766600Y-108287881D01*
X139766598Y-108287881D01*
X139556067Y-108344293D01*
X139556065Y-108344294D01*
X139550757Y-108345716D01*
X139545776Y-108348039D01*
X139545775Y-108348039D01*
X139348238Y-108440151D01*
X139348233Y-108440154D01*
X139343251Y-108442477D01*
X139238389Y-108515902D01*
X139160211Y-108570643D01*
X139160208Y-108570645D01*
X139155700Y-108573802D01*
X138993802Y-108735700D01*
X138862477Y-108923251D01*
X138860154Y-108928233D01*
X138860151Y-108928238D01*
X138832184Y-108988214D01*
X138765716Y-109130757D01*
X138764294Y-109136065D01*
X138764293Y-109136067D01*
X138741313Y-109221830D01*
X138706457Y-109351913D01*
X138686502Y-109580000D01*
X118110709Y-109580000D01*
X118197257Y-109462178D01*
X118199795Y-109458723D01*
X118227154Y-109408334D01*
X118328418Y-109221830D01*
X118328419Y-109221828D01*
X118330468Y-109218054D01*
X118427269Y-108961877D01*
X118488407Y-108694933D01*
X118499500Y-108570643D01*
X118512531Y-108424627D01*
X118512531Y-108424625D01*
X118512751Y-108422161D01*
X118513193Y-108380000D01*
X118506816Y-108286457D01*
X118494859Y-108111055D01*
X118494858Y-108111049D01*
X118494567Y-108106778D01*
X118439032Y-107838612D01*
X118347617Y-107580465D01*
X118222013Y-107337112D01*
X118212040Y-107322921D01*
X118067008Y-107116562D01*
X118064545Y-107113057D01*
X117878125Y-106912445D01*
X117874810Y-106909731D01*
X117874806Y-106909728D01*
X117669523Y-106741706D01*
X117666205Y-106738990D01*
X117432704Y-106595901D01*
X117428768Y-106594173D01*
X117185873Y-106487549D01*
X117185869Y-106487548D01*
X117181945Y-106485825D01*
X116918566Y-106410800D01*
X116914324Y-106410196D01*
X116914318Y-106410195D01*
X116654504Y-106373218D01*
X116647443Y-106372213D01*
X116503589Y-106371460D01*
X116377877Y-106370802D01*
X116377871Y-106370802D01*
X116373591Y-106370780D01*
X116369347Y-106371339D01*
X116369343Y-106371339D01*
X116250302Y-106387011D01*
X116102078Y-106406525D01*
X116097938Y-106407658D01*
X116097936Y-106407658D01*
X116025008Y-106427609D01*
X115837928Y-106478788D01*
X115833980Y-106480472D01*
X115589982Y-106584546D01*
X115589978Y-106584548D01*
X115586030Y-106586232D01*
X115467414Y-106657222D01*
X115354725Y-106724664D01*
X115354721Y-106724667D01*
X115351043Y-106726868D01*
X115137318Y-106898094D01*
X114948808Y-107096742D01*
X114789002Y-107319136D01*
X114660857Y-107561161D01*
X114659385Y-107565184D01*
X114659383Y-107565188D01*
X114652314Y-107584506D01*
X114566743Y-107818337D01*
X114508404Y-108085907D01*
X114486917Y-108358918D01*
X111000000Y-108358918D01*
X111000000Y-99000000D01*
X119106502Y-99000000D01*
X119126457Y-99228087D01*
X119127881Y-99233400D01*
X119127881Y-99233402D01*
X119183308Y-99440255D01*
X119185716Y-99449243D01*
X119188039Y-99454224D01*
X119188039Y-99454225D01*
X119280151Y-99651762D01*
X119280154Y-99651767D01*
X119282477Y-99656749D01*
X119332951Y-99728833D01*
X119410194Y-99839147D01*
X119413802Y-99844300D01*
X119575700Y-100006198D01*
X119580208Y-100009355D01*
X119580211Y-100009357D01*
X119623830Y-100039899D01*
X119763251Y-100137523D01*
X119768233Y-100139846D01*
X119768238Y-100139849D01*
X119961411Y-100229926D01*
X119970757Y-100234284D01*
X119976065Y-100235706D01*
X119976067Y-100235707D01*
X120186598Y-100292119D01*
X120186600Y-100292119D01*
X120191913Y-100293543D01*
X120420000Y-100313498D01*
X120648087Y-100293543D01*
X120653400Y-100292119D01*
X120653402Y-100292119D01*
X120863933Y-100235707D01*
X120863935Y-100235706D01*
X120869243Y-100234284D01*
X120878589Y-100229926D01*
X121071762Y-100139849D01*
X121071767Y-100139846D01*
X121076749Y-100137523D01*
X121216170Y-100039899D01*
X121259789Y-100009357D01*
X121259792Y-100009355D01*
X121264300Y-100006198D01*
X121426198Y-99844300D01*
X121429807Y-99839147D01*
X121507049Y-99728833D01*
X121557523Y-99656749D01*
X121559846Y-99651767D01*
X121559849Y-99651762D01*
X121651961Y-99454225D01*
X121651961Y-99454224D01*
X121654284Y-99449243D01*
X121656693Y-99440255D01*
X121712119Y-99233402D01*
X121712119Y-99233400D01*
X121713543Y-99228087D01*
X121733498Y-99000000D01*
X121713543Y-98771913D01*
X121687340Y-98674121D01*
X121655707Y-98556067D01*
X121655706Y-98556065D01*
X121654284Y-98550757D01*
X121651961Y-98545775D01*
X121559849Y-98348238D01*
X121559846Y-98348233D01*
X121557523Y-98343251D01*
X121448842Y-98188039D01*
X121429357Y-98160211D01*
X121429355Y-98160208D01*
X121426198Y-98155700D01*
X121264300Y-97993802D01*
X121259792Y-97990645D01*
X121259789Y-97990643D01*
X121146761Y-97911500D01*
X121076749Y-97862477D01*
X121071767Y-97860154D01*
X121071762Y-97860151D01*
X120874225Y-97768039D01*
X120874224Y-97768039D01*
X120869243Y-97765716D01*
X120863935Y-97764294D01*
X120863933Y-97764293D01*
X120653402Y-97707881D01*
X120653400Y-97707881D01*
X120648087Y-97706457D01*
X120420000Y-97686502D01*
X120191913Y-97706457D01*
X120186600Y-97707881D01*
X120186598Y-97707881D01*
X119976067Y-97764293D01*
X119976065Y-97764294D01*
X119970757Y-97765716D01*
X119965776Y-97768039D01*
X119965775Y-97768039D01*
X119768238Y-97860151D01*
X119768233Y-97860154D01*
X119763251Y-97862477D01*
X119693239Y-97911500D01*
X119580211Y-97990643D01*
X119580208Y-97990645D01*
X119575700Y-97993802D01*
X119413802Y-98155700D01*
X119410645Y-98160208D01*
X119410643Y-98160211D01*
X119391158Y-98188039D01*
X119282477Y-98343251D01*
X119280154Y-98348233D01*
X119280151Y-98348238D01*
X119188039Y-98545775D01*
X119185716Y-98550757D01*
X119184294Y-98556065D01*
X119184293Y-98556067D01*
X119152660Y-98674121D01*
X119126457Y-98771913D01*
X119106502Y-99000000D01*
X111000000Y-99000000D01*
X111000000Y-94000000D01*
X113236807Y-94000000D01*
X113255542Y-94214142D01*
X113256966Y-94219455D01*
X113256966Y-94219457D01*
X113298924Y-94376043D01*
X113311178Y-94421777D01*
X113313500Y-94426757D01*
X113313501Y-94426759D01*
X113323986Y-94449243D01*
X113402024Y-94616596D01*
X113525319Y-94792681D01*
X113677319Y-94944681D01*
X113853403Y-95067976D01*
X113858381Y-95070297D01*
X113858384Y-95070299D01*
X114002547Y-95137523D01*
X114048223Y-95158822D01*
X114053531Y-95160244D01*
X114053533Y-95160245D01*
X114250543Y-95213034D01*
X114250545Y-95213034D01*
X114255858Y-95214458D01*
X114470000Y-95233193D01*
X114684142Y-95214458D01*
X114689455Y-95213034D01*
X114689457Y-95213034D01*
X114886467Y-95160245D01*
X114886469Y-95160244D01*
X114891777Y-95158822D01*
X114937453Y-95137523D01*
X115081616Y-95070299D01*
X115081619Y-95070297D01*
X115086597Y-95067976D01*
X115262681Y-94944681D01*
X115414681Y-94792681D01*
X115537976Y-94616596D01*
X115625805Y-94428247D01*
X115672723Y-94374962D01*
X115741000Y-94355501D01*
X115808960Y-94376043D01*
X115854195Y-94428247D01*
X115942024Y-94616596D01*
X116065319Y-94792681D01*
X116217319Y-94944681D01*
X116393403Y-95067976D01*
X116398381Y-95070297D01*
X116398384Y-95070299D01*
X116542547Y-95137523D01*
X116588223Y-95158822D01*
X116593531Y-95160244D01*
X116593533Y-95160245D01*
X116790543Y-95213034D01*
X116790545Y-95213034D01*
X116795858Y-95214458D01*
X117010000Y-95233193D01*
X117224142Y-95214458D01*
X117229455Y-95213034D01*
X117229457Y-95213034D01*
X117426467Y-95160245D01*
X117426469Y-95160244D01*
X117431777Y-95158822D01*
X117477453Y-95137523D01*
X117621616Y-95070299D01*
X117621619Y-95070297D01*
X117626597Y-95067976D01*
X117802681Y-94944681D01*
X117954681Y-94792681D01*
X118077976Y-94616596D01*
X118165805Y-94428247D01*
X118212723Y-94374962D01*
X118281000Y-94355501D01*
X118348960Y-94376043D01*
X118394195Y-94428247D01*
X118482024Y-94616596D01*
X118605319Y-94792681D01*
X118757319Y-94944681D01*
X118933403Y-95067976D01*
X118938381Y-95070297D01*
X118938384Y-95070299D01*
X119082547Y-95137523D01*
X119128223Y-95158822D01*
X119133531Y-95160244D01*
X119133533Y-95160245D01*
X119330543Y-95213034D01*
X119330545Y-95213034D01*
X119335858Y-95214458D01*
X119550000Y-95233193D01*
X119764142Y-95214458D01*
X119769455Y-95213034D01*
X119769457Y-95213034D01*
X119966467Y-95160245D01*
X119966469Y-95160244D01*
X119971777Y-95158822D01*
X120017453Y-95137523D01*
X120161616Y-95070299D01*
X120161619Y-95070297D01*
X120166597Y-95067976D01*
X120342681Y-94944681D01*
X120494681Y-94792681D01*
X120617976Y-94616596D01*
X120696015Y-94449243D01*
X120706499Y-94426759D01*
X120706500Y-94426757D01*
X120708822Y-94421777D01*
X120721077Y-94376043D01*
X120763034Y-94219457D01*
X120763034Y-94219455D01*
X120764458Y-94214142D01*
X120783193Y-94000000D01*
X120764458Y-93785858D01*
X120762190Y-93777393D01*
X120710245Y-93583533D01*
X120710244Y-93583531D01*
X120708822Y-93578223D01*
X120705805Y-93571753D01*
X120620299Y-93388385D01*
X120620297Y-93388382D01*
X120617976Y-93383404D01*
X120494681Y-93207319D01*
X120342681Y-93055319D01*
X120166597Y-92932024D01*
X120161619Y-92929703D01*
X120161616Y-92929701D01*
X119976759Y-92843501D01*
X119976758Y-92843500D01*
X119971777Y-92841178D01*
X119966469Y-92839756D01*
X119966467Y-92839755D01*
X119769457Y-92786966D01*
X119769455Y-92786966D01*
X119764142Y-92785542D01*
X119550000Y-92766807D01*
X119335858Y-92785542D01*
X119330545Y-92786966D01*
X119330543Y-92786966D01*
X119133533Y-92839755D01*
X119133531Y-92839756D01*
X119128223Y-92841178D01*
X119123243Y-92843500D01*
X119123241Y-92843501D01*
X118938385Y-92929701D01*
X118938382Y-92929703D01*
X118933404Y-92932024D01*
X118757319Y-93055319D01*
X118605319Y-93207319D01*
X118482024Y-93383404D01*
X118479703Y-93388382D01*
X118479701Y-93388385D01*
X118394195Y-93571753D01*
X118347277Y-93625038D01*
X118279000Y-93644499D01*
X118211040Y-93623957D01*
X118165805Y-93571753D01*
X118080299Y-93388385D01*
X118080297Y-93388382D01*
X118077976Y-93383404D01*
X117954681Y-93207319D01*
X117802681Y-93055319D01*
X117626597Y-92932024D01*
X117621619Y-92929703D01*
X117621616Y-92929701D01*
X117436759Y-92843501D01*
X117436758Y-92843500D01*
X117431777Y-92841178D01*
X117426469Y-92839756D01*
X117426467Y-92839755D01*
X117229457Y-92786966D01*
X117229455Y-92786966D01*
X117224142Y-92785542D01*
X117010000Y-92766807D01*
X116795858Y-92785542D01*
X116790545Y-92786966D01*
X116790543Y-92786966D01*
X116593533Y-92839755D01*
X116593531Y-92839756D01*
X116588223Y-92841178D01*
X116583243Y-92843500D01*
X116583241Y-92843501D01*
X116398385Y-92929701D01*
X116398382Y-92929703D01*
X116393404Y-92932024D01*
X116217319Y-93055319D01*
X116065319Y-93207319D01*
X115942024Y-93383404D01*
X115939703Y-93388382D01*
X115939701Y-93388385D01*
X115854195Y-93571753D01*
X115807277Y-93625038D01*
X115739000Y-93644499D01*
X115671040Y-93623957D01*
X115625805Y-93571753D01*
X115540299Y-93388385D01*
X115540297Y-93388382D01*
X115537976Y-93383404D01*
X115414681Y-93207319D01*
X115262681Y-93055319D01*
X115086597Y-92932024D01*
X115081619Y-92929703D01*
X115081616Y-92929701D01*
X114896759Y-92843501D01*
X114896758Y-92843500D01*
X114891777Y-92841178D01*
X114886469Y-92839756D01*
X114886467Y-92839755D01*
X114689457Y-92786966D01*
X114689455Y-92786966D01*
X114684142Y-92785542D01*
X114470000Y-92766807D01*
X114255858Y-92785542D01*
X114250545Y-92786966D01*
X114250543Y-92786966D01*
X114053533Y-92839755D01*
X114053531Y-92839756D01*
X114048223Y-92841178D01*
X114043243Y-92843500D01*
X114043241Y-92843501D01*
X113858385Y-92929701D01*
X113858382Y-92929703D01*
X113853404Y-92932024D01*
X113677319Y-93055319D01*
X113525319Y-93207319D01*
X113402024Y-93383404D01*
X113399703Y-93388382D01*
X113399701Y-93388385D01*
X113314195Y-93571753D01*
X113311178Y-93578223D01*
X113309756Y-93583531D01*
X113309755Y-93583533D01*
X113257810Y-93777393D01*
X113255542Y-93785858D01*
X113236807Y-94000000D01*
X111000000Y-94000000D01*
X111000000Y-88000000D01*
X113236807Y-88000000D01*
X113255542Y-88214142D01*
X113256966Y-88219455D01*
X113256966Y-88219457D01*
X113298924Y-88376043D01*
X113311178Y-88421777D01*
X113313500Y-88426757D01*
X113313501Y-88426759D01*
X113357926Y-88522027D01*
X113402024Y-88616596D01*
X113525319Y-88792681D01*
X113677319Y-88944681D01*
X113853403Y-89067976D01*
X113858381Y-89070297D01*
X113858384Y-89070299D01*
X114043241Y-89156499D01*
X114048223Y-89158822D01*
X114053531Y-89160244D01*
X114053533Y-89160245D01*
X114250543Y-89213034D01*
X114250545Y-89213034D01*
X114255858Y-89214458D01*
X114470000Y-89233193D01*
X114684142Y-89214458D01*
X114689455Y-89213034D01*
X114689457Y-89213034D01*
X114886467Y-89160245D01*
X114886469Y-89160244D01*
X114891777Y-89158822D01*
X114896759Y-89156499D01*
X115081616Y-89070299D01*
X115081619Y-89070297D01*
X115086597Y-89067976D01*
X115262681Y-88944681D01*
X115414681Y-88792681D01*
X115537976Y-88616596D01*
X115582075Y-88522027D01*
X115625805Y-88428247D01*
X115672723Y-88374962D01*
X115741000Y-88355501D01*
X115808960Y-88376043D01*
X115854195Y-88428247D01*
X115897926Y-88522027D01*
X115942024Y-88616596D01*
X116065319Y-88792681D01*
X116217319Y-88944681D01*
X116393403Y-89067976D01*
X116398381Y-89070297D01*
X116398384Y-89070299D01*
X116583241Y-89156499D01*
X116588223Y-89158822D01*
X116593531Y-89160244D01*
X116593533Y-89160245D01*
X116790543Y-89213034D01*
X116790545Y-89213034D01*
X116795858Y-89214458D01*
X117010000Y-89233193D01*
X117224142Y-89214458D01*
X117229455Y-89213034D01*
X117229457Y-89213034D01*
X117426467Y-89160245D01*
X117426469Y-89160244D01*
X117431777Y-89158822D01*
X117436759Y-89156499D01*
X117621616Y-89070299D01*
X117621619Y-89070297D01*
X117626597Y-89067976D01*
X117802681Y-88944681D01*
X117954681Y-88792681D01*
X118077976Y-88616596D01*
X118122075Y-88522027D01*
X118165805Y-88428247D01*
X118212723Y-88374962D01*
X118281000Y-88355501D01*
X118348960Y-88376043D01*
X118394195Y-88428247D01*
X118437926Y-88522027D01*
X118482024Y-88616596D01*
X118605319Y-88792681D01*
X118757319Y-88944681D01*
X118933403Y-89067976D01*
X118938381Y-89070297D01*
X118938384Y-89070299D01*
X119123241Y-89156499D01*
X119128223Y-89158822D01*
X119133531Y-89160244D01*
X119133533Y-89160245D01*
X119330543Y-89213034D01*
X119330545Y-89213034D01*
X119335858Y-89214458D01*
X119550000Y-89233193D01*
X119764142Y-89214458D01*
X119769455Y-89213034D01*
X119769457Y-89213034D01*
X119966467Y-89160245D01*
X119966469Y-89160244D01*
X119971777Y-89158822D01*
X119976759Y-89156499D01*
X120161616Y-89070299D01*
X120161619Y-89070297D01*
X120166597Y-89067976D01*
X120342681Y-88944681D01*
X120494681Y-88792681D01*
X120617976Y-88616596D01*
X120662075Y-88522027D01*
X120706499Y-88426759D01*
X120706500Y-88426757D01*
X120708822Y-88421777D01*
X120721077Y-88376043D01*
X120763034Y-88219457D01*
X120763034Y-88219455D01*
X120764458Y-88214142D01*
X120783193Y-88000000D01*
X120764458Y-87785858D01*
X120758701Y-87764373D01*
X120710245Y-87583533D01*
X120710244Y-87583531D01*
X120708822Y-87578223D01*
X120688626Y-87534912D01*
X120620299Y-87388385D01*
X120620297Y-87388382D01*
X120617976Y-87383404D01*
X120494681Y-87207319D01*
X120342681Y-87055319D01*
X120166597Y-86932024D01*
X120161619Y-86929703D01*
X120161616Y-86929701D01*
X119976759Y-86843501D01*
X119976758Y-86843500D01*
X119971777Y-86841178D01*
X119966469Y-86839756D01*
X119966467Y-86839755D01*
X119769457Y-86786966D01*
X119769455Y-86786966D01*
X119764142Y-86785542D01*
X119550000Y-86766807D01*
X119335858Y-86785542D01*
X119330545Y-86786966D01*
X119330543Y-86786966D01*
X119133533Y-86839755D01*
X119133531Y-86839756D01*
X119128223Y-86841178D01*
X119123243Y-86843500D01*
X119123241Y-86843501D01*
X118938385Y-86929701D01*
X118938382Y-86929703D01*
X118933404Y-86932024D01*
X118757319Y-87055319D01*
X118605319Y-87207319D01*
X118482024Y-87383404D01*
X118479703Y-87388382D01*
X118479701Y-87388385D01*
X118394195Y-87571753D01*
X118347277Y-87625038D01*
X118279000Y-87644499D01*
X118211040Y-87623957D01*
X118165805Y-87571753D01*
X118080299Y-87388385D01*
X118080297Y-87388382D01*
X118077976Y-87383404D01*
X117954681Y-87207319D01*
X117802681Y-87055319D01*
X117626597Y-86932024D01*
X117621619Y-86929703D01*
X117621616Y-86929701D01*
X117436759Y-86843501D01*
X117436758Y-86843500D01*
X117431777Y-86841178D01*
X117426469Y-86839756D01*
X117426467Y-86839755D01*
X117229457Y-86786966D01*
X117229455Y-86786966D01*
X117224142Y-86785542D01*
X117010000Y-86766807D01*
X116795858Y-86785542D01*
X116790545Y-86786966D01*
X116790543Y-86786966D01*
X116593533Y-86839755D01*
X116593531Y-86839756D01*
X116588223Y-86841178D01*
X116583243Y-86843500D01*
X116583241Y-86843501D01*
X116398385Y-86929701D01*
X116398382Y-86929703D01*
X116393404Y-86932024D01*
X116217319Y-87055319D01*
X116065319Y-87207319D01*
X115942024Y-87383404D01*
X115939703Y-87388382D01*
X115939701Y-87388385D01*
X115854195Y-87571753D01*
X115807277Y-87625038D01*
X115739000Y-87644499D01*
X115671040Y-87623957D01*
X115625805Y-87571753D01*
X115540299Y-87388385D01*
X115540297Y-87388382D01*
X115537976Y-87383404D01*
X115414681Y-87207319D01*
X115262681Y-87055319D01*
X115086597Y-86932024D01*
X115081619Y-86929703D01*
X115081616Y-86929701D01*
X114896759Y-86843501D01*
X114896758Y-86843500D01*
X114891777Y-86841178D01*
X114886469Y-86839756D01*
X114886467Y-86839755D01*
X114689457Y-86786966D01*
X114689455Y-86786966D01*
X114684142Y-86785542D01*
X114470000Y-86766807D01*
X114255858Y-86785542D01*
X114250545Y-86786966D01*
X114250543Y-86786966D01*
X114053533Y-86839755D01*
X114053531Y-86839756D01*
X114048223Y-86841178D01*
X114043243Y-86843500D01*
X114043241Y-86843501D01*
X113858385Y-86929701D01*
X113858382Y-86929703D01*
X113853404Y-86932024D01*
X113677319Y-87055319D01*
X113525319Y-87207319D01*
X113402024Y-87383404D01*
X113399703Y-87388382D01*
X113399701Y-87388385D01*
X113331374Y-87534912D01*
X113311178Y-87578223D01*
X113309756Y-87583531D01*
X113309755Y-87583533D01*
X113261299Y-87764373D01*
X113255542Y-87785858D01*
X113236807Y-88000000D01*
X111000000Y-88000000D01*
X111000000Y-76000000D01*
X113226807Y-76000000D01*
X113245542Y-76214142D01*
X113246966Y-76219455D01*
X113246966Y-76219457D01*
X113288924Y-76376043D01*
X113301178Y-76421777D01*
X113392024Y-76616596D01*
X113515319Y-76792681D01*
X113667319Y-76944681D01*
X113843403Y-77067976D01*
X113848381Y-77070297D01*
X113848384Y-77070299D01*
X113953191Y-77119171D01*
X114038223Y-77158822D01*
X114043531Y-77160244D01*
X114043533Y-77160245D01*
X114240543Y-77213034D01*
X114240545Y-77213034D01*
X114245858Y-77214458D01*
X114460000Y-77233193D01*
X114674142Y-77214458D01*
X114679455Y-77213034D01*
X114679457Y-77213034D01*
X114876467Y-77160245D01*
X114876469Y-77160244D01*
X114881777Y-77158822D01*
X114966809Y-77119171D01*
X115071616Y-77070299D01*
X115071619Y-77070297D01*
X115076597Y-77067976D01*
X115252681Y-76944681D01*
X115404681Y-76792681D01*
X115527976Y-76616596D01*
X115615805Y-76428247D01*
X115662723Y-76374962D01*
X115731000Y-76355501D01*
X115798960Y-76376043D01*
X115844195Y-76428247D01*
X115932024Y-76616596D01*
X115968715Y-76668996D01*
X115991500Y-76741264D01*
X115991500Y-77438157D01*
X115990763Y-77451764D01*
X115986676Y-77489388D01*
X115987213Y-77495523D01*
X115991050Y-77539388D01*
X115991379Y-77544214D01*
X115991500Y-77546686D01*
X115991500Y-77549769D01*
X115991801Y-77552837D01*
X115995690Y-77592506D01*
X115995812Y-77593819D01*
X116003913Y-77686413D01*
X116005400Y-77691532D01*
X116005920Y-77696833D01*
X116032791Y-77785834D01*
X116033126Y-77786967D01*
X116059091Y-77876336D01*
X116061544Y-77881068D01*
X116063084Y-77886169D01*
X116065978Y-77891612D01*
X116106731Y-77968260D01*
X116107343Y-77969426D01*
X116150108Y-78051926D01*
X116153431Y-78056089D01*
X116155934Y-78060796D01*
X116214755Y-78132918D01*
X116215446Y-78133774D01*
X116246738Y-78172973D01*
X116249242Y-78175477D01*
X116249884Y-78176195D01*
X116253585Y-78180528D01*
X116280935Y-78214062D01*
X116285682Y-78217989D01*
X116285684Y-78217991D01*
X116316262Y-78243287D01*
X116325042Y-78251277D01*
X117645304Y-79571538D01*
X118869799Y-80796033D01*
X118903824Y-80858345D01*
X118898760Y-80929160D01*
X118852974Y-80988341D01*
X118757319Y-81055319D01*
X118605319Y-81207319D01*
X118482024Y-81383404D01*
X118479703Y-81388382D01*
X118479701Y-81388385D01*
X118394195Y-81571753D01*
X118347277Y-81625038D01*
X118279000Y-81644499D01*
X118211040Y-81623957D01*
X118165805Y-81571753D01*
X118080299Y-81388385D01*
X118080297Y-81388382D01*
X118077976Y-81383404D01*
X117954681Y-81207319D01*
X117802681Y-81055319D01*
X117626597Y-80932024D01*
X117621619Y-80929703D01*
X117621616Y-80929701D01*
X117436759Y-80843501D01*
X117436758Y-80843500D01*
X117431777Y-80841178D01*
X117426469Y-80839756D01*
X117426467Y-80839755D01*
X117229457Y-80786966D01*
X117229455Y-80786966D01*
X117224142Y-80785542D01*
X117010000Y-80766807D01*
X116795858Y-80785542D01*
X116790545Y-80786966D01*
X116790543Y-80786966D01*
X116593533Y-80839755D01*
X116593531Y-80839756D01*
X116588223Y-80841178D01*
X116583243Y-80843500D01*
X116583241Y-80843501D01*
X116398385Y-80929701D01*
X116398382Y-80929703D01*
X116393404Y-80932024D01*
X116217319Y-81055319D01*
X116065319Y-81207319D01*
X115942024Y-81383404D01*
X115939703Y-81388382D01*
X115939701Y-81388385D01*
X115854195Y-81571753D01*
X115807277Y-81625038D01*
X115739000Y-81644499D01*
X115671040Y-81623957D01*
X115625805Y-81571753D01*
X115540299Y-81388385D01*
X115540297Y-81388382D01*
X115537976Y-81383404D01*
X115414681Y-81207319D01*
X115262681Y-81055319D01*
X115086597Y-80932024D01*
X115081619Y-80929703D01*
X115081616Y-80929701D01*
X114896759Y-80843501D01*
X114896758Y-80843500D01*
X114891777Y-80841178D01*
X114886469Y-80839756D01*
X114886467Y-80839755D01*
X114689457Y-80786966D01*
X114689455Y-80786966D01*
X114684142Y-80785542D01*
X114470000Y-80766807D01*
X114255858Y-80785542D01*
X114250545Y-80786966D01*
X114250543Y-80786966D01*
X114053533Y-80839755D01*
X114053531Y-80839756D01*
X114048223Y-80841178D01*
X114043243Y-80843500D01*
X114043241Y-80843501D01*
X113858385Y-80929701D01*
X113858382Y-80929703D01*
X113853404Y-80932024D01*
X113677319Y-81055319D01*
X113525319Y-81207319D01*
X113402024Y-81383404D01*
X113399703Y-81388382D01*
X113399701Y-81388385D01*
X113326481Y-81545405D01*
X113311178Y-81578223D01*
X113309756Y-81583531D01*
X113309755Y-81583533D01*
X113298634Y-81625038D01*
X113255542Y-81785858D01*
X113236807Y-82000000D01*
X113255542Y-82214142D01*
X113256966Y-82219455D01*
X113256966Y-82219457D01*
X113298924Y-82376043D01*
X113311178Y-82421777D01*
X113402024Y-82616596D01*
X113525319Y-82792681D01*
X113677319Y-82944681D01*
X113853403Y-83067976D01*
X113858381Y-83070297D01*
X113858384Y-83070299D01*
X114043241Y-83156499D01*
X114048223Y-83158822D01*
X114053531Y-83160244D01*
X114053533Y-83160245D01*
X114250543Y-83213034D01*
X114250545Y-83213034D01*
X114255858Y-83214458D01*
X114470000Y-83233193D01*
X114684142Y-83214458D01*
X114689455Y-83213034D01*
X114689457Y-83213034D01*
X114886467Y-83160245D01*
X114886469Y-83160244D01*
X114891777Y-83158822D01*
X114896759Y-83156499D01*
X115081616Y-83070299D01*
X115081619Y-83070297D01*
X115086597Y-83067976D01*
X115262681Y-82944681D01*
X115414681Y-82792681D01*
X115537976Y-82616596D01*
X115625805Y-82428247D01*
X115672723Y-82374962D01*
X115741000Y-82355501D01*
X115808960Y-82376043D01*
X115854195Y-82428247D01*
X115942024Y-82616596D01*
X116065319Y-82792681D01*
X116217319Y-82944681D01*
X116393403Y-83067976D01*
X116398381Y-83070297D01*
X116398384Y-83070299D01*
X116583241Y-83156499D01*
X116588223Y-83158822D01*
X116593531Y-83160244D01*
X116593533Y-83160245D01*
X116790543Y-83213034D01*
X116790545Y-83213034D01*
X116795858Y-83214458D01*
X117010000Y-83233193D01*
X117224142Y-83214458D01*
X117229455Y-83213034D01*
X117229457Y-83213034D01*
X117426467Y-83160245D01*
X117426469Y-83160244D01*
X117431777Y-83158822D01*
X117436759Y-83156499D01*
X117621616Y-83070299D01*
X117621619Y-83070297D01*
X117626597Y-83067976D01*
X117802681Y-82944681D01*
X117954681Y-82792681D01*
X118077976Y-82616596D01*
X118165805Y-82428247D01*
X118212723Y-82374962D01*
X118281000Y-82355501D01*
X118348960Y-82376043D01*
X118394195Y-82428247D01*
X118482024Y-82616596D01*
X118605319Y-82792681D01*
X118757319Y-82944681D01*
X118933403Y-83067976D01*
X118938381Y-83070297D01*
X118938384Y-83070299D01*
X119123241Y-83156499D01*
X119128223Y-83158822D01*
X119133531Y-83160244D01*
X119133533Y-83160245D01*
X119330543Y-83213034D01*
X119330545Y-83213034D01*
X119335858Y-83214458D01*
X119550000Y-83233193D01*
X119764142Y-83214458D01*
X119769455Y-83213034D01*
X119769457Y-83213034D01*
X119966467Y-83160245D01*
X119966469Y-83160244D01*
X119971777Y-83158822D01*
X119976759Y-83156499D01*
X120161616Y-83070299D01*
X120161619Y-83070297D01*
X120166597Y-83067976D01*
X120342681Y-82944681D01*
X120494681Y-82792681D01*
X120617976Y-82616596D01*
X120708822Y-82421777D01*
X120721077Y-82376043D01*
X120763034Y-82219457D01*
X120763034Y-82219455D01*
X120764458Y-82214142D01*
X120783193Y-82000000D01*
X120764458Y-81785858D01*
X120732640Y-81667111D01*
X120734330Y-81596135D01*
X120774124Y-81537339D01*
X120839389Y-81509391D01*
X120854347Y-81508500D01*
X121530075Y-81508500D01*
X121598196Y-81528502D01*
X121619170Y-81545405D01*
X124454595Y-84380830D01*
X124488621Y-84443142D01*
X124491500Y-84469925D01*
X124491500Y-92854829D01*
X124471498Y-92922950D01*
X124417842Y-92969443D01*
X124347568Y-92979547D01*
X124293230Y-92958043D01*
X124156749Y-92862477D01*
X124151767Y-92860154D01*
X124151762Y-92860151D01*
X123954225Y-92768039D01*
X123954224Y-92768039D01*
X123949243Y-92765716D01*
X123943935Y-92764294D01*
X123943933Y-92764293D01*
X123733402Y-92707881D01*
X123733400Y-92707881D01*
X123728087Y-92706457D01*
X123500000Y-92686502D01*
X123271913Y-92706457D01*
X123266600Y-92707881D01*
X123266598Y-92707881D01*
X123056067Y-92764293D01*
X123056065Y-92764294D01*
X123050757Y-92765716D01*
X123045776Y-92768039D01*
X123045775Y-92768039D01*
X122848238Y-92860151D01*
X122848233Y-92860154D01*
X122843251Y-92862477D01*
X122743928Y-92932024D01*
X122660211Y-92990643D01*
X122660208Y-92990645D01*
X122655700Y-92993802D01*
X122493802Y-93155700D01*
X122490645Y-93160208D01*
X122490643Y-93160211D01*
X122435902Y-93238389D01*
X122362477Y-93343251D01*
X122360154Y-93348233D01*
X122360151Y-93348238D01*
X122268039Y-93545775D01*
X122265716Y-93550757D01*
X122264294Y-93556065D01*
X122264293Y-93556067D01*
X122246102Y-93623957D01*
X122206457Y-93771913D01*
X122186502Y-94000000D01*
X122206457Y-94228087D01*
X122207881Y-94233400D01*
X122207881Y-94233402D01*
X122256934Y-94416467D01*
X122265716Y-94449243D01*
X122268039Y-94454224D01*
X122268039Y-94454225D01*
X122360151Y-94651762D01*
X122360154Y-94651767D01*
X122362477Y-94656749D01*
X122423997Y-94744608D01*
X122487836Y-94835779D01*
X122493802Y-94844300D01*
X122655700Y-95006198D01*
X122660208Y-95009355D01*
X122660211Y-95009357D01*
X122699054Y-95036555D01*
X122843251Y-95137523D01*
X122848233Y-95139846D01*
X122848238Y-95139849D01*
X123009267Y-95214937D01*
X123050757Y-95234284D01*
X123056065Y-95235706D01*
X123056067Y-95235707D01*
X123266598Y-95292119D01*
X123266600Y-95292119D01*
X123271913Y-95293543D01*
X123500000Y-95313498D01*
X123728087Y-95293543D01*
X123733400Y-95292119D01*
X123733402Y-95292119D01*
X123943933Y-95235707D01*
X123943935Y-95235706D01*
X123949243Y-95234284D01*
X123990733Y-95214937D01*
X124151762Y-95139849D01*
X124151767Y-95139846D01*
X124156749Y-95137523D01*
X124293230Y-95041958D01*
X124360503Y-95019270D01*
X124429363Y-95036555D01*
X124477948Y-95088324D01*
X124491500Y-95145171D01*
X124491500Y-102049769D01*
X124505920Y-102196833D01*
X124507702Y-102202734D01*
X124507702Y-102202736D01*
X124529838Y-102276053D01*
X124563084Y-102386169D01*
X124655934Y-102560796D01*
X124726291Y-102647062D01*
X124777040Y-102709287D01*
X124777043Y-102709290D01*
X124780935Y-102714062D01*
X124785682Y-102717989D01*
X124785684Y-102717991D01*
X124928575Y-102836201D01*
X124928579Y-102836203D01*
X124933325Y-102840130D01*
X125107299Y-102934198D01*
X125157976Y-102949885D01*
X125189673Y-102959697D01*
X125241509Y-102990967D01*
X127319085Y-105068542D01*
X127331926Y-105083577D01*
X127335927Y-105089084D01*
X127335932Y-105089090D01*
X127339815Y-105094434D01*
X127344725Y-105098855D01*
X127344726Y-105098856D01*
X127389194Y-105138895D01*
X127393979Y-105143436D01*
X127408015Y-105157472D01*
X127410575Y-105159545D01*
X127410576Y-105159546D01*
X127423443Y-105169966D01*
X127428453Y-105174246D01*
X127472921Y-105214284D01*
X127472926Y-105214288D01*
X127477831Y-105218704D01*
X127483543Y-105222002D01*
X127483546Y-105222004D01*
X127489446Y-105225410D01*
X127505742Y-105236610D01*
X127516161Y-105245047D01*
X127575363Y-105275213D01*
X127581133Y-105278346D01*
X127632945Y-105308260D01*
X127632950Y-105308262D01*
X127638669Y-105311564D01*
X127644949Y-105313605D01*
X127644957Y-105313608D01*
X127651421Y-105315708D01*
X127669683Y-105323272D01*
X127675749Y-105326363D01*
X127675758Y-105326366D01*
X127681637Y-105329362D01*
X127688015Y-105331071D01*
X127745804Y-105346556D01*
X127752106Y-105348422D01*
X127815298Y-105368954D01*
X127828205Y-105370311D01*
X127828628Y-105370355D01*
X127848071Y-105373958D01*
X127861029Y-105377430D01*
X127867619Y-105377775D01*
X127867623Y-105377776D01*
X127911573Y-105380079D01*
X127927372Y-105380907D01*
X127933931Y-105381423D01*
X127953694Y-105383500D01*
X127973555Y-105383500D01*
X127980150Y-105383673D01*
X128039902Y-105386805D01*
X128039906Y-105386805D01*
X128046493Y-105387150D01*
X128059747Y-105385051D01*
X128079456Y-105383500D01*
X155546306Y-105383500D01*
X155661506Y-105371392D01*
X155678138Y-105369644D01*
X155678139Y-105369644D01*
X155684702Y-105368954D01*
X155861331Y-105311564D01*
X155916738Y-105279575D01*
X155971356Y-105248041D01*
X156022169Y-105218704D01*
X156073992Y-105172043D01*
X156155274Y-105098856D01*
X156155275Y-105098855D01*
X156160185Y-105094434D01*
X156173900Y-105075558D01*
X156265467Y-104949526D01*
X156265468Y-104949525D01*
X156269348Y-104944184D01*
X156344887Y-104774521D01*
X156346259Y-104768066D01*
X156346262Y-104768057D01*
X156349742Y-104751685D01*
X156383893Y-104688788D01*
X157156331Y-103916350D01*
X157219228Y-103882199D01*
X157275824Y-103870169D01*
X157275833Y-103870166D01*
X157282288Y-103868794D01*
X157288319Y-103866109D01*
X157450722Y-103793803D01*
X157450724Y-103793802D01*
X157456752Y-103791118D01*
X157611253Y-103678866D01*
X157670000Y-103613621D01*
X157734621Y-103541852D01*
X157734622Y-103541851D01*
X157739040Y-103536944D01*
X157834527Y-103371556D01*
X157893542Y-103189928D01*
X157913504Y-103000000D01*
X157893542Y-102810072D01*
X157834527Y-102628444D01*
X157739040Y-102463056D01*
X157611253Y-102321134D01*
X157456752Y-102208882D01*
X157450724Y-102206198D01*
X157450722Y-102206197D01*
X157288319Y-102133891D01*
X157288318Y-102133891D01*
X157282288Y-102131206D01*
X157188887Y-102111353D01*
X157101944Y-102092872D01*
X157101939Y-102092872D01*
X157095487Y-102091500D01*
X156904513Y-102091500D01*
X156898061Y-102092872D01*
X156898056Y-102092872D01*
X156811112Y-102111353D01*
X156717712Y-102131206D01*
X156711682Y-102133891D01*
X156711681Y-102133891D01*
X156549278Y-102206197D01*
X156549276Y-102206198D01*
X156543248Y-102208882D01*
X156388747Y-102321134D01*
X156260960Y-102463056D01*
X156165473Y-102628444D01*
X156163431Y-102634729D01*
X156110613Y-102797285D01*
X156079875Y-102847444D01*
X155347724Y-103579595D01*
X155285412Y-103613621D01*
X155258629Y-103616500D01*
X128418147Y-103616500D01*
X128350026Y-103596498D01*
X128329052Y-103579595D01*
X126545405Y-101795947D01*
X126511379Y-101733635D01*
X126508500Y-101706852D01*
X126508500Y-98234336D01*
X126528502Y-98166215D01*
X126582158Y-98119722D01*
X126652432Y-98109618D01*
X126717012Y-98139112D01*
X126732970Y-98155726D01*
X126746738Y-98172973D01*
X126749242Y-98175477D01*
X126749884Y-98176195D01*
X126753585Y-98180528D01*
X126780935Y-98214062D01*
X126785682Y-98217989D01*
X126785684Y-98217991D01*
X126816262Y-98243287D01*
X126825042Y-98251277D01*
X128243145Y-99669379D01*
X128252247Y-99679522D01*
X128275968Y-99709025D01*
X128314456Y-99741320D01*
X128318075Y-99744478D01*
X128319890Y-99746124D01*
X128322075Y-99748309D01*
X128324455Y-99750264D01*
X128324465Y-99750273D01*
X128355236Y-99775549D01*
X128356251Y-99776391D01*
X128379368Y-99795788D01*
X128427474Y-99836154D01*
X128432148Y-99838723D01*
X128436261Y-99842102D01*
X128441698Y-99845017D01*
X128441699Y-99845018D01*
X128518047Y-99885955D01*
X128519177Y-99886568D01*
X128600787Y-99931433D01*
X128605869Y-99933045D01*
X128610563Y-99935562D01*
X128699531Y-99962762D01*
X128700559Y-99963082D01*
X128789306Y-99991235D01*
X128794602Y-99991829D01*
X128799698Y-99993387D01*
X128892257Y-100002790D01*
X128893393Y-100002911D01*
X128926305Y-100006602D01*
X128939730Y-100008108D01*
X128939734Y-100008108D01*
X128943227Y-100008500D01*
X128946754Y-100008500D01*
X128947739Y-100008555D01*
X128953419Y-100009002D01*
X128982825Y-100011989D01*
X128990337Y-100012752D01*
X128990339Y-100012752D01*
X128996462Y-100013374D01*
X129042108Y-100009059D01*
X129053967Y-100008500D01*
X129699260Y-100008500D01*
X129771531Y-100031287D01*
X129923251Y-100137523D01*
X129928233Y-100139846D01*
X129928238Y-100139849D01*
X130121411Y-100229926D01*
X130130757Y-100234284D01*
X130136065Y-100235706D01*
X130136067Y-100235707D01*
X130346598Y-100292119D01*
X130346600Y-100292119D01*
X130351913Y-100293543D01*
X130580000Y-100313498D01*
X130808087Y-100293543D01*
X130813400Y-100292119D01*
X130813402Y-100292119D01*
X131023933Y-100235707D01*
X131023935Y-100235706D01*
X131029243Y-100234284D01*
X131038589Y-100229926D01*
X131231762Y-100139849D01*
X131231767Y-100139846D01*
X131236749Y-100137523D01*
X131376170Y-100039899D01*
X131419789Y-100009357D01*
X131419792Y-100009355D01*
X131424300Y-100006198D01*
X131586198Y-99844300D01*
X131589807Y-99839147D01*
X131667049Y-99728833D01*
X131717523Y-99656749D01*
X131719846Y-99651767D01*
X131719849Y-99651762D01*
X131811961Y-99454225D01*
X131811961Y-99454224D01*
X131814284Y-99449243D01*
X131816693Y-99440255D01*
X131822120Y-99420000D01*
X138686502Y-99420000D01*
X138706457Y-99648087D01*
X138707881Y-99653400D01*
X138707881Y-99653402D01*
X138758444Y-99842102D01*
X138765716Y-99869243D01*
X138768039Y-99874224D01*
X138768039Y-99874225D01*
X138860151Y-100071762D01*
X138860154Y-100071767D01*
X138862477Y-100076749D01*
X138906660Y-100139849D01*
X138972785Y-100234284D01*
X138993802Y-100264300D01*
X139155700Y-100426198D01*
X139160208Y-100429355D01*
X139160211Y-100429357D01*
X139187182Y-100448242D01*
X139343251Y-100557523D01*
X139348233Y-100559846D01*
X139348238Y-100559849D01*
X139417155Y-100591985D01*
X139550757Y-100654284D01*
X139556065Y-100655706D01*
X139556067Y-100655707D01*
X139766598Y-100712119D01*
X139766600Y-100712119D01*
X139771913Y-100713543D01*
X140000000Y-100733498D01*
X140228087Y-100713543D01*
X140233400Y-100712119D01*
X140233402Y-100712119D01*
X140443933Y-100655707D01*
X140443935Y-100655706D01*
X140449243Y-100654284D01*
X140582845Y-100591985D01*
X140651762Y-100559849D01*
X140651767Y-100559846D01*
X140656749Y-100557523D01*
X140812818Y-100448242D01*
X140839789Y-100429357D01*
X140839792Y-100429355D01*
X140844300Y-100426198D01*
X141006198Y-100264300D01*
X141027216Y-100234284D01*
X141093340Y-100139849D01*
X141137523Y-100076749D01*
X141139846Y-100071767D01*
X141139849Y-100071762D01*
X141231961Y-99874225D01*
X141231961Y-99874224D01*
X141234284Y-99869243D01*
X141241557Y-99842102D01*
X141292119Y-99653402D01*
X141292119Y-99653400D01*
X141293543Y-99648087D01*
X141313498Y-99420000D01*
X141293543Y-99191913D01*
X141292119Y-99186598D01*
X141235707Y-98976067D01*
X141235706Y-98976065D01*
X141234284Y-98970757D01*
X141203123Y-98903931D01*
X141139849Y-98768238D01*
X141139846Y-98768233D01*
X141137523Y-98763251D01*
X141018516Y-98593292D01*
X141009357Y-98580211D01*
X141009355Y-98580208D01*
X141006198Y-98575700D01*
X140844300Y-98413802D01*
X140839792Y-98410645D01*
X140839789Y-98410643D01*
X140737105Y-98338743D01*
X140656749Y-98282477D01*
X140651767Y-98280154D01*
X140651762Y-98280151D01*
X140454225Y-98188039D01*
X140454224Y-98188039D01*
X140449243Y-98185716D01*
X140443935Y-98184294D01*
X140443933Y-98184293D01*
X140233402Y-98127881D01*
X140233400Y-98127881D01*
X140228087Y-98126457D01*
X140000000Y-98106502D01*
X139771913Y-98126457D01*
X139766600Y-98127881D01*
X139766598Y-98127881D01*
X139556067Y-98184293D01*
X139556065Y-98184294D01*
X139550757Y-98185716D01*
X139545776Y-98188039D01*
X139545775Y-98188039D01*
X139348238Y-98280151D01*
X139348233Y-98280154D01*
X139343251Y-98282477D01*
X139262895Y-98338743D01*
X139160211Y-98410643D01*
X139160208Y-98410645D01*
X139155700Y-98413802D01*
X138993802Y-98575700D01*
X138990645Y-98580208D01*
X138990643Y-98580211D01*
X138981484Y-98593292D01*
X138862477Y-98763251D01*
X138860154Y-98768233D01*
X138860151Y-98768238D01*
X138796877Y-98903931D01*
X138765716Y-98970757D01*
X138764294Y-98976065D01*
X138764293Y-98976067D01*
X138707881Y-99186598D01*
X138706457Y-99191913D01*
X138686502Y-99420000D01*
X131822120Y-99420000D01*
X131872119Y-99233402D01*
X131872119Y-99233400D01*
X131873543Y-99228087D01*
X131893498Y-99000000D01*
X131873543Y-98771913D01*
X131847340Y-98674121D01*
X131815707Y-98556067D01*
X131815706Y-98556065D01*
X131814284Y-98550757D01*
X131811961Y-98545775D01*
X131719849Y-98348238D01*
X131719846Y-98348233D01*
X131717523Y-98343251D01*
X131608842Y-98188039D01*
X131589357Y-98160211D01*
X131589355Y-98160208D01*
X131586198Y-98155700D01*
X131424300Y-97993802D01*
X131419792Y-97990645D01*
X131419789Y-97990643D01*
X131306761Y-97911500D01*
X131236749Y-97862477D01*
X131231767Y-97860154D01*
X131231762Y-97860151D01*
X131034225Y-97768039D01*
X131034224Y-97768039D01*
X131029243Y-97765716D01*
X131023935Y-97764294D01*
X131023933Y-97764293D01*
X130813402Y-97707881D01*
X130813400Y-97707881D01*
X130808087Y-97706457D01*
X130580000Y-97686502D01*
X130351913Y-97706457D01*
X130346600Y-97707881D01*
X130346598Y-97707881D01*
X130136067Y-97764293D01*
X130136065Y-97764294D01*
X130130757Y-97765716D01*
X130125776Y-97768039D01*
X130125775Y-97768039D01*
X129928238Y-97860151D01*
X129928233Y-97860154D01*
X129923251Y-97862477D01*
X129791692Y-97954596D01*
X129771531Y-97968713D01*
X129699260Y-97991500D01*
X129469926Y-97991500D01*
X129401805Y-97971498D01*
X129380831Y-97954596D01*
X128545405Y-97119171D01*
X128511380Y-97056858D01*
X128508500Y-97030075D01*
X128508500Y-93238925D01*
X128528502Y-93170804D01*
X128582158Y-93124311D01*
X128652432Y-93114207D01*
X128717012Y-93143701D01*
X128723595Y-93149830D01*
X130243145Y-94669379D01*
X130252247Y-94679522D01*
X130275968Y-94709025D01*
X130280696Y-94712992D01*
X130314421Y-94741291D01*
X130318069Y-94744472D01*
X130319881Y-94746115D01*
X130322075Y-94748309D01*
X130355349Y-94775642D01*
X130356147Y-94776304D01*
X130427474Y-94836154D01*
X130432144Y-94838722D01*
X130436261Y-94842103D01*
X130471700Y-94861105D01*
X130518086Y-94885977D01*
X130519245Y-94886606D01*
X130595381Y-94928462D01*
X130595389Y-94928465D01*
X130600787Y-94931433D01*
X130605869Y-94933045D01*
X130610563Y-94935562D01*
X130699531Y-94962762D01*
X130700559Y-94963082D01*
X130789306Y-94991235D01*
X130794602Y-94991829D01*
X130799698Y-94993387D01*
X130892257Y-95002790D01*
X130893393Y-95002911D01*
X130927008Y-95006681D01*
X130939730Y-95008108D01*
X130939734Y-95008108D01*
X130943227Y-95008500D01*
X130946754Y-95008500D01*
X130947739Y-95008555D01*
X130953419Y-95009002D01*
X130982825Y-95011989D01*
X130990337Y-95012752D01*
X130990339Y-95012752D01*
X130996462Y-95013374D01*
X131042108Y-95009059D01*
X131053967Y-95008500D01*
X132779260Y-95008500D01*
X132851531Y-95031287D01*
X133003251Y-95137523D01*
X133008233Y-95139846D01*
X133008238Y-95139849D01*
X133169267Y-95214937D01*
X133210757Y-95234284D01*
X133216065Y-95235706D01*
X133216067Y-95235707D01*
X133426598Y-95292119D01*
X133426600Y-95292119D01*
X133431913Y-95293543D01*
X133660000Y-95313498D01*
X133888087Y-95293543D01*
X133893400Y-95292119D01*
X133893402Y-95292119D01*
X134103933Y-95235707D01*
X134103935Y-95235706D01*
X134109243Y-95234284D01*
X134150733Y-95214937D01*
X134311762Y-95139849D01*
X134311767Y-95139846D01*
X134316749Y-95137523D01*
X134460946Y-95036555D01*
X134499789Y-95009357D01*
X134499792Y-95009355D01*
X134504300Y-95006198D01*
X134666198Y-94844300D01*
X134672165Y-94835779D01*
X134736003Y-94744608D01*
X134797523Y-94656749D01*
X134799846Y-94651767D01*
X134799849Y-94651762D01*
X134891961Y-94454225D01*
X134891961Y-94454224D01*
X134894284Y-94449243D01*
X134903067Y-94416467D01*
X134952119Y-94233402D01*
X134952119Y-94233400D01*
X134953543Y-94228087D01*
X134973498Y-94000000D01*
X134953543Y-93771913D01*
X134913898Y-93623957D01*
X134895707Y-93556067D01*
X134895706Y-93556065D01*
X134894284Y-93550757D01*
X134891961Y-93545775D01*
X134799849Y-93348238D01*
X134799846Y-93348233D01*
X134797523Y-93343251D01*
X134724098Y-93238389D01*
X134669357Y-93160211D01*
X134669355Y-93160208D01*
X134666198Y-93155700D01*
X134504300Y-92993802D01*
X134499792Y-92990645D01*
X134499789Y-92990643D01*
X134416072Y-92932024D01*
X134316749Y-92862477D01*
X134311767Y-92860154D01*
X134311762Y-92860151D01*
X134114225Y-92768039D01*
X134114224Y-92768039D01*
X134109243Y-92765716D01*
X134103935Y-92764294D01*
X134103933Y-92764293D01*
X133893402Y-92707881D01*
X133893400Y-92707881D01*
X133888087Y-92706457D01*
X133660000Y-92686502D01*
X133431913Y-92706457D01*
X133426600Y-92707881D01*
X133426598Y-92707881D01*
X133216067Y-92764293D01*
X133216065Y-92764294D01*
X133210757Y-92765716D01*
X133205776Y-92768039D01*
X133205775Y-92768039D01*
X133008238Y-92860151D01*
X133008233Y-92860154D01*
X133003251Y-92862477D01*
X132899422Y-92935179D01*
X132851531Y-92968713D01*
X132779260Y-92991500D01*
X131469925Y-92991500D01*
X131401804Y-92971498D01*
X131380830Y-92954595D01*
X130045405Y-91619171D01*
X130011380Y-91556859D01*
X130008500Y-91530076D01*
X130008500Y-89858134D01*
X130028502Y-89790013D01*
X130082158Y-89743520D01*
X130152432Y-89733416D01*
X130214985Y-89761190D01*
X130378126Y-89896632D01*
X130571000Y-90009338D01*
X130779692Y-90089030D01*
X130784760Y-90090061D01*
X130784763Y-90090062D01*
X130879862Y-90109410D01*
X130998597Y-90133567D01*
X131003772Y-90133757D01*
X131003774Y-90133757D01*
X131216673Y-90141564D01*
X131216677Y-90141564D01*
X131221837Y-90141753D01*
X131226957Y-90141097D01*
X131226959Y-90141097D01*
X131438288Y-90114025D01*
X131438289Y-90114025D01*
X131443416Y-90113368D01*
X131448366Y-90111883D01*
X131652429Y-90050661D01*
X131652434Y-90050659D01*
X131657384Y-90049174D01*
X131857994Y-89950896D01*
X132039860Y-89821173D01*
X132198096Y-89663489D01*
X132328453Y-89482077D01*
X132329776Y-89483028D01*
X132376645Y-89439857D01*
X132446580Y-89427625D01*
X132512026Y-89455144D01*
X132539875Y-89486994D01*
X132599987Y-89585088D01*
X132746250Y-89753938D01*
X132918126Y-89896632D01*
X133111000Y-90009338D01*
X133319692Y-90089030D01*
X133324760Y-90090061D01*
X133324763Y-90090062D01*
X133419862Y-90109410D01*
X133538597Y-90133567D01*
X133543772Y-90133757D01*
X133543774Y-90133757D01*
X133756673Y-90141564D01*
X133756677Y-90141564D01*
X133761837Y-90141753D01*
X133766957Y-90141097D01*
X133766959Y-90141097D01*
X133978288Y-90114025D01*
X133978289Y-90114025D01*
X133983416Y-90113368D01*
X133988366Y-90111883D01*
X134192429Y-90050661D01*
X134192434Y-90050659D01*
X134197384Y-90049174D01*
X134397994Y-89950896D01*
X134579860Y-89821173D01*
X134738096Y-89663489D01*
X134868453Y-89482077D01*
X134869776Y-89483028D01*
X134916645Y-89439857D01*
X134986580Y-89427625D01*
X135052026Y-89455144D01*
X135079875Y-89486994D01*
X135139987Y-89585088D01*
X135286250Y-89753938D01*
X135458126Y-89896632D01*
X135651000Y-90009338D01*
X135859692Y-90089030D01*
X135864760Y-90090061D01*
X135864763Y-90090062D01*
X135959862Y-90109410D01*
X136078597Y-90133567D01*
X136083772Y-90133757D01*
X136083774Y-90133757D01*
X136296673Y-90141564D01*
X136296677Y-90141564D01*
X136301837Y-90141753D01*
X136306957Y-90141097D01*
X136306959Y-90141097D01*
X136518288Y-90114025D01*
X136518289Y-90114025D01*
X136523416Y-90113368D01*
X136528366Y-90111883D01*
X136732429Y-90050661D01*
X136732434Y-90050659D01*
X136737384Y-90049174D01*
X136937994Y-89950896D01*
X137119860Y-89821173D01*
X137278096Y-89663489D01*
X137408453Y-89482077D01*
X137409776Y-89483028D01*
X137456645Y-89439857D01*
X137526580Y-89427625D01*
X137592026Y-89455144D01*
X137619875Y-89486994D01*
X137679987Y-89585088D01*
X137826250Y-89753938D01*
X137998126Y-89896632D01*
X138191000Y-90009338D01*
X138399692Y-90089030D01*
X138404760Y-90090061D01*
X138404763Y-90090062D01*
X138499862Y-90109410D01*
X138618597Y-90133567D01*
X138623772Y-90133757D01*
X138623774Y-90133757D01*
X138836673Y-90141564D01*
X138836677Y-90141564D01*
X138841837Y-90141753D01*
X138846957Y-90141097D01*
X138846959Y-90141097D01*
X139058288Y-90114025D01*
X139058289Y-90114025D01*
X139063416Y-90113368D01*
X139068366Y-90111883D01*
X139272429Y-90050661D01*
X139272434Y-90050659D01*
X139277384Y-90049174D01*
X139477994Y-89950896D01*
X139659860Y-89821173D01*
X139818096Y-89663489D01*
X139948453Y-89482077D01*
X139949776Y-89483028D01*
X139996645Y-89439857D01*
X140066580Y-89427625D01*
X140132026Y-89455144D01*
X140159875Y-89486994D01*
X140219987Y-89585088D01*
X140366250Y-89753938D01*
X140538126Y-89896632D01*
X140731000Y-90009338D01*
X140939692Y-90089030D01*
X140944760Y-90090061D01*
X140944763Y-90090062D01*
X141039862Y-90109410D01*
X141158597Y-90133567D01*
X141163772Y-90133757D01*
X141163774Y-90133757D01*
X141376673Y-90141564D01*
X141376677Y-90141564D01*
X141381837Y-90141753D01*
X141386957Y-90141097D01*
X141386959Y-90141097D01*
X141598288Y-90114025D01*
X141598289Y-90114025D01*
X141603416Y-90113368D01*
X141608366Y-90111883D01*
X141812429Y-90050661D01*
X141812434Y-90050659D01*
X141817384Y-90049174D01*
X142017994Y-89950896D01*
X142199860Y-89821173D01*
X142358096Y-89663489D01*
X142488453Y-89482077D01*
X142489776Y-89483028D01*
X142536645Y-89439857D01*
X142606580Y-89427625D01*
X142672026Y-89455144D01*
X142699875Y-89486994D01*
X142759987Y-89585088D01*
X142906250Y-89753938D01*
X143078126Y-89896632D01*
X143271000Y-90009338D01*
X143479692Y-90089030D01*
X143484760Y-90090061D01*
X143484763Y-90090062D01*
X143579862Y-90109410D01*
X143698597Y-90133567D01*
X143703772Y-90133757D01*
X143703774Y-90133757D01*
X143916673Y-90141564D01*
X143916677Y-90141564D01*
X143921837Y-90141753D01*
X143926957Y-90141097D01*
X143926959Y-90141097D01*
X144138288Y-90114025D01*
X144138289Y-90114025D01*
X144143416Y-90113368D01*
X144148366Y-90111883D01*
X144352429Y-90050661D01*
X144352434Y-90050659D01*
X144357384Y-90049174D01*
X144557994Y-89950896D01*
X144739860Y-89821173D01*
X144898096Y-89663489D01*
X145028453Y-89482077D01*
X145029776Y-89483028D01*
X145076645Y-89439857D01*
X145146580Y-89427625D01*
X145212026Y-89455144D01*
X145239875Y-89486994D01*
X145299987Y-89585088D01*
X145446250Y-89753938D01*
X145618126Y-89896632D01*
X145811000Y-90009338D01*
X146019692Y-90089030D01*
X146024760Y-90090061D01*
X146024763Y-90090062D01*
X146119862Y-90109410D01*
X146238597Y-90133567D01*
X146243772Y-90133757D01*
X146243774Y-90133757D01*
X146456673Y-90141564D01*
X146456677Y-90141564D01*
X146461837Y-90141753D01*
X146466957Y-90141097D01*
X146466959Y-90141097D01*
X146678288Y-90114025D01*
X146678289Y-90114025D01*
X146683416Y-90113368D01*
X146688366Y-90111883D01*
X146892429Y-90050661D01*
X146892434Y-90050659D01*
X146897384Y-90049174D01*
X147097994Y-89950896D01*
X147279860Y-89821173D01*
X147438096Y-89663489D01*
X147568453Y-89482077D01*
X147569776Y-89483028D01*
X147616645Y-89439857D01*
X147686580Y-89427625D01*
X147752026Y-89455144D01*
X147779875Y-89486994D01*
X147839987Y-89585088D01*
X147986250Y-89753938D01*
X148158126Y-89896632D01*
X148351000Y-90009338D01*
X148559692Y-90089030D01*
X148564760Y-90090061D01*
X148564763Y-90090062D01*
X148659862Y-90109410D01*
X148778597Y-90133567D01*
X148783772Y-90133757D01*
X148783774Y-90133757D01*
X148996673Y-90141564D01*
X148996677Y-90141564D01*
X149001837Y-90141753D01*
X149006957Y-90141097D01*
X149006959Y-90141097D01*
X149218288Y-90114025D01*
X149218289Y-90114025D01*
X149223416Y-90113368D01*
X149228366Y-90111883D01*
X149432429Y-90050661D01*
X149432434Y-90050659D01*
X149437384Y-90049174D01*
X149637994Y-89950896D01*
X149819860Y-89821173D01*
X149978096Y-89663489D01*
X150108453Y-89482077D01*
X150109776Y-89483028D01*
X150156645Y-89439857D01*
X150226580Y-89427625D01*
X150292026Y-89455144D01*
X150319875Y-89486994D01*
X150379987Y-89585088D01*
X150526250Y-89753938D01*
X150651755Y-89858134D01*
X150698126Y-89896632D01*
X150697136Y-89897825D01*
X150737100Y-89947825D01*
X150746500Y-89995578D01*
X150746500Y-90951852D01*
X150726498Y-91019973D01*
X150709595Y-91040947D01*
X147170947Y-94579595D01*
X147108635Y-94613621D01*
X147081852Y-94616500D01*
X144579457Y-94616500D01*
X144559745Y-94614949D01*
X144553008Y-94613882D01*
X144553009Y-94613882D01*
X144546493Y-94612850D01*
X144539906Y-94613195D01*
X144539902Y-94613195D01*
X144480150Y-94616327D01*
X144473555Y-94616500D01*
X144453694Y-94616500D01*
X144433931Y-94618577D01*
X144427372Y-94619093D01*
X144389055Y-94621101D01*
X144367629Y-94622224D01*
X144367628Y-94622224D01*
X144361029Y-94622570D01*
X144354645Y-94624281D01*
X144354643Y-94624281D01*
X144348074Y-94626041D01*
X144328639Y-94629643D01*
X144321869Y-94630355D01*
X144321865Y-94630356D01*
X144315298Y-94631046D01*
X144252092Y-94651582D01*
X144245845Y-94653433D01*
X144181638Y-94670638D01*
X144175763Y-94673631D01*
X144175756Y-94673634D01*
X144169686Y-94676727D01*
X144151431Y-94684288D01*
X144144955Y-94686393D01*
X144144951Y-94686395D01*
X144138669Y-94688436D01*
X144132954Y-94691735D01*
X144132944Y-94691740D01*
X144081139Y-94721651D01*
X144075367Y-94724786D01*
X144016161Y-94754952D01*
X144011027Y-94759109D01*
X144011026Y-94759110D01*
X144005737Y-94763393D01*
X143989449Y-94774588D01*
X143977831Y-94781296D01*
X143972925Y-94785713D01*
X143972920Y-94785717D01*
X143928462Y-94825747D01*
X143923447Y-94830031D01*
X143920775Y-94832195D01*
X143908015Y-94842528D01*
X143893979Y-94856564D01*
X143889194Y-94861105D01*
X143839815Y-94905566D01*
X143831925Y-94916426D01*
X143819088Y-94931455D01*
X142931450Y-95819092D01*
X142916416Y-95831932D01*
X142910910Y-95835932D01*
X142910908Y-95835934D01*
X142905566Y-95839815D01*
X142901145Y-95844725D01*
X142901144Y-95844726D01*
X142861114Y-95889184D01*
X142856573Y-95893969D01*
X142842528Y-95908014D01*
X142840444Y-95910588D01*
X142840441Y-95910591D01*
X142830031Y-95923446D01*
X142825747Y-95928462D01*
X142785717Y-95972920D01*
X142785713Y-95972925D01*
X142781296Y-95977831D01*
X142774791Y-95989097D01*
X142774589Y-95989448D01*
X142763391Y-96005741D01*
X142754953Y-96016161D01*
X142724787Y-96075363D01*
X142721654Y-96081133D01*
X142691740Y-96132945D01*
X142691738Y-96132950D01*
X142688436Y-96138669D01*
X142686395Y-96144949D01*
X142686392Y-96144957D01*
X142684292Y-96151421D01*
X142676728Y-96169683D01*
X142673637Y-96175749D01*
X142673634Y-96175758D01*
X142670638Y-96181637D01*
X142668929Y-96188015D01*
X142653444Y-96245804D01*
X142651578Y-96252106D01*
X142631046Y-96315298D01*
X142630356Y-96321866D01*
X142629645Y-96328628D01*
X142626042Y-96348071D01*
X142622570Y-96361029D01*
X142622225Y-96367619D01*
X142622224Y-96367623D01*
X142619093Y-96427367D01*
X142618577Y-96433931D01*
X142616500Y-96453694D01*
X142616500Y-96473555D01*
X142616327Y-96480150D01*
X142613446Y-96535124D01*
X142612850Y-96546493D01*
X142614949Y-96559744D01*
X142616500Y-96579456D01*
X142616500Y-99420543D01*
X142614949Y-99440255D01*
X142612850Y-99453507D01*
X142613195Y-99460094D01*
X142613195Y-99460098D01*
X142616327Y-99519850D01*
X142616500Y-99526445D01*
X142616500Y-99546306D01*
X142616844Y-99549577D01*
X142618576Y-99566059D01*
X142619093Y-99572628D01*
X142622570Y-99638971D01*
X142626042Y-99651929D01*
X142629645Y-99671372D01*
X142631046Y-99684702D01*
X142651578Y-99747894D01*
X142653444Y-99754196D01*
X142659391Y-99776391D01*
X142670638Y-99818363D01*
X142673634Y-99824242D01*
X142673637Y-99824251D01*
X142676728Y-99830317D01*
X142684292Y-99848579D01*
X142686392Y-99855043D01*
X142686395Y-99855051D01*
X142688436Y-99861331D01*
X142691738Y-99867050D01*
X142691740Y-99867055D01*
X142721654Y-99918867D01*
X142724787Y-99924637D01*
X142754953Y-99983839D01*
X142762685Y-99993387D01*
X142763391Y-99994259D01*
X142774589Y-100010552D01*
X142781296Y-100022169D01*
X142785713Y-100027075D01*
X142785717Y-100027080D01*
X142825747Y-100071538D01*
X142830031Y-100076554D01*
X142840441Y-100089409D01*
X142842528Y-100091986D01*
X142856573Y-100106031D01*
X142861114Y-100110816D01*
X142905566Y-100160185D01*
X142910908Y-100164066D01*
X142910910Y-100164068D01*
X142916416Y-100168068D01*
X142931450Y-100180908D01*
X143819088Y-101068545D01*
X143831929Y-101083580D01*
X143839815Y-101094434D01*
X143844724Y-101098854D01*
X143844726Y-101098856D01*
X143889194Y-101138895D01*
X143893970Y-101143427D01*
X143908015Y-101157472D01*
X143915369Y-101163427D01*
X143923447Y-101169969D01*
X143928462Y-101174253D01*
X143972920Y-101214283D01*
X143972925Y-101214287D01*
X143977831Y-101218704D01*
X143983547Y-101222004D01*
X143983548Y-101222005D01*
X143989449Y-101225412D01*
X144005737Y-101236607D01*
X144016161Y-101245048D01*
X144075367Y-101275214D01*
X144081139Y-101278349D01*
X144132944Y-101308260D01*
X144132954Y-101308265D01*
X144138669Y-101311564D01*
X144144951Y-101313605D01*
X144144955Y-101313607D01*
X144151431Y-101315712D01*
X144169686Y-101323273D01*
X144175756Y-101326366D01*
X144175763Y-101326369D01*
X144181638Y-101329362D01*
X144245845Y-101346567D01*
X144252092Y-101348418D01*
X144315298Y-101368954D01*
X144321865Y-101369644D01*
X144321869Y-101369645D01*
X144328639Y-101370357D01*
X144348074Y-101373959D01*
X144354643Y-101375719D01*
X144354645Y-101375719D01*
X144361029Y-101377430D01*
X144367628Y-101377776D01*
X144367629Y-101377776D01*
X144385733Y-101378725D01*
X144427372Y-101380907D01*
X144433931Y-101381423D01*
X144453694Y-101383500D01*
X144473555Y-101383500D01*
X144480150Y-101383673D01*
X144539902Y-101386805D01*
X144539906Y-101386805D01*
X144546493Y-101387150D01*
X144559747Y-101385051D01*
X144579456Y-101383500D01*
X163920543Y-101383500D01*
X163940255Y-101385051D01*
X163953507Y-101387150D01*
X163960094Y-101386805D01*
X163960098Y-101386805D01*
X164019850Y-101383673D01*
X164026445Y-101383500D01*
X164046306Y-101383500D01*
X164066069Y-101381423D01*
X164072628Y-101380907D01*
X164088427Y-101380079D01*
X164132377Y-101377776D01*
X164132381Y-101377775D01*
X164138971Y-101377430D01*
X164151929Y-101373958D01*
X164171372Y-101370355D01*
X164171795Y-101370311D01*
X164184702Y-101368954D01*
X164247894Y-101348422D01*
X164254196Y-101346556D01*
X164311985Y-101331071D01*
X164318363Y-101329362D01*
X164324242Y-101326366D01*
X164324251Y-101326363D01*
X164330317Y-101323272D01*
X164348579Y-101315708D01*
X164355043Y-101313608D01*
X164355051Y-101313605D01*
X164361331Y-101311564D01*
X164367050Y-101308262D01*
X164367055Y-101308260D01*
X164418867Y-101278346D01*
X164424637Y-101275213D01*
X164483839Y-101245047D01*
X164494262Y-101236607D01*
X164510552Y-101225411D01*
X164510903Y-101225209D01*
X164522169Y-101218704D01*
X164527075Y-101214287D01*
X164527080Y-101214283D01*
X164571538Y-101174253D01*
X164576554Y-101169969D01*
X164589409Y-101159559D01*
X164589412Y-101159556D01*
X164591986Y-101157472D01*
X164606031Y-101143427D01*
X164610816Y-101138886D01*
X164655276Y-101098854D01*
X164660185Y-101094434D01*
X164668071Y-101083580D01*
X164680911Y-101068547D01*
X165157472Y-100591985D01*
X165190390Y-100559067D01*
X165212152Y-100525556D01*
X165219902Y-100514891D01*
X165240890Y-100488973D01*
X165240892Y-100488970D01*
X165245047Y-100483839D01*
X165263188Y-100448236D01*
X165269779Y-100436820D01*
X165287942Y-100408852D01*
X165287945Y-100408847D01*
X165291541Y-100403309D01*
X165293906Y-100397147D01*
X165293911Y-100397138D01*
X165305860Y-100366010D01*
X165311222Y-100353965D01*
X165326365Y-100324245D01*
X165329362Y-100318363D01*
X165331070Y-100311990D01*
X165331072Y-100311984D01*
X165339707Y-100279756D01*
X165343783Y-100267213D01*
X165355729Y-100236093D01*
X165355730Y-100236091D01*
X165358096Y-100229926D01*
X165364345Y-100190472D01*
X165367087Y-100177572D01*
X165375722Y-100145347D01*
X165375723Y-100145343D01*
X165377430Y-100138971D01*
X165379521Y-100099069D01*
X165380899Y-100085953D01*
X165386117Y-100053009D01*
X165387149Y-100046493D01*
X165386804Y-100039904D01*
X165386804Y-100039899D01*
X165385059Y-100006602D01*
X165385059Y-99993416D01*
X165386805Y-99960100D01*
X165386805Y-99960095D01*
X165387150Y-99953507D01*
X165380897Y-99914026D01*
X165379519Y-99900912D01*
X165377775Y-99867622D01*
X165377774Y-99867618D01*
X165377429Y-99861028D01*
X165374094Y-99848579D01*
X165371793Y-99839994D01*
X165367500Y-99807383D01*
X165367500Y-99481369D01*
X165387502Y-99413248D01*
X165400306Y-99396570D01*
X165486707Y-99301616D01*
X165486712Y-99301610D01*
X165490485Y-99297464D01*
X165609864Y-99107156D01*
X165636961Y-99039750D01*
X165680925Y-98984010D01*
X165748050Y-98960884D01*
X165817021Y-98977721D01*
X165867592Y-99032505D01*
X165936378Y-99176718D01*
X166067471Y-99359154D01*
X166071503Y-99363061D01*
X166164836Y-99453507D01*
X166228799Y-99515492D01*
X166415262Y-99640790D01*
X166620967Y-99731088D01*
X166626418Y-99732397D01*
X166626422Y-99732398D01*
X166833954Y-99782222D01*
X166839411Y-99783532D01*
X166923475Y-99788379D01*
X167058083Y-99796140D01*
X167058086Y-99796140D01*
X167063690Y-99796463D01*
X167286715Y-99769475D01*
X167501435Y-99703418D01*
X167506415Y-99700848D01*
X167506419Y-99700846D01*
X167696081Y-99602954D01*
X167696082Y-99602954D01*
X167701064Y-99600382D01*
X167879292Y-99463623D01*
X168030485Y-99297464D01*
X168033468Y-99292710D01*
X168146885Y-99111905D01*
X168149864Y-99107156D01*
X168176961Y-99039750D01*
X168220925Y-98984010D01*
X168288050Y-98960884D01*
X168357021Y-98977721D01*
X168407592Y-99032505D01*
X168476378Y-99176718D01*
X168607471Y-99359154D01*
X168611503Y-99363061D01*
X168704836Y-99453507D01*
X168768799Y-99515492D01*
X168955262Y-99640790D01*
X169160967Y-99731088D01*
X169166418Y-99732397D01*
X169166422Y-99732398D01*
X169373954Y-99782222D01*
X169379411Y-99783532D01*
X169463475Y-99788379D01*
X169598083Y-99796140D01*
X169598086Y-99796140D01*
X169603690Y-99796463D01*
X169826715Y-99769475D01*
X170041435Y-99703418D01*
X170046415Y-99700848D01*
X170046419Y-99700846D01*
X170236081Y-99602954D01*
X170236082Y-99602954D01*
X170241064Y-99600382D01*
X170419292Y-99463623D01*
X170570485Y-99297464D01*
X170573468Y-99292710D01*
X170686885Y-99111905D01*
X170689864Y-99107156D01*
X170716961Y-99039750D01*
X170760925Y-98984010D01*
X170828050Y-98960884D01*
X170897021Y-98977721D01*
X170947592Y-99032505D01*
X171016378Y-99176718D01*
X171147471Y-99359154D01*
X171151503Y-99363061D01*
X171244836Y-99453507D01*
X171308799Y-99515492D01*
X171495262Y-99640790D01*
X171700967Y-99731088D01*
X171706418Y-99732397D01*
X171706422Y-99732398D01*
X171913954Y-99782222D01*
X171919411Y-99783532D01*
X172003475Y-99788379D01*
X172138083Y-99796140D01*
X172138086Y-99796140D01*
X172143690Y-99796463D01*
X172366715Y-99769475D01*
X172581435Y-99703418D01*
X172586415Y-99700848D01*
X172586419Y-99700846D01*
X172776081Y-99602954D01*
X172776082Y-99602954D01*
X172781064Y-99600382D01*
X172959292Y-99463623D01*
X173110485Y-99297464D01*
X173113468Y-99292710D01*
X173226885Y-99111905D01*
X173229864Y-99107156D01*
X173256961Y-99039750D01*
X173300925Y-98984010D01*
X173368050Y-98960884D01*
X173437021Y-98977721D01*
X173487592Y-99032505D01*
X173556378Y-99176718D01*
X173687471Y-99359154D01*
X173691503Y-99363061D01*
X173784836Y-99453507D01*
X173848799Y-99515492D01*
X174035262Y-99640790D01*
X174240967Y-99731088D01*
X174246418Y-99732397D01*
X174246422Y-99732398D01*
X174453954Y-99782222D01*
X174459411Y-99783532D01*
X174543475Y-99788379D01*
X174678083Y-99796140D01*
X174678086Y-99796140D01*
X174683690Y-99796463D01*
X174906715Y-99769475D01*
X175121435Y-99703418D01*
X175126415Y-99700848D01*
X175126419Y-99700846D01*
X175316081Y-99602954D01*
X175316082Y-99602954D01*
X175321064Y-99600382D01*
X175499292Y-99463623D01*
X175650485Y-99297464D01*
X175653468Y-99292710D01*
X175766885Y-99111905D01*
X175769864Y-99107156D01*
X175796961Y-99039750D01*
X175840925Y-98984010D01*
X175908050Y-98960884D01*
X175977021Y-98977721D01*
X176027592Y-99032505D01*
X176096378Y-99176718D01*
X176227471Y-99359154D01*
X176231503Y-99363061D01*
X176324836Y-99453507D01*
X176388799Y-99515492D01*
X176575262Y-99640790D01*
X176780967Y-99731088D01*
X176786418Y-99732397D01*
X176786422Y-99732398D01*
X176993954Y-99782222D01*
X176999411Y-99783532D01*
X177083475Y-99788379D01*
X177218083Y-99796140D01*
X177218086Y-99796140D01*
X177223690Y-99796463D01*
X177446715Y-99769475D01*
X177661435Y-99703418D01*
X177666415Y-99700848D01*
X177666419Y-99700846D01*
X177856081Y-99602954D01*
X177856082Y-99602954D01*
X177861064Y-99600382D01*
X178039292Y-99463623D01*
X178190485Y-99297464D01*
X178193468Y-99292710D01*
X178306885Y-99111905D01*
X178309864Y-99107156D01*
X178336961Y-99039750D01*
X178380925Y-98984010D01*
X178448050Y-98960884D01*
X178517021Y-98977721D01*
X178567592Y-99032505D01*
X178636378Y-99176718D01*
X178767471Y-99359154D01*
X178771503Y-99363061D01*
X178864836Y-99453507D01*
X178928799Y-99515492D01*
X179115262Y-99640790D01*
X179320967Y-99731088D01*
X179326418Y-99732397D01*
X179326422Y-99732398D01*
X179533954Y-99782222D01*
X179539411Y-99783532D01*
X179623475Y-99788379D01*
X179758083Y-99796140D01*
X179758086Y-99796140D01*
X179763690Y-99796463D01*
X179986715Y-99769475D01*
X180201435Y-99703418D01*
X180206415Y-99700848D01*
X180206419Y-99700846D01*
X180396081Y-99602954D01*
X180396082Y-99602954D01*
X180401064Y-99600382D01*
X180579292Y-99463623D01*
X180730485Y-99297464D01*
X180733468Y-99292710D01*
X180846885Y-99111905D01*
X180849864Y-99107156D01*
X180876961Y-99039750D01*
X180920925Y-98984010D01*
X180988050Y-98960884D01*
X181057021Y-98977721D01*
X181107592Y-99032505D01*
X181176378Y-99176718D01*
X181307471Y-99359154D01*
X181311503Y-99363061D01*
X181404836Y-99453507D01*
X181468799Y-99515492D01*
X181655262Y-99640790D01*
X181860967Y-99731088D01*
X181866418Y-99732397D01*
X181866422Y-99732398D01*
X182073954Y-99782222D01*
X182079411Y-99783532D01*
X182163475Y-99788379D01*
X182298083Y-99796140D01*
X182298086Y-99796140D01*
X182303690Y-99796463D01*
X182526715Y-99769475D01*
X182741435Y-99703418D01*
X182746415Y-99700848D01*
X182746419Y-99700846D01*
X182936081Y-99602954D01*
X182936082Y-99602954D01*
X182941064Y-99600382D01*
X183119292Y-99463623D01*
X183270485Y-99297464D01*
X183273468Y-99292710D01*
X183386885Y-99111905D01*
X183389864Y-99107156D01*
X183416961Y-99039750D01*
X183460925Y-98984010D01*
X183528050Y-98960884D01*
X183597021Y-98977721D01*
X183647592Y-99032505D01*
X183716378Y-99176718D01*
X183847471Y-99359154D01*
X183851503Y-99363061D01*
X183944836Y-99453507D01*
X184008799Y-99515492D01*
X184195262Y-99640790D01*
X184400967Y-99731088D01*
X184406418Y-99732397D01*
X184406422Y-99732398D01*
X184613954Y-99782222D01*
X184619411Y-99783532D01*
X184703475Y-99788379D01*
X184838083Y-99796140D01*
X184838086Y-99796140D01*
X184843690Y-99796463D01*
X185066715Y-99769475D01*
X185281435Y-99703418D01*
X185286415Y-99700848D01*
X185286419Y-99700846D01*
X185476081Y-99602954D01*
X185476082Y-99602954D01*
X185481064Y-99600382D01*
X185659292Y-99463623D01*
X185810485Y-99297464D01*
X185813468Y-99292710D01*
X185926885Y-99111905D01*
X185929864Y-99107156D01*
X186013656Y-98898717D01*
X186059213Y-98678733D01*
X186062500Y-98621725D01*
X186062500Y-96976501D01*
X186059551Y-96943452D01*
X186048116Y-96815333D01*
X186047617Y-96809738D01*
X185988337Y-96593049D01*
X185983540Y-96582990D01*
X185912446Y-96433941D01*
X185891622Y-96390282D01*
X185760529Y-96207846D01*
X185649752Y-96100495D01*
X185603229Y-96055411D01*
X185603226Y-96055409D01*
X185599201Y-96051508D01*
X185412738Y-95926210D01*
X185207033Y-95835912D01*
X185201582Y-95834603D01*
X185201578Y-95834602D01*
X184994046Y-95784778D01*
X184994045Y-95784778D01*
X184988589Y-95783468D01*
X184904525Y-95778621D01*
X184769917Y-95770860D01*
X184769914Y-95770860D01*
X184764310Y-95770537D01*
X184541285Y-95797525D01*
X184326565Y-95863582D01*
X184321585Y-95866152D01*
X184321581Y-95866154D01*
X184131919Y-95964046D01*
X184126936Y-95966618D01*
X183948708Y-96103377D01*
X183797515Y-96269536D01*
X183794537Y-96274283D01*
X183794535Y-96274286D01*
X183721772Y-96390282D01*
X183678136Y-96459844D01*
X183651039Y-96527250D01*
X183607075Y-96582990D01*
X183539950Y-96606116D01*
X183470979Y-96589279D01*
X183420408Y-96534495D01*
X183351622Y-96390282D01*
X183220529Y-96207846D01*
X183109752Y-96100495D01*
X183063229Y-96055411D01*
X183063226Y-96055409D01*
X183059201Y-96051508D01*
X182872738Y-95926210D01*
X182667033Y-95835912D01*
X182661582Y-95834603D01*
X182661578Y-95834602D01*
X182454046Y-95784778D01*
X182454045Y-95784778D01*
X182448589Y-95783468D01*
X182364525Y-95778621D01*
X182229917Y-95770860D01*
X182229914Y-95770860D01*
X182224310Y-95770537D01*
X182001285Y-95797525D01*
X181786565Y-95863582D01*
X181781585Y-95866152D01*
X181781581Y-95866154D01*
X181591919Y-95964046D01*
X181586936Y-95966618D01*
X181408708Y-96103377D01*
X181257515Y-96269536D01*
X181254537Y-96274283D01*
X181254535Y-96274286D01*
X181181772Y-96390282D01*
X181138136Y-96459844D01*
X181111039Y-96527250D01*
X181067075Y-96582990D01*
X180999950Y-96606116D01*
X180930979Y-96589279D01*
X180880408Y-96534495D01*
X180811622Y-96390282D01*
X180680529Y-96207846D01*
X180569752Y-96100495D01*
X180523229Y-96055411D01*
X180523226Y-96055409D01*
X180519201Y-96051508D01*
X180332738Y-95926210D01*
X180127033Y-95835912D01*
X180121582Y-95834603D01*
X180121578Y-95834602D01*
X179914046Y-95784778D01*
X179914045Y-95784778D01*
X179908589Y-95783468D01*
X179824525Y-95778621D01*
X179689917Y-95770860D01*
X179689914Y-95770860D01*
X179684310Y-95770537D01*
X179461285Y-95797525D01*
X179246565Y-95863582D01*
X179241585Y-95866152D01*
X179241581Y-95866154D01*
X179051919Y-95964046D01*
X179046936Y-95966618D01*
X178868708Y-96103377D01*
X178717515Y-96269536D01*
X178714537Y-96274283D01*
X178714535Y-96274286D01*
X178641772Y-96390282D01*
X178598136Y-96459844D01*
X178571039Y-96527250D01*
X178527075Y-96582990D01*
X178459950Y-96606116D01*
X178390979Y-96589279D01*
X178340408Y-96534495D01*
X178271622Y-96390282D01*
X178140529Y-96207846D01*
X178029752Y-96100495D01*
X177983229Y-96055411D01*
X177983226Y-96055409D01*
X177979201Y-96051508D01*
X177792738Y-95926210D01*
X177587033Y-95835912D01*
X177581582Y-95834603D01*
X177581578Y-95834602D01*
X177374046Y-95784778D01*
X177374045Y-95784778D01*
X177368589Y-95783468D01*
X177284525Y-95778621D01*
X177149917Y-95770860D01*
X177149914Y-95770860D01*
X177144310Y-95770537D01*
X176921285Y-95797525D01*
X176706565Y-95863582D01*
X176701585Y-95866152D01*
X176701581Y-95866154D01*
X176511919Y-95964046D01*
X176506936Y-95966618D01*
X176328708Y-96103377D01*
X176177515Y-96269536D01*
X176174537Y-96274283D01*
X176174535Y-96274286D01*
X176101772Y-96390282D01*
X176058136Y-96459844D01*
X176031039Y-96527250D01*
X175987075Y-96582990D01*
X175919950Y-96606116D01*
X175850979Y-96589279D01*
X175800408Y-96534495D01*
X175731622Y-96390282D01*
X175600529Y-96207846D01*
X175489752Y-96100495D01*
X175443229Y-96055411D01*
X175443226Y-96055409D01*
X175439201Y-96051508D01*
X175252738Y-95926210D01*
X175047033Y-95835912D01*
X175041582Y-95834603D01*
X175041578Y-95834602D01*
X174834046Y-95784778D01*
X174834045Y-95784778D01*
X174828589Y-95783468D01*
X174744525Y-95778621D01*
X174609917Y-95770860D01*
X174609914Y-95770860D01*
X174604310Y-95770537D01*
X174381285Y-95797525D01*
X174166565Y-95863582D01*
X174161585Y-95866152D01*
X174161581Y-95866154D01*
X173971919Y-95964046D01*
X173966936Y-95966618D01*
X173788708Y-96103377D01*
X173637515Y-96269536D01*
X173634537Y-96274283D01*
X173634535Y-96274286D01*
X173561772Y-96390282D01*
X173518136Y-96459844D01*
X173491039Y-96527250D01*
X173447075Y-96582990D01*
X173379950Y-96606116D01*
X173310979Y-96589279D01*
X173260408Y-96534495D01*
X173191622Y-96390282D01*
X173060529Y-96207846D01*
X172949752Y-96100495D01*
X172903229Y-96055411D01*
X172903226Y-96055409D01*
X172899201Y-96051508D01*
X172712738Y-95926210D01*
X172507033Y-95835912D01*
X172501582Y-95834603D01*
X172501578Y-95834602D01*
X172294046Y-95784778D01*
X172294045Y-95784778D01*
X172288589Y-95783468D01*
X172204525Y-95778621D01*
X172069917Y-95770860D01*
X172069914Y-95770860D01*
X172064310Y-95770537D01*
X171841285Y-95797525D01*
X171626565Y-95863582D01*
X171621585Y-95866152D01*
X171621581Y-95866154D01*
X171431919Y-95964046D01*
X171426936Y-95966618D01*
X171248708Y-96103377D01*
X171097515Y-96269536D01*
X171094537Y-96274283D01*
X171094535Y-96274286D01*
X171021772Y-96390282D01*
X170978136Y-96459844D01*
X170951039Y-96527250D01*
X170907075Y-96582990D01*
X170839950Y-96606116D01*
X170770979Y-96589279D01*
X170720408Y-96534495D01*
X170651622Y-96390282D01*
X170520529Y-96207846D01*
X170409752Y-96100495D01*
X170363229Y-96055411D01*
X170363226Y-96055409D01*
X170359201Y-96051508D01*
X170172738Y-95926210D01*
X169967033Y-95835912D01*
X169961582Y-95834603D01*
X169961578Y-95834602D01*
X169754046Y-95784778D01*
X169754045Y-95784778D01*
X169748589Y-95783468D01*
X169664525Y-95778621D01*
X169529917Y-95770860D01*
X169529914Y-95770860D01*
X169524310Y-95770537D01*
X169301285Y-95797525D01*
X169086565Y-95863582D01*
X169081585Y-95866152D01*
X169081581Y-95866154D01*
X168891919Y-95964046D01*
X168886936Y-95966618D01*
X168708708Y-96103377D01*
X168557515Y-96269536D01*
X168554537Y-96274283D01*
X168554535Y-96274286D01*
X168481772Y-96390282D01*
X168438136Y-96459844D01*
X168411039Y-96527250D01*
X168367075Y-96582990D01*
X168299950Y-96606116D01*
X168230979Y-96589279D01*
X168180408Y-96534495D01*
X168111622Y-96390282D01*
X167980529Y-96207846D01*
X167869752Y-96100495D01*
X167823229Y-96055411D01*
X167823226Y-96055409D01*
X167819201Y-96051508D01*
X167632738Y-95926210D01*
X167427033Y-95835912D01*
X167421582Y-95834603D01*
X167421578Y-95834602D01*
X167214046Y-95784778D01*
X167214045Y-95784778D01*
X167208589Y-95783468D01*
X167124525Y-95778621D01*
X166989917Y-95770860D01*
X166989914Y-95770860D01*
X166984310Y-95770537D01*
X166761285Y-95797525D01*
X166546565Y-95863582D01*
X166541585Y-95866152D01*
X166541581Y-95866154D01*
X166351919Y-95964046D01*
X166346936Y-95966618D01*
X166168708Y-96103377D01*
X166017515Y-96269536D01*
X166014537Y-96274283D01*
X166014535Y-96274286D01*
X165941772Y-96390282D01*
X165898136Y-96459844D01*
X165871039Y-96527250D01*
X165827075Y-96582990D01*
X165759950Y-96606116D01*
X165690979Y-96589279D01*
X165640408Y-96534495D01*
X165571622Y-96390282D01*
X165440529Y-96207846D01*
X165329752Y-96100495D01*
X165283229Y-96055411D01*
X165283226Y-96055409D01*
X165279201Y-96051508D01*
X165092738Y-95926210D01*
X164887033Y-95835912D01*
X164881582Y-95834603D01*
X164881578Y-95834602D01*
X164674046Y-95784778D01*
X164674045Y-95784778D01*
X164668589Y-95783468D01*
X164584525Y-95778621D01*
X164449917Y-95770860D01*
X164449914Y-95770860D01*
X164444310Y-95770537D01*
X164221285Y-95797525D01*
X164006565Y-95863582D01*
X164001585Y-95866152D01*
X164001581Y-95866154D01*
X163811919Y-95964046D01*
X163806936Y-95966618D01*
X163628708Y-96103377D01*
X163477515Y-96269536D01*
X163474537Y-96274283D01*
X163474535Y-96274286D01*
X163401772Y-96390282D01*
X163358136Y-96459844D01*
X163331039Y-96527250D01*
X163287075Y-96582990D01*
X163219950Y-96606116D01*
X163150979Y-96589279D01*
X163100408Y-96534495D01*
X163031622Y-96390282D01*
X162900529Y-96207846D01*
X162865815Y-96174206D01*
X162830815Y-96112436D01*
X162827500Y-96083722D01*
X162827500Y-96023457D01*
X162829051Y-96003745D01*
X162830118Y-95997008D01*
X162831150Y-95990493D01*
X162830566Y-95979336D01*
X162827673Y-95924150D01*
X162827500Y-95917555D01*
X162827500Y-95897694D01*
X162825423Y-95877931D01*
X162824907Y-95871367D01*
X162821776Y-95811623D01*
X162821775Y-95811619D01*
X162821430Y-95805029D01*
X162817958Y-95792071D01*
X162814355Y-95772628D01*
X162813644Y-95765866D01*
X162812954Y-95759298D01*
X162792422Y-95696106D01*
X162790556Y-95689804D01*
X162775071Y-95632015D01*
X162773362Y-95625637D01*
X162770366Y-95619758D01*
X162770363Y-95619749D01*
X162767272Y-95613683D01*
X162759708Y-95595421D01*
X162757608Y-95588957D01*
X162757605Y-95588949D01*
X162755564Y-95582669D01*
X162752262Y-95576950D01*
X162752260Y-95576945D01*
X162722346Y-95525133D01*
X162719213Y-95519363D01*
X162689047Y-95460161D01*
X162680610Y-95449742D01*
X162669410Y-95433446D01*
X162666004Y-95427546D01*
X162666002Y-95427543D01*
X162662704Y-95421831D01*
X162658288Y-95416926D01*
X162658284Y-95416921D01*
X162618246Y-95372453D01*
X162613966Y-95367443D01*
X162603546Y-95354576D01*
X162603545Y-95354575D01*
X162601472Y-95352015D01*
X162587436Y-95337979D01*
X162582895Y-95333194D01*
X162542856Y-95288726D01*
X162542855Y-95288725D01*
X162538434Y-95283815D01*
X162533094Y-95279935D01*
X162533086Y-95279928D01*
X162527578Y-95275927D01*
X162512543Y-95263086D01*
X157630405Y-90380947D01*
X157596379Y-90318635D01*
X157593500Y-90291852D01*
X157593500Y-89710461D01*
X157617177Y-89636935D01*
X157728453Y-89482077D01*
X157729776Y-89483028D01*
X157776645Y-89439857D01*
X157846580Y-89427625D01*
X157912026Y-89455144D01*
X157939875Y-89486994D01*
X157999987Y-89585088D01*
X158146250Y-89753938D01*
X158318126Y-89896632D01*
X158511000Y-90009338D01*
X158719692Y-90089030D01*
X158724760Y-90090061D01*
X158724763Y-90090062D01*
X158819862Y-90109410D01*
X158938597Y-90133567D01*
X158943772Y-90133757D01*
X158943774Y-90133757D01*
X159156673Y-90141564D01*
X159156677Y-90141564D01*
X159161837Y-90141753D01*
X159166957Y-90141097D01*
X159166959Y-90141097D01*
X159378288Y-90114025D01*
X159378289Y-90114025D01*
X159383416Y-90113368D01*
X159388366Y-90111883D01*
X159592429Y-90050661D01*
X159592434Y-90050659D01*
X159597384Y-90049174D01*
X159797994Y-89950896D01*
X159979860Y-89821173D01*
X160138096Y-89663489D01*
X160268453Y-89482077D01*
X160269776Y-89483028D01*
X160316645Y-89439857D01*
X160386580Y-89427625D01*
X160452026Y-89455144D01*
X160479875Y-89486994D01*
X160539987Y-89585088D01*
X160686250Y-89753938D01*
X160858126Y-89896632D01*
X161051000Y-90009338D01*
X161259692Y-90089030D01*
X161264760Y-90090061D01*
X161264763Y-90090062D01*
X161359862Y-90109410D01*
X161478597Y-90133567D01*
X161483772Y-90133757D01*
X161483774Y-90133757D01*
X161696673Y-90141564D01*
X161696677Y-90141564D01*
X161701837Y-90141753D01*
X161706957Y-90141097D01*
X161706959Y-90141097D01*
X161918288Y-90114025D01*
X161918289Y-90114025D01*
X161923416Y-90113368D01*
X161928366Y-90111883D01*
X162132429Y-90050661D01*
X162132434Y-90050659D01*
X162137384Y-90049174D01*
X162337994Y-89950896D01*
X162519860Y-89821173D01*
X162678096Y-89663489D01*
X162808453Y-89482077D01*
X162809776Y-89483028D01*
X162856645Y-89439857D01*
X162926580Y-89427625D01*
X162992026Y-89455144D01*
X163019875Y-89486994D01*
X163079987Y-89585088D01*
X163226250Y-89753938D01*
X163398126Y-89896632D01*
X163591000Y-90009338D01*
X163799692Y-90089030D01*
X163804760Y-90090061D01*
X163804763Y-90090062D01*
X163899862Y-90109410D01*
X164018597Y-90133567D01*
X164023772Y-90133757D01*
X164023774Y-90133757D01*
X164236673Y-90141564D01*
X164236677Y-90141564D01*
X164241837Y-90141753D01*
X164246957Y-90141097D01*
X164246959Y-90141097D01*
X164458288Y-90114025D01*
X164458289Y-90114025D01*
X164463416Y-90113368D01*
X164468366Y-90111883D01*
X164672429Y-90050661D01*
X164672434Y-90050659D01*
X164677384Y-90049174D01*
X164877994Y-89950896D01*
X165059860Y-89821173D01*
X165218096Y-89663489D01*
X165348453Y-89482077D01*
X165349776Y-89483028D01*
X165396645Y-89439857D01*
X165466580Y-89427625D01*
X165532026Y-89455144D01*
X165559875Y-89486994D01*
X165619987Y-89585088D01*
X165766250Y-89753938D01*
X165938126Y-89896632D01*
X166131000Y-90009338D01*
X166339692Y-90089030D01*
X166344760Y-90090061D01*
X166344763Y-90090062D01*
X166439862Y-90109410D01*
X166558597Y-90133567D01*
X166563772Y-90133757D01*
X166563774Y-90133757D01*
X166776673Y-90141564D01*
X166776677Y-90141564D01*
X166781837Y-90141753D01*
X166786957Y-90141097D01*
X166786959Y-90141097D01*
X166998288Y-90114025D01*
X166998289Y-90114025D01*
X167003416Y-90113368D01*
X167008366Y-90111883D01*
X167212429Y-90050661D01*
X167212434Y-90050659D01*
X167217384Y-90049174D01*
X167417994Y-89950896D01*
X167599860Y-89821173D01*
X167758096Y-89663489D01*
X167888453Y-89482077D01*
X167889776Y-89483028D01*
X167936645Y-89439857D01*
X168006580Y-89427625D01*
X168072026Y-89455144D01*
X168099875Y-89486994D01*
X168159987Y-89585088D01*
X168306250Y-89753938D01*
X168478126Y-89896632D01*
X168671000Y-90009338D01*
X168879692Y-90089030D01*
X168884760Y-90090061D01*
X168884763Y-90090062D01*
X168979862Y-90109410D01*
X169098597Y-90133567D01*
X169103772Y-90133757D01*
X169103774Y-90133757D01*
X169316673Y-90141564D01*
X169316677Y-90141564D01*
X169321837Y-90141753D01*
X169326957Y-90141097D01*
X169326959Y-90141097D01*
X169538288Y-90114025D01*
X169538289Y-90114025D01*
X169543416Y-90113368D01*
X169548366Y-90111883D01*
X169752429Y-90050661D01*
X169752434Y-90050659D01*
X169757384Y-90049174D01*
X169957994Y-89950896D01*
X170139860Y-89821173D01*
X170298096Y-89663489D01*
X170428453Y-89482077D01*
X170429776Y-89483028D01*
X170476645Y-89439857D01*
X170546580Y-89427625D01*
X170612026Y-89455144D01*
X170639875Y-89486994D01*
X170699987Y-89585088D01*
X170846250Y-89753938D01*
X171018126Y-89896632D01*
X171211000Y-90009338D01*
X171419692Y-90089030D01*
X171424760Y-90090061D01*
X171424763Y-90090062D01*
X171519862Y-90109410D01*
X171638597Y-90133567D01*
X171643772Y-90133757D01*
X171643774Y-90133757D01*
X171856673Y-90141564D01*
X171856677Y-90141564D01*
X171861837Y-90141753D01*
X171866957Y-90141097D01*
X171866959Y-90141097D01*
X172078288Y-90114025D01*
X172078289Y-90114025D01*
X172083416Y-90113368D01*
X172088366Y-90111883D01*
X172292429Y-90050661D01*
X172292434Y-90050659D01*
X172297384Y-90049174D01*
X172497994Y-89950896D01*
X172679860Y-89821173D01*
X172838096Y-89663489D01*
X172968453Y-89482077D01*
X172969776Y-89483028D01*
X173016645Y-89439857D01*
X173086580Y-89427625D01*
X173152026Y-89455144D01*
X173179875Y-89486994D01*
X173239987Y-89585088D01*
X173386250Y-89753938D01*
X173558126Y-89896632D01*
X173751000Y-90009338D01*
X173959692Y-90089030D01*
X173964760Y-90090061D01*
X173964763Y-90090062D01*
X174059862Y-90109410D01*
X174178597Y-90133567D01*
X174183772Y-90133757D01*
X174183774Y-90133757D01*
X174396673Y-90141564D01*
X174396677Y-90141564D01*
X174401837Y-90141753D01*
X174406957Y-90141097D01*
X174406959Y-90141097D01*
X174618288Y-90114025D01*
X174618289Y-90114025D01*
X174623416Y-90113368D01*
X174628366Y-90111883D01*
X174832429Y-90050661D01*
X174832434Y-90050659D01*
X174837384Y-90049174D01*
X175037994Y-89950896D01*
X175219860Y-89821173D01*
X175378096Y-89663489D01*
X175508453Y-89482077D01*
X175509776Y-89483028D01*
X175556645Y-89439857D01*
X175626580Y-89427625D01*
X175692026Y-89455144D01*
X175719875Y-89486994D01*
X175779987Y-89585088D01*
X175926250Y-89753938D01*
X176098126Y-89896632D01*
X176291000Y-90009338D01*
X176499692Y-90089030D01*
X176504760Y-90090061D01*
X176504763Y-90090062D01*
X176599862Y-90109410D01*
X176718597Y-90133567D01*
X176723772Y-90133757D01*
X176723774Y-90133757D01*
X176936673Y-90141564D01*
X176936677Y-90141564D01*
X176941837Y-90141753D01*
X176946957Y-90141097D01*
X176946959Y-90141097D01*
X177158288Y-90114025D01*
X177158289Y-90114025D01*
X177163416Y-90113368D01*
X177168366Y-90111883D01*
X177372429Y-90050661D01*
X177372434Y-90050659D01*
X177377384Y-90049174D01*
X177577994Y-89950896D01*
X177759860Y-89821173D01*
X177918096Y-89663489D01*
X178048453Y-89482077D01*
X178049776Y-89483028D01*
X178096645Y-89439857D01*
X178166580Y-89427625D01*
X178232026Y-89455144D01*
X178259875Y-89486994D01*
X178319987Y-89585088D01*
X178466250Y-89753938D01*
X178638126Y-89896632D01*
X178831000Y-90009338D01*
X179039692Y-90089030D01*
X179044760Y-90090061D01*
X179044763Y-90090062D01*
X179139862Y-90109410D01*
X179258597Y-90133567D01*
X179263772Y-90133757D01*
X179263774Y-90133757D01*
X179476673Y-90141564D01*
X179476677Y-90141564D01*
X179481837Y-90141753D01*
X179486957Y-90141097D01*
X179486959Y-90141097D01*
X179698288Y-90114025D01*
X179698289Y-90114025D01*
X179703416Y-90113368D01*
X179708366Y-90111883D01*
X179912429Y-90050661D01*
X179912434Y-90050659D01*
X179917384Y-90049174D01*
X180117994Y-89950896D01*
X180299860Y-89821173D01*
X180458096Y-89663489D01*
X180588453Y-89482077D01*
X180589776Y-89483028D01*
X180636645Y-89439857D01*
X180706580Y-89427625D01*
X180772026Y-89455144D01*
X180799875Y-89486994D01*
X180859987Y-89585088D01*
X181006250Y-89753938D01*
X181178126Y-89896632D01*
X181371000Y-90009338D01*
X181579692Y-90089030D01*
X181584760Y-90090061D01*
X181584763Y-90090062D01*
X181679862Y-90109410D01*
X181798597Y-90133567D01*
X181803772Y-90133757D01*
X181803774Y-90133757D01*
X182016673Y-90141564D01*
X182016677Y-90141564D01*
X182021837Y-90141753D01*
X182026957Y-90141097D01*
X182026959Y-90141097D01*
X182238288Y-90114025D01*
X182238289Y-90114025D01*
X182243416Y-90113368D01*
X182248366Y-90111883D01*
X182452429Y-90050661D01*
X182452434Y-90050659D01*
X182457384Y-90049174D01*
X182657994Y-89950896D01*
X182839860Y-89821173D01*
X182998096Y-89663489D01*
X183128453Y-89482077D01*
X183129640Y-89482930D01*
X183176960Y-89439362D01*
X183246897Y-89427145D01*
X183312338Y-89454678D01*
X183340166Y-89486511D01*
X183397694Y-89580388D01*
X183403777Y-89588699D01*
X183543213Y-89749667D01*
X183550580Y-89756883D01*
X183714434Y-89892916D01*
X183722881Y-89898831D01*
X183906756Y-90006279D01*
X183916042Y-90010729D01*
X184115001Y-90086703D01*
X184124899Y-90089579D01*
X184228250Y-90110606D01*
X184242299Y-90109410D01*
X184246000Y-90099065D01*
X184246000Y-90098517D01*
X184754000Y-90098517D01*
X184758064Y-90112359D01*
X184771478Y-90114393D01*
X184778184Y-90113534D01*
X184788262Y-90111392D01*
X184992255Y-90050191D01*
X185001842Y-90046433D01*
X185193095Y-89952739D01*
X185201945Y-89947464D01*
X185375328Y-89823792D01*
X185383200Y-89817139D01*
X185534052Y-89666812D01*
X185540730Y-89658965D01*
X185665003Y-89486020D01*
X185670313Y-89477183D01*
X185764670Y-89286267D01*
X185768469Y-89276672D01*
X185830377Y-89072910D01*
X185832555Y-89062837D01*
X185833986Y-89051962D01*
X185831775Y-89037778D01*
X185818617Y-89034000D01*
X184772115Y-89034000D01*
X184756876Y-89038475D01*
X184755671Y-89039865D01*
X184754000Y-89047548D01*
X184754000Y-90098517D01*
X184246000Y-90098517D01*
X184246000Y-88507885D01*
X184754000Y-88507885D01*
X184758475Y-88523124D01*
X184759865Y-88524329D01*
X184767548Y-88526000D01*
X185818344Y-88526000D01*
X185831875Y-88522027D01*
X185833180Y-88512947D01*
X185791214Y-88345875D01*
X185787894Y-88336124D01*
X185702972Y-88140814D01*
X185698105Y-88131739D01*
X185582426Y-87952926D01*
X185576136Y-87944757D01*
X185432806Y-87787240D01*
X185425273Y-87780215D01*
X185258139Y-87648222D01*
X185249552Y-87642517D01*
X185063117Y-87539599D01*
X185053705Y-87535369D01*
X184852959Y-87464280D01*
X184842988Y-87461646D01*
X184771837Y-87448972D01*
X184758540Y-87450432D01*
X184754000Y-87464989D01*
X184754000Y-88507885D01*
X184246000Y-88507885D01*
X184246000Y-87463102D01*
X184242082Y-87449758D01*
X184227806Y-87447771D01*
X184189324Y-87453660D01*
X184179288Y-87456051D01*
X183976868Y-87522212D01*
X183967359Y-87526209D01*
X183778463Y-87624542D01*
X183769738Y-87630036D01*
X183599433Y-87757905D01*
X183591726Y-87764748D01*
X183444590Y-87918717D01*
X183438109Y-87926722D01*
X183333498Y-88080074D01*
X183278587Y-88125076D01*
X183208062Y-88133247D01*
X183144315Y-88101993D01*
X183123618Y-88077509D01*
X183042822Y-87952617D01*
X183042820Y-87952614D01*
X183040014Y-87948277D01*
X182889670Y-87783051D01*
X182885619Y-87779852D01*
X182885615Y-87779848D01*
X182718414Y-87647800D01*
X182718410Y-87647798D01*
X182714359Y-87644598D01*
X182678028Y-87624542D01*
X182585095Y-87573241D01*
X182518789Y-87536638D01*
X182513920Y-87534914D01*
X182513916Y-87534912D01*
X182313087Y-87463795D01*
X182313083Y-87463794D01*
X182308212Y-87462069D01*
X182303119Y-87461162D01*
X182303116Y-87461161D01*
X182093373Y-87423800D01*
X182093367Y-87423799D01*
X182088284Y-87422894D01*
X182014452Y-87421992D01*
X181870081Y-87420228D01*
X181870079Y-87420228D01*
X181864911Y-87420165D01*
X181644091Y-87453955D01*
X181431756Y-87523357D01*
X181233607Y-87626507D01*
X181229474Y-87629610D01*
X181229471Y-87629612D01*
X181205247Y-87647800D01*
X181054965Y-87760635D01*
X181033544Y-87783051D01*
X180924500Y-87897159D01*
X180900629Y-87922138D01*
X180793201Y-88079621D01*
X180738293Y-88124621D01*
X180667768Y-88132792D01*
X180604021Y-88101538D01*
X180583324Y-88077054D01*
X180502822Y-87952617D01*
X180502820Y-87952614D01*
X180500014Y-87948277D01*
X180349670Y-87783051D01*
X180345619Y-87779852D01*
X180345615Y-87779848D01*
X180178414Y-87647800D01*
X180178410Y-87647798D01*
X180174359Y-87644598D01*
X180138028Y-87624542D01*
X180045095Y-87573241D01*
X179978789Y-87536638D01*
X179973920Y-87534914D01*
X179973916Y-87534912D01*
X179773087Y-87463795D01*
X179773083Y-87463794D01*
X179768212Y-87462069D01*
X179763119Y-87461162D01*
X179763116Y-87461161D01*
X179553373Y-87423800D01*
X179553367Y-87423799D01*
X179548284Y-87422894D01*
X179474452Y-87421992D01*
X179330081Y-87420228D01*
X179330079Y-87420228D01*
X179324911Y-87420165D01*
X179104091Y-87453955D01*
X178891756Y-87523357D01*
X178693607Y-87626507D01*
X178689474Y-87629610D01*
X178689471Y-87629612D01*
X178665247Y-87647800D01*
X178514965Y-87760635D01*
X178493544Y-87783051D01*
X178384500Y-87897159D01*
X178360629Y-87922138D01*
X178253201Y-88079621D01*
X178198293Y-88124621D01*
X178127768Y-88132792D01*
X178064021Y-88101538D01*
X178043324Y-88077054D01*
X177962822Y-87952617D01*
X177962820Y-87952614D01*
X177960014Y-87948277D01*
X177809670Y-87783051D01*
X177805619Y-87779852D01*
X177805615Y-87779848D01*
X177638414Y-87647800D01*
X177638410Y-87647798D01*
X177634359Y-87644598D01*
X177598028Y-87624542D01*
X177505095Y-87573241D01*
X177438789Y-87536638D01*
X177433920Y-87534914D01*
X177433916Y-87534912D01*
X177233087Y-87463795D01*
X177233083Y-87463794D01*
X177228212Y-87462069D01*
X177223119Y-87461162D01*
X177223116Y-87461161D01*
X177013373Y-87423800D01*
X177013367Y-87423799D01*
X177008284Y-87422894D01*
X176934452Y-87421992D01*
X176790081Y-87420228D01*
X176790079Y-87420228D01*
X176784911Y-87420165D01*
X176564091Y-87453955D01*
X176351756Y-87523357D01*
X176153607Y-87626507D01*
X176149474Y-87629610D01*
X176149471Y-87629612D01*
X176125247Y-87647800D01*
X175974965Y-87760635D01*
X175953544Y-87783051D01*
X175844500Y-87897159D01*
X175820629Y-87922138D01*
X175713201Y-88079621D01*
X175658293Y-88124621D01*
X175587768Y-88132792D01*
X175524021Y-88101538D01*
X175503324Y-88077054D01*
X175422822Y-87952617D01*
X175422820Y-87952614D01*
X175420014Y-87948277D01*
X175269670Y-87783051D01*
X175265619Y-87779852D01*
X175265615Y-87779848D01*
X175098414Y-87647800D01*
X175098410Y-87647798D01*
X175094359Y-87644598D01*
X175058028Y-87624542D01*
X174965095Y-87573241D01*
X174898789Y-87536638D01*
X174893920Y-87534914D01*
X174893916Y-87534912D01*
X174693087Y-87463795D01*
X174693083Y-87463794D01*
X174688212Y-87462069D01*
X174683119Y-87461162D01*
X174683116Y-87461161D01*
X174473373Y-87423800D01*
X174473367Y-87423799D01*
X174468284Y-87422894D01*
X174394452Y-87421992D01*
X174250081Y-87420228D01*
X174250079Y-87420228D01*
X174244911Y-87420165D01*
X174024091Y-87453955D01*
X173811756Y-87523357D01*
X173613607Y-87626507D01*
X173609474Y-87629610D01*
X173609471Y-87629612D01*
X173585247Y-87647800D01*
X173434965Y-87760635D01*
X173413544Y-87783051D01*
X173304500Y-87897159D01*
X173280629Y-87922138D01*
X173173201Y-88079621D01*
X173118293Y-88124621D01*
X173047768Y-88132792D01*
X172984021Y-88101538D01*
X172963324Y-88077054D01*
X172882824Y-87952620D01*
X172882822Y-87952617D01*
X172880014Y-87948277D01*
X172866306Y-87933212D01*
X172835254Y-87869366D01*
X172833500Y-87848413D01*
X172833500Y-87029450D01*
X172835051Y-87009739D01*
X172836117Y-87003009D01*
X172837149Y-86996493D01*
X172833673Y-86930168D01*
X172833500Y-86923574D01*
X172833500Y-86903694D01*
X172831422Y-86883920D01*
X172830905Y-86877346D01*
X172827775Y-86817627D01*
X172827775Y-86817626D01*
X172827429Y-86811028D01*
X172825719Y-86804646D01*
X172825718Y-86804639D01*
X172823958Y-86798069D01*
X172820356Y-86778635D01*
X172819645Y-86771870D01*
X172819645Y-86771869D01*
X172818954Y-86765298D01*
X172798427Y-86702122D01*
X172796555Y-86695803D01*
X172781071Y-86638013D01*
X172781069Y-86638008D01*
X172779362Y-86631637D01*
X172776366Y-86625756D01*
X172776364Y-86625752D01*
X172773272Y-86619683D01*
X172765708Y-86601421D01*
X172763605Y-86594949D01*
X172763603Y-86594945D01*
X172761564Y-86588669D01*
X172743866Y-86558015D01*
X172728347Y-86531135D01*
X172725199Y-86525338D01*
X172723204Y-86521421D01*
X172695047Y-86466160D01*
X172686607Y-86455737D01*
X172675413Y-86439451D01*
X172668704Y-86427831D01*
X172664285Y-86422923D01*
X172664282Y-86422919D01*
X172624255Y-86378464D01*
X172619971Y-86373449D01*
X172609547Y-86360576D01*
X172609544Y-86360573D01*
X172607472Y-86358014D01*
X172593427Y-86343969D01*
X172588886Y-86339184D01*
X172548856Y-86294726D01*
X172548855Y-86294725D01*
X172544434Y-86289815D01*
X172533574Y-86281925D01*
X172518546Y-86269088D01*
X170680912Y-84431454D01*
X170668075Y-84416426D01*
X170660185Y-84405566D01*
X170610816Y-84361114D01*
X170606031Y-84356573D01*
X170591986Y-84342528D01*
X170589409Y-84340441D01*
X170576554Y-84330031D01*
X170571538Y-84325747D01*
X170527080Y-84285717D01*
X170527075Y-84285713D01*
X170522169Y-84281296D01*
X170510552Y-84274589D01*
X170494259Y-84263391D01*
X170488971Y-84259109D01*
X170483839Y-84254953D01*
X170424637Y-84224787D01*
X170418867Y-84221654D01*
X170367055Y-84191740D01*
X170367050Y-84191738D01*
X170361331Y-84188436D01*
X170355051Y-84186395D01*
X170355043Y-84186392D01*
X170348579Y-84184292D01*
X170330317Y-84176728D01*
X170324251Y-84173637D01*
X170324242Y-84173634D01*
X170318363Y-84170638D01*
X170307672Y-84167773D01*
X170254196Y-84153444D01*
X170247894Y-84151578D01*
X170184702Y-84131046D01*
X170171372Y-84129645D01*
X170151929Y-84126042D01*
X170138971Y-84122570D01*
X170132381Y-84122225D01*
X170132377Y-84122224D01*
X170088427Y-84119921D01*
X170072628Y-84119093D01*
X170066069Y-84118577D01*
X170046306Y-84116500D01*
X170026445Y-84116500D01*
X170019850Y-84116327D01*
X169960098Y-84113195D01*
X169960094Y-84113195D01*
X169953507Y-84112850D01*
X169940253Y-84114949D01*
X169920544Y-84116500D01*
X129579457Y-84116500D01*
X129559745Y-84114949D01*
X129553008Y-84113882D01*
X129553009Y-84113882D01*
X129546493Y-84112850D01*
X129539906Y-84113195D01*
X129539902Y-84113195D01*
X129480150Y-84116327D01*
X129473555Y-84116500D01*
X129453694Y-84116500D01*
X129433931Y-84118577D01*
X129427372Y-84119093D01*
X129411573Y-84119921D01*
X129367623Y-84122224D01*
X129367619Y-84122225D01*
X129361029Y-84122570D01*
X129348071Y-84126042D01*
X129328628Y-84129645D01*
X129315298Y-84131046D01*
X129252106Y-84151578D01*
X129245804Y-84153444D01*
X129192328Y-84167773D01*
X129181637Y-84170638D01*
X129175758Y-84173634D01*
X129175749Y-84173637D01*
X129169683Y-84176728D01*
X129151421Y-84184292D01*
X129144957Y-84186392D01*
X129144949Y-84186395D01*
X129138669Y-84188436D01*
X129132950Y-84191738D01*
X129132945Y-84191740D01*
X129081133Y-84221654D01*
X129075363Y-84224787D01*
X129016161Y-84254953D01*
X129011029Y-84259109D01*
X129005741Y-84263391D01*
X128989448Y-84274589D01*
X128977831Y-84281296D01*
X128972925Y-84285713D01*
X128972920Y-84285717D01*
X128928462Y-84325747D01*
X128923446Y-84330031D01*
X128910591Y-84340441D01*
X128908014Y-84342528D01*
X128893969Y-84356573D01*
X128889184Y-84361114D01*
X128839815Y-84405566D01*
X128831925Y-84416426D01*
X128819088Y-84431454D01*
X127241933Y-86008609D01*
X127188413Y-86040387D01*
X127153144Y-86050767D01*
X127126289Y-86058671D01*
X127126287Y-86058672D01*
X127120381Y-86060410D01*
X127114928Y-86063261D01*
X127114925Y-86063262D01*
X127047340Y-86098595D01*
X126945110Y-86152040D01*
X126790975Y-86275968D01*
X126731019Y-86347420D01*
X126671912Y-86386745D01*
X126600924Y-86387871D01*
X126540596Y-86350440D01*
X126510083Y-86286335D01*
X126508500Y-86266427D01*
X126508500Y-84061840D01*
X126509237Y-84048232D01*
X126512659Y-84016736D01*
X126512659Y-84016732D01*
X126513324Y-84010611D01*
X126508950Y-83960609D01*
X126508621Y-83955784D01*
X126508500Y-83953313D01*
X126508500Y-83950231D01*
X126504309Y-83907489D01*
X126504187Y-83906174D01*
X126496623Y-83819719D01*
X126496087Y-83813587D01*
X126494600Y-83808468D01*
X126494080Y-83803167D01*
X126467199Y-83714133D01*
X126466864Y-83713000D01*
X126442627Y-83629578D01*
X126442625Y-83629574D01*
X126440908Y-83623663D01*
X126438457Y-83618934D01*
X126436916Y-83613831D01*
X126393230Y-83531669D01*
X126392683Y-83530627D01*
X126352728Y-83453545D01*
X126352727Y-83453544D01*
X126349892Y-83448074D01*
X126346569Y-83443911D01*
X126344066Y-83439204D01*
X126285263Y-83367105D01*
X126284500Y-83366160D01*
X126253261Y-83327027D01*
X126250770Y-83324536D01*
X126250120Y-83323809D01*
X126246408Y-83319463D01*
X126222955Y-83290708D01*
X126219065Y-83285938D01*
X126214323Y-83282015D01*
X126214321Y-83282013D01*
X126183727Y-83256703D01*
X126174947Y-83248713D01*
X122756855Y-79830621D01*
X122747753Y-79820478D01*
X122727897Y-79795782D01*
X122724032Y-79790975D01*
X122685578Y-79758708D01*
X122681931Y-79755528D01*
X122680119Y-79753885D01*
X122677925Y-79751691D01*
X122644651Y-79724358D01*
X122643853Y-79723696D01*
X122572526Y-79663846D01*
X122567856Y-79661278D01*
X122563739Y-79657897D01*
X122481914Y-79614023D01*
X122480755Y-79613394D01*
X122404619Y-79571538D01*
X122404611Y-79571535D01*
X122399213Y-79568567D01*
X122394131Y-79566955D01*
X122389437Y-79564438D01*
X122300469Y-79537238D01*
X122299441Y-79536918D01*
X122210694Y-79508765D01*
X122205398Y-79508171D01*
X122200302Y-79506613D01*
X122107743Y-79497210D01*
X122106607Y-79497089D01*
X122072992Y-79493319D01*
X122060270Y-79491892D01*
X122060266Y-79491892D01*
X122056773Y-79491500D01*
X122053246Y-79491500D01*
X122052261Y-79491445D01*
X122046581Y-79490998D01*
X122017175Y-79488011D01*
X122009663Y-79487248D01*
X122009661Y-79487248D01*
X122003538Y-79486626D01*
X121961259Y-79490623D01*
X121957891Y-79490941D01*
X121946033Y-79491500D01*
X120469924Y-79491500D01*
X120401803Y-79471498D01*
X120380829Y-79454595D01*
X118045405Y-77119171D01*
X118011379Y-77056859D01*
X118008500Y-77030076D01*
X118008500Y-77028621D01*
X118875933Y-77028621D01*
X118885227Y-77040635D01*
X118919146Y-77064385D01*
X118928641Y-77069868D01*
X119113413Y-77156028D01*
X119123705Y-77159774D01*
X119320632Y-77212540D01*
X119331425Y-77214443D01*
X119534525Y-77232212D01*
X119545475Y-77232212D01*
X119748575Y-77214443D01*
X119759368Y-77212540D01*
X119956295Y-77159774D01*
X119966587Y-77156028D01*
X120151359Y-77069868D01*
X120160854Y-77064385D01*
X120195607Y-77040051D01*
X120203983Y-77029572D01*
X120196916Y-77016127D01*
X119552811Y-76372021D01*
X119538868Y-76364408D01*
X119537034Y-76364539D01*
X119530420Y-76368790D01*
X118882360Y-77016851D01*
X118875933Y-77028621D01*
X118008500Y-77028621D01*
X118008500Y-76741264D01*
X118031285Y-76668996D01*
X118067976Y-76616596D01*
X118156081Y-76427656D01*
X118202999Y-76374371D01*
X118271276Y-76354910D01*
X118339236Y-76375452D01*
X118384471Y-76427656D01*
X118470135Y-76611364D01*
X118475613Y-76620850D01*
X118499949Y-76655607D01*
X118510428Y-76663983D01*
X118523872Y-76656917D01*
X119167979Y-76012811D01*
X119174356Y-76001132D01*
X119904408Y-76001132D01*
X119904539Y-76002966D01*
X119908790Y-76009580D01*
X120556851Y-76657640D01*
X120568621Y-76664067D01*
X120580635Y-76654772D01*
X120604387Y-76620850D01*
X120609865Y-76611364D01*
X120696028Y-76426587D01*
X120699774Y-76416295D01*
X120752540Y-76219368D01*
X120754443Y-76208575D01*
X120772212Y-76005475D01*
X120772212Y-75994525D01*
X120754443Y-75791425D01*
X120752540Y-75780632D01*
X120699774Y-75583705D01*
X120696028Y-75573413D01*
X120609865Y-75388636D01*
X120604387Y-75379150D01*
X120580051Y-75344393D01*
X120569572Y-75336017D01*
X120556128Y-75343083D01*
X119912021Y-75987189D01*
X119904408Y-76001132D01*
X119174356Y-76001132D01*
X119175592Y-75998868D01*
X119175461Y-75997034D01*
X119171210Y-75990420D01*
X118523149Y-75342360D01*
X118511379Y-75335933D01*
X118499365Y-75345228D01*
X118475613Y-75379150D01*
X118470135Y-75388636D01*
X118384471Y-75572344D01*
X118337554Y-75625629D01*
X118269276Y-75645090D01*
X118201317Y-75624548D01*
X118156081Y-75572344D01*
X118070299Y-75388385D01*
X118070297Y-75388382D01*
X118067976Y-75383404D01*
X117944681Y-75207319D01*
X117792681Y-75055319D01*
X117671444Y-74970428D01*
X118876017Y-74970428D01*
X118883083Y-74983872D01*
X119527189Y-75627979D01*
X119541132Y-75635592D01*
X119542966Y-75635461D01*
X119549580Y-75631210D01*
X120197640Y-74983149D01*
X120204067Y-74971379D01*
X120194773Y-74959365D01*
X120160854Y-74935615D01*
X120151359Y-74930132D01*
X119966587Y-74843972D01*
X119956295Y-74840226D01*
X119759368Y-74787460D01*
X119748575Y-74785557D01*
X119545475Y-74767788D01*
X119534525Y-74767788D01*
X119331425Y-74785557D01*
X119320632Y-74787460D01*
X119123705Y-74840226D01*
X119113413Y-74843972D01*
X118928636Y-74930135D01*
X118919150Y-74935613D01*
X118884393Y-74959949D01*
X118876017Y-74970428D01*
X117671444Y-74970428D01*
X117616597Y-74932024D01*
X117611619Y-74929703D01*
X117611616Y-74929701D01*
X117426759Y-74843501D01*
X117426758Y-74843500D01*
X117421777Y-74841178D01*
X117416469Y-74839756D01*
X117416467Y-74839755D01*
X117219457Y-74786966D01*
X117219455Y-74786966D01*
X117214142Y-74785542D01*
X117000000Y-74766807D01*
X116785858Y-74785542D01*
X116780545Y-74786966D01*
X116780543Y-74786966D01*
X116583533Y-74839755D01*
X116583531Y-74839756D01*
X116578223Y-74841178D01*
X116573243Y-74843500D01*
X116573241Y-74843501D01*
X116388385Y-74929701D01*
X116388382Y-74929703D01*
X116383404Y-74932024D01*
X116207319Y-75055319D01*
X116055319Y-75207319D01*
X115932024Y-75383404D01*
X115929703Y-75388382D01*
X115929701Y-75388385D01*
X115844195Y-75571753D01*
X115797277Y-75625038D01*
X115729000Y-75644499D01*
X115661040Y-75623957D01*
X115615805Y-75571753D01*
X115530299Y-75388385D01*
X115530297Y-75388382D01*
X115527976Y-75383404D01*
X115404681Y-75207319D01*
X115252681Y-75055319D01*
X115076597Y-74932024D01*
X115071619Y-74929703D01*
X115071616Y-74929701D01*
X114886759Y-74843501D01*
X114886758Y-74843500D01*
X114881777Y-74841178D01*
X114876469Y-74839756D01*
X114876467Y-74839755D01*
X114679457Y-74786966D01*
X114679455Y-74786966D01*
X114674142Y-74785542D01*
X114460000Y-74766807D01*
X114245858Y-74785542D01*
X114240545Y-74786966D01*
X114240543Y-74786966D01*
X114043533Y-74839755D01*
X114043531Y-74839756D01*
X114038223Y-74841178D01*
X114033243Y-74843500D01*
X114033241Y-74843501D01*
X113848385Y-74929701D01*
X113848382Y-74929703D01*
X113843404Y-74932024D01*
X113667319Y-75055319D01*
X113515319Y-75207319D01*
X113392024Y-75383404D01*
X113301178Y-75578223D01*
X113299756Y-75583531D01*
X113299755Y-75583533D01*
X113287846Y-75627979D01*
X113245542Y-75785858D01*
X113226807Y-76000000D01*
X111000000Y-76000000D01*
X111000000Y-67500000D01*
X113636439Y-67500000D01*
X113636709Y-67504119D01*
X113654922Y-67781986D01*
X113656660Y-67808507D01*
X113657464Y-67812547D01*
X113657464Y-67812550D01*
X113671883Y-67885039D01*
X113716975Y-68111735D01*
X113718300Y-68115639D01*
X113718301Y-68115642D01*
X113815025Y-68400581D01*
X113816354Y-68404496D01*
X113818177Y-68408192D01*
X113818180Y-68408200D01*
X113827301Y-68426695D01*
X113953096Y-68681780D01*
X113955390Y-68685213D01*
X113955391Y-68685215D01*
X114077283Y-68867639D01*
X114124861Y-68938845D01*
X114127575Y-68941939D01*
X114127579Y-68941945D01*
X114326001Y-69168201D01*
X114328710Y-69171290D01*
X114331799Y-69173999D01*
X114558055Y-69372421D01*
X114558061Y-69372425D01*
X114561155Y-69375139D01*
X114564581Y-69377428D01*
X114564586Y-69377432D01*
X114753698Y-69503792D01*
X114818220Y-69546904D01*
X114852666Y-69563891D01*
X115091800Y-69681820D01*
X115091808Y-69681823D01*
X115095504Y-69683646D01*
X115099419Y-69684975D01*
X115384358Y-69781699D01*
X115384361Y-69781700D01*
X115388265Y-69783025D01*
X115614961Y-69828117D01*
X115687450Y-69842536D01*
X115687453Y-69842536D01*
X115691493Y-69843340D01*
X115695604Y-69843609D01*
X115695608Y-69843610D01*
X115920737Y-69858366D01*
X115920746Y-69858366D01*
X115922786Y-69858500D01*
X116077214Y-69858500D01*
X116079254Y-69858366D01*
X116079263Y-69858366D01*
X116304392Y-69843610D01*
X116304396Y-69843609D01*
X116308507Y-69843340D01*
X116312547Y-69842536D01*
X116312550Y-69842536D01*
X116385039Y-69828117D01*
X116611735Y-69783025D01*
X116615639Y-69781700D01*
X116615642Y-69781699D01*
X116900581Y-69684975D01*
X116904496Y-69683646D01*
X116908192Y-69681823D01*
X116908200Y-69681820D01*
X117147334Y-69563891D01*
X117181780Y-69546904D01*
X117246302Y-69503792D01*
X117435414Y-69377432D01*
X117435419Y-69377428D01*
X117438845Y-69375139D01*
X117441939Y-69372425D01*
X117441945Y-69372421D01*
X117668201Y-69173999D01*
X117671290Y-69171290D01*
X117673999Y-69168201D01*
X117872421Y-68941945D01*
X117872425Y-68941939D01*
X117875139Y-68938845D01*
X117922718Y-68867639D01*
X118016044Y-68727966D01*
X129828257Y-68727966D01*
X129858565Y-68862446D01*
X129861645Y-68872275D01*
X129941770Y-69069603D01*
X129946413Y-69078794D01*
X130057694Y-69260388D01*
X130063777Y-69268699D01*
X130203213Y-69429667D01*
X130210580Y-69436883D01*
X130374434Y-69572916D01*
X130382881Y-69578831D01*
X130566756Y-69686279D01*
X130576042Y-69690729D01*
X130775001Y-69766703D01*
X130784899Y-69769579D01*
X130888250Y-69790606D01*
X130902299Y-69789410D01*
X130906000Y-69779065D01*
X130906000Y-69778517D01*
X131414000Y-69778517D01*
X131418064Y-69792359D01*
X131431478Y-69794393D01*
X131438184Y-69793534D01*
X131448262Y-69791392D01*
X131652255Y-69730191D01*
X131661842Y-69726433D01*
X131853095Y-69632739D01*
X131861945Y-69627464D01*
X132035328Y-69503792D01*
X132043200Y-69497139D01*
X132194052Y-69346812D01*
X132200730Y-69338965D01*
X132328022Y-69161819D01*
X132329279Y-69162722D01*
X132376373Y-69119362D01*
X132446311Y-69107145D01*
X132511751Y-69134678D01*
X132539579Y-69166511D01*
X132599987Y-69265088D01*
X132746250Y-69433938D01*
X132918126Y-69576632D01*
X133111000Y-69689338D01*
X133319692Y-69769030D01*
X133324760Y-69770061D01*
X133324763Y-69770062D01*
X133419862Y-69789410D01*
X133538597Y-69813567D01*
X133543772Y-69813757D01*
X133543774Y-69813757D01*
X133756673Y-69821564D01*
X133756677Y-69821564D01*
X133761837Y-69821753D01*
X133766957Y-69821097D01*
X133766959Y-69821097D01*
X133978288Y-69794025D01*
X133978289Y-69794025D01*
X133983416Y-69793368D01*
X133988366Y-69791883D01*
X134192429Y-69730661D01*
X134192434Y-69730659D01*
X134197384Y-69729174D01*
X134397994Y-69630896D01*
X134579860Y-69501173D01*
X134738096Y-69343489D01*
X134868453Y-69162077D01*
X134869776Y-69163028D01*
X134916645Y-69119857D01*
X134986580Y-69107625D01*
X135052026Y-69135144D01*
X135079875Y-69166994D01*
X135139987Y-69265088D01*
X135286250Y-69433938D01*
X135458126Y-69576632D01*
X135651000Y-69689338D01*
X135859692Y-69769030D01*
X135864760Y-69770061D01*
X135864763Y-69770062D01*
X135959862Y-69789410D01*
X136078597Y-69813567D01*
X136083772Y-69813757D01*
X136083774Y-69813757D01*
X136296673Y-69821564D01*
X136296677Y-69821564D01*
X136301837Y-69821753D01*
X136306957Y-69821097D01*
X136306959Y-69821097D01*
X136518288Y-69794025D01*
X136518289Y-69794025D01*
X136523416Y-69793368D01*
X136528366Y-69791883D01*
X136732429Y-69730661D01*
X136732434Y-69730659D01*
X136737384Y-69729174D01*
X136937994Y-69630896D01*
X137119860Y-69501173D01*
X137278096Y-69343489D01*
X137408453Y-69162077D01*
X137409776Y-69163028D01*
X137456645Y-69119857D01*
X137526580Y-69107625D01*
X137592026Y-69135144D01*
X137619875Y-69166994D01*
X137679987Y-69265088D01*
X137826250Y-69433938D01*
X137998126Y-69576632D01*
X138191000Y-69689338D01*
X138399692Y-69769030D01*
X138404760Y-69770061D01*
X138404763Y-69770062D01*
X138499862Y-69789410D01*
X138618597Y-69813567D01*
X138623772Y-69813757D01*
X138623774Y-69813757D01*
X138836673Y-69821564D01*
X138836677Y-69821564D01*
X138841837Y-69821753D01*
X138846957Y-69821097D01*
X138846959Y-69821097D01*
X139058288Y-69794025D01*
X139058289Y-69794025D01*
X139063416Y-69793368D01*
X139068366Y-69791883D01*
X139272429Y-69730661D01*
X139272434Y-69730659D01*
X139277384Y-69729174D01*
X139477994Y-69630896D01*
X139659860Y-69501173D01*
X139818096Y-69343489D01*
X139948453Y-69162077D01*
X139949776Y-69163028D01*
X139996645Y-69119857D01*
X140066580Y-69107625D01*
X140132026Y-69135144D01*
X140159875Y-69166994D01*
X140219987Y-69265088D01*
X140366250Y-69433938D01*
X140538126Y-69576632D01*
X140731000Y-69689338D01*
X140939692Y-69769030D01*
X140944760Y-69770061D01*
X140944763Y-69770062D01*
X141039862Y-69789410D01*
X141158597Y-69813567D01*
X141163772Y-69813757D01*
X141163774Y-69813757D01*
X141376673Y-69821564D01*
X141376677Y-69821564D01*
X141381837Y-69821753D01*
X141386957Y-69821097D01*
X141386959Y-69821097D01*
X141598288Y-69794025D01*
X141598289Y-69794025D01*
X141603416Y-69793368D01*
X141608366Y-69791883D01*
X141812429Y-69730661D01*
X141812434Y-69730659D01*
X141817384Y-69729174D01*
X142017994Y-69630896D01*
X142199860Y-69501173D01*
X142358096Y-69343489D01*
X142488453Y-69162077D01*
X142489776Y-69163028D01*
X142536645Y-69119857D01*
X142606580Y-69107625D01*
X142672026Y-69135144D01*
X142699875Y-69166994D01*
X142759987Y-69265088D01*
X142906250Y-69433938D01*
X143078126Y-69576632D01*
X143271000Y-69689338D01*
X143479692Y-69769030D01*
X143484760Y-69770061D01*
X143484763Y-69770062D01*
X143579862Y-69789410D01*
X143698597Y-69813567D01*
X143703772Y-69813757D01*
X143703774Y-69813757D01*
X143916673Y-69821564D01*
X143916677Y-69821564D01*
X143921837Y-69821753D01*
X143926957Y-69821097D01*
X143926959Y-69821097D01*
X144138288Y-69794025D01*
X144138289Y-69794025D01*
X144143416Y-69793368D01*
X144148366Y-69791883D01*
X144352429Y-69730661D01*
X144352434Y-69730659D01*
X144357384Y-69729174D01*
X144557994Y-69630896D01*
X144739860Y-69501173D01*
X144898096Y-69343489D01*
X145028453Y-69162077D01*
X145029776Y-69163028D01*
X145076645Y-69119857D01*
X145146580Y-69107625D01*
X145212026Y-69135144D01*
X145239875Y-69166994D01*
X145299987Y-69265088D01*
X145446250Y-69433938D01*
X145618126Y-69576632D01*
X145811000Y-69689338D01*
X146019692Y-69769030D01*
X146024760Y-69770061D01*
X146024763Y-69770062D01*
X146119862Y-69789410D01*
X146238597Y-69813567D01*
X146243772Y-69813757D01*
X146243774Y-69813757D01*
X146456673Y-69821564D01*
X146456677Y-69821564D01*
X146461837Y-69821753D01*
X146466957Y-69821097D01*
X146466959Y-69821097D01*
X146678288Y-69794025D01*
X146678289Y-69794025D01*
X146683416Y-69793368D01*
X146688366Y-69791883D01*
X146892429Y-69730661D01*
X146892434Y-69730659D01*
X146897384Y-69729174D01*
X147097994Y-69630896D01*
X147279860Y-69501173D01*
X147438096Y-69343489D01*
X147568453Y-69162077D01*
X147569776Y-69163028D01*
X147616645Y-69119857D01*
X147686580Y-69107625D01*
X147752026Y-69135144D01*
X147779875Y-69166994D01*
X147839987Y-69265088D01*
X147986250Y-69433938D01*
X148158126Y-69576632D01*
X148351000Y-69689338D01*
X148559692Y-69769030D01*
X148564760Y-69770061D01*
X148564763Y-69770062D01*
X148659862Y-69789410D01*
X148778597Y-69813567D01*
X148783772Y-69813757D01*
X148783774Y-69813757D01*
X148996673Y-69821564D01*
X148996677Y-69821564D01*
X149001837Y-69821753D01*
X149006957Y-69821097D01*
X149006959Y-69821097D01*
X149218288Y-69794025D01*
X149218289Y-69794025D01*
X149223416Y-69793368D01*
X149228366Y-69791883D01*
X149432429Y-69730661D01*
X149432434Y-69730659D01*
X149437384Y-69729174D01*
X149637994Y-69630896D01*
X149819860Y-69501173D01*
X149978096Y-69343489D01*
X150108453Y-69162077D01*
X150109776Y-69163028D01*
X150156645Y-69119857D01*
X150226580Y-69107625D01*
X150292026Y-69135144D01*
X150319875Y-69166994D01*
X150379987Y-69265088D01*
X150526250Y-69433938D01*
X150698126Y-69576632D01*
X150891000Y-69689338D01*
X151099692Y-69769030D01*
X151104760Y-69770061D01*
X151104763Y-69770062D01*
X151199862Y-69789410D01*
X151318597Y-69813567D01*
X151323772Y-69813757D01*
X151323774Y-69813757D01*
X151536673Y-69821564D01*
X151536677Y-69821564D01*
X151541837Y-69821753D01*
X151546957Y-69821097D01*
X151546959Y-69821097D01*
X151758288Y-69794025D01*
X151758289Y-69794025D01*
X151763416Y-69793368D01*
X151768366Y-69791883D01*
X151972429Y-69730661D01*
X151972434Y-69730659D01*
X151977384Y-69729174D01*
X152177994Y-69630896D01*
X152359860Y-69501173D01*
X152518096Y-69343489D01*
X152648453Y-69162077D01*
X152649776Y-69163028D01*
X152696645Y-69119857D01*
X152766580Y-69107625D01*
X152832026Y-69135144D01*
X152859875Y-69166994D01*
X152919987Y-69265088D01*
X153066250Y-69433938D01*
X153238126Y-69576632D01*
X153431000Y-69689338D01*
X153639692Y-69769030D01*
X153644760Y-69770061D01*
X153644763Y-69770062D01*
X153739862Y-69789410D01*
X153858597Y-69813567D01*
X153863772Y-69813757D01*
X153863774Y-69813757D01*
X154076673Y-69821564D01*
X154076677Y-69821564D01*
X154081837Y-69821753D01*
X154086957Y-69821097D01*
X154086959Y-69821097D01*
X154298288Y-69794025D01*
X154298289Y-69794025D01*
X154303416Y-69793368D01*
X154308366Y-69791883D01*
X154512429Y-69730661D01*
X154512434Y-69730659D01*
X154517384Y-69729174D01*
X154717994Y-69630896D01*
X154899860Y-69501173D01*
X155058096Y-69343489D01*
X155188453Y-69162077D01*
X155189776Y-69163028D01*
X155236645Y-69119857D01*
X155306580Y-69107625D01*
X155372026Y-69135144D01*
X155399875Y-69166994D01*
X155459987Y-69265088D01*
X155606250Y-69433938D01*
X155778126Y-69576632D01*
X155971000Y-69689338D01*
X156179692Y-69769030D01*
X156184760Y-69770061D01*
X156184763Y-69770062D01*
X156279862Y-69789410D01*
X156398597Y-69813567D01*
X156403772Y-69813757D01*
X156403774Y-69813757D01*
X156616673Y-69821564D01*
X156616677Y-69821564D01*
X156621837Y-69821753D01*
X156626957Y-69821097D01*
X156626959Y-69821097D01*
X156838288Y-69794025D01*
X156838289Y-69794025D01*
X156843416Y-69793368D01*
X156848366Y-69791883D01*
X157052429Y-69730661D01*
X157052434Y-69730659D01*
X157057384Y-69729174D01*
X157257994Y-69630896D01*
X157439860Y-69501173D01*
X157598096Y-69343489D01*
X157728453Y-69162077D01*
X157729776Y-69163028D01*
X157776645Y-69119857D01*
X157846580Y-69107625D01*
X157912026Y-69135144D01*
X157939875Y-69166994D01*
X157999987Y-69265088D01*
X158146250Y-69433938D01*
X158318126Y-69576632D01*
X158511000Y-69689338D01*
X158719692Y-69769030D01*
X158724760Y-69770061D01*
X158724763Y-69770062D01*
X158819862Y-69789410D01*
X158938597Y-69813567D01*
X158943772Y-69813757D01*
X158943774Y-69813757D01*
X159156673Y-69821564D01*
X159156677Y-69821564D01*
X159161837Y-69821753D01*
X159166957Y-69821097D01*
X159166959Y-69821097D01*
X159378288Y-69794025D01*
X159378289Y-69794025D01*
X159383416Y-69793368D01*
X159388366Y-69791883D01*
X159592429Y-69730661D01*
X159592434Y-69730659D01*
X159597384Y-69729174D01*
X159797994Y-69630896D01*
X159979860Y-69501173D01*
X160138096Y-69343489D01*
X160268453Y-69162077D01*
X160269776Y-69163028D01*
X160316645Y-69119857D01*
X160386580Y-69107625D01*
X160452026Y-69135144D01*
X160479875Y-69166994D01*
X160539987Y-69265088D01*
X160686250Y-69433938D01*
X160858126Y-69576632D01*
X161051000Y-69689338D01*
X161259692Y-69769030D01*
X161264760Y-69770061D01*
X161264763Y-69770062D01*
X161359862Y-69789410D01*
X161478597Y-69813567D01*
X161483772Y-69813757D01*
X161483774Y-69813757D01*
X161696673Y-69821564D01*
X161696677Y-69821564D01*
X161701837Y-69821753D01*
X161706957Y-69821097D01*
X161706959Y-69821097D01*
X161918288Y-69794025D01*
X161918289Y-69794025D01*
X161923416Y-69793368D01*
X161928366Y-69791883D01*
X162132429Y-69730661D01*
X162132434Y-69730659D01*
X162137384Y-69729174D01*
X162337994Y-69630896D01*
X162519860Y-69501173D01*
X162678096Y-69343489D01*
X162808453Y-69162077D01*
X162809776Y-69163028D01*
X162856645Y-69119857D01*
X162926580Y-69107625D01*
X162992026Y-69135144D01*
X163019875Y-69166994D01*
X163079987Y-69265088D01*
X163226250Y-69433938D01*
X163398126Y-69576632D01*
X163591000Y-69689338D01*
X163799692Y-69769030D01*
X163804760Y-69770061D01*
X163804763Y-69770062D01*
X163899862Y-69789410D01*
X164018597Y-69813567D01*
X164023772Y-69813757D01*
X164023774Y-69813757D01*
X164236673Y-69821564D01*
X164236677Y-69821564D01*
X164241837Y-69821753D01*
X164246957Y-69821097D01*
X164246959Y-69821097D01*
X164458288Y-69794025D01*
X164458289Y-69794025D01*
X164463416Y-69793368D01*
X164468366Y-69791883D01*
X164672429Y-69730661D01*
X164672434Y-69730659D01*
X164677384Y-69729174D01*
X164877994Y-69630896D01*
X165059860Y-69501173D01*
X165218096Y-69343489D01*
X165348453Y-69162077D01*
X165349776Y-69163028D01*
X165396645Y-69119857D01*
X165466580Y-69107625D01*
X165532026Y-69135144D01*
X165559875Y-69166994D01*
X165619987Y-69265088D01*
X165766250Y-69433938D01*
X165938126Y-69576632D01*
X166131000Y-69689338D01*
X166339692Y-69769030D01*
X166344760Y-69770061D01*
X166344763Y-69770062D01*
X166439862Y-69789410D01*
X166558597Y-69813567D01*
X166563772Y-69813757D01*
X166563774Y-69813757D01*
X166776673Y-69821564D01*
X166776677Y-69821564D01*
X166781837Y-69821753D01*
X166786957Y-69821097D01*
X166786959Y-69821097D01*
X166998288Y-69794025D01*
X166998289Y-69794025D01*
X167003416Y-69793368D01*
X167008366Y-69791883D01*
X167212429Y-69730661D01*
X167212434Y-69730659D01*
X167217384Y-69729174D01*
X167417994Y-69630896D01*
X167599860Y-69501173D01*
X167758096Y-69343489D01*
X167888453Y-69162077D01*
X167889776Y-69163028D01*
X167936645Y-69119857D01*
X168006580Y-69107625D01*
X168072026Y-69135144D01*
X168099875Y-69166994D01*
X168159987Y-69265088D01*
X168306250Y-69433938D01*
X168478126Y-69576632D01*
X168671000Y-69689338D01*
X168879692Y-69769030D01*
X168884760Y-69770061D01*
X168884763Y-69770062D01*
X168979862Y-69789410D01*
X169098597Y-69813567D01*
X169103772Y-69813757D01*
X169103774Y-69813757D01*
X169316673Y-69821564D01*
X169316677Y-69821564D01*
X169321837Y-69821753D01*
X169326957Y-69821097D01*
X169326959Y-69821097D01*
X169538288Y-69794025D01*
X169538289Y-69794025D01*
X169543416Y-69793368D01*
X169548366Y-69791883D01*
X169752429Y-69730661D01*
X169752434Y-69730659D01*
X169757384Y-69729174D01*
X169957994Y-69630896D01*
X170139860Y-69501173D01*
X170298096Y-69343489D01*
X170428453Y-69162077D01*
X170429776Y-69163028D01*
X170476645Y-69119857D01*
X170546580Y-69107625D01*
X170612026Y-69135144D01*
X170639875Y-69166994D01*
X170699987Y-69265088D01*
X170846250Y-69433938D01*
X171018126Y-69576632D01*
X171211000Y-69689338D01*
X171419692Y-69769030D01*
X171424760Y-69770061D01*
X171424763Y-69770062D01*
X171519862Y-69789410D01*
X171638597Y-69813567D01*
X171643772Y-69813757D01*
X171643774Y-69813757D01*
X171856673Y-69821564D01*
X171856677Y-69821564D01*
X171861837Y-69821753D01*
X171866957Y-69821097D01*
X171866959Y-69821097D01*
X172078288Y-69794025D01*
X172078289Y-69794025D01*
X172083416Y-69793368D01*
X172088366Y-69791883D01*
X172292429Y-69730661D01*
X172292434Y-69730659D01*
X172297384Y-69729174D01*
X172497994Y-69630896D01*
X172679860Y-69501173D01*
X172838096Y-69343489D01*
X172968453Y-69162077D01*
X172969776Y-69163028D01*
X173016645Y-69119857D01*
X173086580Y-69107625D01*
X173152026Y-69135144D01*
X173179875Y-69166994D01*
X173239987Y-69265088D01*
X173386250Y-69433938D01*
X173558126Y-69576632D01*
X173751000Y-69689338D01*
X173959692Y-69769030D01*
X173964760Y-69770061D01*
X173964763Y-69770062D01*
X174059862Y-69789410D01*
X174178597Y-69813567D01*
X174183772Y-69813757D01*
X174183774Y-69813757D01*
X174396673Y-69821564D01*
X174396677Y-69821564D01*
X174401837Y-69821753D01*
X174406957Y-69821097D01*
X174406959Y-69821097D01*
X174618288Y-69794025D01*
X174618289Y-69794025D01*
X174623416Y-69793368D01*
X174628366Y-69791883D01*
X174832429Y-69730661D01*
X174832434Y-69730659D01*
X174837384Y-69729174D01*
X175037994Y-69630896D01*
X175219860Y-69501173D01*
X175378096Y-69343489D01*
X175508453Y-69162077D01*
X175509776Y-69163028D01*
X175556645Y-69119857D01*
X175626580Y-69107625D01*
X175692026Y-69135144D01*
X175719875Y-69166994D01*
X175779987Y-69265088D01*
X175926250Y-69433938D01*
X176098126Y-69576632D01*
X176291000Y-69689338D01*
X176499692Y-69769030D01*
X176504760Y-69770061D01*
X176504763Y-69770062D01*
X176599862Y-69789410D01*
X176718597Y-69813567D01*
X176723772Y-69813757D01*
X176723774Y-69813757D01*
X176936673Y-69821564D01*
X176936677Y-69821564D01*
X176941837Y-69821753D01*
X176946957Y-69821097D01*
X176946959Y-69821097D01*
X177158288Y-69794025D01*
X177158289Y-69794025D01*
X177163416Y-69793368D01*
X177168366Y-69791883D01*
X177372429Y-69730661D01*
X177372434Y-69730659D01*
X177377384Y-69729174D01*
X177577994Y-69630896D01*
X177759860Y-69501173D01*
X177918096Y-69343489D01*
X178048453Y-69162077D01*
X178049776Y-69163028D01*
X178096645Y-69119857D01*
X178166580Y-69107625D01*
X178232026Y-69135144D01*
X178259875Y-69166994D01*
X178319987Y-69265088D01*
X178466250Y-69433938D01*
X178638126Y-69576632D01*
X178831000Y-69689338D01*
X179039692Y-69769030D01*
X179044760Y-69770061D01*
X179044763Y-69770062D01*
X179139862Y-69789410D01*
X179258597Y-69813567D01*
X179263772Y-69813757D01*
X179263774Y-69813757D01*
X179476673Y-69821564D01*
X179476677Y-69821564D01*
X179481837Y-69821753D01*
X179486957Y-69821097D01*
X179486959Y-69821097D01*
X179698288Y-69794025D01*
X179698289Y-69794025D01*
X179703416Y-69793368D01*
X179708366Y-69791883D01*
X179912429Y-69730661D01*
X179912434Y-69730659D01*
X179917384Y-69729174D01*
X180117994Y-69630896D01*
X180299860Y-69501173D01*
X180458096Y-69343489D01*
X180588453Y-69162077D01*
X180589776Y-69163028D01*
X180636645Y-69119857D01*
X180706580Y-69107625D01*
X180772026Y-69135144D01*
X180799875Y-69166994D01*
X180859987Y-69265088D01*
X181006250Y-69433938D01*
X181178126Y-69576632D01*
X181371000Y-69689338D01*
X181579692Y-69769030D01*
X181584760Y-69770061D01*
X181584763Y-69770062D01*
X181679862Y-69789410D01*
X181798597Y-69813567D01*
X181803772Y-69813757D01*
X181803774Y-69813757D01*
X182016673Y-69821564D01*
X182016677Y-69821564D01*
X182021837Y-69821753D01*
X182026957Y-69821097D01*
X182026959Y-69821097D01*
X182238288Y-69794025D01*
X182238289Y-69794025D01*
X182243416Y-69793368D01*
X182248366Y-69791883D01*
X182452429Y-69730661D01*
X182452434Y-69730659D01*
X182457384Y-69729174D01*
X182657994Y-69630896D01*
X182839860Y-69501173D01*
X182948091Y-69393319D01*
X183010462Y-69359404D01*
X183081268Y-69364592D01*
X183138030Y-69407238D01*
X183155012Y-69438341D01*
X183199385Y-69556705D01*
X183286739Y-69673261D01*
X183403295Y-69760615D01*
X183539684Y-69811745D01*
X183601866Y-69818500D01*
X185398134Y-69818500D01*
X185460316Y-69811745D01*
X185596705Y-69760615D01*
X185713261Y-69673261D01*
X185800615Y-69556705D01*
X185851745Y-69420316D01*
X185858500Y-69358134D01*
X185858500Y-67561866D01*
X185851745Y-67499684D01*
X185800615Y-67363295D01*
X185713261Y-67246739D01*
X185596705Y-67159385D01*
X185460316Y-67108255D01*
X185398134Y-67101500D01*
X183601866Y-67101500D01*
X183539684Y-67108255D01*
X183403295Y-67159385D01*
X183286739Y-67246739D01*
X183199385Y-67363295D01*
X183196233Y-67371703D01*
X183154919Y-67481907D01*
X183112277Y-67538671D01*
X183045716Y-67563371D01*
X182976367Y-67548163D01*
X182943743Y-67522476D01*
X182893151Y-67466875D01*
X182893142Y-67466866D01*
X182889670Y-67463051D01*
X182885619Y-67459852D01*
X182885615Y-67459848D01*
X182718414Y-67327800D01*
X182718410Y-67327798D01*
X182714359Y-67324598D01*
X182678028Y-67304542D01*
X182662136Y-67295769D01*
X182518789Y-67216638D01*
X182513920Y-67214914D01*
X182513916Y-67214912D01*
X182313087Y-67143795D01*
X182313083Y-67143794D01*
X182308212Y-67142069D01*
X182303119Y-67141162D01*
X182303116Y-67141161D01*
X182093373Y-67103800D01*
X182093367Y-67103799D01*
X182088284Y-67102894D01*
X182014452Y-67101992D01*
X181870081Y-67100228D01*
X181870079Y-67100228D01*
X181864911Y-67100165D01*
X181644091Y-67133955D01*
X181431756Y-67203357D01*
X181233607Y-67306507D01*
X181229474Y-67309610D01*
X181229471Y-67309612D01*
X181059100Y-67437530D01*
X181054965Y-67440635D01*
X181029541Y-67467240D01*
X180961280Y-67538671D01*
X180900629Y-67602138D01*
X180793201Y-67759621D01*
X180738293Y-67804621D01*
X180667768Y-67812792D01*
X180604021Y-67781538D01*
X180583324Y-67757054D01*
X180502822Y-67632617D01*
X180502820Y-67632614D01*
X180500014Y-67628277D01*
X180349670Y-67463051D01*
X180345619Y-67459852D01*
X180345615Y-67459848D01*
X180178414Y-67327800D01*
X180178410Y-67327798D01*
X180174359Y-67324598D01*
X180138028Y-67304542D01*
X180122136Y-67295769D01*
X179978789Y-67216638D01*
X179973920Y-67214914D01*
X179973916Y-67214912D01*
X179773087Y-67143795D01*
X179773083Y-67143794D01*
X179768212Y-67142069D01*
X179763119Y-67141162D01*
X179763116Y-67141161D01*
X179553373Y-67103800D01*
X179553367Y-67103799D01*
X179548284Y-67102894D01*
X179474452Y-67101992D01*
X179330081Y-67100228D01*
X179330079Y-67100228D01*
X179324911Y-67100165D01*
X179104091Y-67133955D01*
X178891756Y-67203357D01*
X178693607Y-67306507D01*
X178689474Y-67309610D01*
X178689471Y-67309612D01*
X178519100Y-67437530D01*
X178514965Y-67440635D01*
X178489541Y-67467240D01*
X178421280Y-67538671D01*
X178360629Y-67602138D01*
X178253201Y-67759621D01*
X178198293Y-67804621D01*
X178127768Y-67812792D01*
X178064021Y-67781538D01*
X178043324Y-67757054D01*
X177962822Y-67632617D01*
X177962820Y-67632614D01*
X177960014Y-67628277D01*
X177809670Y-67463051D01*
X177805619Y-67459852D01*
X177805615Y-67459848D01*
X177638414Y-67327800D01*
X177638410Y-67327798D01*
X177634359Y-67324598D01*
X177598028Y-67304542D01*
X177582136Y-67295769D01*
X177438789Y-67216638D01*
X177433920Y-67214914D01*
X177433916Y-67214912D01*
X177233087Y-67143795D01*
X177233083Y-67143794D01*
X177228212Y-67142069D01*
X177223119Y-67141162D01*
X177223116Y-67141161D01*
X177013373Y-67103800D01*
X177013367Y-67103799D01*
X177008284Y-67102894D01*
X176934452Y-67101992D01*
X176790081Y-67100228D01*
X176790079Y-67100228D01*
X176784911Y-67100165D01*
X176564091Y-67133955D01*
X176351756Y-67203357D01*
X176153607Y-67306507D01*
X176149474Y-67309610D01*
X176149471Y-67309612D01*
X175979100Y-67437530D01*
X175974965Y-67440635D01*
X175949541Y-67467240D01*
X175881280Y-67538671D01*
X175820629Y-67602138D01*
X175713201Y-67759621D01*
X175658293Y-67804621D01*
X175587768Y-67812792D01*
X175524021Y-67781538D01*
X175503324Y-67757054D01*
X175422822Y-67632617D01*
X175422820Y-67632614D01*
X175420014Y-67628277D01*
X175269670Y-67463051D01*
X175265619Y-67459852D01*
X175265615Y-67459848D01*
X175098414Y-67327800D01*
X175098410Y-67327798D01*
X175094359Y-67324598D01*
X175058028Y-67304542D01*
X175042136Y-67295769D01*
X174898789Y-67216638D01*
X174893920Y-67214914D01*
X174893916Y-67214912D01*
X174693087Y-67143795D01*
X174693083Y-67143794D01*
X174688212Y-67142069D01*
X174683119Y-67141162D01*
X174683116Y-67141161D01*
X174473373Y-67103800D01*
X174473367Y-67103799D01*
X174468284Y-67102894D01*
X174394452Y-67101992D01*
X174250081Y-67100228D01*
X174250079Y-67100228D01*
X174244911Y-67100165D01*
X174024091Y-67133955D01*
X173811756Y-67203357D01*
X173613607Y-67306507D01*
X173609474Y-67309610D01*
X173609471Y-67309612D01*
X173439100Y-67437530D01*
X173434965Y-67440635D01*
X173409541Y-67467240D01*
X173341280Y-67538671D01*
X173280629Y-67602138D01*
X173173201Y-67759621D01*
X173118293Y-67804621D01*
X173047768Y-67812792D01*
X172984021Y-67781538D01*
X172963324Y-67757054D01*
X172882822Y-67632617D01*
X172882820Y-67632614D01*
X172880014Y-67628277D01*
X172729670Y-67463051D01*
X172725619Y-67459852D01*
X172725615Y-67459848D01*
X172558414Y-67327800D01*
X172558410Y-67327798D01*
X172554359Y-67324598D01*
X172518028Y-67304542D01*
X172502136Y-67295769D01*
X172358789Y-67216638D01*
X172353920Y-67214914D01*
X172353916Y-67214912D01*
X172153087Y-67143795D01*
X172153083Y-67143794D01*
X172148212Y-67142069D01*
X172143119Y-67141162D01*
X172143116Y-67141161D01*
X171933373Y-67103800D01*
X171933367Y-67103799D01*
X171928284Y-67102894D01*
X171854452Y-67101992D01*
X171710081Y-67100228D01*
X171710079Y-67100228D01*
X171704911Y-67100165D01*
X171484091Y-67133955D01*
X171271756Y-67203357D01*
X171073607Y-67306507D01*
X171069474Y-67309610D01*
X171069471Y-67309612D01*
X170899100Y-67437530D01*
X170894965Y-67440635D01*
X170869541Y-67467240D01*
X170801280Y-67538671D01*
X170740629Y-67602138D01*
X170633201Y-67759621D01*
X170578293Y-67804621D01*
X170507768Y-67812792D01*
X170444021Y-67781538D01*
X170423324Y-67757054D01*
X170342822Y-67632617D01*
X170342820Y-67632614D01*
X170340014Y-67628277D01*
X170189670Y-67463051D01*
X170185619Y-67459852D01*
X170185615Y-67459848D01*
X170018414Y-67327800D01*
X170018410Y-67327798D01*
X170014359Y-67324598D01*
X169978028Y-67304542D01*
X169962136Y-67295769D01*
X169818789Y-67216638D01*
X169813920Y-67214914D01*
X169813916Y-67214912D01*
X169613087Y-67143795D01*
X169613083Y-67143794D01*
X169608212Y-67142069D01*
X169603119Y-67141162D01*
X169603116Y-67141161D01*
X169393373Y-67103800D01*
X169393367Y-67103799D01*
X169388284Y-67102894D01*
X169314452Y-67101992D01*
X169170081Y-67100228D01*
X169170079Y-67100228D01*
X169164911Y-67100165D01*
X168944091Y-67133955D01*
X168731756Y-67203357D01*
X168533607Y-67306507D01*
X168529474Y-67309610D01*
X168529471Y-67309612D01*
X168359100Y-67437530D01*
X168354965Y-67440635D01*
X168329541Y-67467240D01*
X168261280Y-67538671D01*
X168200629Y-67602138D01*
X168093201Y-67759621D01*
X168038293Y-67804621D01*
X167967768Y-67812792D01*
X167904021Y-67781538D01*
X167883324Y-67757054D01*
X167802822Y-67632617D01*
X167802820Y-67632614D01*
X167800014Y-67628277D01*
X167649670Y-67463051D01*
X167645619Y-67459852D01*
X167645615Y-67459848D01*
X167478414Y-67327800D01*
X167478410Y-67327798D01*
X167474359Y-67324598D01*
X167438028Y-67304542D01*
X167422136Y-67295769D01*
X167278789Y-67216638D01*
X167273920Y-67214914D01*
X167273916Y-67214912D01*
X167073087Y-67143795D01*
X167073083Y-67143794D01*
X167068212Y-67142069D01*
X167063119Y-67141162D01*
X167063116Y-67141161D01*
X166853373Y-67103800D01*
X166853367Y-67103799D01*
X166848284Y-67102894D01*
X166774452Y-67101992D01*
X166630081Y-67100228D01*
X166630079Y-67100228D01*
X166624911Y-67100165D01*
X166404091Y-67133955D01*
X166191756Y-67203357D01*
X165993607Y-67306507D01*
X165989474Y-67309610D01*
X165989471Y-67309612D01*
X165819100Y-67437530D01*
X165814965Y-67440635D01*
X165789541Y-67467240D01*
X165721280Y-67538671D01*
X165660629Y-67602138D01*
X165553201Y-67759621D01*
X165498293Y-67804621D01*
X165427768Y-67812792D01*
X165364021Y-67781538D01*
X165343324Y-67757054D01*
X165262822Y-67632617D01*
X165262820Y-67632614D01*
X165260014Y-67628277D01*
X165109670Y-67463051D01*
X165105619Y-67459852D01*
X165105615Y-67459848D01*
X164938414Y-67327800D01*
X164938410Y-67327798D01*
X164934359Y-67324598D01*
X164898028Y-67304542D01*
X164882136Y-67295769D01*
X164738789Y-67216638D01*
X164733920Y-67214914D01*
X164733916Y-67214912D01*
X164533087Y-67143795D01*
X164533083Y-67143794D01*
X164528212Y-67142069D01*
X164523119Y-67141162D01*
X164523116Y-67141161D01*
X164313373Y-67103800D01*
X164313367Y-67103799D01*
X164308284Y-67102894D01*
X164234452Y-67101992D01*
X164090081Y-67100228D01*
X164090079Y-67100228D01*
X164084911Y-67100165D01*
X163864091Y-67133955D01*
X163651756Y-67203357D01*
X163453607Y-67306507D01*
X163449474Y-67309610D01*
X163449471Y-67309612D01*
X163279100Y-67437530D01*
X163274965Y-67440635D01*
X163249541Y-67467240D01*
X163181280Y-67538671D01*
X163120629Y-67602138D01*
X163013201Y-67759621D01*
X162958293Y-67804621D01*
X162887768Y-67812792D01*
X162824021Y-67781538D01*
X162803324Y-67757054D01*
X162722822Y-67632617D01*
X162722820Y-67632614D01*
X162720014Y-67628277D01*
X162569670Y-67463051D01*
X162565619Y-67459852D01*
X162565615Y-67459848D01*
X162398414Y-67327800D01*
X162398410Y-67327798D01*
X162394359Y-67324598D01*
X162358028Y-67304542D01*
X162342136Y-67295769D01*
X162198789Y-67216638D01*
X162193920Y-67214914D01*
X162193916Y-67214912D01*
X161993087Y-67143795D01*
X161993083Y-67143794D01*
X161988212Y-67142069D01*
X161983119Y-67141162D01*
X161983116Y-67141161D01*
X161773373Y-67103800D01*
X161773367Y-67103799D01*
X161768284Y-67102894D01*
X161694452Y-67101992D01*
X161550081Y-67100228D01*
X161550079Y-67100228D01*
X161544911Y-67100165D01*
X161324091Y-67133955D01*
X161111756Y-67203357D01*
X160913607Y-67306507D01*
X160909474Y-67309610D01*
X160909471Y-67309612D01*
X160739100Y-67437530D01*
X160734965Y-67440635D01*
X160709541Y-67467240D01*
X160641280Y-67538671D01*
X160580629Y-67602138D01*
X160473201Y-67759621D01*
X160418293Y-67804621D01*
X160347768Y-67812792D01*
X160284021Y-67781538D01*
X160263324Y-67757054D01*
X160182822Y-67632617D01*
X160182820Y-67632614D01*
X160180014Y-67628277D01*
X160029670Y-67463051D01*
X160025619Y-67459852D01*
X160025615Y-67459848D01*
X159858414Y-67327800D01*
X159858410Y-67327798D01*
X159854359Y-67324598D01*
X159818028Y-67304542D01*
X159802136Y-67295769D01*
X159658789Y-67216638D01*
X159653920Y-67214914D01*
X159653916Y-67214912D01*
X159453087Y-67143795D01*
X159453083Y-67143794D01*
X159448212Y-67142069D01*
X159443119Y-67141162D01*
X159443116Y-67141161D01*
X159233373Y-67103800D01*
X159233367Y-67103799D01*
X159228284Y-67102894D01*
X159154452Y-67101992D01*
X159010081Y-67100228D01*
X159010079Y-67100228D01*
X159004911Y-67100165D01*
X158784091Y-67133955D01*
X158571756Y-67203357D01*
X158373607Y-67306507D01*
X158369474Y-67309610D01*
X158369471Y-67309612D01*
X158199100Y-67437530D01*
X158194965Y-67440635D01*
X158169541Y-67467240D01*
X158101280Y-67538671D01*
X158040629Y-67602138D01*
X157933201Y-67759621D01*
X157878293Y-67804621D01*
X157807768Y-67812792D01*
X157744021Y-67781538D01*
X157723324Y-67757054D01*
X157642822Y-67632617D01*
X157642820Y-67632614D01*
X157640014Y-67628277D01*
X157489670Y-67463051D01*
X157485619Y-67459852D01*
X157485615Y-67459848D01*
X157318414Y-67327800D01*
X157318410Y-67327798D01*
X157314359Y-67324598D01*
X157278028Y-67304542D01*
X157262136Y-67295769D01*
X157118789Y-67216638D01*
X157113920Y-67214914D01*
X157113916Y-67214912D01*
X156913087Y-67143795D01*
X156913083Y-67143794D01*
X156908212Y-67142069D01*
X156903119Y-67141162D01*
X156903116Y-67141161D01*
X156693373Y-67103800D01*
X156693367Y-67103799D01*
X156688284Y-67102894D01*
X156614452Y-67101992D01*
X156470081Y-67100228D01*
X156470079Y-67100228D01*
X156464911Y-67100165D01*
X156244091Y-67133955D01*
X156031756Y-67203357D01*
X155833607Y-67306507D01*
X155829474Y-67309610D01*
X155829471Y-67309612D01*
X155659100Y-67437530D01*
X155654965Y-67440635D01*
X155629541Y-67467240D01*
X155561280Y-67538671D01*
X155500629Y-67602138D01*
X155393201Y-67759621D01*
X155338293Y-67804621D01*
X155267768Y-67812792D01*
X155204021Y-67781538D01*
X155183324Y-67757054D01*
X155102822Y-67632617D01*
X155102820Y-67632614D01*
X155100014Y-67628277D01*
X154949670Y-67463051D01*
X154945619Y-67459852D01*
X154945615Y-67459848D01*
X154778414Y-67327800D01*
X154778410Y-67327798D01*
X154774359Y-67324598D01*
X154738028Y-67304542D01*
X154722136Y-67295769D01*
X154578789Y-67216638D01*
X154573920Y-67214914D01*
X154573916Y-67214912D01*
X154373087Y-67143795D01*
X154373083Y-67143794D01*
X154368212Y-67142069D01*
X154363119Y-67141162D01*
X154363116Y-67141161D01*
X154153373Y-67103800D01*
X154153367Y-67103799D01*
X154148284Y-67102894D01*
X154074452Y-67101992D01*
X153930081Y-67100228D01*
X153930079Y-67100228D01*
X153924911Y-67100165D01*
X153704091Y-67133955D01*
X153491756Y-67203357D01*
X153293607Y-67306507D01*
X153289474Y-67309610D01*
X153289471Y-67309612D01*
X153119100Y-67437530D01*
X153114965Y-67440635D01*
X153089541Y-67467240D01*
X153021280Y-67538671D01*
X152960629Y-67602138D01*
X152853201Y-67759621D01*
X152798293Y-67804621D01*
X152727768Y-67812792D01*
X152664021Y-67781538D01*
X152643324Y-67757054D01*
X152562822Y-67632617D01*
X152562820Y-67632614D01*
X152560014Y-67628277D01*
X152409670Y-67463051D01*
X152405619Y-67459852D01*
X152405615Y-67459848D01*
X152238414Y-67327800D01*
X152238410Y-67327798D01*
X152234359Y-67324598D01*
X152198028Y-67304542D01*
X152182136Y-67295769D01*
X152038789Y-67216638D01*
X152033920Y-67214914D01*
X152033916Y-67214912D01*
X151833087Y-67143795D01*
X151833083Y-67143794D01*
X151828212Y-67142069D01*
X151823119Y-67141162D01*
X151823116Y-67141161D01*
X151613373Y-67103800D01*
X151613367Y-67103799D01*
X151608284Y-67102894D01*
X151534452Y-67101992D01*
X151390081Y-67100228D01*
X151390079Y-67100228D01*
X151384911Y-67100165D01*
X151164091Y-67133955D01*
X150951756Y-67203357D01*
X150753607Y-67306507D01*
X150749474Y-67309610D01*
X150749471Y-67309612D01*
X150579100Y-67437530D01*
X150574965Y-67440635D01*
X150549541Y-67467240D01*
X150481280Y-67538671D01*
X150420629Y-67602138D01*
X150313201Y-67759621D01*
X150258293Y-67804621D01*
X150187768Y-67812792D01*
X150124021Y-67781538D01*
X150103324Y-67757054D01*
X150022822Y-67632617D01*
X150022820Y-67632614D01*
X150020014Y-67628277D01*
X149869670Y-67463051D01*
X149865619Y-67459852D01*
X149865615Y-67459848D01*
X149698414Y-67327800D01*
X149698410Y-67327798D01*
X149694359Y-67324598D01*
X149658028Y-67304542D01*
X149642136Y-67295769D01*
X149498789Y-67216638D01*
X149493920Y-67214914D01*
X149493916Y-67214912D01*
X149293087Y-67143795D01*
X149293083Y-67143794D01*
X149288212Y-67142069D01*
X149283119Y-67141162D01*
X149283116Y-67141161D01*
X149073373Y-67103800D01*
X149073367Y-67103799D01*
X149068284Y-67102894D01*
X148994452Y-67101992D01*
X148850081Y-67100228D01*
X148850079Y-67100228D01*
X148844911Y-67100165D01*
X148624091Y-67133955D01*
X148411756Y-67203357D01*
X148213607Y-67306507D01*
X148209474Y-67309610D01*
X148209471Y-67309612D01*
X148039100Y-67437530D01*
X148034965Y-67440635D01*
X148009541Y-67467240D01*
X147941280Y-67538671D01*
X147880629Y-67602138D01*
X147773201Y-67759621D01*
X147718293Y-67804621D01*
X147647768Y-67812792D01*
X147584021Y-67781538D01*
X147563324Y-67757054D01*
X147482822Y-67632617D01*
X147482820Y-67632614D01*
X147480014Y-67628277D01*
X147329670Y-67463051D01*
X147325619Y-67459852D01*
X147325615Y-67459848D01*
X147158414Y-67327800D01*
X147158410Y-67327798D01*
X147154359Y-67324598D01*
X147118028Y-67304542D01*
X147102136Y-67295769D01*
X146958789Y-67216638D01*
X146953920Y-67214914D01*
X146953916Y-67214912D01*
X146753087Y-67143795D01*
X146753083Y-67143794D01*
X146748212Y-67142069D01*
X146743119Y-67141162D01*
X146743116Y-67141161D01*
X146533373Y-67103800D01*
X146533367Y-67103799D01*
X146528284Y-67102894D01*
X146454452Y-67101992D01*
X146310081Y-67100228D01*
X146310079Y-67100228D01*
X146304911Y-67100165D01*
X146084091Y-67133955D01*
X145871756Y-67203357D01*
X145673607Y-67306507D01*
X145669474Y-67309610D01*
X145669471Y-67309612D01*
X145499100Y-67437530D01*
X145494965Y-67440635D01*
X145469541Y-67467240D01*
X145401280Y-67538671D01*
X145340629Y-67602138D01*
X145233201Y-67759621D01*
X145178293Y-67804621D01*
X145107768Y-67812792D01*
X145044021Y-67781538D01*
X145023324Y-67757054D01*
X144942822Y-67632617D01*
X144942820Y-67632614D01*
X144940014Y-67628277D01*
X144789670Y-67463051D01*
X144785619Y-67459852D01*
X144785615Y-67459848D01*
X144618414Y-67327800D01*
X144618410Y-67327798D01*
X144614359Y-67324598D01*
X144578028Y-67304542D01*
X144562136Y-67295769D01*
X144418789Y-67216638D01*
X144413920Y-67214914D01*
X144413916Y-67214912D01*
X144213087Y-67143795D01*
X144213083Y-67143794D01*
X144208212Y-67142069D01*
X144203119Y-67141162D01*
X144203116Y-67141161D01*
X143993373Y-67103800D01*
X143993367Y-67103799D01*
X143988284Y-67102894D01*
X143914452Y-67101992D01*
X143770081Y-67100228D01*
X143770079Y-67100228D01*
X143764911Y-67100165D01*
X143544091Y-67133955D01*
X143331756Y-67203357D01*
X143133607Y-67306507D01*
X143129474Y-67309610D01*
X143129471Y-67309612D01*
X142959100Y-67437530D01*
X142954965Y-67440635D01*
X142929541Y-67467240D01*
X142861280Y-67538671D01*
X142800629Y-67602138D01*
X142693201Y-67759621D01*
X142638293Y-67804621D01*
X142567768Y-67812792D01*
X142504021Y-67781538D01*
X142483324Y-67757054D01*
X142402822Y-67632617D01*
X142402820Y-67632614D01*
X142400014Y-67628277D01*
X142249670Y-67463051D01*
X142245619Y-67459852D01*
X142245615Y-67459848D01*
X142078414Y-67327800D01*
X142078410Y-67327798D01*
X142074359Y-67324598D01*
X142038028Y-67304542D01*
X142022136Y-67295769D01*
X141878789Y-67216638D01*
X141873920Y-67214914D01*
X141873916Y-67214912D01*
X141673087Y-67143795D01*
X141673083Y-67143794D01*
X141668212Y-67142069D01*
X141663119Y-67141162D01*
X141663116Y-67141161D01*
X141453373Y-67103800D01*
X141453367Y-67103799D01*
X141448284Y-67102894D01*
X141374452Y-67101992D01*
X141230081Y-67100228D01*
X141230079Y-67100228D01*
X141224911Y-67100165D01*
X141004091Y-67133955D01*
X140791756Y-67203357D01*
X140593607Y-67306507D01*
X140589474Y-67309610D01*
X140589471Y-67309612D01*
X140419100Y-67437530D01*
X140414965Y-67440635D01*
X140389541Y-67467240D01*
X140321280Y-67538671D01*
X140260629Y-67602138D01*
X140153201Y-67759621D01*
X140098293Y-67804621D01*
X140027768Y-67812792D01*
X139964021Y-67781538D01*
X139943324Y-67757054D01*
X139862822Y-67632617D01*
X139862820Y-67632614D01*
X139860014Y-67628277D01*
X139709670Y-67463051D01*
X139705619Y-67459852D01*
X139705615Y-67459848D01*
X139538414Y-67327800D01*
X139538410Y-67327798D01*
X139534359Y-67324598D01*
X139498028Y-67304542D01*
X139482136Y-67295769D01*
X139338789Y-67216638D01*
X139333920Y-67214914D01*
X139333916Y-67214912D01*
X139133087Y-67143795D01*
X139133083Y-67143794D01*
X139128212Y-67142069D01*
X139123119Y-67141162D01*
X139123116Y-67141161D01*
X138913373Y-67103800D01*
X138913367Y-67103799D01*
X138908284Y-67102894D01*
X138834452Y-67101992D01*
X138690081Y-67100228D01*
X138690079Y-67100228D01*
X138684911Y-67100165D01*
X138464091Y-67133955D01*
X138251756Y-67203357D01*
X138053607Y-67306507D01*
X138049474Y-67309610D01*
X138049471Y-67309612D01*
X137879100Y-67437530D01*
X137874965Y-67440635D01*
X137849541Y-67467240D01*
X137781280Y-67538671D01*
X137720629Y-67602138D01*
X137613201Y-67759621D01*
X137558293Y-67804621D01*
X137487768Y-67812792D01*
X137424021Y-67781538D01*
X137403324Y-67757054D01*
X137322822Y-67632617D01*
X137322820Y-67632614D01*
X137320014Y-67628277D01*
X137169670Y-67463051D01*
X137165619Y-67459852D01*
X137165615Y-67459848D01*
X136998414Y-67327800D01*
X136998410Y-67327798D01*
X136994359Y-67324598D01*
X136958028Y-67304542D01*
X136942136Y-67295769D01*
X136798789Y-67216638D01*
X136793920Y-67214914D01*
X136793916Y-67214912D01*
X136593087Y-67143795D01*
X136593083Y-67143794D01*
X136588212Y-67142069D01*
X136583119Y-67141162D01*
X136583116Y-67141161D01*
X136373373Y-67103800D01*
X136373367Y-67103799D01*
X136368284Y-67102894D01*
X136294452Y-67101992D01*
X136150081Y-67100228D01*
X136150079Y-67100228D01*
X136144911Y-67100165D01*
X135924091Y-67133955D01*
X135711756Y-67203357D01*
X135513607Y-67306507D01*
X135509474Y-67309610D01*
X135509471Y-67309612D01*
X135339100Y-67437530D01*
X135334965Y-67440635D01*
X135309541Y-67467240D01*
X135241280Y-67538671D01*
X135180629Y-67602138D01*
X135073201Y-67759621D01*
X135018293Y-67804621D01*
X134947768Y-67812792D01*
X134884021Y-67781538D01*
X134863324Y-67757054D01*
X134782822Y-67632617D01*
X134782820Y-67632614D01*
X134780014Y-67628277D01*
X134629670Y-67463051D01*
X134625619Y-67459852D01*
X134625615Y-67459848D01*
X134458414Y-67327800D01*
X134458410Y-67327798D01*
X134454359Y-67324598D01*
X134418028Y-67304542D01*
X134402136Y-67295769D01*
X134258789Y-67216638D01*
X134253920Y-67214914D01*
X134253916Y-67214912D01*
X134053087Y-67143795D01*
X134053083Y-67143794D01*
X134048212Y-67142069D01*
X134043119Y-67141162D01*
X134043116Y-67141161D01*
X133833373Y-67103800D01*
X133833367Y-67103799D01*
X133828284Y-67102894D01*
X133754452Y-67101992D01*
X133610081Y-67100228D01*
X133610079Y-67100228D01*
X133604911Y-67100165D01*
X133384091Y-67133955D01*
X133171756Y-67203357D01*
X132973607Y-67306507D01*
X132969474Y-67309610D01*
X132969471Y-67309612D01*
X132799100Y-67437530D01*
X132794965Y-67440635D01*
X132769541Y-67467240D01*
X132701280Y-67538671D01*
X132640629Y-67602138D01*
X132637720Y-67606403D01*
X132637714Y-67606411D01*
X132625404Y-67624457D01*
X132533204Y-67759618D01*
X132532898Y-67760066D01*
X132477987Y-67805069D01*
X132407462Y-67813240D01*
X132343715Y-67781986D01*
X132323018Y-67757502D01*
X132242426Y-67632926D01*
X132236136Y-67624757D01*
X132092806Y-67467240D01*
X132085273Y-67460215D01*
X131918139Y-67328222D01*
X131909552Y-67322517D01*
X131723117Y-67219599D01*
X131713705Y-67215369D01*
X131512959Y-67144280D01*
X131502988Y-67141646D01*
X131431837Y-67128972D01*
X131418540Y-67130432D01*
X131414000Y-67144989D01*
X131414000Y-69778517D01*
X130906000Y-69778517D01*
X130906000Y-68732115D01*
X130901525Y-68716876D01*
X130900135Y-68715671D01*
X130892452Y-68714000D01*
X129843225Y-68714000D01*
X129829694Y-68717973D01*
X129828257Y-68727966D01*
X118016044Y-68727966D01*
X118044610Y-68685214D01*
X118046904Y-68681781D01*
X118062718Y-68649715D01*
X118119010Y-68535565D01*
X118183646Y-68404496D01*
X118184975Y-68400581D01*
X118255038Y-68194183D01*
X129824389Y-68194183D01*
X129825912Y-68202607D01*
X129838292Y-68206000D01*
X130887885Y-68206000D01*
X130903124Y-68201525D01*
X130904329Y-68200135D01*
X130906000Y-68192452D01*
X130906000Y-67143102D01*
X130902082Y-67129758D01*
X130887806Y-67127771D01*
X130849324Y-67133660D01*
X130839288Y-67136051D01*
X130636868Y-67202212D01*
X130627359Y-67206209D01*
X130438463Y-67304542D01*
X130429738Y-67310036D01*
X130259433Y-67437905D01*
X130251726Y-67444748D01*
X130104590Y-67598717D01*
X130098104Y-67606727D01*
X129978098Y-67782649D01*
X129973000Y-67791623D01*
X129883338Y-67984783D01*
X129879775Y-67994470D01*
X129824389Y-68194183D01*
X118255038Y-68194183D01*
X118281699Y-68115642D01*
X118281700Y-68115639D01*
X118283025Y-68111735D01*
X118328117Y-67885039D01*
X118342536Y-67812550D01*
X118342536Y-67812547D01*
X118343340Y-67808507D01*
X118345079Y-67781986D01*
X118363291Y-67504119D01*
X118363561Y-67500000D01*
X118346961Y-67246739D01*
X118343610Y-67195608D01*
X118343609Y-67195604D01*
X118343340Y-67191493D01*
X118336954Y-67159385D01*
X118325513Y-67101869D01*
X118283025Y-66888265D01*
X118183646Y-66595504D01*
X118181822Y-66591806D01*
X118181820Y-66591800D01*
X118048730Y-66321923D01*
X118046904Y-66318220D01*
X118044610Y-66314787D01*
X118044609Y-66314785D01*
X117877432Y-66064586D01*
X117877428Y-66064581D01*
X117875139Y-66061155D01*
X117872425Y-66058061D01*
X117872421Y-66058055D01*
X117673999Y-65831799D01*
X117671290Y-65828710D01*
X117668201Y-65826001D01*
X117441945Y-65627579D01*
X117441939Y-65627575D01*
X117438845Y-65624861D01*
X117435419Y-65622572D01*
X117435414Y-65622568D01*
X117185215Y-65455391D01*
X117185213Y-65455390D01*
X117181780Y-65453096D01*
X117132352Y-65428721D01*
X116908200Y-65318180D01*
X116908192Y-65318177D01*
X116904496Y-65316354D01*
X116900581Y-65315025D01*
X116615642Y-65218301D01*
X116615639Y-65218300D01*
X116611735Y-65216975D01*
X116385039Y-65171883D01*
X116312550Y-65157464D01*
X116312547Y-65157464D01*
X116308507Y-65156660D01*
X116304396Y-65156391D01*
X116304392Y-65156390D01*
X116079263Y-65141634D01*
X116079254Y-65141634D01*
X116077214Y-65141500D01*
X115922786Y-65141500D01*
X115920746Y-65141634D01*
X115920737Y-65141634D01*
X115695608Y-65156390D01*
X115695604Y-65156391D01*
X115691493Y-65156660D01*
X115687453Y-65157464D01*
X115687450Y-65157464D01*
X115614961Y-65171883D01*
X115388265Y-65216975D01*
X115384361Y-65218300D01*
X115384358Y-65218301D01*
X115099419Y-65315025D01*
X115095504Y-65316354D01*
X115091808Y-65318177D01*
X115091800Y-65318180D01*
X114867648Y-65428721D01*
X114818220Y-65453096D01*
X114814787Y-65455390D01*
X114814785Y-65455391D01*
X114564586Y-65622568D01*
X114564581Y-65622572D01*
X114561155Y-65624861D01*
X114558061Y-65627575D01*
X114558055Y-65627579D01*
X114331799Y-65826001D01*
X114328710Y-65828710D01*
X114326001Y-65831799D01*
X114127579Y-66058055D01*
X114127575Y-66058061D01*
X114124861Y-66061155D01*
X113953096Y-66318219D01*
X113816354Y-66595504D01*
X113716975Y-66888265D01*
X113674487Y-67101869D01*
X113663047Y-67159385D01*
X113656660Y-67191493D01*
X113656391Y-67195604D01*
X113656390Y-67195608D01*
X113653039Y-67246739D01*
X113636439Y-67500000D01*
X111000000Y-67500000D01*
X111000000Y-63626000D01*
X111020002Y-63557879D01*
X111073658Y-63511386D01*
X111126000Y-63500000D01*
X186874000Y-63500000D01*
X186942121Y-63520002D01*
G37*
%TD.AperFunction*%
%TA.AperFunction,Conductor*%
G36*
X152832026Y-89455144D02*
G01*
X152859875Y-89486994D01*
X152919987Y-89585088D01*
X153066250Y-89753938D01*
X153191755Y-89858134D01*
X153238126Y-89896632D01*
X153237136Y-89897825D01*
X153277100Y-89947825D01*
X153286500Y-89995578D01*
X153286500Y-91090543D01*
X153284949Y-91110255D01*
X153282850Y-91123507D01*
X153283195Y-91130094D01*
X153283195Y-91130098D01*
X153286327Y-91189850D01*
X153286500Y-91196445D01*
X153286500Y-91216306D01*
X153286844Y-91219577D01*
X153288576Y-91236059D01*
X153289093Y-91242633D01*
X153292069Y-91299409D01*
X153292570Y-91308971D01*
X153296042Y-91321929D01*
X153299645Y-91341372D01*
X153301046Y-91354702D01*
X153321578Y-91417894D01*
X153323444Y-91424196D01*
X153340638Y-91488363D01*
X153343634Y-91494242D01*
X153343637Y-91494251D01*
X153346728Y-91500317D01*
X153354292Y-91518579D01*
X153356392Y-91525043D01*
X153356395Y-91525051D01*
X153358436Y-91531331D01*
X153361738Y-91537050D01*
X153361740Y-91537055D01*
X153391654Y-91588867D01*
X153394787Y-91594637D01*
X153424953Y-91653839D01*
X153429109Y-91658971D01*
X153433391Y-91664259D01*
X153444589Y-91680552D01*
X153451296Y-91692169D01*
X153455713Y-91697075D01*
X153455717Y-91697080D01*
X153495747Y-91741538D01*
X153500031Y-91746554D01*
X153510441Y-91759409D01*
X153512528Y-91761986D01*
X153526573Y-91776031D01*
X153531114Y-91780816D01*
X153575566Y-91830185D01*
X153586426Y-91838075D01*
X153601454Y-91850912D01*
X155756018Y-94005475D01*
X157371460Y-95620917D01*
X157405486Y-95683229D01*
X157400421Y-95754044D01*
X157357874Y-95810880D01*
X157291354Y-95835691D01*
X157252951Y-95832531D01*
X157054046Y-95784778D01*
X157054045Y-95784778D01*
X157048589Y-95783468D01*
X156964525Y-95778621D01*
X156829917Y-95770860D01*
X156829914Y-95770860D01*
X156824310Y-95770537D01*
X156601285Y-95797525D01*
X156386565Y-95863582D01*
X156381585Y-95866152D01*
X156381581Y-95866154D01*
X156191919Y-95964046D01*
X156186936Y-95966618D01*
X156008708Y-96103377D01*
X155857515Y-96269536D01*
X155854537Y-96274283D01*
X155854535Y-96274286D01*
X155781772Y-96390282D01*
X155738136Y-96459844D01*
X155710786Y-96527878D01*
X155666822Y-96583620D01*
X155599697Y-96606745D01*
X155530726Y-96589908D01*
X155480155Y-96535124D01*
X155413603Y-96395597D01*
X155407918Y-96385984D01*
X155283425Y-96212733D01*
X155276117Y-96204267D01*
X155122918Y-96055808D01*
X155114221Y-96048765D01*
X154937156Y-95929781D01*
X154927358Y-95924395D01*
X154732010Y-95838643D01*
X154721418Y-95835078D01*
X154595616Y-95804876D01*
X154581530Y-95805581D01*
X154578000Y-95814460D01*
X154578000Y-97911500D01*
X154557998Y-97979621D01*
X154504342Y-98026114D01*
X154452000Y-98037500D01*
X154196000Y-98037500D01*
X154127879Y-98017498D01*
X154081386Y-97963842D01*
X154070000Y-97911500D01*
X154070000Y-95815089D01*
X154065895Y-95801107D01*
X154056272Y-95799614D01*
X154056027Y-95799666D01*
X153852117Y-95862398D01*
X153841771Y-95866619D01*
X153652186Y-95964471D01*
X153642755Y-95970457D01*
X153473499Y-96100332D01*
X153465276Y-96107893D01*
X153321688Y-96265694D01*
X153314936Y-96274589D01*
X153275237Y-96337875D01*
X153222093Y-96384952D01*
X153151934Y-96395824D01*
X153087035Y-96367040D01*
X153048000Y-96307737D01*
X153042500Y-96270918D01*
X153042500Y-96235366D01*
X153035745Y-96173184D01*
X152984615Y-96036795D01*
X152897261Y-95920239D01*
X152780705Y-95832885D01*
X152644316Y-95781755D01*
X152582134Y-95775000D01*
X150985866Y-95775000D01*
X150923684Y-95781755D01*
X150787295Y-95832885D01*
X150670739Y-95920239D01*
X150583385Y-96036795D01*
X150532255Y-96173184D01*
X150525500Y-96235366D01*
X150525500Y-96268821D01*
X150505498Y-96336942D01*
X150451842Y-96383435D01*
X150381568Y-96393539D01*
X150316988Y-96364045D01*
X150297177Y-96342347D01*
X150287847Y-96329362D01*
X150253044Y-96280929D01*
X150203805Y-96212404D01*
X150203800Y-96212399D01*
X150200529Y-96207846D01*
X150089752Y-96100495D01*
X150043229Y-96055411D01*
X150043226Y-96055409D01*
X150039201Y-96051508D01*
X149852738Y-95926210D01*
X149647033Y-95835912D01*
X149641582Y-95834603D01*
X149641578Y-95834602D01*
X149434046Y-95784778D01*
X149434045Y-95784778D01*
X149428589Y-95783468D01*
X149344525Y-95778621D01*
X149209917Y-95770860D01*
X149209914Y-95770860D01*
X149204310Y-95770537D01*
X148981285Y-95797525D01*
X148766565Y-95863582D01*
X148761585Y-95866152D01*
X148761581Y-95866154D01*
X148698895Y-95898509D01*
X148629188Y-95911978D01*
X148563264Y-95885623D01*
X148522054Y-95827810D01*
X148518643Y-95756896D01*
X148552010Y-95697448D01*
X152198546Y-92050912D01*
X152213574Y-92038075D01*
X152224434Y-92030185D01*
X152268886Y-91980816D01*
X152273427Y-91976031D01*
X152287472Y-91961986D01*
X152289559Y-91959409D01*
X152299969Y-91946554D01*
X152304253Y-91941538D01*
X152344283Y-91897080D01*
X152344287Y-91897075D01*
X152348704Y-91892169D01*
X152355411Y-91880552D01*
X152366609Y-91864259D01*
X152370891Y-91858971D01*
X152375047Y-91853839D01*
X152405213Y-91794637D01*
X152408346Y-91788867D01*
X152438260Y-91737055D01*
X152438262Y-91737050D01*
X152441564Y-91731331D01*
X152443605Y-91725051D01*
X152443608Y-91725043D01*
X152445708Y-91718579D01*
X152453272Y-91700317D01*
X152456363Y-91694251D01*
X152456366Y-91694242D01*
X152459362Y-91688363D01*
X152476556Y-91624196D01*
X152478422Y-91617894D01*
X152498954Y-91554702D01*
X152500355Y-91541372D01*
X152503958Y-91521929D01*
X152507430Y-91508971D01*
X152508845Y-91481985D01*
X152510907Y-91442633D01*
X152511424Y-91436059D01*
X152513156Y-91419577D01*
X152513500Y-91416306D01*
X152513500Y-91396445D01*
X152513673Y-91389850D01*
X152516805Y-91330098D01*
X152516805Y-91330094D01*
X152517150Y-91323507D01*
X152515051Y-91310253D01*
X152513500Y-91290544D01*
X152513500Y-89710461D01*
X152537177Y-89636935D01*
X152648453Y-89482077D01*
X152649776Y-89483028D01*
X152696645Y-89439857D01*
X152766580Y-89427625D01*
X152832026Y-89455144D01*
G37*
%TD.AperFunction*%
%TD*%
M02*
