%TF.GenerationSoftware,KiCad,Pcbnew,(6.0.7)*%
%TF.CreationDate,2023-11-05T23:46:48-03:00*%
%TF.ProjectId,Puente_H,5075656e-7465-45f4-982e-6b696361645f,v1*%
%TF.SameCoordinates,Original*%
%TF.FileFunction,Drillmap*%
%TF.FilePolarity,Positive*%
%FSLAX45Y45*%
G04 Gerber Fmt 4.5, Leading zero omitted, Abs format (unit mm)*
G04 Created by KiCad (PCBNEW (6.0.7)) date 2023-11-05 23:46:48*
%MOMM*%
%LPD*%
G01*
G04 APERTURE LIST*
%ADD10C,0.100000*%
%ADD11C,0.200000*%
G04 APERTURE END LIST*
D10*
X19155000Y-11540950D02*
X7155000Y-11540950D01*
X7155000Y-11540950D02*
X7155000Y-3540950D01*
X7155000Y-3540950D02*
X19155000Y-3540950D01*
X19155000Y-3540950D02*
X19155000Y-11540950D01*
D11*
X7407619Y-11856426D02*
X7407619Y-11656426D01*
X7455238Y-11656426D01*
X7483809Y-11665950D01*
X7502857Y-11684998D01*
X7512381Y-11704045D01*
X7521905Y-11742140D01*
X7521905Y-11770712D01*
X7512381Y-11808807D01*
X7502857Y-11827855D01*
X7483809Y-11846902D01*
X7455238Y-11856426D01*
X7407619Y-11856426D01*
X7607619Y-11856426D02*
X7607619Y-11723093D01*
X7607619Y-11761188D02*
X7617143Y-11742140D01*
X7626667Y-11732617D01*
X7645714Y-11723093D01*
X7664762Y-11723093D01*
X7731428Y-11856426D02*
X7731428Y-11723093D01*
X7731428Y-11656426D02*
X7721905Y-11665950D01*
X7731428Y-11675474D01*
X7740952Y-11665950D01*
X7731428Y-11656426D01*
X7731428Y-11675474D01*
X7855238Y-11856426D02*
X7836190Y-11846902D01*
X7826667Y-11827855D01*
X7826667Y-11656426D01*
X7960000Y-11856426D02*
X7940952Y-11846902D01*
X7931428Y-11827855D01*
X7931428Y-11656426D01*
X8188571Y-11856426D02*
X8188571Y-11656426D01*
X8255238Y-11799283D01*
X8321905Y-11656426D01*
X8321905Y-11856426D01*
X8502857Y-11856426D02*
X8502857Y-11751664D01*
X8493333Y-11732617D01*
X8474286Y-11723093D01*
X8436190Y-11723093D01*
X8417143Y-11732617D01*
X8502857Y-11846902D02*
X8483810Y-11856426D01*
X8436190Y-11856426D01*
X8417143Y-11846902D01*
X8407619Y-11827855D01*
X8407619Y-11808807D01*
X8417143Y-11789759D01*
X8436190Y-11780236D01*
X8483810Y-11780236D01*
X8502857Y-11770712D01*
X8598095Y-11723093D02*
X8598095Y-11923093D01*
X8598095Y-11732617D02*
X8617143Y-11723093D01*
X8655238Y-11723093D01*
X8674286Y-11732617D01*
X8683810Y-11742140D01*
X8693333Y-11761188D01*
X8693333Y-11818331D01*
X8683810Y-11837378D01*
X8674286Y-11846902D01*
X8655238Y-11856426D01*
X8617143Y-11856426D01*
X8598095Y-11846902D01*
X8779048Y-11837378D02*
X8788571Y-11846902D01*
X8779048Y-11856426D01*
X8769524Y-11846902D01*
X8779048Y-11837378D01*
X8779048Y-11856426D01*
X8779048Y-11732617D02*
X8788571Y-11742140D01*
X8779048Y-11751664D01*
X8769524Y-11742140D01*
X8779048Y-11732617D01*
X8779048Y-11751664D01*
M02*
