%TF.GenerationSoftware,KiCad,Pcbnew,(6.0.7)*%
%TF.CreationDate,2023-11-05T23:44:51-03:00*%
%TF.ProjectId,Puente_H,5075656e-7465-45f4-982e-6b696361645f,v1*%
%TF.SameCoordinates,Original*%
%TF.FileFunction,Soldermask,Bot*%
%TF.FilePolarity,Negative*%
%FSLAX46Y46*%
G04 Gerber Fmt 4.6, Leading zero omitted, Abs format (unit mm)*
G04 Created by KiCad (PCBNEW (6.0.7)) date 2023-11-05 23:44:51*
%MOMM*%
%LPD*%
G01*
G04 APERTURE LIST*
%ADD10R,3.000000X3.000000*%
%ADD11C,3.000000*%
%ADD12R,1.500000X1.500000*%
%ADD13C,1.500000*%
%ADD14R,1.600000X1.600000*%
%ADD15O,1.600000X1.600000*%
%ADD16C,1.600000*%
%ADD17C,1.400000*%
%ADD18R,2.400000X1.600000*%
%ADD19O,2.400000X1.600000*%
%ADD20R,2.200000X2.200000*%
%ADD21O,2.200000X2.200000*%
%ADD22R,2.400000X2.400000*%
%ADD23C,2.400000*%
%ADD24R,2.000000X1.905000*%
%ADD25O,2.000000X1.905000*%
%ADD26R,2.500000X2.500000*%
%ADD27C,2.500000*%
G04 APERTURE END LIST*
D10*
%TO.C,J14*%
X173658000Y-110837500D03*
D11*
X168578000Y-110837500D03*
X163498000Y-110837500D03*
%TD*%
D10*
%TO.C,J13*%
X186358000Y-96105500D03*
D11*
X186358000Y-101185500D03*
X186358000Y-106265500D03*
X186358000Y-111345500D03*
%TD*%
D10*
%TO.C,J4*%
X186358000Y-40225500D03*
D11*
X186358000Y-45305500D03*
%TD*%
D10*
%TO.C,J3*%
X186436000Y-81147500D03*
D11*
X186436000Y-86227500D03*
%TD*%
D12*
%TO.C,Q3*%
X158545000Y-96994500D03*
D13*
X158545000Y-99534500D03*
X158545000Y-102074500D03*
%TD*%
D14*
%TO.C,D4*%
X125144000Y-109821500D03*
D15*
X132764000Y-109821500D03*
%TD*%
D16*
%TO.C,R15*%
X115746000Y-53941500D03*
D15*
X115746000Y-61561500D03*
%TD*%
D16*
%TO.C,R10*%
X92018000Y-40225500D03*
D15*
X84398000Y-40225500D03*
%TD*%
D16*
%TO.C,C8*%
X109376000Y-94581500D03*
X106876000Y-94581500D03*
%TD*%
D17*
%TO.C,J7*%
X93902000Y-81373500D03*
%TD*%
D14*
%TO.C,D6*%
X112190000Y-47083500D03*
D15*
X112190000Y-39463500D03*
%TD*%
D14*
%TO.C,U3*%
X103061000Y-61805500D03*
D15*
X105601000Y-61805500D03*
X108141000Y-61805500D03*
X108141000Y-54185500D03*
X105601000Y-54185500D03*
X103061000Y-54185500D03*
%TD*%
%TO.C,U6*%
X103061000Y-81373500D03*
X105601000Y-81373500D03*
X108141000Y-81373500D03*
X108141000Y-88993500D03*
X105601000Y-88993500D03*
D14*
X103061000Y-88993500D03*
%TD*%
D18*
%TO.C,U4*%
X90849000Y-105488500D03*
D19*
X90849000Y-102948500D03*
X90849000Y-100408500D03*
X90849000Y-97868500D03*
X90849000Y-95328500D03*
X90849000Y-92788500D03*
X90849000Y-90248500D03*
X90849000Y-87708500D03*
X80689000Y-87708500D03*
X80689000Y-90248500D03*
X80689000Y-92788500D03*
X80689000Y-95328500D03*
X80689000Y-97868500D03*
X80689000Y-100408500D03*
X80689000Y-102948500D03*
X80689000Y-105488500D03*
%TD*%
D20*
%TO.C,D1*%
X163498000Y-65625500D03*
D21*
X163498000Y-55465500D03*
%TD*%
D17*
%TO.C,J10*%
X179246000Y-111345500D03*
%TD*%
D14*
%TO.C,D12*%
X116810000Y-89247500D03*
D15*
X116810000Y-81627500D03*
%TD*%
D17*
%TO.C,J12*%
X177722000Y-104233500D03*
%TD*%
D16*
%TO.C,R1*%
X165530000Y-80611500D03*
D15*
X165530000Y-88231500D03*
%TD*%
D22*
%TO.C,C3*%
X179246000Y-53433500D03*
D23*
X171746000Y-53433500D03*
%TD*%
D14*
%TO.C,D3*%
X154100000Y-91533500D03*
D15*
X146480000Y-91533500D03*
%TD*%
D16*
%TO.C,C9*%
X109441000Y-98645500D03*
X106941000Y-98645500D03*
%TD*%
%TO.C,R8*%
X133526000Y-95851500D03*
D15*
X133526000Y-103471500D03*
%TD*%
D16*
%TO.C,R7*%
X92018000Y-53433500D03*
D15*
X84398000Y-53433500D03*
%TD*%
D16*
%TO.C,R23*%
X95680000Y-94581500D03*
D15*
X103300000Y-94581500D03*
%TD*%
D16*
%TO.C,R18*%
X95680000Y-98645500D03*
D15*
X103300000Y-98645500D03*
%TD*%
D14*
%TO.C,U1*%
X144692000Y-103334500D03*
D15*
X144692000Y-100794500D03*
X144692000Y-98254500D03*
X144692000Y-95714500D03*
X137072000Y-95714500D03*
X137072000Y-98254500D03*
X137072000Y-100794500D03*
X137072000Y-103334500D03*
%TD*%
D16*
%TO.C,R4*%
X166292000Y-37685500D03*
D15*
X173912000Y-37685500D03*
%TD*%
D22*
%TO.C,C2*%
X171669245Y-70705500D03*
D23*
X179169245Y-70705500D03*
%TD*%
D16*
%TO.C,R29*%
X84504000Y-62069500D03*
D15*
X92124000Y-62069500D03*
%TD*%
D16*
%TO.C,R2*%
X159434000Y-89755500D03*
D15*
X159434000Y-82135500D03*
%TD*%
D16*
%TO.C,R11*%
X92018000Y-49369500D03*
D15*
X84398000Y-49369500D03*
%TD*%
D16*
%TO.C,R6*%
X92018000Y-44289500D03*
D15*
X84398000Y-44289500D03*
%TD*%
D16*
%TO.C,R17*%
X92886000Y-110329500D03*
D15*
X100506000Y-110329500D03*
%TD*%
D16*
%TO.C,R24*%
X112698000Y-66387500D03*
D15*
X112698000Y-74007500D03*
%TD*%
D16*
%TO.C,R25*%
X113254000Y-81627500D03*
D15*
X113254000Y-89247500D03*
%TD*%
D16*
%TO.C,R3*%
X134542000Y-37685500D03*
D15*
X142162000Y-37685500D03*
%TD*%
D16*
%TO.C,R19*%
X103808000Y-106773500D03*
D15*
X111428000Y-106773500D03*
%TD*%
D12*
%TO.C,Q2*%
X81202000Y-51041500D03*
D13*
X78662000Y-51041500D03*
X76122000Y-51041500D03*
%TD*%
D24*
%TO.C,Q7*%
X126343000Y-85437500D03*
D25*
X126343000Y-82897500D03*
X126343000Y-80357500D03*
%TD*%
D17*
%TO.C,J2*%
X122350000Y-94073500D03*
%TD*%
%TO.C,J1*%
X122350000Y-103217500D03*
%TD*%
D16*
%TO.C,R14*%
X95934000Y-43527500D03*
D15*
X95934000Y-51147500D03*
%TD*%
D16*
%TO.C,R5*%
X134796000Y-92041500D03*
D15*
X142416000Y-92041500D03*
%TD*%
D17*
%TO.C,J8*%
X85774000Y-78325500D03*
%TD*%
D14*
%TO.C,D5*%
X112190000Y-53941500D03*
D15*
X112190000Y-61561500D03*
%TD*%
D20*
%TO.C,D8*%
X120318000Y-39209500D03*
D21*
X120318000Y-49369500D03*
%TD*%
D16*
%TO.C,R26*%
X95934000Y-62831500D03*
D15*
X95934000Y-55211500D03*
%TD*%
D14*
%TO.C,D11*%
X116254000Y-73753500D03*
D15*
X116254000Y-66133500D03*
%TD*%
D16*
%TO.C,R21*%
X89883000Y-110329500D03*
D15*
X82263000Y-110329500D03*
%TD*%
D17*
%TO.C,J11*%
X156894000Y-113377500D03*
%TD*%
D16*
%TO.C,R20*%
X103300000Y-102709500D03*
D15*
X95680000Y-102709500D03*
%TD*%
D12*
%TO.C,Q9*%
X81202000Y-60185500D03*
D13*
X78662000Y-60185500D03*
X76122000Y-60185500D03*
%TD*%
D20*
%TO.C,D9*%
X140130000Y-83913500D03*
D21*
X129970000Y-83913500D03*
%TD*%
D20*
%TO.C,D10*%
X120318000Y-76801500D03*
D21*
X120318000Y-66641500D03*
%TD*%
D12*
%TO.C,Q8*%
X81202000Y-68821500D03*
D13*
X78662000Y-68821500D03*
X76122000Y-68821500D03*
%TD*%
D17*
%TO.C,J5*%
X122350000Y-100677500D03*
%TD*%
%TO.C,J6*%
X85774000Y-81373500D03*
%TD*%
D16*
%TO.C,C12*%
X170122000Y-104614500D03*
X172622000Y-104614500D03*
%TD*%
D14*
%TO.C,C6*%
X118452379Y-109313500D03*
D16*
X115952379Y-109313500D03*
%TD*%
D24*
%TO.C,Q6*%
X126343000Y-73753500D03*
D25*
X126343000Y-71213500D03*
X126343000Y-68673500D03*
%TD*%
D17*
%TO.C,J9*%
X93902000Y-78325500D03*
%TD*%
D16*
%TO.C,R27*%
X103808000Y-77817500D03*
D15*
X111428000Y-77817500D03*
%TD*%
D14*
%TO.C,U7*%
X103061000Y-74505500D03*
D15*
X105601000Y-74505500D03*
X108141000Y-74505500D03*
X108141000Y-66885500D03*
X105601000Y-66885500D03*
X103061000Y-66885500D03*
%TD*%
D16*
%TO.C,R13*%
X107872000Y-50893500D03*
D15*
X115492000Y-50893500D03*
%TD*%
D16*
%TO.C,C10*%
X76376000Y-97863500D03*
X76376000Y-95363500D03*
%TD*%
%TO.C,R30*%
X84504000Y-66641500D03*
D15*
X92124000Y-66641500D03*
%TD*%
D14*
%TO.C,C5*%
X149615620Y-104233500D03*
D16*
X152115620Y-104233500D03*
%TD*%
D14*
%TO.C,U2*%
X103046000Y-47581500D03*
D15*
X105586000Y-47581500D03*
X108126000Y-47581500D03*
X108126000Y-39961500D03*
X105586000Y-39961500D03*
X103046000Y-39961500D03*
%TD*%
D24*
%TO.C,U5*%
X169772000Y-95089500D03*
D25*
X169772000Y-97629500D03*
X169772000Y-100169500D03*
%TD*%
D26*
%TO.C,T1*%
X138650000Y-65625500D03*
D27*
X138650000Y-55465500D03*
X154510000Y-72550500D03*
X154510000Y-47150500D03*
%TD*%
D24*
%TO.C,Q4*%
X126343000Y-50385500D03*
D25*
X126343000Y-47845500D03*
X126343000Y-45305500D03*
%TD*%
D16*
%TO.C,R16*%
X115746000Y-46829500D03*
D15*
X115746000Y-39209500D03*
%TD*%
D20*
%TO.C,D2*%
X162482000Y-42765500D03*
D21*
X172642000Y-42765500D03*
%TD*%
D16*
%TO.C,R22*%
X76630000Y-83405500D03*
D15*
X76630000Y-75785500D03*
%TD*%
D24*
%TO.C,Q5*%
X126343000Y-62069500D03*
D25*
X126343000Y-59529500D03*
X126343000Y-56989500D03*
%TD*%
D20*
%TO.C,D7*%
X120318000Y-52925500D03*
D21*
X120318000Y-63085500D03*
%TD*%
D16*
%TO.C,R31*%
X84504000Y-58005500D03*
D15*
X92124000Y-58005500D03*
%TD*%
D16*
%TO.C,C4*%
X142162000Y-107154500D03*
X144662000Y-107154500D03*
%TD*%
D15*
%TO.C,R28*%
X92124000Y-70705500D03*
D16*
X84504000Y-70705500D03*
%TD*%
%TO.C,C11*%
X170122000Y-90517500D03*
X172622000Y-90517500D03*
%TD*%
%TO.C,C1*%
X135812000Y-107154500D03*
X138312000Y-107154500D03*
%TD*%
%TO.C,R9*%
X154862000Y-98264500D03*
D15*
X147242000Y-98264500D03*
%TD*%
D12*
%TO.C,Q1*%
X81202000Y-42405500D03*
D13*
X78662000Y-42405500D03*
X76122000Y-42405500D03*
%TD*%
D16*
%TO.C,C7*%
X106941000Y-102709500D03*
X109441000Y-102709500D03*
%TD*%
%TO.C,R12*%
X147242000Y-94454500D03*
D15*
X154862000Y-94454500D03*
%TD*%
M02*
