M48
; DRILL file {KiCad (6.0.7)} date Sun Nov  5 23:47:34 2023
; FORMAT={-:-/ absolute / inch / decimal}
; #@! TF.CreationDate,2023-11-05T23:47:34-03:00
; #@! TF.GenerationSoftware,Kicad,Pcbnew,(6.0.7)
; #@! TF.FileFunction,Plated,1,2,PTH
FMAT,2
INCH
; #@! TA.AperFunction,Plated,PTH,ComponentDrill
T1C0.0276
; #@! TA.AperFunction,Plated,PTH,ComponentDrill
T2C0.0315
; #@! TA.AperFunction,Plated,PTH,ComponentDrill
T3C0.0319
; #@! TA.AperFunction,Plated,PTH,ComponentDrill
T4C0.0433
; #@! TA.AperFunction,Plated,PTH,ComponentDrill
T5C0.0472
; #@! TA.AperFunction,Plated,PTH,ComponentDrill
T6C0.0598
; #@! TA.AperFunction,Plated,PTH,ViaDrill
T7C0.1181
%
G90
G05
T1
X3.3769Y-3.0837
X3.3769Y-3.2037
X3.6969Y-3.0837
X3.6969Y-3.2037
X4.8169Y-3.7037
X4.8169Y-3.9637
X4.8169Y-4.0637
X6.1769Y-4.4637
X6.9969Y-4.1037
X7.0569Y-4.3837
T2
X2.9969Y-1.6695
X2.9969Y-2.0095
X2.9969Y-2.3695
X2.9969Y-2.7095
X3.0069Y-3.7545
X3.0069Y-3.8529
X3.0169Y-2.9837
X3.0169Y-3.2837
X3.0969Y-1.6695
X3.0969Y-2.0095
X3.0969Y-2.3695
X3.0969Y-2.7095
X3.1767Y-3.4531
X3.1767Y-3.5531
X3.1767Y-3.6531
X3.1767Y-3.7531
X3.1767Y-3.8531
X3.1767Y-3.9531
X3.1767Y-4.0531
X3.1767Y-4.1531
X3.1969Y-1.6695
X3.1969Y-2.0095
X3.1969Y-2.3695
X3.1969Y-2.7095
X3.2387Y-4.3437
X3.3228Y-1.5837
X3.3228Y-1.7437
X3.3228Y-1.9437
X3.3228Y-2.1037
X3.3269Y-2.2837
X3.3269Y-2.4437
X3.3269Y-2.6237
X3.3269Y-2.7837
X3.5387Y-4.3437
X3.5767Y-3.4531
X3.5767Y-3.5531
X3.5767Y-3.6531
X3.5767Y-3.7531
X3.5767Y-3.8531
X3.5767Y-3.9531
X3.5767Y-4.0531
X3.5767Y-4.1531
X3.6228Y-1.5837
X3.6228Y-1.7437
X3.6228Y-1.9437
X3.6228Y-2.1037
X3.6269Y-2.2837
X3.6269Y-2.4437
X3.6269Y-2.6237
X3.6269Y-2.7837
X3.6569Y-4.3437
X3.7669Y-3.7237
X3.7669Y-3.8837
X3.7669Y-4.0437
X3.7769Y-1.7137
X3.7769Y-2.0137
X3.7769Y-2.1737
X3.7769Y-2.4737
X3.9569Y-4.3437
X4.0569Y-1.5733
X4.0569Y-1.8733
X4.0575Y-2.1333
X4.0575Y-2.4333
X4.0575Y-2.6333
X4.0575Y-2.9333
X4.0575Y-3.2037
X4.0575Y-3.5037
X4.0669Y-3.7237
X4.0669Y-3.8837
X4.0669Y-4.0437
X4.0869Y-3.0637
X4.0869Y-4.2037
X4.1569Y-1.5733
X4.1569Y-1.8733
X4.1575Y-2.1333
X4.1575Y-2.4333
X4.1575Y-2.6333
X4.1575Y-2.9333
X4.1575Y-3.2037
X4.1575Y-3.5037
X4.2077Y-3.7237
X4.2103Y-3.8837
X4.2103Y-4.0437
X4.2469Y-2.0037
X4.2569Y-1.5733
X4.2569Y-1.8733
X4.2575Y-2.1333
X4.2575Y-2.4333
X4.2575Y-2.6333
X4.2575Y-2.9333
X4.2575Y-3.2037
X4.2575Y-3.5037
X4.3061Y-3.7237
X4.3087Y-3.8837
X4.3087Y-4.0437
X4.3869Y-3.0637
X4.3869Y-4.2037
X4.4169Y-1.5537
X4.4169Y-1.8537
X4.4169Y-2.1237
X4.4169Y-2.4237
X4.4369Y-2.6137
X4.4369Y-2.9137
X4.4588Y-3.2137
X4.4588Y-3.5137
X4.5469Y-2.0037
X4.5569Y-1.5437
X4.5569Y-1.8437
X4.5569Y-2.1237
X4.5569Y-2.4237
X4.5651Y-4.3037
X4.5769Y-2.6037
X4.5769Y-2.9037
X4.5988Y-3.2137
X4.5988Y-3.5137
X4.6635Y-4.3037
X4.9269Y-4.3237
X5.2269Y-4.3237
X5.2569Y-3.7737
X5.2569Y-4.0737
X5.2969Y-1.4837
X5.3069Y-3.6237
X5.3469Y-4.2187
X5.3965Y-3.7683
X5.3965Y-3.8683
X5.3965Y-3.9683
X5.3965Y-4.0683
X5.4454Y-4.2187
X5.5969Y-1.4837
X5.5969Y-4.2187
X5.6069Y-3.6237
X5.6954Y-4.2187
X5.6965Y-3.7683
X5.6965Y-3.8683
X5.6965Y-3.9683
X5.6965Y-4.0683
X5.7669Y-3.6037
X5.7969Y-3.7187
X5.7969Y-3.8687
X5.8904Y-4.1037
X5.9888Y-4.1037
X6.0669Y-3.6037
X6.0969Y-3.7187
X6.0969Y-3.8687
X6.2419Y-3.8187
X6.2419Y-3.9187
X6.2419Y-4.0187
X6.2769Y-3.2337
X6.2769Y-3.5337
X6.5169Y-3.1737
X6.5169Y-3.4737
X6.5469Y-1.4837
X6.6977Y-3.5637
X6.6977Y-4.1187
X6.7961Y-3.5637
X6.7961Y-4.1187
X6.8469Y-1.4837
T3
X5.4587Y-2.1837
X5.4587Y-2.5837
X6.0831Y-1.8563
X6.0831Y-2.8563
T4
X4.7369Y-1.5437
X4.7369Y-1.9437
X4.7369Y-2.0837
X4.7369Y-2.4837
X4.7369Y-2.6237
X4.7369Y-3.0237
X4.9741Y-1.7837
X4.9741Y-1.8837
X4.9741Y-1.9837
X4.9741Y-2.2437
X4.9741Y-2.3437
X4.9741Y-2.4437
X4.9741Y-2.7037
X4.9741Y-2.8037
X4.9741Y-2.9037
X4.9741Y-3.1637
X4.9741Y-3.2637
X4.9741Y-3.3637
X5.1169Y-3.3037
X5.5169Y-3.3037
X6.3969Y-1.6837
X6.4369Y-2.1837
X6.4369Y-2.5837
X6.6839Y-3.7437
X6.6839Y-3.8437
X6.6839Y-3.9437
X6.7969Y-1.6837
T5
X6.7586Y-2.7837
X6.7617Y-2.1037
X7.0539Y-2.7837
X7.0569Y-2.1037
T6
X6.4369Y-4.3637
X6.6369Y-4.3637
X6.8369Y-4.3637
X7.3369Y-1.5837
X7.3369Y-1.7837
X7.3369Y-3.7837
X7.3369Y-3.9837
X7.3369Y-4.1837
X7.3369Y-4.3837
X7.34Y-3.1948
X7.34Y-3.3948
T7
X2.9569Y-1.5237
X2.9569Y-4.4037
X5.7769Y-3.3237
T0
M30
